<?xml version="1.0" encoding="utf-8" standalone="no"?>
<!DOCTYPE svg PUBLIC "-//W3C//DTD SVG 1.1//EN"
  "http://www.w3.org/Graphics/SVG/1.1/DTD/svg11.dtd">
<svg xmlns:xlink="http://www.w3.org/1999/xlink" width="460.8pt" height="345.6pt" viewBox="0 0 460.8 345.6" xmlns="http://www.w3.org/2000/svg" version="1.1">
 <metadata>
  <rdf:RDF xmlns:dc="http://purl.org/dc/elements/1.1/" xmlns:cc="http://creativecommons.org/ns#" xmlns:rdf="http://www.w3.org/1999/02/22-rdf-syntax-ns#">
   <cc:Work>
    <dc:type rdf:resource="http://purl.org/dc/dcmitype/StillImage"/>
    <dc:date>2024-03-27T12:05:21.919540</dc:date>
    <dc:format>image/svg+xml</dc:format>
    <dc:creator>
     <cc:Agent>
      <dc:title>Matplotlib v3.8.3, https://matplotlib.org/</dc:title>
     </cc:Agent>
    </dc:creator>
   </cc:Work>
  </rdf:RDF>
 </metadata>
 <defs>
  <style type="text/css">*{stroke-linejoin: round; stroke-linecap: butt}</style>
 </defs>
 <g id="figure_1">
  <g id="patch_1">
   <path d="M 0 345.6 
L 460.8 345.6 
L 460.8 0 
L 0 0 
z
" style="fill: #ffffff"/>
  </g>
  <g id="axes_1">
   <g id="patch_2">
    <path d="M 57.6 307.584 
L 219.927273 307.584 
L 219.927273 41.472 
L 57.6 41.472 
z
" style="fill: #ffffff"/>
   </g>
   <g id="matplotlib.axis_1">
    <g id="xtick_1">
     <g id="line2d_1">
      <defs>
       <path id="medcabc510e" d="M 0 0 
L 0 3.5 
" style="stroke: #000000; stroke-width: 0.8"/>
      </defs>
      <g>
       <use xlink:href="#medcabc510e" x="64.978512" y="307.584" style="stroke: #000000; stroke-width: 0.8"/>
      </g>
     </g>
     <g id="text_1">
      <!-- 0.00 -->
      <g transform="translate(53.8457 322.182437) scale(0.1 -0.1)">
       <defs>
        <path id="DejaVuSans-30" d="M 2034 4250 
Q 1547 4250 1301 3770 
Q 1056 3291 1056 2328 
Q 1056 1369 1301 889 
Q 1547 409 2034 409 
Q 2525 409 2770 889 
Q 3016 1369 3016 2328 
Q 3016 3291 2770 3770 
Q 2525 4250 2034 4250 
z
M 2034 4750 
Q 2819 4750 3233 4129 
Q 3647 3509 3647 2328 
Q 3647 1150 3233 529 
Q 2819 -91 2034 -91 
Q 1250 -91 836 529 
Q 422 1150 422 2328 
Q 422 3509 836 4129 
Q 1250 4750 2034 4750 
z
" transform="scale(0.015625)"/>
        <path id="DejaVuSans-2e" d="M 684 794 
L 1344 794 
L 1344 0 
L 684 0 
L 684 794 
z
" transform="scale(0.015625)"/>
       </defs>
       <use xlink:href="#DejaVuSans-30"/>
       <use xlink:href="#DejaVuSans-2e" x="63.623047"/>
       <use xlink:href="#DejaVuSans-30" x="95.410156"/>
       <use xlink:href="#DejaVuSans-30" x="159.033203"/>
      </g>
     </g>
    </g>
    <g id="xtick_2">
     <g id="line2d_2">
      <g>
       <use xlink:href="#medcabc510e" x="101.871074" y="307.584" style="stroke: #000000; stroke-width: 0.8"/>
      </g>
     </g>
     <g id="text_2">
      <!-- 0.25 -->
      <g transform="translate(90.738262 322.182437) scale(0.1 -0.1)">
       <defs>
        <path id="DejaVuSans-32" d="M 1228 531 
L 3431 531 
L 3431 0 
L 469 0 
L 469 531 
Q 828 903 1448 1529 
Q 2069 2156 2228 2338 
Q 2531 2678 2651 2914 
Q 2772 3150 2772 3378 
Q 2772 3750 2511 3984 
Q 2250 4219 1831 4219 
Q 1534 4219 1204 4116 
Q 875 4013 500 3803 
L 500 4441 
Q 881 4594 1212 4672 
Q 1544 4750 1819 4750 
Q 2544 4750 2975 4387 
Q 3406 4025 3406 3419 
Q 3406 3131 3298 2873 
Q 3191 2616 2906 2266 
Q 2828 2175 2409 1742 
Q 1991 1309 1228 531 
z
" transform="scale(0.015625)"/>
        <path id="DejaVuSans-35" d="M 691 4666 
L 3169 4666 
L 3169 4134 
L 1269 4134 
L 1269 2991 
Q 1406 3038 1543 3061 
Q 1681 3084 1819 3084 
Q 2600 3084 3056 2656 
Q 3513 2228 3513 1497 
Q 3513 744 3044 326 
Q 2575 -91 1722 -91 
Q 1428 -91 1123 -41 
Q 819 9 494 109 
L 494 744 
Q 775 591 1075 516 
Q 1375 441 1709 441 
Q 2250 441 2565 725 
Q 2881 1009 2881 1497 
Q 2881 1984 2565 2268 
Q 2250 2553 1709 2553 
Q 1456 2553 1204 2497 
Q 953 2441 691 2322 
L 691 4666 
z
" transform="scale(0.015625)"/>
       </defs>
       <use xlink:href="#DejaVuSans-30"/>
       <use xlink:href="#DejaVuSans-2e" x="63.623047"/>
       <use xlink:href="#DejaVuSans-32" x="95.410156"/>
       <use xlink:href="#DejaVuSans-35" x="159.033203"/>
      </g>
     </g>
    </g>
    <g id="xtick_3">
     <g id="line2d_3">
      <g>
       <use xlink:href="#medcabc510e" x="138.763636" y="307.584" style="stroke: #000000; stroke-width: 0.8"/>
      </g>
     </g>
     <g id="text_3">
      <!-- 0.50 -->
      <g transform="translate(127.630824 322.182437) scale(0.1 -0.1)">
       <use xlink:href="#DejaVuSans-30"/>
       <use xlink:href="#DejaVuSans-2e" x="63.623047"/>
       <use xlink:href="#DejaVuSans-35" x="95.410156"/>
       <use xlink:href="#DejaVuSans-30" x="159.033203"/>
      </g>
     </g>
    </g>
    <g id="xtick_4">
     <g id="line2d_4">
      <g>
       <use xlink:href="#medcabc510e" x="175.656198" y="307.584" style="stroke: #000000; stroke-width: 0.8"/>
      </g>
     </g>
     <g id="text_4">
      <!-- 0.75 -->
      <g transform="translate(164.523386 322.182437) scale(0.1 -0.1)">
       <defs>
        <path id="DejaVuSans-37" d="M 525 4666 
L 3525 4666 
L 3525 4397 
L 1831 0 
L 1172 0 
L 2766 4134 
L 525 4134 
L 525 4666 
z
" transform="scale(0.015625)"/>
       </defs>
       <use xlink:href="#DejaVuSans-30"/>
       <use xlink:href="#DejaVuSans-2e" x="63.623047"/>
       <use xlink:href="#DejaVuSans-37" x="95.410156"/>
       <use xlink:href="#DejaVuSans-35" x="159.033203"/>
      </g>
     </g>
    </g>
    <g id="xtick_5">
     <g id="line2d_5">
      <g>
       <use xlink:href="#medcabc510e" x="212.54876" y="307.584" style="stroke: #000000; stroke-width: 0.8"/>
      </g>
     </g>
     <g id="text_5">
      <!-- 1.00 -->
      <g transform="translate(201.415948 322.182437) scale(0.1 -0.1)">
       <defs>
        <path id="DejaVuSans-31" d="M 794 531 
L 1825 531 
L 1825 4091 
L 703 3866 
L 703 4441 
L 1819 4666 
L 2450 4666 
L 2450 531 
L 3481 531 
L 3481 0 
L 794 0 
L 794 531 
z
" transform="scale(0.015625)"/>
       </defs>
       <use xlink:href="#DejaVuSans-31"/>
       <use xlink:href="#DejaVuSans-2e" x="63.623047"/>
       <use xlink:href="#DejaVuSans-30" x="95.410156"/>
       <use xlink:href="#DejaVuSans-30" x="159.033203"/>
      </g>
     </g>
    </g>
    <g id="text_6">
     <!-- Distance [m] -->
     <g transform="translate(106.540199 335.860562) scale(0.1 -0.1)">
      <defs>
       <path id="DejaVuSans-44" d="M 1259 4147 
L 1259 519 
L 2022 519 
Q 2988 519 3436 956 
Q 3884 1394 3884 2338 
Q 3884 3275 3436 3711 
Q 2988 4147 2022 4147 
L 1259 4147 
z
M 628 4666 
L 1925 4666 
Q 3281 4666 3915 4102 
Q 4550 3538 4550 2338 
Q 4550 1131 3912 565 
Q 3275 0 1925 0 
L 628 0 
L 628 4666 
z
" transform="scale(0.015625)"/>
       <path id="DejaVuSans-69" d="M 603 3500 
L 1178 3500 
L 1178 0 
L 603 0 
L 603 3500 
z
M 603 4863 
L 1178 4863 
L 1178 4134 
L 603 4134 
L 603 4863 
z
" transform="scale(0.015625)"/>
       <path id="DejaVuSans-73" d="M 2834 3397 
L 2834 2853 
Q 2591 2978 2328 3040 
Q 2066 3103 1784 3103 
Q 1356 3103 1142 2972 
Q 928 2841 928 2578 
Q 928 2378 1081 2264 
Q 1234 2150 1697 2047 
L 1894 2003 
Q 2506 1872 2764 1633 
Q 3022 1394 3022 966 
Q 3022 478 2636 193 
Q 2250 -91 1575 -91 
Q 1294 -91 989 -36 
Q 684 19 347 128 
L 347 722 
Q 666 556 975 473 
Q 1284 391 1588 391 
Q 1994 391 2212 530 
Q 2431 669 2431 922 
Q 2431 1156 2273 1281 
Q 2116 1406 1581 1522 
L 1381 1569 
Q 847 1681 609 1914 
Q 372 2147 372 2553 
Q 372 3047 722 3315 
Q 1072 3584 1716 3584 
Q 2034 3584 2315 3537 
Q 2597 3491 2834 3397 
z
" transform="scale(0.015625)"/>
       <path id="DejaVuSans-74" d="M 1172 4494 
L 1172 3500 
L 2356 3500 
L 2356 3053 
L 1172 3053 
L 1172 1153 
Q 1172 725 1289 603 
Q 1406 481 1766 481 
L 2356 481 
L 2356 0 
L 1766 0 
Q 1100 0 847 248 
Q 594 497 594 1153 
L 594 3053 
L 172 3053 
L 172 3500 
L 594 3500 
L 594 4494 
L 1172 4494 
z
" transform="scale(0.015625)"/>
       <path id="DejaVuSans-61" d="M 2194 1759 
Q 1497 1759 1228 1600 
Q 959 1441 959 1056 
Q 959 750 1161 570 
Q 1363 391 1709 391 
Q 2188 391 2477 730 
Q 2766 1069 2766 1631 
L 2766 1759 
L 2194 1759 
z
M 3341 1997 
L 3341 0 
L 2766 0 
L 2766 531 
Q 2569 213 2275 61 
Q 1981 -91 1556 -91 
Q 1019 -91 701 211 
Q 384 513 384 1019 
Q 384 1609 779 1909 
Q 1175 2209 1959 2209 
L 2766 2209 
L 2766 2266 
Q 2766 2663 2505 2880 
Q 2244 3097 1772 3097 
Q 1472 3097 1187 3025 
Q 903 2953 641 2809 
L 641 3341 
Q 956 3463 1253 3523 
Q 1550 3584 1831 3584 
Q 2591 3584 2966 3190 
Q 3341 2797 3341 1997 
z
" transform="scale(0.015625)"/>
       <path id="DejaVuSans-6e" d="M 3513 2113 
L 3513 0 
L 2938 0 
L 2938 2094 
Q 2938 2591 2744 2837 
Q 2550 3084 2163 3084 
Q 1697 3084 1428 2787 
Q 1159 2491 1159 1978 
L 1159 0 
L 581 0 
L 581 3500 
L 1159 3500 
L 1159 2956 
Q 1366 3272 1645 3428 
Q 1925 3584 2291 3584 
Q 2894 3584 3203 3211 
Q 3513 2838 3513 2113 
z
" transform="scale(0.015625)"/>
       <path id="DejaVuSans-63" d="M 3122 3366 
L 3122 2828 
Q 2878 2963 2633 3030 
Q 2388 3097 2138 3097 
Q 1578 3097 1268 2742 
Q 959 2388 959 1747 
Q 959 1106 1268 751 
Q 1578 397 2138 397 
Q 2388 397 2633 464 
Q 2878 531 3122 666 
L 3122 134 
Q 2881 22 2623 -34 
Q 2366 -91 2075 -91 
Q 1284 -91 818 406 
Q 353 903 353 1747 
Q 353 2603 823 3093 
Q 1294 3584 2113 3584 
Q 2378 3584 2631 3529 
Q 2884 3475 3122 3366 
z
" transform="scale(0.015625)"/>
       <path id="DejaVuSans-65" d="M 3597 1894 
L 3597 1613 
L 953 1613 
Q 991 1019 1311 708 
Q 1631 397 2203 397 
Q 2534 397 2845 478 
Q 3156 559 3463 722 
L 3463 178 
Q 3153 47 2828 -22 
Q 2503 -91 2169 -91 
Q 1331 -91 842 396 
Q 353 884 353 1716 
Q 353 2575 817 3079 
Q 1281 3584 2069 3584 
Q 2775 3584 3186 3129 
Q 3597 2675 3597 1894 
z
M 3022 2063 
Q 3016 2534 2758 2815 
Q 2500 3097 2075 3097 
Q 1594 3097 1305 2825 
Q 1016 2553 972 2059 
L 3022 2063 
z
" transform="scale(0.015625)"/>
       <path id="DejaVuSans-20" transform="scale(0.015625)"/>
       <path id="DejaVuSans-5b" d="M 550 4863 
L 1875 4863 
L 1875 4416 
L 1125 4416 
L 1125 -397 
L 1875 -397 
L 1875 -844 
L 550 -844 
L 550 4863 
z
" transform="scale(0.015625)"/>
       <path id="DejaVuSans-6d" d="M 3328 2828 
Q 3544 3216 3844 3400 
Q 4144 3584 4550 3584 
Q 5097 3584 5394 3201 
Q 5691 2819 5691 2113 
L 5691 0 
L 5113 0 
L 5113 2094 
Q 5113 2597 4934 2840 
Q 4756 3084 4391 3084 
Q 3944 3084 3684 2787 
Q 3425 2491 3425 1978 
L 3425 0 
L 2847 0 
L 2847 2094 
Q 2847 2600 2669 2842 
Q 2491 3084 2119 3084 
Q 1678 3084 1418 2786 
Q 1159 2488 1159 1978 
L 1159 0 
L 581 0 
L 581 3500 
L 1159 3500 
L 1159 2956 
Q 1356 3278 1631 3431 
Q 1906 3584 2284 3584 
Q 2666 3584 2933 3390 
Q 3200 3197 3328 2828 
z
" transform="scale(0.015625)"/>
       <path id="DejaVuSans-5d" d="M 1947 4863 
L 1947 -844 
L 622 -844 
L 622 -397 
L 1369 -397 
L 1369 4416 
L 622 4416 
L 622 4863 
L 1947 4863 
z
" transform="scale(0.015625)"/>
      </defs>
      <use xlink:href="#DejaVuSans-44"/>
      <use xlink:href="#DejaVuSans-69" x="77.001953"/>
      <use xlink:href="#DejaVuSans-73" x="104.785156"/>
      <use xlink:href="#DejaVuSans-74" x="156.884766"/>
      <use xlink:href="#DejaVuSans-61" x="196.09375"/>
      <use xlink:href="#DejaVuSans-6e" x="257.373047"/>
      <use xlink:href="#DejaVuSans-63" x="320.751953"/>
      <use xlink:href="#DejaVuSans-65" x="375.732422"/>
      <use xlink:href="#DejaVuSans-20" x="437.255859"/>
      <use xlink:href="#DejaVuSans-5b" x="469.042969"/>
      <use xlink:href="#DejaVuSans-6d" x="508.056641"/>
      <use xlink:href="#DejaVuSans-5d" x="605.46875"/>
     </g>
    </g>
   </g>
   <g id="matplotlib.axis_2">
    <g id="ytick_1">
     <g id="line2d_6">
      <defs>
       <path id="mcf674df381" d="M 0 0 
L -3.5 0 
" style="stroke: #000000; stroke-width: 0.8"/>
      </defs>
      <g>
       <use xlink:href="#mcf674df381" x="57.6" y="295.488916" style="stroke: #000000; stroke-width: 0.8"/>
      </g>
     </g>
     <g id="text_7">
      <!-- 20 -->
      <g transform="translate(37.875 299.288135) scale(0.1 -0.1)">
       <use xlink:href="#DejaVuSans-32"/>
       <use xlink:href="#DejaVuSans-30" x="63.623047"/>
      </g>
     </g>
    </g>
    <g id="ytick_2">
     <g id="line2d_7">
      <g>
       <use xlink:href="#mcf674df381" x="57.6" y="265.248802" style="stroke: #000000; stroke-width: 0.8"/>
      </g>
     </g>
     <g id="text_8">
      <!-- 30 -->
      <g transform="translate(37.875 269.048021) scale(0.1 -0.1)">
       <defs>
        <path id="DejaVuSans-33" d="M 2597 2516 
Q 3050 2419 3304 2112 
Q 3559 1806 3559 1356 
Q 3559 666 3084 287 
Q 2609 -91 1734 -91 
Q 1441 -91 1130 -33 
Q 819 25 488 141 
L 488 750 
Q 750 597 1062 519 
Q 1375 441 1716 441 
Q 2309 441 2620 675 
Q 2931 909 2931 1356 
Q 2931 1769 2642 2001 
Q 2353 2234 1838 2234 
L 1294 2234 
L 1294 2753 
L 1863 2753 
Q 2328 2753 2575 2939 
Q 2822 3125 2822 3475 
Q 2822 3834 2567 4026 
Q 2313 4219 1838 4219 
Q 1578 4219 1281 4162 
Q 984 4106 628 3988 
L 628 4550 
Q 988 4650 1302 4700 
Q 1616 4750 1894 4750 
Q 2613 4750 3031 4423 
Q 3450 4097 3450 3541 
Q 3450 3153 3228 2886 
Q 3006 2619 2597 2516 
z
" transform="scale(0.015625)"/>
       </defs>
       <use xlink:href="#DejaVuSans-33"/>
       <use xlink:href="#DejaVuSans-30" x="63.623047"/>
      </g>
     </g>
    </g>
    <g id="ytick_3">
     <g id="line2d_8">
      <g>
       <use xlink:href="#mcf674df381" x="57.6" y="235.008687" style="stroke: #000000; stroke-width: 0.8"/>
      </g>
     </g>
     <g id="text_9">
      <!-- 40 -->
      <g transform="translate(37.875 238.807906) scale(0.1 -0.1)">
       <defs>
        <path id="DejaVuSans-34" d="M 2419 4116 
L 825 1625 
L 2419 1625 
L 2419 4116 
z
M 2253 4666 
L 3047 4666 
L 3047 1625 
L 3713 1625 
L 3713 1100 
L 3047 1100 
L 3047 0 
L 2419 0 
L 2419 1100 
L 313 1100 
L 313 1709 
L 2253 4666 
z
" transform="scale(0.015625)"/>
       </defs>
       <use xlink:href="#DejaVuSans-34"/>
       <use xlink:href="#DejaVuSans-30" x="63.623047"/>
      </g>
     </g>
    </g>
    <g id="ytick_4">
     <g id="line2d_9">
      <g>
       <use xlink:href="#mcf674df381" x="57.6" y="204.768573" style="stroke: #000000; stroke-width: 0.8"/>
      </g>
     </g>
     <g id="text_10">
      <!-- 50 -->
      <g transform="translate(37.875 208.567791) scale(0.1 -0.1)">
       <use xlink:href="#DejaVuSans-35"/>
       <use xlink:href="#DejaVuSans-30" x="63.623047"/>
      </g>
     </g>
    </g>
    <g id="ytick_5">
     <g id="line2d_10">
      <g>
       <use xlink:href="#mcf674df381" x="57.6" y="174.528458" style="stroke: #000000; stroke-width: 0.8"/>
      </g>
     </g>
     <g id="text_11">
      <!-- 60 -->
      <g transform="translate(37.875 178.327677) scale(0.1 -0.1)">
       <defs>
        <path id="DejaVuSans-36" d="M 2113 2584 
Q 1688 2584 1439 2293 
Q 1191 2003 1191 1497 
Q 1191 994 1439 701 
Q 1688 409 2113 409 
Q 2538 409 2786 701 
Q 3034 994 3034 1497 
Q 3034 2003 2786 2293 
Q 2538 2584 2113 2584 
z
M 3366 4563 
L 3366 3988 
Q 3128 4100 2886 4159 
Q 2644 4219 2406 4219 
Q 1781 4219 1451 3797 
Q 1122 3375 1075 2522 
Q 1259 2794 1537 2939 
Q 1816 3084 2150 3084 
Q 2853 3084 3261 2657 
Q 3669 2231 3669 1497 
Q 3669 778 3244 343 
Q 2819 -91 2113 -91 
Q 1303 -91 875 529 
Q 447 1150 447 2328 
Q 447 3434 972 4092 
Q 1497 4750 2381 4750 
Q 2619 4750 2861 4703 
Q 3103 4656 3366 4563 
z
" transform="scale(0.015625)"/>
       </defs>
       <use xlink:href="#DejaVuSans-36"/>
       <use xlink:href="#DejaVuSans-30" x="63.623047"/>
      </g>
     </g>
    </g>
    <g id="ytick_6">
     <g id="line2d_11">
      <g>
       <use xlink:href="#mcf674df381" x="57.6" y="144.288344" style="stroke: #000000; stroke-width: 0.8"/>
      </g>
     </g>
     <g id="text_12">
      <!-- 70 -->
      <g transform="translate(37.875 148.087562) scale(0.1 -0.1)">
       <use xlink:href="#DejaVuSans-37"/>
       <use xlink:href="#DejaVuSans-30" x="63.623047"/>
      </g>
     </g>
    </g>
    <g id="ytick_7">
     <g id="line2d_12">
      <g>
       <use xlink:href="#mcf674df381" x="57.6" y="114.048229" style="stroke: #000000; stroke-width: 0.8"/>
      </g>
     </g>
     <g id="text_13">
      <!-- 80 -->
      <g transform="translate(37.875 117.847448) scale(0.1 -0.1)">
       <defs>
        <path id="DejaVuSans-38" d="M 2034 2216 
Q 1584 2216 1326 1975 
Q 1069 1734 1069 1313 
Q 1069 891 1326 650 
Q 1584 409 2034 409 
Q 2484 409 2743 651 
Q 3003 894 3003 1313 
Q 3003 1734 2745 1975 
Q 2488 2216 2034 2216 
z
M 1403 2484 
Q 997 2584 770 2862 
Q 544 3141 544 3541 
Q 544 4100 942 4425 
Q 1341 4750 2034 4750 
Q 2731 4750 3128 4425 
Q 3525 4100 3525 3541 
Q 3525 3141 3298 2862 
Q 3072 2584 2669 2484 
Q 3125 2378 3379 2068 
Q 3634 1759 3634 1313 
Q 3634 634 3220 271 
Q 2806 -91 2034 -91 
Q 1263 -91 848 271 
Q 434 634 434 1313 
Q 434 1759 690 2068 
Q 947 2378 1403 2484 
z
M 1172 3481 
Q 1172 3119 1398 2916 
Q 1625 2713 2034 2713 
Q 2441 2713 2670 2916 
Q 2900 3119 2900 3481 
Q 2900 3844 2670 4047 
Q 2441 4250 2034 4250 
Q 1625 4250 1398 4047 
Q 1172 3844 1172 3481 
z
" transform="scale(0.015625)"/>
       </defs>
       <use xlink:href="#DejaVuSans-38"/>
       <use xlink:href="#DejaVuSans-30" x="63.623047"/>
      </g>
     </g>
    </g>
    <g id="ytick_8">
     <g id="line2d_13">
      <g>
       <use xlink:href="#mcf674df381" x="57.6" y="83.808115" style="stroke: #000000; stroke-width: 0.8"/>
      </g>
     </g>
     <g id="text_14">
      <!-- 90 -->
      <g transform="translate(37.875 87.607333) scale(0.1 -0.1)">
       <defs>
        <path id="DejaVuSans-39" d="M 703 97 
L 703 672 
Q 941 559 1184 500 
Q 1428 441 1663 441 
Q 2288 441 2617 861 
Q 2947 1281 2994 2138 
Q 2813 1869 2534 1725 
Q 2256 1581 1919 1581 
Q 1219 1581 811 2004 
Q 403 2428 403 3163 
Q 403 3881 828 4315 
Q 1253 4750 1959 4750 
Q 2769 4750 3195 4129 
Q 3622 3509 3622 2328 
Q 3622 1225 3098 567 
Q 2575 -91 1691 -91 
Q 1453 -91 1209 -44 
Q 966 3 703 97 
z
M 1959 2075 
Q 2384 2075 2632 2365 
Q 2881 2656 2881 3163 
Q 2881 3666 2632 3958 
Q 2384 4250 1959 4250 
Q 1534 4250 1286 3958 
Q 1038 3666 1038 3163 
Q 1038 2656 1286 2365 
Q 1534 2075 1959 2075 
z
" transform="scale(0.015625)"/>
       </defs>
       <use xlink:href="#DejaVuSans-39"/>
       <use xlink:href="#DejaVuSans-30" x="63.623047"/>
      </g>
     </g>
    </g>
    <g id="ytick_9">
     <g id="line2d_14">
      <g>
       <use xlink:href="#mcf674df381" x="57.6" y="53.568" style="stroke: #000000; stroke-width: 0.8"/>
      </g>
     </g>
     <g id="text_15">
      <!-- 100 -->
      <g transform="translate(31.5125 57.367219) scale(0.1 -0.1)">
       <use xlink:href="#DejaVuSans-31"/>
       <use xlink:href="#DejaVuSans-30" x="63.623047"/>
       <use xlink:href="#DejaVuSans-30" x="127.246094"/>
      </g>
     </g>
    </g>
    <g id="text_16">
     <!-- Temperature [ºC] -->
     <g transform="translate(25.432812 217.535812) rotate(-90) scale(0.1 -0.1)">
      <defs>
       <path id="DejaVuSans-54" d="M -19 4666 
L 3928 4666 
L 3928 4134 
L 2272 4134 
L 2272 0 
L 1638 0 
L 1638 4134 
L -19 4134 
L -19 4666 
z
" transform="scale(0.015625)"/>
       <path id="DejaVuSans-70" d="M 1159 525 
L 1159 -1331 
L 581 -1331 
L 581 3500 
L 1159 3500 
L 1159 2969 
Q 1341 3281 1617 3432 
Q 1894 3584 2278 3584 
Q 2916 3584 3314 3078 
Q 3713 2572 3713 1747 
Q 3713 922 3314 415 
Q 2916 -91 2278 -91 
Q 1894 -91 1617 61 
Q 1341 213 1159 525 
z
M 3116 1747 
Q 3116 2381 2855 2742 
Q 2594 3103 2138 3103 
Q 1681 3103 1420 2742 
Q 1159 2381 1159 1747 
Q 1159 1113 1420 752 
Q 1681 391 2138 391 
Q 2594 391 2855 752 
Q 3116 1113 3116 1747 
z
" transform="scale(0.015625)"/>
       <path id="DejaVuSans-72" d="M 2631 2963 
Q 2534 3019 2420 3045 
Q 2306 3072 2169 3072 
Q 1681 3072 1420 2755 
Q 1159 2438 1159 1844 
L 1159 0 
L 581 0 
L 581 3500 
L 1159 3500 
L 1159 2956 
Q 1341 3275 1631 3429 
Q 1922 3584 2338 3584 
Q 2397 3584 2469 3576 
Q 2541 3569 2628 3553 
L 2631 2963 
z
" transform="scale(0.015625)"/>
       <path id="DejaVuSans-75" d="M 544 1381 
L 544 3500 
L 1119 3500 
L 1119 1403 
Q 1119 906 1312 657 
Q 1506 409 1894 409 
Q 2359 409 2629 706 
Q 2900 1003 2900 1516 
L 2900 3500 
L 3475 3500 
L 3475 0 
L 2900 0 
L 2900 538 
Q 2691 219 2414 64 
Q 2138 -91 1772 -91 
Q 1169 -91 856 284 
Q 544 659 544 1381 
z
M 1991 3584 
L 1991 3584 
z
" transform="scale(0.015625)"/>
       <path id="DejaVuSans-ba" d="M 434 1850 
L 2584 1850 
L 2584 1466 
L 434 1466 
L 434 1850 
z
M 1509 4750 
Q 2069 4750 2391 4404 
Q 2713 4059 2713 3463 
Q 2713 2866 2391 2523 
Q 2069 2181 1509 2181 
Q 950 2181 625 2525 
Q 300 2869 300 3463 
Q 300 4059 625 4404 
Q 950 4750 1509 4750 
z
M 1509 4391 
Q 1181 4391 984 4139 
Q 788 3888 788 3463 
Q 788 3047 986 2797 
Q 1184 2547 1509 2547 
Q 1838 2547 2033 2797 
Q 2228 3047 2228 3463 
Q 2228 3891 2034 4141 
Q 1841 4391 1509 4391 
z
" transform="scale(0.015625)"/>
       <path id="DejaVuSans-43" d="M 4122 4306 
L 4122 3641 
Q 3803 3938 3442 4084 
Q 3081 4231 2675 4231 
Q 1875 4231 1450 3742 
Q 1025 3253 1025 2328 
Q 1025 1406 1450 917 
Q 1875 428 2675 428 
Q 3081 428 3442 575 
Q 3803 722 4122 1019 
L 4122 359 
Q 3791 134 3420 21 
Q 3050 -91 2638 -91 
Q 1578 -91 968 557 
Q 359 1206 359 2328 
Q 359 3453 968 4101 
Q 1578 4750 2638 4750 
Q 3056 4750 3426 4639 
Q 3797 4528 4122 4306 
z
" transform="scale(0.015625)"/>
      </defs>
      <use xlink:href="#DejaVuSans-54"/>
      <use xlink:href="#DejaVuSans-65" x="44.083984"/>
      <use xlink:href="#DejaVuSans-6d" x="105.607422"/>
      <use xlink:href="#DejaVuSans-70" x="203.019531"/>
      <use xlink:href="#DejaVuSans-65" x="266.496094"/>
      <use xlink:href="#DejaVuSans-72" x="328.019531"/>
      <use xlink:href="#DejaVuSans-61" x="369.132812"/>
      <use xlink:href="#DejaVuSans-74" x="430.412109"/>
      <use xlink:href="#DejaVuSans-75" x="469.621094"/>
      <use xlink:href="#DejaVuSans-72" x="533"/>
      <use xlink:href="#DejaVuSans-65" x="571.863281"/>
      <use xlink:href="#DejaVuSans-20" x="633.386719"/>
      <use xlink:href="#DejaVuSans-5b" x="665.173828"/>
      <use xlink:href="#DejaVuSans-ba" x="704.1875"/>
      <use xlink:href="#DejaVuSans-43" x="751.306641"/>
      <use xlink:href="#DejaVuSans-5d" x="821.130859"/>
     </g>
    </g>
   </g>
   <g id="line2d_15">
    <path d="M 64.978512 53.568 
L 66.469121 82.228861 
L 67.95973 107.494212 
L 69.450338 129.766325 
L 70.940947 149.399816 
L 72.431555 166.707288 
L 73.922164 181.964308 
L 75.412772 195.413798 
L 76.903381 207.2699 
L 78.393989 217.721386 
L 79.884598 226.934662 
L 81.375207 235.056424 
L 82.865815 242.215984 
L 84.356424 248.527336 
L 85.847032 254.090969 
L 87.337641 258.995468 
L 88.828249 263.318921 
L 90.318858 267.130165 
L 91.809467 270.489884 
L 93.300075 273.45157 
L 94.790684 276.062379 
L 96.281292 278.36388 
L 97.771901 280.392718 
L 99.262509 282.181195 
L 100.753118 283.757788 
L 102.243727 285.147598 
L 103.734335 286.372755 
L 105.224944 287.452765 
L 106.715552 288.404824 
L 108.206161 289.244091 
L 109.696769 289.983928 
L 111.187378 290.636115 
L 112.677986 291.211036 
L 114.168595 291.717845 
L 115.659204 292.164612 
L 117.149812 292.558449 
L 118.640421 292.905627 
L 120.131029 293.211675 
L 121.621638 293.481464 
L 123.112246 293.719291 
L 124.602855 293.928942 
L 126.093464 294.113755 
L 127.584072 294.276673 
L 129.074681 294.42029 
L 130.565289 294.546892 
L 132.055898 294.658495 
L 133.546506 294.756877 
L 135.037115 294.843603 
L 136.527724 294.920054 
L 138.018332 294.987448 
L 139.508941 295.046857 
L 140.999549 295.099228 
L 142.490158 295.145395 
L 143.980766 295.186092 
L 145.471375 295.221968 
L 146.961983 295.253593 
L 148.452592 295.281471 
L 149.943201 295.306047 
L 151.433809 295.32771 
L 152.924418 295.346807 
L 154.415026 295.363642 
L 155.905635 295.378482 
L 157.396243 295.391563 
L 158.886852 295.403095 
L 160.377461 295.41326 
L 161.868069 295.42222 
L 163.358678 295.430118 
L 164.849286 295.437081 
L 166.339895 295.443218 
L 167.830503 295.448627 
L 169.321112 295.453395 
L 170.811721 295.457597 
L 172.302329 295.461301 
L 173.792938 295.464565 
L 175.283546 295.467441 
L 176.774155 295.469975 
L 178.264763 295.472208 
L 179.755372 295.474175 
L 181.24598 295.475907 
L 182.736589 295.477432 
L 184.227198 295.478774 
L 185.717806 295.479954 
L 187.208415 295.480992 
L 188.699023 295.481904 
L 190.189632 295.482704 
L 191.68024 295.483405 
L 193.170849 295.484018 
L 194.661458 295.484553 
L 196.152066 295.485019 
L 197.642675 295.485423 
L 199.133283 295.485771 
L 200.623892 295.486069 
L 202.1145 295.486322 
L 203.605109 295.486534 
L 205.095718 295.486707 
L 206.586326 295.486846 
L 208.076935 295.486951 
L 209.567543 295.487025 
L 211.058152 295.487069 
L 212.54876 295.487084 
" clip-path="url(#pbc0464ee44)" style="fill: none; stroke: #1f77b4; stroke-width: 1.5; stroke-linecap: square"/>
   </g>
   <g id="line2d_16">
    <path d="M 64.978512 53.568 
L 66.469121 82.228861 
L 67.95973 107.494212 
L 69.450338 129.766325 
L 70.940947 149.399816 
L 72.431555 166.707288 
L 73.922164 181.964308 
L 75.412772 195.413798 
L 76.903381 207.2699 
L 78.393989 217.721386 
L 79.884598 226.934662 
L 81.375207 235.056424 
L 82.865815 242.215984 
L 84.356424 248.527336 
L 85.847032 254.090969 
L 87.337641 258.995468 
L 88.828249 263.318921 
L 90.318858 267.130165 
L 91.809467 270.489884 
L 93.300075 273.45157 
L 94.790684 276.062379 
L 96.281292 278.36388 
L 97.771901 280.392718 
L 99.262509 282.181195 
L 100.753118 283.757788 
L 102.243727 285.147598 
L 103.734335 286.372755 
L 105.224944 287.452765 
L 106.715552 288.404824 
L 108.206161 289.244091 
L 109.696769 289.983928 
L 111.187378 290.636115 
L 112.677986 291.211036 
L 114.168595 291.717845 
L 115.659204 292.164612 
L 117.149812 292.558449 
L 118.640421 292.905627 
L 120.131029 293.211675 
L 121.621638 293.481464 
L 123.112246 293.719291 
L 124.602855 293.928942 
L 126.093464 294.113755 
L 127.584072 294.276673 
L 129.074681 294.42029 
L 130.565289 294.546892 
L 132.055898 294.658495 
L 133.546506 294.756877 
L 135.037115 294.843603 
L 136.527724 294.920054 
L 138.018332 294.987448 
L 139.508941 295.046857 
L 140.999549 295.099228 
L 142.490158 295.145395 
L 143.980766 295.186092 
L 145.471375 295.221968 
L 146.961983 295.253593 
L 148.452592 295.281471 
L 149.943201 295.306047 
L 151.433809 295.32771 
L 152.924418 295.346807 
L 154.415026 295.363642 
L 155.905635 295.378482 
L 157.396243 295.391563 
L 158.886852 295.403095 
L 160.377461 295.41326 
L 161.868069 295.42222 
L 163.358678 295.430119 
L 164.849286 295.437081 
L 166.339895 295.443218 
L 167.830503 295.448627 
L 169.321112 295.453395 
L 170.811721 295.457598 
L 172.302329 295.461301 
L 173.792938 295.464565 
L 175.283546 295.467442 
L 176.774155 295.469976 
L 178.264763 295.472209 
L 179.755372 295.474175 
L 181.24598 295.475908 
L 182.736589 295.477432 
L 184.227198 295.478775 
L 185.717806 295.479955 
L 187.208415 295.480993 
L 188.699023 295.481905 
L 190.189632 295.482705 
L 191.68024 295.483406 
L 193.170849 295.48402 
L 194.661458 295.484555 
L 196.152066 295.485022 
L 197.642675 295.485426 
L 199.133283 295.485774 
L 200.623892 295.486073 
L 202.1145 295.486326 
L 203.605109 295.486538 
L 205.095718 295.486712 
L 206.586326 295.486851 
L 208.076935 295.486957 
L 209.567543 295.487032 
L 211.058152 295.487077 
L 212.54876 295.487093 
" clip-path="url(#pbc0464ee44)" style="fill: none; stroke: #ff7f0e; stroke-width: 1.5; stroke-linecap: square"/>
   </g>
   <g id="line2d_17">
    <path d="M 64.978512 53.568 
L 66.469121 82.228861 
L 67.95973 107.494212 
L 69.450338 129.766325 
L 70.940947 149.399816 
L 72.431555 166.707288 
L 73.922164 181.964308 
L 75.412772 195.413798 
L 76.903381 207.2699 
L 78.393989 217.721386 
L 79.884598 226.934662 
L 81.375207 235.056424 
L 82.865815 242.215984 
L 84.356424 248.527336 
L 85.847032 254.090969 
L 87.337641 258.995468 
L 88.828249 263.318921 
L 90.318858 267.130165 
L 91.809467 270.489884 
L 93.300075 273.45157 
L 94.790684 276.062379 
L 96.281292 278.36388 
L 97.771901 280.392718 
L 99.262509 282.181195 
L 100.753118 283.757788 
L 102.243727 285.147598 
L 103.734335 286.372755 
L 105.224944 287.452765 
L 106.715552 288.404824 
L 108.206161 289.244091 
L 109.696769 289.983928 
L 111.187378 290.636115 
L 112.677986 291.211036 
L 114.168595 291.717846 
L 115.659204 292.164612 
L 117.149812 292.558449 
L 118.640421 292.905627 
L 120.131029 293.211675 
L 121.621638 293.481464 
L 123.112246 293.719291 
L 124.602855 293.928942 
L 126.093464 294.113756 
L 127.584072 294.276674 
L 129.074681 294.42029 
L 130.565289 294.546893 
L 132.055898 294.658496 
L 133.546506 294.756878 
L 135.037115 294.843604 
L 136.527724 294.920055 
L 138.018332 294.987449 
L 139.508941 295.046859 
L 140.999549 295.099231 
L 142.490158 295.145397 
L 143.980766 295.186095 
L 145.471375 295.221971 
L 146.961983 295.253596 
L 148.452592 295.281475 
L 149.943201 295.306051 
L 151.433809 295.327716 
L 152.924418 295.346813 
L 154.415026 295.363649 
L 155.905635 295.378489 
L 157.396243 295.391572 
L 158.886852 295.403104 
L 160.377461 295.413271 
L 161.868069 295.422233 
L 163.358678 295.430133 
L 164.849286 295.437097 
L 166.339895 295.443236 
L 167.830503 295.448648 
L 169.321112 295.453419 
L 170.811721 295.457624 
L 172.302329 295.461331 
L 173.792938 295.464599 
L 175.283546 295.46748 
L 176.774155 295.47002 
L 178.264763 295.472259 
L 179.755372 295.474232 
L 181.24598 295.475972 
L 182.736589 295.477505 
L 184.227198 295.478857 
L 185.717806 295.480049 
L 187.208415 295.481099 
L 188.699023 295.482026 
L 190.189632 295.482842 
L 191.68024 295.483562 
L 193.170849 295.484196 
L 194.661458 295.484755 
L 196.152066 295.485248 
L 197.642675 295.485683 
L 199.133283 295.486066 
L 200.623892 295.486404 
L 202.1145 295.486701 
L 203.605109 295.486964 
L 205.095718 295.487195 
L 206.586326 295.487399 
L 208.076935 295.487579 
L 209.567543 295.487737 
L 211.058152 295.487877 
L 212.54876 295.488 
" clip-path="url(#pbc0464ee44)" style="fill: none; stroke: #2ca02c; stroke-width: 1.5; stroke-linecap: square"/>
   </g>
   <g id="patch_3">
    <path d="M 57.6 307.584 
L 57.6 41.472 
" style="fill: none; stroke: #000000; stroke-width: 0.8; stroke-linejoin: miter; stroke-linecap: square"/>
   </g>
   <g id="patch_4">
    <path d="M 219.927273 307.584 
L 219.927273 41.472 
" style="fill: none; stroke: #000000; stroke-width: 0.8; stroke-linejoin: miter; stroke-linecap: square"/>
   </g>
   <g id="patch_5">
    <path d="M 57.6 307.584 
L 219.927273 307.584 
" style="fill: none; stroke: #000000; stroke-width: 0.8; stroke-linejoin: miter; stroke-linecap: square"/>
   </g>
   <g id="patch_6">
    <path d="M 57.6 41.472 
L 219.927273 41.472 
" style="fill: none; stroke: #000000; stroke-width: 0.8; stroke-linejoin: miter; stroke-linecap: square"/>
   </g>
   <g id="text_17">
    <!-- L = 1 [m] -->
    <g transform="translate(110.328324 35.472) scale(0.12 -0.12)">
     <defs>
      <path id="DejaVuSans-4c" d="M 628 4666 
L 1259 4666 
L 1259 531 
L 3531 531 
L 3531 0 
L 628 0 
L 628 4666 
z
" transform="scale(0.015625)"/>
      <path id="DejaVuSans-3d" d="M 678 2906 
L 4684 2906 
L 4684 2381 
L 678 2381 
L 678 2906 
z
M 678 1631 
L 4684 1631 
L 4684 1100 
L 678 1100 
L 678 1631 
z
" transform="scale(0.015625)"/>
     </defs>
     <use xlink:href="#DejaVuSans-4c"/>
     <use xlink:href="#DejaVuSans-20" x="55.712891"/>
     <use xlink:href="#DejaVuSans-3d" x="87.5"/>
     <use xlink:href="#DejaVuSans-20" x="171.289062"/>
     <use xlink:href="#DejaVuSans-31" x="203.076172"/>
     <use xlink:href="#DejaVuSans-20" x="266.699219"/>
     <use xlink:href="#DejaVuSans-5b" x="298.486328"/>
     <use xlink:href="#DejaVuSans-6d" x="337.5"/>
     <use xlink:href="#DejaVuSans-5d" x="434.912109"/>
    </g>
   </g>
   <g id="legend_1">
    <g id="patch_7">
     <path d="M 66.455398 93.506375 
L 212.927273 93.506375 
Q 214.927273 93.506375 214.927273 91.506375 
L 214.927273 48.472 
Q 214.927273 46.472 212.927273 46.472 
L 66.455398 46.472 
Q 64.455398 46.472 64.455398 48.472 
L 64.455398 91.506375 
Q 64.455398 93.506375 66.455398 93.506375 
z
" style="fill: #ffffff; opacity: 0.8; stroke: #cccccc; stroke-linejoin: miter"/>
    </g>
    <g id="line2d_18">
     <path d="M 68.455398 54.570438 
L 78.455398 54.570438 
L 88.455398 54.570438 
" style="fill: none; stroke: #1f77b4; stroke-width: 1.5; stroke-linecap: square"/>
    </g>
    <g id="text_18">
     <!-- Adiabatic Hypothesis -->
     <g transform="translate(96.455398 58.070438) scale(0.1 -0.1)">
      <defs>
       <path id="DejaVuSans-41" d="M 2188 4044 
L 1331 1722 
L 3047 1722 
L 2188 4044 
z
M 1831 4666 
L 2547 4666 
L 4325 0 
L 3669 0 
L 3244 1197 
L 1141 1197 
L 716 0 
L 50 0 
L 1831 4666 
z
" transform="scale(0.015625)"/>
       <path id="DejaVuSans-64" d="M 2906 2969 
L 2906 4863 
L 3481 4863 
L 3481 0 
L 2906 0 
L 2906 525 
Q 2725 213 2448 61 
Q 2172 -91 1784 -91 
Q 1150 -91 751 415 
Q 353 922 353 1747 
Q 353 2572 751 3078 
Q 1150 3584 1784 3584 
Q 2172 3584 2448 3432 
Q 2725 3281 2906 2969 
z
M 947 1747 
Q 947 1113 1208 752 
Q 1469 391 1925 391 
Q 2381 391 2643 752 
Q 2906 1113 2906 1747 
Q 2906 2381 2643 2742 
Q 2381 3103 1925 3103 
Q 1469 3103 1208 2742 
Q 947 2381 947 1747 
z
" transform="scale(0.015625)"/>
       <path id="DejaVuSans-62" d="M 3116 1747 
Q 3116 2381 2855 2742 
Q 2594 3103 2138 3103 
Q 1681 3103 1420 2742 
Q 1159 2381 1159 1747 
Q 1159 1113 1420 752 
Q 1681 391 2138 391 
Q 2594 391 2855 752 
Q 3116 1113 3116 1747 
z
M 1159 2969 
Q 1341 3281 1617 3432 
Q 1894 3584 2278 3584 
Q 2916 3584 3314 3078 
Q 3713 2572 3713 1747 
Q 3713 922 3314 415 
Q 2916 -91 2278 -91 
Q 1894 -91 1617 61 
Q 1341 213 1159 525 
L 1159 0 
L 581 0 
L 581 4863 
L 1159 4863 
L 1159 2969 
z
" transform="scale(0.015625)"/>
       <path id="DejaVuSans-48" d="M 628 4666 
L 1259 4666 
L 1259 2753 
L 3553 2753 
L 3553 4666 
L 4184 4666 
L 4184 0 
L 3553 0 
L 3553 2222 
L 1259 2222 
L 1259 0 
L 628 0 
L 628 4666 
z
" transform="scale(0.015625)"/>
       <path id="DejaVuSans-79" d="M 2059 -325 
Q 1816 -950 1584 -1140 
Q 1353 -1331 966 -1331 
L 506 -1331 
L 506 -850 
L 844 -850 
Q 1081 -850 1212 -737 
Q 1344 -625 1503 -206 
L 1606 56 
L 191 3500 
L 800 3500 
L 1894 763 
L 2988 3500 
L 3597 3500 
L 2059 -325 
z
" transform="scale(0.015625)"/>
       <path id="DejaVuSans-6f" d="M 1959 3097 
Q 1497 3097 1228 2736 
Q 959 2375 959 1747 
Q 959 1119 1226 758 
Q 1494 397 1959 397 
Q 2419 397 2687 759 
Q 2956 1122 2956 1747 
Q 2956 2369 2687 2733 
Q 2419 3097 1959 3097 
z
M 1959 3584 
Q 2709 3584 3137 3096 
Q 3566 2609 3566 1747 
Q 3566 888 3137 398 
Q 2709 -91 1959 -91 
Q 1206 -91 779 398 
Q 353 888 353 1747 
Q 353 2609 779 3096 
Q 1206 3584 1959 3584 
z
" transform="scale(0.015625)"/>
       <path id="DejaVuSans-68" d="M 3513 2113 
L 3513 0 
L 2938 0 
L 2938 2094 
Q 2938 2591 2744 2837 
Q 2550 3084 2163 3084 
Q 1697 3084 1428 2787 
Q 1159 2491 1159 1978 
L 1159 0 
L 581 0 
L 581 4863 
L 1159 4863 
L 1159 2956 
Q 1366 3272 1645 3428 
Q 1925 3584 2291 3584 
Q 2894 3584 3203 3211 
Q 3513 2838 3513 2113 
z
" transform="scale(0.015625)"/>
      </defs>
      <use xlink:href="#DejaVuSans-41"/>
      <use xlink:href="#DejaVuSans-64" x="66.658203"/>
      <use xlink:href="#DejaVuSans-69" x="130.134766"/>
      <use xlink:href="#DejaVuSans-61" x="157.917969"/>
      <use xlink:href="#DejaVuSans-62" x="219.197266"/>
      <use xlink:href="#DejaVuSans-61" x="282.673828"/>
      <use xlink:href="#DejaVuSans-74" x="343.953125"/>
      <use xlink:href="#DejaVuSans-69" x="383.162109"/>
      <use xlink:href="#DejaVuSans-63" x="410.945312"/>
      <use xlink:href="#DejaVuSans-20" x="465.925781"/>
      <use xlink:href="#DejaVuSans-48" x="497.712891"/>
      <use xlink:href="#DejaVuSans-79" x="572.908203"/>
      <use xlink:href="#DejaVuSans-70" x="632.087891"/>
      <use xlink:href="#DejaVuSans-6f" x="695.564453"/>
      <use xlink:href="#DejaVuSans-74" x="756.746094"/>
      <use xlink:href="#DejaVuSans-68" x="795.955078"/>
      <use xlink:href="#DejaVuSans-65" x="859.333984"/>
      <use xlink:href="#DejaVuSans-73" x="920.857422"/>
      <use xlink:href="#DejaVuSans-69" x="972.957031"/>
      <use xlink:href="#DejaVuSans-73" x="1000.740234"/>
     </g>
    </g>
    <g id="line2d_19">
     <path d="M 68.455398 69.248563 
L 78.455398 69.248563 
L 88.455398 69.248563 
" style="fill: none; stroke: #ff7f0e; stroke-width: 1.5; stroke-linecap: square"/>
    </g>
    <g id="text_19">
     <!-- Convective Hypothesis -->
     <g transform="translate(96.455398 72.748563) scale(0.1 -0.1)">
      <defs>
       <path id="DejaVuSans-76" d="M 191 3500 
L 800 3500 
L 1894 563 
L 2988 3500 
L 3597 3500 
L 2284 0 
L 1503 0 
L 191 3500 
z
" transform="scale(0.015625)"/>
      </defs>
      <use xlink:href="#DejaVuSans-43"/>
      <use xlink:href="#DejaVuSans-6f" x="69.824219"/>
      <use xlink:href="#DejaVuSans-6e" x="131.005859"/>
      <use xlink:href="#DejaVuSans-76" x="194.384766"/>
      <use xlink:href="#DejaVuSans-65" x="253.564453"/>
      <use xlink:href="#DejaVuSans-63" x="315.087891"/>
      <use xlink:href="#DejaVuSans-74" x="370.068359"/>
      <use xlink:href="#DejaVuSans-69" x="409.277344"/>
      <use xlink:href="#DejaVuSans-76" x="437.060547"/>
      <use xlink:href="#DejaVuSans-65" x="496.240234"/>
      <use xlink:href="#DejaVuSans-20" x="557.763672"/>
      <use xlink:href="#DejaVuSans-48" x="589.550781"/>
      <use xlink:href="#DejaVuSans-79" x="664.746094"/>
      <use xlink:href="#DejaVuSans-70" x="723.925781"/>
      <use xlink:href="#DejaVuSans-6f" x="787.402344"/>
      <use xlink:href="#DejaVuSans-74" x="848.583984"/>
      <use xlink:href="#DejaVuSans-68" x="887.792969"/>
      <use xlink:href="#DejaVuSans-65" x="951.171875"/>
      <use xlink:href="#DejaVuSans-73" x="1012.695312"/>
      <use xlink:href="#DejaVuSans-69" x="1064.794922"/>
      <use xlink:href="#DejaVuSans-73" x="1092.578125"/>
     </g>
    </g>
    <g id="line2d_20">
     <path d="M 68.455398 83.926688 
L 78.455398 83.926688 
L 88.455398 83.926688 
" style="fill: none; stroke: #2ca02c; stroke-width: 1.5; stroke-linecap: square"/>
    </g>
    <g id="text_20">
     <!-- Infinite Hypothesis -->
     <g transform="translate(96.455398 87.426688) scale(0.1 -0.1)">
      <defs>
       <path id="DejaVuSans-49" d="M 628 4666 
L 1259 4666 
L 1259 0 
L 628 0 
L 628 4666 
z
" transform="scale(0.015625)"/>
       <path id="DejaVuSans-66" d="M 2375 4863 
L 2375 4384 
L 1825 4384 
Q 1516 4384 1395 4259 
Q 1275 4134 1275 3809 
L 1275 3500 
L 2222 3500 
L 2222 3053 
L 1275 3053 
L 1275 0 
L 697 0 
L 697 3053 
L 147 3053 
L 147 3500 
L 697 3500 
L 697 3744 
Q 697 4328 969 4595 
Q 1241 4863 1831 4863 
L 2375 4863 
z
" transform="scale(0.015625)"/>
      </defs>
      <use xlink:href="#DejaVuSans-49"/>
      <use xlink:href="#DejaVuSans-6e" x="29.492188"/>
      <use xlink:href="#DejaVuSans-66" x="92.871094"/>
      <use xlink:href="#DejaVuSans-69" x="128.076172"/>
      <use xlink:href="#DejaVuSans-6e" x="155.859375"/>
      <use xlink:href="#DejaVuSans-69" x="219.238281"/>
      <use xlink:href="#DejaVuSans-74" x="247.021484"/>
      <use xlink:href="#DejaVuSans-65" x="286.230469"/>
      <use xlink:href="#DejaVuSans-20" x="347.753906"/>
      <use xlink:href="#DejaVuSans-48" x="379.541016"/>
      <use xlink:href="#DejaVuSans-79" x="454.736328"/>
      <use xlink:href="#DejaVuSans-70" x="513.916016"/>
      <use xlink:href="#DejaVuSans-6f" x="577.392578"/>
      <use xlink:href="#DejaVuSans-74" x="638.574219"/>
      <use xlink:href="#DejaVuSans-68" x="677.783203"/>
      <use xlink:href="#DejaVuSans-65" x="741.162109"/>
      <use xlink:href="#DejaVuSans-73" x="802.685547"/>
      <use xlink:href="#DejaVuSans-69" x="854.785156"/>
      <use xlink:href="#DejaVuSans-73" x="882.568359"/>
     </g>
    </g>
   </g>
  </g>
  <g id="axes_2">
   <g id="patch_8">
    <path d="M 252.392727 307.584 
L 414.72 307.584 
L 414.72 41.472 
L 252.392727 41.472 
z
" style="fill: #ffffff"/>
   </g>
   <g id="matplotlib.axis_3">
    <g id="xtick_6">
     <g id="line2d_21">
      <g>
       <use xlink:href="#medcabc510e" x="259.77124" y="307.584" style="stroke: #000000; stroke-width: 0.8"/>
      </g>
     </g>
     <g id="text_21">
      <!-- 0.0000 -->
      <g transform="translate(242.275927 322.182437) scale(0.1 -0.1)">
       <use xlink:href="#DejaVuSans-30"/>
       <use xlink:href="#DejaVuSans-2e" x="63.623047"/>
       <use xlink:href="#DejaVuSans-30" x="95.410156"/>
       <use xlink:href="#DejaVuSans-30" x="159.033203"/>
       <use xlink:href="#DejaVuSans-30" x="222.65625"/>
       <use xlink:href="#DejaVuSans-30" x="286.279297"/>
      </g>
     </g>
    </g>
    <g id="xtick_7">
     <g id="line2d_22">
      <g>
       <use xlink:href="#medcabc510e" x="296.663802" y="307.584" style="stroke: #000000; stroke-width: 0.8"/>
      </g>
     </g>
     <g id="text_22">
      <!-- 0.0025 -->
      <g transform="translate(279.168489 322.182437) scale(0.1 -0.1)">
       <use xlink:href="#DejaVuSans-30"/>
       <use xlink:href="#DejaVuSans-2e" x="63.623047"/>
       <use xlink:href="#DejaVuSans-30" x="95.410156"/>
       <use xlink:href="#DejaVuSans-30" x="159.033203"/>
       <use xlink:href="#DejaVuSans-32" x="222.65625"/>
       <use xlink:href="#DejaVuSans-35" x="286.279297"/>
      </g>
     </g>
    </g>
    <g id="xtick_8">
     <g id="line2d_23">
      <g>
       <use xlink:href="#medcabc510e" x="333.556364" y="307.584" style="stroke: #000000; stroke-width: 0.8"/>
      </g>
     </g>
     <g id="text_23">
      <!-- 0.0050 -->
      <g transform="translate(316.061051 322.182437) scale(0.1 -0.1)">
       <use xlink:href="#DejaVuSans-30"/>
       <use xlink:href="#DejaVuSans-2e" x="63.623047"/>
       <use xlink:href="#DejaVuSans-30" x="95.410156"/>
       <use xlink:href="#DejaVuSans-30" x="159.033203"/>
       <use xlink:href="#DejaVuSans-35" x="222.65625"/>
       <use xlink:href="#DejaVuSans-30" x="286.279297"/>
      </g>
     </g>
    </g>
    <g id="xtick_9">
     <g id="line2d_24">
      <g>
       <use xlink:href="#medcabc510e" x="370.448926" y="307.584" style="stroke: #000000; stroke-width: 0.8"/>
      </g>
     </g>
     <g id="text_24">
      <!-- 0.0075 -->
      <g transform="translate(352.953613 322.182437) scale(0.1 -0.1)">
       <use xlink:href="#DejaVuSans-30"/>
       <use xlink:href="#DejaVuSans-2e" x="63.623047"/>
       <use xlink:href="#DejaVuSans-30" x="95.410156"/>
       <use xlink:href="#DejaVuSans-30" x="159.033203"/>
       <use xlink:href="#DejaVuSans-37" x="222.65625"/>
       <use xlink:href="#DejaVuSans-35" x="286.279297"/>
      </g>
     </g>
    </g>
    <g id="xtick_10">
     <g id="line2d_25">
      <g>
       <use xlink:href="#medcabc510e" x="407.341488" y="307.584" style="stroke: #000000; stroke-width: 0.8"/>
      </g>
     </g>
     <g id="text_25">
      <!-- 0.0100 -->
      <g transform="translate(389.846175 322.182437) scale(0.1 -0.1)">
       <use xlink:href="#DejaVuSans-30"/>
       <use xlink:href="#DejaVuSans-2e" x="63.623047"/>
       <use xlink:href="#DejaVuSans-30" x="95.410156"/>
       <use xlink:href="#DejaVuSans-31" x="159.033203"/>
       <use xlink:href="#DejaVuSans-30" x="222.65625"/>
       <use xlink:href="#DejaVuSans-30" x="286.279297"/>
      </g>
     </g>
    </g>
    <g id="text_26">
     <!-- Distance [m] -->
     <g transform="translate(301.332926 335.860562) scale(0.1 -0.1)">
      <use xlink:href="#DejaVuSans-44"/>
      <use xlink:href="#DejaVuSans-69" x="77.001953"/>
      <use xlink:href="#DejaVuSans-73" x="104.785156"/>
      <use xlink:href="#DejaVuSans-74" x="156.884766"/>
      <use xlink:href="#DejaVuSans-61" x="196.09375"/>
      <use xlink:href="#DejaVuSans-6e" x="257.373047"/>
      <use xlink:href="#DejaVuSans-63" x="320.751953"/>
      <use xlink:href="#DejaVuSans-65" x="375.732422"/>
      <use xlink:href="#DejaVuSans-20" x="437.255859"/>
      <use xlink:href="#DejaVuSans-5b" x="469.042969"/>
      <use xlink:href="#DejaVuSans-6d" x="508.056641"/>
      <use xlink:href="#DejaVuSans-5d" x="605.46875"/>
     </g>
    </g>
   </g>
   <g id="matplotlib.axis_4">
    <g id="ytick_10">
     <g id="line2d_26">
      <g>
       <use xlink:href="#mcf674df381" x="252.392727" y="259.703443" style="stroke: #000000; stroke-width: 0.8"/>
      </g>
     </g>
     <g id="text_27">
      <!-- 92 -->
      <g transform="translate(232.667727 263.502662) scale(0.1 -0.1)">
       <use xlink:href="#DejaVuSans-39"/>
       <use xlink:href="#DejaVuSans-32" x="63.623047"/>
      </g>
     </g>
    </g>
    <g id="ytick_11">
     <g id="line2d_27">
      <g>
       <use xlink:href="#mcf674df381" x="252.392727" y="208.169582" style="stroke: #000000; stroke-width: 0.8"/>
      </g>
     </g>
     <g id="text_28">
      <!-- 94 -->
      <g transform="translate(232.667727 211.968801) scale(0.1 -0.1)">
       <use xlink:href="#DejaVuSans-39"/>
       <use xlink:href="#DejaVuSans-34" x="63.623047"/>
      </g>
     </g>
    </g>
    <g id="ytick_12">
     <g id="line2d_28">
      <g>
       <use xlink:href="#mcf674df381" x="252.392727" y="156.635722" style="stroke: #000000; stroke-width: 0.8"/>
      </g>
     </g>
     <g id="text_29">
      <!-- 96 -->
      <g transform="translate(232.667727 160.43494) scale(0.1 -0.1)">
       <use xlink:href="#DejaVuSans-39"/>
       <use xlink:href="#DejaVuSans-36" x="63.623047"/>
      </g>
     </g>
    </g>
    <g id="ytick_13">
     <g id="line2d_29">
      <g>
       <use xlink:href="#mcf674df381" x="252.392727" y="105.101861" style="stroke: #000000; stroke-width: 0.8"/>
      </g>
     </g>
     <g id="text_30">
      <!-- 98 -->
      <g transform="translate(232.667727 108.90108) scale(0.1 -0.1)">
       <use xlink:href="#DejaVuSans-39"/>
       <use xlink:href="#DejaVuSans-38" x="63.623047"/>
      </g>
     </g>
    </g>
    <g id="ytick_14">
     <g id="line2d_30">
      <g>
       <use xlink:href="#mcf674df381" x="252.392727" y="53.568" style="stroke: #000000; stroke-width: 0.8"/>
      </g>
     </g>
     <g id="text_31">
      <!-- 100 -->
      <g transform="translate(226.305227 57.367219) scale(0.1 -0.1)">
       <use xlink:href="#DejaVuSans-31"/>
       <use xlink:href="#DejaVuSans-30" x="63.623047"/>
       <use xlink:href="#DejaVuSans-30" x="127.246094"/>
      </g>
     </g>
    </g>
    <g id="text_32">
     <!-- Temperature [ºC] -->
     <g transform="translate(220.22554 217.535812) rotate(-90) scale(0.1 -0.1)">
      <use xlink:href="#DejaVuSans-54"/>
      <use xlink:href="#DejaVuSans-65" x="44.083984"/>
      <use xlink:href="#DejaVuSans-6d" x="105.607422"/>
      <use xlink:href="#DejaVuSans-70" x="203.019531"/>
      <use xlink:href="#DejaVuSans-65" x="266.496094"/>
      <use xlink:href="#DejaVuSans-72" x="328.019531"/>
      <use xlink:href="#DejaVuSans-61" x="369.132812"/>
      <use xlink:href="#DejaVuSans-74" x="430.412109"/>
      <use xlink:href="#DejaVuSans-75" x="469.621094"/>
      <use xlink:href="#DejaVuSans-72" x="533"/>
      <use xlink:href="#DejaVuSans-65" x="571.863281"/>
      <use xlink:href="#DejaVuSans-20" x="633.386719"/>
      <use xlink:href="#DejaVuSans-5b" x="665.173828"/>
      <use xlink:href="#DejaVuSans-ba" x="704.1875"/>
      <use xlink:href="#DejaVuSans-43" x="751.306641"/>
      <use xlink:href="#DejaVuSans-5d" x="821.130859"/>
     </g>
    </g>
   </g>
   <g id="line2d_31">
    <path d="M 259.77124 53.568 
L 261.261848 53.889181 
L 262.752457 54.207085 
L 264.243065 54.521712 
L 265.733674 54.833063 
L 267.224282 55.141138 
L 268.714891 55.445938 
L 270.2055 55.747463 
L 271.696108 56.045714 
L 273.186717 56.340691 
L 274.677325 56.632394 
L 276.167934 56.920825 
L 277.658542 57.205984 
L 279.149151 57.487871 
L 280.63976 57.766486 
L 282.130368 58.04183 
L 283.620977 58.313903 
L 285.111585 58.582706 
L 286.602194 58.84824 
L 288.092802 59.110504 
L 289.583411 59.369499 
L 291.07402 59.625226 
L 292.564628 59.877685 
L 294.055237 60.126875 
L 295.545845 60.372799 
L 297.036454 60.615456 
L 298.527062 60.854846 
L 300.017671 61.09097 
L 301.508279 61.323828 
L 302.998888 61.553421 
L 304.489497 61.779749 
L 305.980105 62.002813 
L 307.470714 62.222611 
L 308.961322 62.439146 
L 310.451931 62.652418 
L 311.942539 62.862426 
L 313.433148 63.069171 
L 314.923757 63.272653 
L 316.414365 63.472873 
L 317.904974 63.669832 
L 319.395582 63.863528 
L 320.886191 64.053963 
L 322.376799 64.241137 
L 323.867408 64.425051 
L 325.358017 64.605704 
L 326.848625 64.783096 
L 328.339234 64.957229 
L 329.829842 65.128102 
L 331.320451 65.295716 
L 332.811059 65.460071 
L 334.301668 65.621167 
L 335.792276 65.779004 
L 337.282885 65.933583 
L 338.773494 66.084904 
L 340.264102 66.232968 
L 341.754711 66.377773 
L 343.245319 66.519322 
L 344.735928 66.657613 
L 346.226536 66.792647 
L 347.717145 66.924424 
L 349.207754 67.052945 
L 350.698362 67.17821 
L 352.188971 67.300219 
L 353.679579 67.418971 
L 355.170188 67.534468 
L 356.660796 67.64671 
L 358.151405 67.755696 
L 359.642014 67.861427 
L 361.132622 67.963903 
L 362.623231 68.063124 
L 364.113839 68.159091 
L 365.604448 68.251803 
L 367.095056 68.34126 
L 368.585665 68.427464 
L 370.076273 68.510413 
L 371.566882 68.590108 
L 373.057491 68.66655 
L 374.548099 68.739738 
L 376.038708 68.809672 
L 377.529316 68.876352 
L 379.019925 68.93978 
L 380.510533 68.999953 
L 382.001142 69.056874 
L 383.491751 69.110542 
L 384.982359 69.160957 
L 386.472968 69.208118 
L 387.963576 69.252027 
L 389.454185 69.292683 
L 390.944793 69.330087 
L 392.435402 69.364237 
L 393.926011 69.395135 
L 395.416619 69.422781 
L 396.907228 69.447174 
L 398.397836 69.468314 
L 399.888445 69.486202 
L 401.379053 69.500838 
L 402.869662 69.512221 
L 404.36027 69.520352 
L 405.850879 69.525231 
L 407.341488 69.526857 
" clip-path="url(#p1a08df6e58)" style="fill: none; stroke: #1f77b4; stroke-width: 1.5; stroke-linecap: square"/>
   </g>
   <g id="line2d_32">
    <path d="M 259.77124 53.568 
L 261.261848 53.902484 
L 262.752457 54.233692 
L 264.243065 54.561622 
L 265.733674 54.886277 
L 267.224282 55.207656 
L 268.714891 55.525759 
L 270.2055 55.840588 
L 271.696108 56.152143 
L 273.186717 56.460425 
L 274.677325 56.765433 
L 276.167934 57.067168 
L 277.658542 57.365632 
L 279.149151 57.660824 
L 280.63976 57.952744 
L 282.130368 58.241394 
L 283.620977 58.526773 
L 285.111585 58.808883 
L 286.602194 59.087723 
L 288.092802 59.363294 
L 289.583411 59.635597 
L 291.07402 59.904632 
L 292.564628 60.170399 
L 294.055237 60.432899 
L 295.545845 60.692132 
L 297.036454 60.948098 
L 298.527062 61.200799 
L 300.017671 61.450234 
L 301.508279 61.696404 
L 302.998888 61.939309 
L 304.489497 62.178949 
L 305.980105 62.415326 
L 307.470714 62.648439 
L 308.961322 62.878288 
L 310.451931 63.104875 
L 311.942539 63.328199 
L 313.433148 63.548261 
L 314.923757 63.765061 
L 316.414365 63.978599 
L 317.904974 64.188877 
L 319.395582 64.395893 
L 320.886191 64.599649 
L 322.376799 64.800145 
L 323.867408 64.997381 
L 325.358017 65.191358 
L 326.848625 65.382075 
L 328.339234 65.569533 
L 329.829842 65.753732 
L 331.320451 65.934674 
L 332.811059 66.112357 
L 334.301668 66.286782 
L 335.792276 66.45795 
L 337.282885 66.625861 
L 338.773494 66.790514 
L 340.264102 66.951911 
L 341.754711 67.110052 
L 343.245319 67.264936 
L 344.735928 67.416565 
L 346.226536 67.564937 
L 347.717145 67.710054 
L 349.207754 67.851916 
L 350.698362 67.990523 
L 352.188971 68.125876 
L 353.679579 68.257973 
L 355.170188 68.386816 
L 356.660796 68.512405 
L 358.151405 68.63474 
L 359.642014 68.753822 
L 361.132622 68.869649 
L 362.623231 68.982224 
L 364.113839 69.091545 
L 365.604448 69.197613 
L 367.095056 69.300428 
L 368.585665 69.399991 
L 370.076273 69.496301 
L 371.566882 69.589358 
L 373.057491 69.679163 
L 374.548099 69.765717 
L 376.038708 69.849018 
L 377.529316 69.929067 
L 379.019925 70.005865 
L 380.510533 70.079411 
L 382.001142 70.149705 
L 383.491751 70.216749 
L 384.982359 70.280541 
L 386.472968 70.341081 
L 387.963576 70.398371 
L 389.454185 70.45241 
L 390.944793 70.503198 
L 392.435402 70.550735 
L 393.926011 70.595021 
L 395.416619 70.636057 
L 396.907228 70.673842 
L 398.397836 70.708377 
L 399.888445 70.739661 
L 401.379053 70.767695 
L 402.869662 70.792478 
L 404.36027 70.814011 
L 405.850879 70.832294 
L 407.341488 70.847326 
" clip-path="url(#p1a08df6e58)" style="fill: none; stroke: #ff7f0e; stroke-width: 1.5; stroke-linecap: square"/>
   </g>
   <g id="line2d_33">
    <path d="M 259.77124 53.568 
L 261.261848 56.1657 
L 262.752457 58.760126 
L 264.243065 61.351282 
L 265.733674 63.939174 
L 267.224282 66.523804 
L 268.714891 69.105177 
L 270.2055 71.683297 
L 271.696108 74.258168 
L 273.186717 76.829794 
L 274.677325 79.398179 
L 276.167934 81.963328 
L 277.658542 84.525244 
L 279.149151 87.083932 
L 280.63976 89.639395 
L 282.130368 92.191638 
L 283.620977 94.740665 
L 285.111585 97.286479 
L 286.602194 99.829085 
L 288.092802 102.368487 
L 289.583411 104.904689 
L 291.07402 107.437694 
L 292.564628 109.967508 
L 294.055237 112.494134 
L 295.545845 115.017575 
L 297.036454 117.537837 
L 298.527062 120.054922 
L 300.017671 122.568836 
L 301.508279 125.079581 
L 302.998888 127.587163 
L 304.489497 130.091584 
L 305.980105 132.59285 
L 307.470714 135.090963 
L 308.961322 137.585928 
L 310.451931 140.077749 
L 311.942539 142.56643 
L 313.433148 145.051975 
L 314.923757 147.534387 
L 316.414365 150.013671 
L 317.904974 152.489831 
L 319.395582 154.962871 
L 320.886191 157.432793 
L 322.376799 159.899604 
L 323.867408 162.363305 
L 325.358017 164.823902 
L 326.848625 167.281398 
L 328.339234 169.735797 
L 329.829842 172.187104 
L 331.320451 174.635321 
L 332.811059 177.080452 
L 334.301668 179.522503 
L 335.792276 181.961476 
L 337.282885 184.397375 
L 338.773494 186.830205 
L 340.264102 189.259969 
L 341.754711 191.686671 
L 343.245319 194.110315 
L 344.735928 196.530904 
L 346.226536 198.948444 
L 347.717145 201.362936 
L 349.207754 203.774386 
L 350.698362 206.182797 
L 352.188971 208.588173 
L 353.679579 210.990518 
L 355.170188 213.389835 
L 356.660796 215.786129 
L 358.151405 218.179403 
L 359.642014 220.569661 
L 361.132622 222.956907 
L 362.623231 225.341144 
L 364.113839 227.722377 
L 365.604448 230.100609 
L 367.095056 232.475844 
L 368.585665 234.848085 
L 370.076273 237.217338 
L 371.566882 239.583604 
L 373.057491 241.946889 
L 374.548099 244.307195 
L 376.038708 246.664527 
L 377.529316 249.018888 
L 379.019925 251.370283 
L 380.510533 253.718714 
L 382.001142 256.064185 
L 383.491751 258.406701 
L 384.982359 260.746265 
L 386.472968 263.082881 
L 387.963576 265.416552 
L 389.454185 267.747282 
L 390.944793 270.075075 
L 392.435402 272.399934 
L 393.926011 274.721864 
L 395.416619 277.040868 
L 396.907228 279.356949 
L 398.397836 281.670112 
L 399.888445 283.980359 
L 401.379053 286.287695 
L 402.869662 288.592124 
L 404.36027 290.893648 
L 405.850879 293.192273 
L 407.341488 295.488 
" clip-path="url(#p1a08df6e58)" style="fill: none; stroke: #2ca02c; stroke-width: 1.5; stroke-linecap: square"/>
   </g>
   <g id="patch_9">
    <path d="M 252.392727 307.584 
L 252.392727 41.472 
" style="fill: none; stroke: #000000; stroke-width: 0.8; stroke-linejoin: miter; stroke-linecap: square"/>
   </g>
   <g id="patch_10">
    <path d="M 414.72 307.584 
L 414.72 41.472 
" style="fill: none; stroke: #000000; stroke-width: 0.8; stroke-linejoin: miter; stroke-linecap: square"/>
   </g>
   <g id="patch_11">
    <path d="M 252.392727 307.584 
L 414.72 307.584 
" style="fill: none; stroke: #000000; stroke-width: 0.8; stroke-linejoin: miter; stroke-linecap: square"/>
   </g>
   <g id="patch_12">
    <path d="M 252.392727 41.472 
L 414.72 41.472 
" style="fill: none; stroke: #000000; stroke-width: 0.8; stroke-linejoin: miter; stroke-linecap: square"/>
   </g>
   <g id="text_33">
    <!-- L = 0.01 [m] -->
    <g transform="translate(295.579176 35.472) scale(0.12 -0.12)">
     <use xlink:href="#DejaVuSans-4c"/>
     <use xlink:href="#DejaVuSans-20" x="55.712891"/>
     <use xlink:href="#DejaVuSans-3d" x="87.5"/>
     <use xlink:href="#DejaVuSans-20" x="171.289062"/>
     <use xlink:href="#DejaVuSans-30" x="203.076172"/>
     <use xlink:href="#DejaVuSans-2e" x="266.699219"/>
     <use xlink:href="#DejaVuSans-30" x="298.486328"/>
     <use xlink:href="#DejaVuSans-31" x="362.109375"/>
     <use xlink:href="#DejaVuSans-20" x="425.732422"/>
     <use xlink:href="#DejaVuSans-5b" x="457.519531"/>
     <use xlink:href="#DejaVuSans-6d" x="496.533203"/>
     <use xlink:href="#DejaVuSans-5d" x="593.945312"/>
    </g>
   </g>
   <g id="legend_2">
    <g id="patch_13">
     <path d="M 259.392727 302.584 
L 405.864602 302.584 
Q 407.864602 302.584 407.864602 300.584 
L 407.864602 257.549625 
Q 407.864602 255.549625 405.864602 255.549625 
L 259.392727 255.549625 
Q 257.392727 255.549625 257.392727 257.549625 
L 257.392727 300.584 
Q 257.392727 302.584 259.392727 302.584 
z
" style="fill: #ffffff; opacity: 0.8; stroke: #cccccc; stroke-linejoin: miter"/>
    </g>
    <g id="line2d_34">
     <path d="M 261.392727 263.648062 
L 271.392727 263.648062 
L 281.392727 263.648062 
" style="fill: none; stroke: #1f77b4; stroke-width: 1.5; stroke-linecap: square"/>
    </g>
    <g id="text_34">
     <!-- Adiabatic Hypothesis -->
     <g transform="translate(289.392727 267.148062) scale(0.1 -0.1)">
      <use xlink:href="#DejaVuSans-41"/>
      <use xlink:href="#DejaVuSans-64" x="66.658203"/>
      <use xlink:href="#DejaVuSans-69" x="130.134766"/>
      <use xlink:href="#DejaVuSans-61" x="157.917969"/>
      <use xlink:href="#DejaVuSans-62" x="219.197266"/>
      <use xlink:href="#DejaVuSans-61" x="282.673828"/>
      <use xlink:href="#DejaVuSans-74" x="343.953125"/>
      <use xlink:href="#DejaVuSans-69" x="383.162109"/>
      <use xlink:href="#DejaVuSans-63" x="410.945312"/>
      <use xlink:href="#DejaVuSans-20" x="465.925781"/>
      <use xlink:href="#DejaVuSans-48" x="497.712891"/>
      <use xlink:href="#DejaVuSans-79" x="572.908203"/>
      <use xlink:href="#DejaVuSans-70" x="632.087891"/>
      <use xlink:href="#DejaVuSans-6f" x="695.564453"/>
      <use xlink:href="#DejaVuSans-74" x="756.746094"/>
      <use xlink:href="#DejaVuSans-68" x="795.955078"/>
      <use xlink:href="#DejaVuSans-65" x="859.333984"/>
      <use xlink:href="#DejaVuSans-73" x="920.857422"/>
      <use xlink:href="#DejaVuSans-69" x="972.957031"/>
      <use xlink:href="#DejaVuSans-73" x="1000.740234"/>
     </g>
    </g>
    <g id="line2d_35">
     <path d="M 261.392727 278.326188 
L 271.392727 278.326188 
L 281.392727 278.326188 
" style="fill: none; stroke: #ff7f0e; stroke-width: 1.5; stroke-linecap: square"/>
    </g>
    <g id="text_35">
     <!-- Convective Hypothesis -->
     <g transform="translate(289.392727 281.826188) scale(0.1 -0.1)">
      <use xlink:href="#DejaVuSans-43"/>
      <use xlink:href="#DejaVuSans-6f" x="69.824219"/>
      <use xlink:href="#DejaVuSans-6e" x="131.005859"/>
      <use xlink:href="#DejaVuSans-76" x="194.384766"/>
      <use xlink:href="#DejaVuSans-65" x="253.564453"/>
      <use xlink:href="#DejaVuSans-63" x="315.087891"/>
      <use xlink:href="#DejaVuSans-74" x="370.068359"/>
      <use xlink:href="#DejaVuSans-69" x="409.277344"/>
      <use xlink:href="#DejaVuSans-76" x="437.060547"/>
      <use xlink:href="#DejaVuSans-65" x="496.240234"/>
      <use xlink:href="#DejaVuSans-20" x="557.763672"/>
      <use xlink:href="#DejaVuSans-48" x="589.550781"/>
      <use xlink:href="#DejaVuSans-79" x="664.746094"/>
      <use xlink:href="#DejaVuSans-70" x="723.925781"/>
      <use xlink:href="#DejaVuSans-6f" x="787.402344"/>
      <use xlink:href="#DejaVuSans-74" x="848.583984"/>
      <use xlink:href="#DejaVuSans-68" x="887.792969"/>
      <use xlink:href="#DejaVuSans-65" x="951.171875"/>
      <use xlink:href="#DejaVuSans-73" x="1012.695312"/>
      <use xlink:href="#DejaVuSans-69" x="1064.794922"/>
      <use xlink:href="#DejaVuSans-73" x="1092.578125"/>
     </g>
    </g>
    <g id="line2d_36">
     <path d="M 261.392727 293.004312 
L 271.392727 293.004312 
L 281.392727 293.004312 
" style="fill: none; stroke: #2ca02c; stroke-width: 1.5; stroke-linecap: square"/>
    </g>
    <g id="text_36">
     <!-- Infinite Hypothesis -->
     <g transform="translate(289.392727 296.504312) scale(0.1 -0.1)">
      <use xlink:href="#DejaVuSans-49"/>
      <use xlink:href="#DejaVuSans-6e" x="29.492188"/>
      <use xlink:href="#DejaVuSans-66" x="92.871094"/>
      <use xlink:href="#DejaVuSans-69" x="128.076172"/>
      <use xlink:href="#DejaVuSans-6e" x="155.859375"/>
      <use xlink:href="#DejaVuSans-69" x="219.238281"/>
      <use xlink:href="#DejaVuSans-74" x="247.021484"/>
      <use xlink:href="#DejaVuSans-65" x="286.230469"/>
      <use xlink:href="#DejaVuSans-20" x="347.753906"/>
      <use xlink:href="#DejaVuSans-48" x="379.541016"/>
      <use xlink:href="#DejaVuSans-79" x="454.736328"/>
      <use xlink:href="#DejaVuSans-70" x="513.916016"/>
      <use xlink:href="#DejaVuSans-6f" x="577.392578"/>
      <use xlink:href="#DejaVuSans-74" x="638.574219"/>
      <use xlink:href="#DejaVuSans-68" x="677.783203"/>
      <use xlink:href="#DejaVuSans-65" x="741.162109"/>
      <use xlink:href="#DejaVuSans-73" x="802.685547"/>
      <use xlink:href="#DejaVuSans-69" x="854.785156"/>
      <use xlink:href="#DejaVuSans-73" x="882.568359"/>
     </g>
    </g>
   </g>
  </g>
  <g id="text_37">
   <!-- Adiabatic, Convective and Infinite borders. -->
   <g transform="translate(102.44625 16.030125) scale(0.12 -0.12)">
    <defs>
     <path id="DejaVuSans-2c" d="M 750 794 
L 1409 794 
L 1409 256 
L 897 -744 
L 494 -744 
L 750 256 
L 750 794 
z
" transform="scale(0.015625)"/>
    </defs>
    <use xlink:href="#DejaVuSans-41"/>
    <use xlink:href="#DejaVuSans-64" x="66.658203"/>
    <use xlink:href="#DejaVuSans-69" x="130.134766"/>
    <use xlink:href="#DejaVuSans-61" x="157.917969"/>
    <use xlink:href="#DejaVuSans-62" x="219.197266"/>
    <use xlink:href="#DejaVuSans-61" x="282.673828"/>
    <use xlink:href="#DejaVuSans-74" x="343.953125"/>
    <use xlink:href="#DejaVuSans-69" x="383.162109"/>
    <use xlink:href="#DejaVuSans-63" x="410.945312"/>
    <use xlink:href="#DejaVuSans-2c" x="465.925781"/>
    <use xlink:href="#DejaVuSans-20" x="497.712891"/>
    <use xlink:href="#DejaVuSans-43" x="529.5"/>
    <use xlink:href="#DejaVuSans-6f" x="599.324219"/>
    <use xlink:href="#DejaVuSans-6e" x="660.505859"/>
    <use xlink:href="#DejaVuSans-76" x="723.884766"/>
    <use xlink:href="#DejaVuSans-65" x="783.064453"/>
    <use xlink:href="#DejaVuSans-63" x="844.587891"/>
    <use xlink:href="#DejaVuSans-74" x="899.568359"/>
    <use xlink:href="#DejaVuSans-69" x="938.777344"/>
    <use xlink:href="#DejaVuSans-76" x="966.560547"/>
    <use xlink:href="#DejaVuSans-65" x="1025.740234"/>
    <use xlink:href="#DejaVuSans-20" x="1087.263672"/>
    <use xlink:href="#DejaVuSans-61" x="1119.050781"/>
    <use xlink:href="#DejaVuSans-6e" x="1180.330078"/>
    <use xlink:href="#DejaVuSans-64" x="1243.708984"/>
    <use xlink:href="#DejaVuSans-20" x="1307.185547"/>
    <use xlink:href="#DejaVuSans-49" x="1338.972656"/>
    <use xlink:href="#DejaVuSans-6e" x="1368.464844"/>
    <use xlink:href="#DejaVuSans-66" x="1431.84375"/>
    <use xlink:href="#DejaVuSans-69" x="1467.048828"/>
    <use xlink:href="#DejaVuSans-6e" x="1494.832031"/>
    <use xlink:href="#DejaVuSans-69" x="1558.210938"/>
    <use xlink:href="#DejaVuSans-74" x="1585.994141"/>
    <use xlink:href="#DejaVuSans-65" x="1625.203125"/>
    <use xlink:href="#DejaVuSans-20" x="1686.726562"/>
    <use xlink:href="#DejaVuSans-62" x="1718.513672"/>
    <use xlink:href="#DejaVuSans-6f" x="1781.990234"/>
    <use xlink:href="#DejaVuSans-72" x="1843.171875"/>
    <use xlink:href="#DejaVuSans-64" x="1882.535156"/>
    <use xlink:href="#DejaVuSans-65" x="1946.011719"/>
    <use xlink:href="#DejaVuSans-72" x="2007.535156"/>
    <use xlink:href="#DejaVuSans-73" x="2048.648438"/>
    <use xlink:href="#DejaVuSans-2e" x="2100.748047"/>
   </g>
  </g>
 </g>
 <defs>
  <clipPath id="pbc0464ee44">
   <rect x="57.6" y="41.472" width="162.327273" height="266.112"/>
  </clipPath>
  <clipPath id="p1a08df6e58">
   <rect x="252.392727" y="41.472" width="162.327273" height="266.112"/>
  </clipPath>
 </defs>
</svg>
