<?xml version="1.0" encoding="utf-8" standalone="no"?>
<!DOCTYPE svg PUBLIC "-//W3C//DTD SVG 1.1//EN"
  "http://www.w3.org/Graphics/SVG/1.1/DTD/svg11.dtd">
<svg xmlns:xlink="http://www.w3.org/1999/xlink" width="460.8pt" height="695.52pt" viewBox="0 0 460.8 695.52" xmlns="http://www.w3.org/2000/svg" version="1.1">
 <metadata>
  <rdf:RDF xmlns:dc="http://purl.org/dc/elements/1.1/" xmlns:cc="http://creativecommons.org/ns#" xmlns:rdf="http://www.w3.org/1999/02/22-rdf-syntax-ns#">
   <cc:Work>
    <dc:type rdf:resource="http://purl.org/dc/dcmitype/StillImage"/>
    <dc:date>2024-03-26T15:52:42.593093</dc:date>
    <dc:format>image/svg+xml</dc:format>
    <dc:creator>
     <cc:Agent>
      <dc:title>Matplotlib v3.8.3, https://matplotlib.org/</dc:title>
     </cc:Agent>
    </dc:creator>
   </cc:Work>
  </rdf:RDF>
 </metadata>
 <defs>
  <style type="text/css">*{stroke-linejoin: round; stroke-linecap: butt}</style>
 </defs>
 <g id="figure_1">
  <g id="patch_1">
   <path d="M 0 695.52 
L 460.8 695.52 
L 460.8 0 
L 0 0 
z
" style="fill: #ffffff"/>
  </g>
  <g id="axes_1">
   <g id="patch_2">
    <path d="M 57.6 326.8944 
L 414.72 326.8944 
L 414.72 83.4624 
L 57.6 83.4624 
z
" style="fill: #ffffff"/>
   </g>
   <g id="matplotlib.axis_1">
    <g id="xtick_1">
     <g id="line2d_1">
      <defs>
       <path id="m7b5d02c710" d="M 0 0 
L 0 3.5 
" style="stroke: #000000; stroke-width: 0.8"/>
      </defs>
      <g>
       <use xlink:href="#m7b5d02c710" x="73.832727" y="326.8944" style="stroke: #000000; stroke-width: 0.8"/>
      </g>
     </g>
     <g id="text_1">
      <!-- 0.00 -->
      <g transform="translate(62.699915 341.492837) scale(0.1 -0.1)">
       <defs>
        <path id="DejaVuSans-30" d="M 2034 4250 
Q 1547 4250 1301 3770 
Q 1056 3291 1056 2328 
Q 1056 1369 1301 889 
Q 1547 409 2034 409 
Q 2525 409 2770 889 
Q 3016 1369 3016 2328 
Q 3016 3291 2770 3770 
Q 2525 4250 2034 4250 
z
M 2034 4750 
Q 2819 4750 3233 4129 
Q 3647 3509 3647 2328 
Q 3647 1150 3233 529 
Q 2819 -91 2034 -91 
Q 1250 -91 836 529 
Q 422 1150 422 2328 
Q 422 3509 836 4129 
Q 1250 4750 2034 4750 
z
" transform="scale(0.015625)"/>
        <path id="DejaVuSans-2e" d="M 684 794 
L 1344 794 
L 1344 0 
L 684 0 
L 684 794 
z
" transform="scale(0.015625)"/>
       </defs>
       <use xlink:href="#DejaVuSans-30"/>
       <use xlink:href="#DejaVuSans-2e" x="63.623047"/>
       <use xlink:href="#DejaVuSans-30" x="95.410156"/>
       <use xlink:href="#DejaVuSans-30" x="159.033203"/>
      </g>
     </g>
    </g>
    <g id="xtick_2">
     <g id="line2d_2">
      <g>
       <use xlink:href="#m7b5d02c710" x="138.763636" y="326.8944" style="stroke: #000000; stroke-width: 0.8"/>
      </g>
     </g>
     <g id="text_2">
      <!-- 0.02 -->
      <g transform="translate(127.630824 341.492837) scale(0.1 -0.1)">
       <defs>
        <path id="DejaVuSans-32" d="M 1228 531 
L 3431 531 
L 3431 0 
L 469 0 
L 469 531 
Q 828 903 1448 1529 
Q 2069 2156 2228 2338 
Q 2531 2678 2651 2914 
Q 2772 3150 2772 3378 
Q 2772 3750 2511 3984 
Q 2250 4219 1831 4219 
Q 1534 4219 1204 4116 
Q 875 4013 500 3803 
L 500 4441 
Q 881 4594 1212 4672 
Q 1544 4750 1819 4750 
Q 2544 4750 2975 4387 
Q 3406 4025 3406 3419 
Q 3406 3131 3298 2873 
Q 3191 2616 2906 2266 
Q 2828 2175 2409 1742 
Q 1991 1309 1228 531 
z
" transform="scale(0.015625)"/>
       </defs>
       <use xlink:href="#DejaVuSans-30"/>
       <use xlink:href="#DejaVuSans-2e" x="63.623047"/>
       <use xlink:href="#DejaVuSans-30" x="95.410156"/>
       <use xlink:href="#DejaVuSans-32" x="159.033203"/>
      </g>
     </g>
    </g>
    <g id="xtick_3">
     <g id="line2d_3">
      <g>
       <use xlink:href="#m7b5d02c710" x="203.694545" y="326.8944" style="stroke: #000000; stroke-width: 0.8"/>
      </g>
     </g>
     <g id="text_3">
      <!-- 0.04 -->
      <g transform="translate(192.561733 341.492837) scale(0.1 -0.1)">
       <defs>
        <path id="DejaVuSans-34" d="M 2419 4116 
L 825 1625 
L 2419 1625 
L 2419 4116 
z
M 2253 4666 
L 3047 4666 
L 3047 1625 
L 3713 1625 
L 3713 1100 
L 3047 1100 
L 3047 0 
L 2419 0 
L 2419 1100 
L 313 1100 
L 313 1709 
L 2253 4666 
z
" transform="scale(0.015625)"/>
       </defs>
       <use xlink:href="#DejaVuSans-30"/>
       <use xlink:href="#DejaVuSans-2e" x="63.623047"/>
       <use xlink:href="#DejaVuSans-30" x="95.410156"/>
       <use xlink:href="#DejaVuSans-34" x="159.033203"/>
      </g>
     </g>
    </g>
    <g id="xtick_4">
     <g id="line2d_4">
      <g>
       <use xlink:href="#m7b5d02c710" x="268.625455" y="326.8944" style="stroke: #000000; stroke-width: 0.8"/>
      </g>
     </g>
     <g id="text_4">
      <!-- 0.06 -->
      <g transform="translate(257.492642 341.492837) scale(0.1 -0.1)">
       <defs>
        <path id="DejaVuSans-36" d="M 2113 2584 
Q 1688 2584 1439 2293 
Q 1191 2003 1191 1497 
Q 1191 994 1439 701 
Q 1688 409 2113 409 
Q 2538 409 2786 701 
Q 3034 994 3034 1497 
Q 3034 2003 2786 2293 
Q 2538 2584 2113 2584 
z
M 3366 4563 
L 3366 3988 
Q 3128 4100 2886 4159 
Q 2644 4219 2406 4219 
Q 1781 4219 1451 3797 
Q 1122 3375 1075 2522 
Q 1259 2794 1537 2939 
Q 1816 3084 2150 3084 
Q 2853 3084 3261 2657 
Q 3669 2231 3669 1497 
Q 3669 778 3244 343 
Q 2819 -91 2113 -91 
Q 1303 -91 875 529 
Q 447 1150 447 2328 
Q 447 3434 972 4092 
Q 1497 4750 2381 4750 
Q 2619 4750 2861 4703 
Q 3103 4656 3366 4563 
z
" transform="scale(0.015625)"/>
       </defs>
       <use xlink:href="#DejaVuSans-30"/>
       <use xlink:href="#DejaVuSans-2e" x="63.623047"/>
       <use xlink:href="#DejaVuSans-30" x="95.410156"/>
       <use xlink:href="#DejaVuSans-36" x="159.033203"/>
      </g>
     </g>
    </g>
    <g id="xtick_5">
     <g id="line2d_5">
      <g>
       <use xlink:href="#m7b5d02c710" x="333.556364" y="326.8944" style="stroke: #000000; stroke-width: 0.8"/>
      </g>
     </g>
     <g id="text_5">
      <!-- 0.08 -->
      <g transform="translate(322.423551 341.492837) scale(0.1 -0.1)">
       <defs>
        <path id="DejaVuSans-38" d="M 2034 2216 
Q 1584 2216 1326 1975 
Q 1069 1734 1069 1313 
Q 1069 891 1326 650 
Q 1584 409 2034 409 
Q 2484 409 2743 651 
Q 3003 894 3003 1313 
Q 3003 1734 2745 1975 
Q 2488 2216 2034 2216 
z
M 1403 2484 
Q 997 2584 770 2862 
Q 544 3141 544 3541 
Q 544 4100 942 4425 
Q 1341 4750 2034 4750 
Q 2731 4750 3128 4425 
Q 3525 4100 3525 3541 
Q 3525 3141 3298 2862 
Q 3072 2584 2669 2484 
Q 3125 2378 3379 2068 
Q 3634 1759 3634 1313 
Q 3634 634 3220 271 
Q 2806 -91 2034 -91 
Q 1263 -91 848 271 
Q 434 634 434 1313 
Q 434 1759 690 2068 
Q 947 2378 1403 2484 
z
M 1172 3481 
Q 1172 3119 1398 2916 
Q 1625 2713 2034 2713 
Q 2441 2713 2670 2916 
Q 2900 3119 2900 3481 
Q 2900 3844 2670 4047 
Q 2441 4250 2034 4250 
Q 1625 4250 1398 4047 
Q 1172 3844 1172 3481 
z
" transform="scale(0.015625)"/>
       </defs>
       <use xlink:href="#DejaVuSans-30"/>
       <use xlink:href="#DejaVuSans-2e" x="63.623047"/>
       <use xlink:href="#DejaVuSans-30" x="95.410156"/>
       <use xlink:href="#DejaVuSans-38" x="159.033203"/>
      </g>
     </g>
    </g>
    <g id="xtick_6">
     <g id="line2d_6">
      <g>
       <use xlink:href="#m7b5d02c710" x="398.487273" y="326.8944" style="stroke: #000000; stroke-width: 0.8"/>
      </g>
     </g>
     <g id="text_6">
      <!-- 0.10 -->
      <g transform="translate(387.35446 341.492837) scale(0.1 -0.1)">
       <defs>
        <path id="DejaVuSans-31" d="M 794 531 
L 1825 531 
L 1825 4091 
L 703 3866 
L 703 4441 
L 1819 4666 
L 2450 4666 
L 2450 531 
L 3481 531 
L 3481 0 
L 794 0 
L 794 531 
z
" transform="scale(0.015625)"/>
       </defs>
       <use xlink:href="#DejaVuSans-30"/>
       <use xlink:href="#DejaVuSans-2e" x="63.623047"/>
       <use xlink:href="#DejaVuSans-31" x="95.410156"/>
       <use xlink:href="#DejaVuSans-30" x="159.033203"/>
      </g>
     </g>
    </g>
    <g id="text_7">
     <!-- Distance [m] -->
     <g transform="translate(203.936562 355.170962) scale(0.1 -0.1)">
      <defs>
       <path id="DejaVuSans-44" d="M 1259 4147 
L 1259 519 
L 2022 519 
Q 2988 519 3436 956 
Q 3884 1394 3884 2338 
Q 3884 3275 3436 3711 
Q 2988 4147 2022 4147 
L 1259 4147 
z
M 628 4666 
L 1925 4666 
Q 3281 4666 3915 4102 
Q 4550 3538 4550 2338 
Q 4550 1131 3912 565 
Q 3275 0 1925 0 
L 628 0 
L 628 4666 
z
" transform="scale(0.015625)"/>
       <path id="DejaVuSans-69" d="M 603 3500 
L 1178 3500 
L 1178 0 
L 603 0 
L 603 3500 
z
M 603 4863 
L 1178 4863 
L 1178 4134 
L 603 4134 
L 603 4863 
z
" transform="scale(0.015625)"/>
       <path id="DejaVuSans-73" d="M 2834 3397 
L 2834 2853 
Q 2591 2978 2328 3040 
Q 2066 3103 1784 3103 
Q 1356 3103 1142 2972 
Q 928 2841 928 2578 
Q 928 2378 1081 2264 
Q 1234 2150 1697 2047 
L 1894 2003 
Q 2506 1872 2764 1633 
Q 3022 1394 3022 966 
Q 3022 478 2636 193 
Q 2250 -91 1575 -91 
Q 1294 -91 989 -36 
Q 684 19 347 128 
L 347 722 
Q 666 556 975 473 
Q 1284 391 1588 391 
Q 1994 391 2212 530 
Q 2431 669 2431 922 
Q 2431 1156 2273 1281 
Q 2116 1406 1581 1522 
L 1381 1569 
Q 847 1681 609 1914 
Q 372 2147 372 2553 
Q 372 3047 722 3315 
Q 1072 3584 1716 3584 
Q 2034 3584 2315 3537 
Q 2597 3491 2834 3397 
z
" transform="scale(0.015625)"/>
       <path id="DejaVuSans-74" d="M 1172 4494 
L 1172 3500 
L 2356 3500 
L 2356 3053 
L 1172 3053 
L 1172 1153 
Q 1172 725 1289 603 
Q 1406 481 1766 481 
L 2356 481 
L 2356 0 
L 1766 0 
Q 1100 0 847 248 
Q 594 497 594 1153 
L 594 3053 
L 172 3053 
L 172 3500 
L 594 3500 
L 594 4494 
L 1172 4494 
z
" transform="scale(0.015625)"/>
       <path id="DejaVuSans-61" d="M 2194 1759 
Q 1497 1759 1228 1600 
Q 959 1441 959 1056 
Q 959 750 1161 570 
Q 1363 391 1709 391 
Q 2188 391 2477 730 
Q 2766 1069 2766 1631 
L 2766 1759 
L 2194 1759 
z
M 3341 1997 
L 3341 0 
L 2766 0 
L 2766 531 
Q 2569 213 2275 61 
Q 1981 -91 1556 -91 
Q 1019 -91 701 211 
Q 384 513 384 1019 
Q 384 1609 779 1909 
Q 1175 2209 1959 2209 
L 2766 2209 
L 2766 2266 
Q 2766 2663 2505 2880 
Q 2244 3097 1772 3097 
Q 1472 3097 1187 3025 
Q 903 2953 641 2809 
L 641 3341 
Q 956 3463 1253 3523 
Q 1550 3584 1831 3584 
Q 2591 3584 2966 3190 
Q 3341 2797 3341 1997 
z
" transform="scale(0.015625)"/>
       <path id="DejaVuSans-6e" d="M 3513 2113 
L 3513 0 
L 2938 0 
L 2938 2094 
Q 2938 2591 2744 2837 
Q 2550 3084 2163 3084 
Q 1697 3084 1428 2787 
Q 1159 2491 1159 1978 
L 1159 0 
L 581 0 
L 581 3500 
L 1159 3500 
L 1159 2956 
Q 1366 3272 1645 3428 
Q 1925 3584 2291 3584 
Q 2894 3584 3203 3211 
Q 3513 2838 3513 2113 
z
" transform="scale(0.015625)"/>
       <path id="DejaVuSans-63" d="M 3122 3366 
L 3122 2828 
Q 2878 2963 2633 3030 
Q 2388 3097 2138 3097 
Q 1578 3097 1268 2742 
Q 959 2388 959 1747 
Q 959 1106 1268 751 
Q 1578 397 2138 397 
Q 2388 397 2633 464 
Q 2878 531 3122 666 
L 3122 134 
Q 2881 22 2623 -34 
Q 2366 -91 2075 -91 
Q 1284 -91 818 406 
Q 353 903 353 1747 
Q 353 2603 823 3093 
Q 1294 3584 2113 3584 
Q 2378 3584 2631 3529 
Q 2884 3475 3122 3366 
z
" transform="scale(0.015625)"/>
       <path id="DejaVuSans-65" d="M 3597 1894 
L 3597 1613 
L 953 1613 
Q 991 1019 1311 708 
Q 1631 397 2203 397 
Q 2534 397 2845 478 
Q 3156 559 3463 722 
L 3463 178 
Q 3153 47 2828 -22 
Q 2503 -91 2169 -91 
Q 1331 -91 842 396 
Q 353 884 353 1716 
Q 353 2575 817 3079 
Q 1281 3584 2069 3584 
Q 2775 3584 3186 3129 
Q 3597 2675 3597 1894 
z
M 3022 2063 
Q 3016 2534 2758 2815 
Q 2500 3097 2075 3097 
Q 1594 3097 1305 2825 
Q 1016 2553 972 2059 
L 3022 2063 
z
" transform="scale(0.015625)"/>
       <path id="DejaVuSans-20" transform="scale(0.015625)"/>
       <path id="DejaVuSans-5b" d="M 550 4863 
L 1875 4863 
L 1875 4416 
L 1125 4416 
L 1125 -397 
L 1875 -397 
L 1875 -844 
L 550 -844 
L 550 4863 
z
" transform="scale(0.015625)"/>
       <path id="DejaVuSans-6d" d="M 3328 2828 
Q 3544 3216 3844 3400 
Q 4144 3584 4550 3584 
Q 5097 3584 5394 3201 
Q 5691 2819 5691 2113 
L 5691 0 
L 5113 0 
L 5113 2094 
Q 5113 2597 4934 2840 
Q 4756 3084 4391 3084 
Q 3944 3084 3684 2787 
Q 3425 2491 3425 1978 
L 3425 0 
L 2847 0 
L 2847 2094 
Q 2847 2600 2669 2842 
Q 2491 3084 2119 3084 
Q 1678 3084 1418 2786 
Q 1159 2488 1159 1978 
L 1159 0 
L 581 0 
L 581 3500 
L 1159 3500 
L 1159 2956 
Q 1356 3278 1631 3431 
Q 1906 3584 2284 3584 
Q 2666 3584 2933 3390 
Q 3200 3197 3328 2828 
z
" transform="scale(0.015625)"/>
       <path id="DejaVuSans-5d" d="M 1947 4863 
L 1947 -844 
L 622 -844 
L 622 -397 
L 1369 -397 
L 1369 4416 
L 622 4416 
L 622 4863 
L 1947 4863 
z
" transform="scale(0.015625)"/>
      </defs>
      <use xlink:href="#DejaVuSans-44"/>
      <use xlink:href="#DejaVuSans-69" x="77.001953"/>
      <use xlink:href="#DejaVuSans-73" x="104.785156"/>
      <use xlink:href="#DejaVuSans-74" x="156.884766"/>
      <use xlink:href="#DejaVuSans-61" x="196.09375"/>
      <use xlink:href="#DejaVuSans-6e" x="257.373047"/>
      <use xlink:href="#DejaVuSans-63" x="320.751953"/>
      <use xlink:href="#DejaVuSans-65" x="375.732422"/>
      <use xlink:href="#DejaVuSans-20" x="437.255859"/>
      <use xlink:href="#DejaVuSans-5b" x="469.042969"/>
      <use xlink:href="#DejaVuSans-6d" x="508.056641"/>
      <use xlink:href="#DejaVuSans-5d" x="605.46875"/>
     </g>
    </g>
   </g>
   <g id="matplotlib.axis_2">
    <g id="ytick_1">
     <g id="line2d_7">
      <defs>
       <path id="maf22a63531" d="M 0 0 
L -3.5 0 
" style="stroke: #000000; stroke-width: 0.8"/>
      </defs>
      <g>
       <use xlink:href="#maf22a63531" x="57.6" y="315.830147" style="stroke: #000000; stroke-width: 0.8"/>
      </g>
     </g>
     <g id="text_8">
      <!-- 20 -->
      <g transform="translate(37.875 319.629366) scale(0.1 -0.1)">
       <use xlink:href="#DejaVuSans-32"/>
       <use xlink:href="#DejaVuSans-30" x="63.623047"/>
      </g>
     </g>
    </g>
    <g id="ytick_2">
     <g id="line2d_8">
      <g>
       <use xlink:href="#maf22a63531" x="57.6" y="288.167315" style="stroke: #000000; stroke-width: 0.8"/>
      </g>
     </g>
     <g id="text_9">
      <!-- 30 -->
      <g transform="translate(37.875 291.966534) scale(0.1 -0.1)">
       <defs>
        <path id="DejaVuSans-33" d="M 2597 2516 
Q 3050 2419 3304 2112 
Q 3559 1806 3559 1356 
Q 3559 666 3084 287 
Q 2609 -91 1734 -91 
Q 1441 -91 1130 -33 
Q 819 25 488 141 
L 488 750 
Q 750 597 1062 519 
Q 1375 441 1716 441 
Q 2309 441 2620 675 
Q 2931 909 2931 1356 
Q 2931 1769 2642 2001 
Q 2353 2234 1838 2234 
L 1294 2234 
L 1294 2753 
L 1863 2753 
Q 2328 2753 2575 2939 
Q 2822 3125 2822 3475 
Q 2822 3834 2567 4026 
Q 2313 4219 1838 4219 
Q 1578 4219 1281 4162 
Q 984 4106 628 3988 
L 628 4550 
Q 988 4650 1302 4700 
Q 1616 4750 1894 4750 
Q 2613 4750 3031 4423 
Q 3450 4097 3450 3541 
Q 3450 3153 3228 2886 
Q 3006 2619 2597 2516 
z
" transform="scale(0.015625)"/>
       </defs>
       <use xlink:href="#DejaVuSans-33"/>
       <use xlink:href="#DejaVuSans-30" x="63.623047"/>
      </g>
     </g>
    </g>
    <g id="ytick_3">
     <g id="line2d_9">
      <g>
       <use xlink:href="#maf22a63531" x="57.6" y="260.504483" style="stroke: #000000; stroke-width: 0.8"/>
      </g>
     </g>
     <g id="text_10">
      <!-- 40 -->
      <g transform="translate(37.875 264.303702) scale(0.1 -0.1)">
       <use xlink:href="#DejaVuSans-34"/>
       <use xlink:href="#DejaVuSans-30" x="63.623047"/>
      </g>
     </g>
    </g>
    <g id="ytick_4">
     <g id="line2d_10">
      <g>
       <use xlink:href="#maf22a63531" x="57.6" y="232.841651" style="stroke: #000000; stroke-width: 0.8"/>
      </g>
     </g>
     <g id="text_11">
      <!-- 50 -->
      <g transform="translate(37.875 236.64087) scale(0.1 -0.1)">
       <defs>
        <path id="DejaVuSans-35" d="M 691 4666 
L 3169 4666 
L 3169 4134 
L 1269 4134 
L 1269 2991 
Q 1406 3038 1543 3061 
Q 1681 3084 1819 3084 
Q 2600 3084 3056 2656 
Q 3513 2228 3513 1497 
Q 3513 744 3044 326 
Q 2575 -91 1722 -91 
Q 1428 -91 1123 -41 
Q 819 9 494 109 
L 494 744 
Q 775 591 1075 516 
Q 1375 441 1709 441 
Q 2250 441 2565 725 
Q 2881 1009 2881 1497 
Q 2881 1984 2565 2268 
Q 2250 2553 1709 2553 
Q 1456 2553 1204 2497 
Q 953 2441 691 2322 
L 691 4666 
z
" transform="scale(0.015625)"/>
       </defs>
       <use xlink:href="#DejaVuSans-35"/>
       <use xlink:href="#DejaVuSans-30" x="63.623047"/>
      </g>
     </g>
    </g>
    <g id="ytick_5">
     <g id="line2d_11">
      <g>
       <use xlink:href="#maf22a63531" x="57.6" y="205.178819" style="stroke: #000000; stroke-width: 0.8"/>
      </g>
     </g>
     <g id="text_12">
      <!-- 60 -->
      <g transform="translate(37.875 208.978038) scale(0.1 -0.1)">
       <use xlink:href="#DejaVuSans-36"/>
       <use xlink:href="#DejaVuSans-30" x="63.623047"/>
      </g>
     </g>
    </g>
    <g id="ytick_6">
     <g id="line2d_12">
      <g>
       <use xlink:href="#maf22a63531" x="57.6" y="177.515987" style="stroke: #000000; stroke-width: 0.8"/>
      </g>
     </g>
     <g id="text_13">
      <!-- 70 -->
      <g transform="translate(37.875 181.315206) scale(0.1 -0.1)">
       <defs>
        <path id="DejaVuSans-37" d="M 525 4666 
L 3525 4666 
L 3525 4397 
L 1831 0 
L 1172 0 
L 2766 4134 
L 525 4134 
L 525 4666 
z
" transform="scale(0.015625)"/>
       </defs>
       <use xlink:href="#DejaVuSans-37"/>
       <use xlink:href="#DejaVuSans-30" x="63.623047"/>
      </g>
     </g>
    </g>
    <g id="ytick_7">
     <g id="line2d_13">
      <g>
       <use xlink:href="#maf22a63531" x="57.6" y="149.853155" style="stroke: #000000; stroke-width: 0.8"/>
      </g>
     </g>
     <g id="text_14">
      <!-- 80 -->
      <g transform="translate(37.875 153.652374) scale(0.1 -0.1)">
       <use xlink:href="#DejaVuSans-38"/>
       <use xlink:href="#DejaVuSans-30" x="63.623047"/>
      </g>
     </g>
    </g>
    <g id="ytick_8">
     <g id="line2d_14">
      <g>
       <use xlink:href="#maf22a63531" x="57.6" y="122.190323" style="stroke: #000000; stroke-width: 0.8"/>
      </g>
     </g>
     <g id="text_15">
      <!-- 90 -->
      <g transform="translate(37.875 125.989542) scale(0.1 -0.1)">
       <defs>
        <path id="DejaVuSans-39" d="M 703 97 
L 703 672 
Q 941 559 1184 500 
Q 1428 441 1663 441 
Q 2288 441 2617 861 
Q 2947 1281 2994 2138 
Q 2813 1869 2534 1725 
Q 2256 1581 1919 1581 
Q 1219 1581 811 2004 
Q 403 2428 403 3163 
Q 403 3881 828 4315 
Q 1253 4750 1959 4750 
Q 2769 4750 3195 4129 
Q 3622 3509 3622 2328 
Q 3622 1225 3098 567 
Q 2575 -91 1691 -91 
Q 1453 -91 1209 -44 
Q 966 3 703 97 
z
M 1959 2075 
Q 2384 2075 2632 2365 
Q 2881 2656 2881 3163 
Q 2881 3666 2632 3958 
Q 2384 4250 1959 4250 
Q 1534 4250 1286 3958 
Q 1038 3666 1038 3163 
Q 1038 2656 1286 2365 
Q 1534 2075 1959 2075 
z
" transform="scale(0.015625)"/>
       </defs>
       <use xlink:href="#DejaVuSans-39"/>
       <use xlink:href="#DejaVuSans-30" x="63.623047"/>
      </g>
     </g>
    </g>
    <g id="ytick_9">
     <g id="line2d_15">
      <g>
       <use xlink:href="#maf22a63531" x="57.6" y="94.527491" style="stroke: #000000; stroke-width: 0.8"/>
      </g>
     </g>
     <g id="text_16">
      <!-- 100 -->
      <g transform="translate(31.5125 98.32671) scale(0.1 -0.1)">
       <use xlink:href="#DejaVuSans-31"/>
       <use xlink:href="#DejaVuSans-30" x="63.623047"/>
       <use xlink:href="#DejaVuSans-30" x="127.246094"/>
      </g>
     </g>
    </g>
    <g id="text_17">
     <!-- Temperature [ºC] -->
     <g transform="translate(25.432812 248.186213) rotate(-90) scale(0.1 -0.1)">
      <defs>
       <path id="DejaVuSans-54" d="M -19 4666 
L 3928 4666 
L 3928 4134 
L 2272 4134 
L 2272 0 
L 1638 0 
L 1638 4134 
L -19 4134 
L -19 4666 
z
" transform="scale(0.015625)"/>
       <path id="DejaVuSans-70" d="M 1159 525 
L 1159 -1331 
L 581 -1331 
L 581 3500 
L 1159 3500 
L 1159 2969 
Q 1341 3281 1617 3432 
Q 1894 3584 2278 3584 
Q 2916 3584 3314 3078 
Q 3713 2572 3713 1747 
Q 3713 922 3314 415 
Q 2916 -91 2278 -91 
Q 1894 -91 1617 61 
Q 1341 213 1159 525 
z
M 3116 1747 
Q 3116 2381 2855 2742 
Q 2594 3103 2138 3103 
Q 1681 3103 1420 2742 
Q 1159 2381 1159 1747 
Q 1159 1113 1420 752 
Q 1681 391 2138 391 
Q 2594 391 2855 752 
Q 3116 1113 3116 1747 
z
" transform="scale(0.015625)"/>
       <path id="DejaVuSans-72" d="M 2631 2963 
Q 2534 3019 2420 3045 
Q 2306 3072 2169 3072 
Q 1681 3072 1420 2755 
Q 1159 2438 1159 1844 
L 1159 0 
L 581 0 
L 581 3500 
L 1159 3500 
L 1159 2956 
Q 1341 3275 1631 3429 
Q 1922 3584 2338 3584 
Q 2397 3584 2469 3576 
Q 2541 3569 2628 3553 
L 2631 2963 
z
" transform="scale(0.015625)"/>
       <path id="DejaVuSans-75" d="M 544 1381 
L 544 3500 
L 1119 3500 
L 1119 1403 
Q 1119 906 1312 657 
Q 1506 409 1894 409 
Q 2359 409 2629 706 
Q 2900 1003 2900 1516 
L 2900 3500 
L 3475 3500 
L 3475 0 
L 2900 0 
L 2900 538 
Q 2691 219 2414 64 
Q 2138 -91 1772 -91 
Q 1169 -91 856 284 
Q 544 659 544 1381 
z
M 1991 3584 
L 1991 3584 
z
" transform="scale(0.015625)"/>
       <path id="DejaVuSans-ba" d="M 434 1850 
L 2584 1850 
L 2584 1466 
L 434 1466 
L 434 1850 
z
M 1509 4750 
Q 2069 4750 2391 4404 
Q 2713 4059 2713 3463 
Q 2713 2866 2391 2523 
Q 2069 2181 1509 2181 
Q 950 2181 625 2525 
Q 300 2869 300 3463 
Q 300 4059 625 4404 
Q 950 4750 1509 4750 
z
M 1509 4391 
Q 1181 4391 984 4139 
Q 788 3888 788 3463 
Q 788 3047 986 2797 
Q 1184 2547 1509 2547 
Q 1838 2547 2033 2797 
Q 2228 3047 2228 3463 
Q 2228 3891 2034 4141 
Q 1841 4391 1509 4391 
z
" transform="scale(0.015625)"/>
       <path id="DejaVuSans-43" d="M 4122 4306 
L 4122 3641 
Q 3803 3938 3442 4084 
Q 3081 4231 2675 4231 
Q 1875 4231 1450 3742 
Q 1025 3253 1025 2328 
Q 1025 1406 1450 917 
Q 1875 428 2675 428 
Q 3081 428 3442 575 
Q 3803 722 4122 1019 
L 4122 359 
Q 3791 134 3420 21 
Q 3050 -91 2638 -91 
Q 1578 -91 968 557 
Q 359 1206 359 2328 
Q 359 3453 968 4101 
Q 1578 4750 2638 4750 
Q 3056 4750 3426 4639 
Q 3797 4528 4122 4306 
z
" transform="scale(0.015625)"/>
      </defs>
      <use xlink:href="#DejaVuSans-54"/>
      <use xlink:href="#DejaVuSans-65" x="44.083984"/>
      <use xlink:href="#DejaVuSans-6d" x="105.607422"/>
      <use xlink:href="#DejaVuSans-70" x="203.019531"/>
      <use xlink:href="#DejaVuSans-65" x="266.496094"/>
      <use xlink:href="#DejaVuSans-72" x="328.019531"/>
      <use xlink:href="#DejaVuSans-61" x="369.132812"/>
      <use xlink:href="#DejaVuSans-74" x="430.412109"/>
      <use xlink:href="#DejaVuSans-75" x="469.621094"/>
      <use xlink:href="#DejaVuSans-72" x="533"/>
      <use xlink:href="#DejaVuSans-65" x="571.863281"/>
      <use xlink:href="#DejaVuSans-20" x="633.386719"/>
      <use xlink:href="#DejaVuSans-5b" x="665.173828"/>
      <use xlink:href="#DejaVuSans-ba" x="704.1875"/>
      <use xlink:href="#DejaVuSans-43" x="751.306641"/>
      <use xlink:href="#DejaVuSans-5d" x="821.130859"/>
     </g>
    </g>
   </g>
   <g id="line2d_16">
    <path d="M 73.832727 94.527491 
L 77.112066 120.745665 
L 80.391405 143.857719 
L 83.670744 164.23164 
L 86.950083 182.191823 
L 90.229421 198.024226 
L 93.50876 211.980932 
L 96.788099 224.284159 
L 100.067438 235.129797 
L 103.346777 244.690531 
L 106.626116 253.118586 
L 109.905455 260.548151 
L 113.184793 267.097521 
L 116.464132 272.870974 
L 119.743471 277.960434 
L 123.02281 282.446936 
L 126.302149 286.401913 
L 129.581488 289.888335 
L 132.860826 292.961714 
L 136.140165 295.670984 
L 139.419504 298.059281 
L 142.698843 300.164631 
L 145.978182 302.020557 
L 149.257521 303.656607 
L 152.53686 305.098831 
L 155.816198 306.370192 
L 159.095537 307.490932 
L 162.374876 308.478895 
L 165.654215 309.349813 
L 168.933554 310.117551 
L 172.212893 310.794334 
L 175.492231 311.390937 
L 178.77157 311.916859 
L 182.050909 312.380474 
L 185.330248 312.789164 
L 188.609587 313.149435 
L 191.888926 313.467025 
L 195.168264 313.746989 
L 198.447603 313.993785 
L 201.726942 314.211342 
L 205.006281 314.403125 
L 208.28562 314.572187 
L 211.564959 314.72122 
L 214.844298 314.852597 
L 218.123636 314.968409 
L 221.402975 315.070501 
L 224.682314 315.160497 
L 227.961653 315.239832 
L 231.240992 315.309767 
L 234.520331 315.371418 
L 237.799669 315.425764 
L 241.079008 315.473671 
L 244.358347 315.515903 
L 247.637686 315.553132 
L 250.917025 315.58595 
L 254.196364 315.61488 
L 257.475702 315.640382 
L 260.755041 315.662863 
L 264.03438 315.68268 
L 267.313719 315.70015 
L 270.593058 315.71555 
L 273.872397 315.729125 
L 277.151736 315.741091 
L 280.431074 315.75164 
L 283.710413 315.760939 
L 286.989752 315.769135 
L 290.269091 315.776361 
L 293.54843 315.78273 
L 296.827769 315.788343 
L 300.107107 315.793292 
L 303.386446 315.797653 
L 306.665785 315.801497 
L 309.945124 315.804885 
L 313.224463 315.807871 
L 316.503802 315.810502 
L 319.78314 315.812821 
L 323.062479 315.814863 
L 326.341818 315.816662 
L 329.621157 315.818247 
L 332.900496 315.819641 
L 336.179835 315.820869 
L 339.459174 315.821949 
L 342.738512 315.822898 
L 346.017851 315.823732 
L 349.29719 315.824464 
L 352.576529 315.825105 
L 355.855868 315.825667 
L 359.135207 315.826156 
L 362.414545 315.826582 
L 365.693884 315.826952 
L 368.973223 315.82727 
L 372.252562 315.827543 
L 375.531901 315.827774 
L 378.81124 315.827968 
L 382.090579 315.828126 
L 385.369917 315.828253 
L 388.649256 315.828349 
L 391.928595 315.828417 
L 395.207934 315.828458 
L 398.487273 315.828471 
" clip-path="url(#pc6afad7c3e)" style="fill: none; stroke: #1f77b4; stroke-width: 1.5; stroke-linecap: square"/>
   </g>
   <g id="line2d_17">
    <path d="M 73.832727 94.527491 
L 77.112066 120.745665 
L 80.391405 143.857719 
L 83.670744 164.23164 
L 86.950083 182.191823 
L 90.229421 198.024226 
L 93.50876 211.980932 
L 96.788099 224.284159 
L 100.067438 235.129797 
L 103.346777 244.690531 
L 106.626116 253.118586 
L 109.905455 260.548151 
L 113.184793 267.097521 
L 116.464132 272.870974 
L 119.743471 277.960434 
L 123.02281 282.446936 
L 126.302149 286.401913 
L 129.581488 289.888335 
L 132.860826 292.961714 
L 136.140165 295.670984 
L 139.419504 298.059281 
L 142.698843 300.164631 
L 145.978182 302.020557 
L 149.257521 303.656607 
L 152.53686 305.098831 
L 155.816198 306.370192 
L 159.095537 307.490932 
L 162.374876 308.478895 
L 165.654215 309.349813 
L 168.933554 310.117551 
L 172.212893 310.794334 
L 175.492231 311.390937 
L 178.77157 311.916859 
L 182.050909 312.380474 
L 185.330248 312.789164 
L 188.609587 313.149435 
L 191.888926 313.467025 
L 195.168264 313.746989 
L 198.447603 313.993785 
L 201.726942 314.211342 
L 205.006281 314.403125 
L 208.28562 314.572187 
L 211.564959 314.72122 
L 214.844298 314.852597 
L 218.123636 314.968409 
L 221.402975 315.070501 
L 224.682314 315.160497 
L 227.961653 315.239832 
L 231.240992 315.309767 
L 234.520331 315.371418 
L 237.799669 315.425764 
L 241.079008 315.473672 
L 244.358347 315.515903 
L 247.637686 315.553132 
L 250.917025 315.58595 
L 254.196364 315.61488 
L 257.475702 315.640382 
L 260.755041 315.662863 
L 264.03438 315.682681 
L 267.313719 315.70015 
L 270.593058 315.71555 
L 273.872397 315.729125 
L 277.151736 315.741091 
L 280.431074 315.75164 
L 283.710413 315.760939 
L 286.989752 315.769135 
L 290.269091 315.776361 
L 293.54843 315.78273 
L 296.827769 315.788344 
L 300.107107 315.793292 
L 303.386446 315.797654 
L 306.665785 315.801498 
L 309.945124 315.804886 
L 313.224463 315.807872 
L 316.503802 315.810503 
L 319.78314 315.812821 
L 323.062479 315.814864 
L 326.341818 315.816663 
L 329.621157 315.818247 
L 332.900496 315.819642 
L 336.179835 315.82087 
L 339.459174 315.82195 
L 342.738512 315.822899 
L 346.017851 315.823733 
L 349.29719 315.824465 
L 352.576529 315.825107 
L 355.855868 315.825668 
L 359.135207 315.826158 
L 362.414545 315.826585 
L 365.693884 315.826954 
L 368.973223 315.827273 
L 372.252562 315.827546 
L 375.531901 315.827778 
L 378.81124 315.827972 
L 382.090579 315.828131 
L 385.369917 315.828258 
L 388.649256 315.828355 
L 391.928595 315.828424 
L 395.207934 315.828465 
L 398.487273 315.82848 
" clip-path="url(#pc6afad7c3e)" style="fill: none; stroke: #ff7f0e; stroke-width: 1.5; stroke-linecap: square"/>
   </g>
   <g id="line2d_18">
    <path d="M 73.832727 94.527491 
L 77.112066 120.745665 
L 80.391405 143.857719 
L 83.670744 164.23164 
L 86.950083 182.191823 
L 90.229421 198.024226 
L 93.50876 211.980932 
L 96.788099 224.284159 
L 100.067438 235.129797 
L 103.346777 244.690531 
L 106.626116 253.118586 
L 109.905455 260.548151 
L 113.184793 267.097521 
L 116.464132 272.870974 
L 119.743471 277.960434 
L 123.02281 282.446936 
L 126.302149 286.401913 
L 129.581488 289.888335 
L 132.860826 292.961714 
L 136.140165 295.670984 
L 139.419504 298.059281 
L 142.698843 300.164631 
L 145.978182 302.020557 
L 149.257521 303.656607 
L 152.53686 305.098831 
L 155.816198 306.370192 
L 159.095537 307.490932 
L 162.374876 308.478896 
L 165.654215 309.349813 
L 168.933554 310.117552 
L 172.212893 310.794334 
L 175.492231 311.390937 
L 178.77157 311.916859 
L 182.050909 312.380475 
L 185.330248 312.789164 
L 188.609587 313.149436 
L 191.888926 313.467025 
L 195.168264 313.746989 
L 198.447603 313.993785 
L 201.726942 314.211343 
L 205.006281 314.403126 
L 208.28562 314.572188 
L 211.564959 314.721221 
L 214.844298 314.852598 
L 218.123636 314.96841 
L 221.402975 315.070502 
L 224.682314 315.160498 
L 227.961653 315.239833 
L 231.240992 315.309769 
L 234.520331 315.371419 
L 237.799669 315.425766 
L 241.079008 315.473673 
L 244.358347 315.515906 
L 247.637686 315.553134 
L 250.917025 315.585953 
L 254.196364 315.614883 
L 257.475702 315.640386 
L 260.755041 315.662867 
L 264.03438 315.682685 
L 267.313719 315.700155 
L 270.593058 315.715556 
L 273.872397 315.729132 
L 277.151736 315.741099 
L 280.431074 315.751649 
L 283.710413 315.760949 
L 286.989752 315.769147 
L 290.269091 315.776374 
L 293.54843 315.782744 
L 296.827769 315.78836 
L 300.107107 315.793311 
L 303.386446 315.797675 
L 306.665785 315.801522 
L 309.945124 315.804913 
L 313.224463 315.807903 
L 316.503802 315.810538 
L 319.78314 315.812861 
L 323.062479 315.814909 
L 326.341818 315.816715 
L 329.621157 315.818306 
L 332.900496 315.819709 
L 336.179835 315.820945 
L 339.459174 315.822036 
L 342.738512 315.822997 
L 346.017851 315.823844 
L 349.29719 315.824591 
L 352.576529 315.825249 
L 355.855868 315.825829 
L 359.135207 315.826341 
L 362.414545 315.826792 
L 365.693884 315.827189 
L 368.973223 315.82754 
L 372.252562 315.827849 
L 375.531901 315.828121 
L 378.81124 315.828361 
L 382.090579 315.828573 
L 385.369917 315.828759 
L 388.649256 315.828924 
L 391.928595 315.829069 
L 395.207934 315.829196 
L 398.487273 315.829309 
" clip-path="url(#pc6afad7c3e)" style="fill: none; stroke: #2ca02c; stroke-width: 1.5; stroke-linecap: square"/>
   </g>
   <g id="patch_3">
    <path d="M 57.6 326.8944 
L 57.6 83.4624 
" style="fill: none; stroke: #000000; stroke-width: 0.8; stroke-linejoin: miter; stroke-linecap: square"/>
   </g>
   <g id="patch_4">
    <path d="M 414.72 326.8944 
L 414.72 83.4624 
" style="fill: none; stroke: #000000; stroke-width: 0.8; stroke-linejoin: miter; stroke-linecap: square"/>
   </g>
   <g id="patch_5">
    <path d="M 57.6 326.8944 
L 414.72 326.8944 
" style="fill: none; stroke: #000000; stroke-width: 0.8; stroke-linejoin: miter; stroke-linecap: square"/>
   </g>
   <g id="patch_6">
    <path d="M 57.6 83.4624 
L 414.72 83.4624 
" style="fill: none; stroke: #000000; stroke-width: 0.8; stroke-linejoin: miter; stroke-linecap: square"/>
   </g>
   <g id="text_18">
    <!-- L = 1 [m] -->
    <g transform="translate(207.724687 77.4624) scale(0.12 -0.12)">
     <defs>
      <path id="DejaVuSans-4c" d="M 628 4666 
L 1259 4666 
L 1259 531 
L 3531 531 
L 3531 0 
L 628 0 
L 628 4666 
z
" transform="scale(0.015625)"/>
      <path id="DejaVuSans-3d" d="M 678 2906 
L 4684 2906 
L 4684 2381 
L 678 2381 
L 678 2906 
z
M 678 1631 
L 4684 1631 
L 4684 1100 
L 678 1100 
L 678 1631 
z
" transform="scale(0.015625)"/>
     </defs>
     <use xlink:href="#DejaVuSans-4c"/>
     <use xlink:href="#DejaVuSans-20" x="55.712891"/>
     <use xlink:href="#DejaVuSans-3d" x="87.5"/>
     <use xlink:href="#DejaVuSans-20" x="171.289062"/>
     <use xlink:href="#DejaVuSans-31" x="203.076172"/>
     <use xlink:href="#DejaVuSans-20" x="266.699219"/>
     <use xlink:href="#DejaVuSans-5b" x="298.486328"/>
     <use xlink:href="#DejaVuSans-6d" x="337.5"/>
     <use xlink:href="#DejaVuSans-5d" x="434.912109"/>
    </g>
   </g>
   <g id="legend_1">
    <g id="patch_7">
     <path d="M 261.248125 135.496775 
L 407.72 135.496775 
Q 409.72 135.496775 409.72 133.496775 
L 409.72 90.4624 
Q 409.72 88.4624 407.72 88.4624 
L 261.248125 88.4624 
Q 259.248125 88.4624 259.248125 90.4624 
L 259.248125 133.496775 
Q 259.248125 135.496775 261.248125 135.496775 
z
" style="fill: #ffffff; opacity: 0.8; stroke: #cccccc; stroke-linejoin: miter"/>
    </g>
    <g id="line2d_19">
     <path d="M 263.248125 96.560838 
L 273.248125 96.560838 
L 283.248125 96.560838 
" style="fill: none; stroke: #1f77b4; stroke-width: 1.5; stroke-linecap: square"/>
    </g>
    <g id="text_19">
     <!-- Adiabatic Hypothesis -->
     <g transform="translate(291.248125 100.060838) scale(0.1 -0.1)">
      <defs>
       <path id="DejaVuSans-41" d="M 2188 4044 
L 1331 1722 
L 3047 1722 
L 2188 4044 
z
M 1831 4666 
L 2547 4666 
L 4325 0 
L 3669 0 
L 3244 1197 
L 1141 1197 
L 716 0 
L 50 0 
L 1831 4666 
z
" transform="scale(0.015625)"/>
       <path id="DejaVuSans-64" d="M 2906 2969 
L 2906 4863 
L 3481 4863 
L 3481 0 
L 2906 0 
L 2906 525 
Q 2725 213 2448 61 
Q 2172 -91 1784 -91 
Q 1150 -91 751 415 
Q 353 922 353 1747 
Q 353 2572 751 3078 
Q 1150 3584 1784 3584 
Q 2172 3584 2448 3432 
Q 2725 3281 2906 2969 
z
M 947 1747 
Q 947 1113 1208 752 
Q 1469 391 1925 391 
Q 2381 391 2643 752 
Q 2906 1113 2906 1747 
Q 2906 2381 2643 2742 
Q 2381 3103 1925 3103 
Q 1469 3103 1208 2742 
Q 947 2381 947 1747 
z
" transform="scale(0.015625)"/>
       <path id="DejaVuSans-62" d="M 3116 1747 
Q 3116 2381 2855 2742 
Q 2594 3103 2138 3103 
Q 1681 3103 1420 2742 
Q 1159 2381 1159 1747 
Q 1159 1113 1420 752 
Q 1681 391 2138 391 
Q 2594 391 2855 752 
Q 3116 1113 3116 1747 
z
M 1159 2969 
Q 1341 3281 1617 3432 
Q 1894 3584 2278 3584 
Q 2916 3584 3314 3078 
Q 3713 2572 3713 1747 
Q 3713 922 3314 415 
Q 2916 -91 2278 -91 
Q 1894 -91 1617 61 
Q 1341 213 1159 525 
L 1159 0 
L 581 0 
L 581 4863 
L 1159 4863 
L 1159 2969 
z
" transform="scale(0.015625)"/>
       <path id="DejaVuSans-48" d="M 628 4666 
L 1259 4666 
L 1259 2753 
L 3553 2753 
L 3553 4666 
L 4184 4666 
L 4184 0 
L 3553 0 
L 3553 2222 
L 1259 2222 
L 1259 0 
L 628 0 
L 628 4666 
z
" transform="scale(0.015625)"/>
       <path id="DejaVuSans-79" d="M 2059 -325 
Q 1816 -950 1584 -1140 
Q 1353 -1331 966 -1331 
L 506 -1331 
L 506 -850 
L 844 -850 
Q 1081 -850 1212 -737 
Q 1344 -625 1503 -206 
L 1606 56 
L 191 3500 
L 800 3500 
L 1894 763 
L 2988 3500 
L 3597 3500 
L 2059 -325 
z
" transform="scale(0.015625)"/>
       <path id="DejaVuSans-6f" d="M 1959 3097 
Q 1497 3097 1228 2736 
Q 959 2375 959 1747 
Q 959 1119 1226 758 
Q 1494 397 1959 397 
Q 2419 397 2687 759 
Q 2956 1122 2956 1747 
Q 2956 2369 2687 2733 
Q 2419 3097 1959 3097 
z
M 1959 3584 
Q 2709 3584 3137 3096 
Q 3566 2609 3566 1747 
Q 3566 888 3137 398 
Q 2709 -91 1959 -91 
Q 1206 -91 779 398 
Q 353 888 353 1747 
Q 353 2609 779 3096 
Q 1206 3584 1959 3584 
z
" transform="scale(0.015625)"/>
       <path id="DejaVuSans-68" d="M 3513 2113 
L 3513 0 
L 2938 0 
L 2938 2094 
Q 2938 2591 2744 2837 
Q 2550 3084 2163 3084 
Q 1697 3084 1428 2787 
Q 1159 2491 1159 1978 
L 1159 0 
L 581 0 
L 581 4863 
L 1159 4863 
L 1159 2956 
Q 1366 3272 1645 3428 
Q 1925 3584 2291 3584 
Q 2894 3584 3203 3211 
Q 3513 2838 3513 2113 
z
" transform="scale(0.015625)"/>
      </defs>
      <use xlink:href="#DejaVuSans-41"/>
      <use xlink:href="#DejaVuSans-64" x="66.658203"/>
      <use xlink:href="#DejaVuSans-69" x="130.134766"/>
      <use xlink:href="#DejaVuSans-61" x="157.917969"/>
      <use xlink:href="#DejaVuSans-62" x="219.197266"/>
      <use xlink:href="#DejaVuSans-61" x="282.673828"/>
      <use xlink:href="#DejaVuSans-74" x="343.953125"/>
      <use xlink:href="#DejaVuSans-69" x="383.162109"/>
      <use xlink:href="#DejaVuSans-63" x="410.945312"/>
      <use xlink:href="#DejaVuSans-20" x="465.925781"/>
      <use xlink:href="#DejaVuSans-48" x="497.712891"/>
      <use xlink:href="#DejaVuSans-79" x="572.908203"/>
      <use xlink:href="#DejaVuSans-70" x="632.087891"/>
      <use xlink:href="#DejaVuSans-6f" x="695.564453"/>
      <use xlink:href="#DejaVuSans-74" x="756.746094"/>
      <use xlink:href="#DejaVuSans-68" x="795.955078"/>
      <use xlink:href="#DejaVuSans-65" x="859.333984"/>
      <use xlink:href="#DejaVuSans-73" x="920.857422"/>
      <use xlink:href="#DejaVuSans-69" x="972.957031"/>
      <use xlink:href="#DejaVuSans-73" x="1000.740234"/>
     </g>
    </g>
    <g id="line2d_20">
     <path d="M 263.248125 111.238963 
L 273.248125 111.238963 
L 283.248125 111.238963 
" style="fill: none; stroke: #ff7f0e; stroke-width: 1.5; stroke-linecap: square"/>
    </g>
    <g id="text_20">
     <!-- Convective Hypothesis -->
     <g transform="translate(291.248125 114.738963) scale(0.1 -0.1)">
      <defs>
       <path id="DejaVuSans-76" d="M 191 3500 
L 800 3500 
L 1894 563 
L 2988 3500 
L 3597 3500 
L 2284 0 
L 1503 0 
L 191 3500 
z
" transform="scale(0.015625)"/>
      </defs>
      <use xlink:href="#DejaVuSans-43"/>
      <use xlink:href="#DejaVuSans-6f" x="69.824219"/>
      <use xlink:href="#DejaVuSans-6e" x="131.005859"/>
      <use xlink:href="#DejaVuSans-76" x="194.384766"/>
      <use xlink:href="#DejaVuSans-65" x="253.564453"/>
      <use xlink:href="#DejaVuSans-63" x="315.087891"/>
      <use xlink:href="#DejaVuSans-74" x="370.068359"/>
      <use xlink:href="#DejaVuSans-69" x="409.277344"/>
      <use xlink:href="#DejaVuSans-76" x="437.060547"/>
      <use xlink:href="#DejaVuSans-65" x="496.240234"/>
      <use xlink:href="#DejaVuSans-20" x="557.763672"/>
      <use xlink:href="#DejaVuSans-48" x="589.550781"/>
      <use xlink:href="#DejaVuSans-79" x="664.746094"/>
      <use xlink:href="#DejaVuSans-70" x="723.925781"/>
      <use xlink:href="#DejaVuSans-6f" x="787.402344"/>
      <use xlink:href="#DejaVuSans-74" x="848.583984"/>
      <use xlink:href="#DejaVuSans-68" x="887.792969"/>
      <use xlink:href="#DejaVuSans-65" x="951.171875"/>
      <use xlink:href="#DejaVuSans-73" x="1012.695312"/>
      <use xlink:href="#DejaVuSans-69" x="1064.794922"/>
      <use xlink:href="#DejaVuSans-73" x="1092.578125"/>
     </g>
    </g>
    <g id="line2d_21">
     <path d="M 263.248125 125.917088 
L 273.248125 125.917088 
L 283.248125 125.917088 
" style="fill: none; stroke: #2ca02c; stroke-width: 1.5; stroke-linecap: square"/>
    </g>
    <g id="text_21">
     <!-- Infinite Hypothesis -->
     <g transform="translate(291.248125 129.417088) scale(0.1 -0.1)">
      <defs>
       <path id="DejaVuSans-49" d="M 628 4666 
L 1259 4666 
L 1259 0 
L 628 0 
L 628 4666 
z
" transform="scale(0.015625)"/>
       <path id="DejaVuSans-66" d="M 2375 4863 
L 2375 4384 
L 1825 4384 
Q 1516 4384 1395 4259 
Q 1275 4134 1275 3809 
L 1275 3500 
L 2222 3500 
L 2222 3053 
L 1275 3053 
L 1275 0 
L 697 0 
L 697 3053 
L 147 3053 
L 147 3500 
L 697 3500 
L 697 3744 
Q 697 4328 969 4595 
Q 1241 4863 1831 4863 
L 2375 4863 
z
" transform="scale(0.015625)"/>
      </defs>
      <use xlink:href="#DejaVuSans-49"/>
      <use xlink:href="#DejaVuSans-6e" x="29.492188"/>
      <use xlink:href="#DejaVuSans-66" x="92.871094"/>
      <use xlink:href="#DejaVuSans-69" x="128.076172"/>
      <use xlink:href="#DejaVuSans-6e" x="155.859375"/>
      <use xlink:href="#DejaVuSans-69" x="219.238281"/>
      <use xlink:href="#DejaVuSans-74" x="247.021484"/>
      <use xlink:href="#DejaVuSans-65" x="286.230469"/>
      <use xlink:href="#DejaVuSans-20" x="347.753906"/>
      <use xlink:href="#DejaVuSans-48" x="379.541016"/>
      <use xlink:href="#DejaVuSans-79" x="454.736328"/>
      <use xlink:href="#DejaVuSans-70" x="513.916016"/>
      <use xlink:href="#DejaVuSans-6f" x="577.392578"/>
      <use xlink:href="#DejaVuSans-74" x="638.574219"/>
      <use xlink:href="#DejaVuSans-68" x="677.783203"/>
      <use xlink:href="#DejaVuSans-65" x="741.162109"/>
      <use xlink:href="#DejaVuSans-73" x="802.685547"/>
      <use xlink:href="#DejaVuSans-69" x="854.785156"/>
      <use xlink:href="#DejaVuSans-73" x="882.568359"/>
     </g>
    </g>
   </g>
  </g>
  <g id="axes_2">
   <g id="patch_8">
    <path d="M 57.6 619.0128 
L 414.72 619.0128 
L 414.72 375.5808 
L 57.6 375.5808 
z
" style="fill: #ffffff"/>
   </g>
   <g id="matplotlib.axis_3">
    <g id="xtick_7">
     <g id="line2d_22">
      <g>
       <use xlink:href="#m7b5d02c710" x="73.832727" y="619.0128" style="stroke: #000000; stroke-width: 0.8"/>
      </g>
     </g>
     <g id="text_22">
      <!-- 0.00 -->
      <g transform="translate(62.699915 633.611238) scale(0.1 -0.1)">
       <use xlink:href="#DejaVuSans-30"/>
       <use xlink:href="#DejaVuSans-2e" x="63.623047"/>
       <use xlink:href="#DejaVuSans-30" x="95.410156"/>
       <use xlink:href="#DejaVuSans-30" x="159.033203"/>
      </g>
     </g>
    </g>
    <g id="xtick_8">
     <g id="line2d_23">
      <g>
       <use xlink:href="#m7b5d02c710" x="138.763636" y="619.0128" style="stroke: #000000; stroke-width: 0.8"/>
      </g>
     </g>
     <g id="text_23">
      <!-- 0.02 -->
      <g transform="translate(127.630824 633.611238) scale(0.1 -0.1)">
       <use xlink:href="#DejaVuSans-30"/>
       <use xlink:href="#DejaVuSans-2e" x="63.623047"/>
       <use xlink:href="#DejaVuSans-30" x="95.410156"/>
       <use xlink:href="#DejaVuSans-32" x="159.033203"/>
      </g>
     </g>
    </g>
    <g id="xtick_9">
     <g id="line2d_24">
      <g>
       <use xlink:href="#m7b5d02c710" x="203.694545" y="619.0128" style="stroke: #000000; stroke-width: 0.8"/>
      </g>
     </g>
     <g id="text_24">
      <!-- 0.04 -->
      <g transform="translate(192.561733 633.611238) scale(0.1 -0.1)">
       <use xlink:href="#DejaVuSans-30"/>
       <use xlink:href="#DejaVuSans-2e" x="63.623047"/>
       <use xlink:href="#DejaVuSans-30" x="95.410156"/>
       <use xlink:href="#DejaVuSans-34" x="159.033203"/>
      </g>
     </g>
    </g>
    <g id="xtick_10">
     <g id="line2d_25">
      <g>
       <use xlink:href="#m7b5d02c710" x="268.625455" y="619.0128" style="stroke: #000000; stroke-width: 0.8"/>
      </g>
     </g>
     <g id="text_25">
      <!-- 0.06 -->
      <g transform="translate(257.492642 633.611238) scale(0.1 -0.1)">
       <use xlink:href="#DejaVuSans-30"/>
       <use xlink:href="#DejaVuSans-2e" x="63.623047"/>
       <use xlink:href="#DejaVuSans-30" x="95.410156"/>
       <use xlink:href="#DejaVuSans-36" x="159.033203"/>
      </g>
     </g>
    </g>
    <g id="xtick_11">
     <g id="line2d_26">
      <g>
       <use xlink:href="#m7b5d02c710" x="333.556364" y="619.0128" style="stroke: #000000; stroke-width: 0.8"/>
      </g>
     </g>
     <g id="text_26">
      <!-- 0.08 -->
      <g transform="translate(322.423551 633.611238) scale(0.1 -0.1)">
       <use xlink:href="#DejaVuSans-30"/>
       <use xlink:href="#DejaVuSans-2e" x="63.623047"/>
       <use xlink:href="#DejaVuSans-30" x="95.410156"/>
       <use xlink:href="#DejaVuSans-38" x="159.033203"/>
      </g>
     </g>
    </g>
    <g id="xtick_12">
     <g id="line2d_27">
      <g>
       <use xlink:href="#m7b5d02c710" x="398.487273" y="619.0128" style="stroke: #000000; stroke-width: 0.8"/>
      </g>
     </g>
     <g id="text_27">
      <!-- 0.10 -->
      <g transform="translate(387.35446 633.611238) scale(0.1 -0.1)">
       <use xlink:href="#DejaVuSans-30"/>
       <use xlink:href="#DejaVuSans-2e" x="63.623047"/>
       <use xlink:href="#DejaVuSans-31" x="95.410156"/>
       <use xlink:href="#DejaVuSans-30" x="159.033203"/>
      </g>
     </g>
    </g>
    <g id="text_28">
     <!-- Distance [m] -->
     <g transform="translate(203.936562 647.289363) scale(0.1 -0.1)">
      <use xlink:href="#DejaVuSans-44"/>
      <use xlink:href="#DejaVuSans-69" x="77.001953"/>
      <use xlink:href="#DejaVuSans-73" x="104.785156"/>
      <use xlink:href="#DejaVuSans-74" x="156.884766"/>
      <use xlink:href="#DejaVuSans-61" x="196.09375"/>
      <use xlink:href="#DejaVuSans-6e" x="257.373047"/>
      <use xlink:href="#DejaVuSans-63" x="320.751953"/>
      <use xlink:href="#DejaVuSans-65" x="375.732422"/>
      <use xlink:href="#DejaVuSans-20" x="437.255859"/>
      <use xlink:href="#DejaVuSans-5b" x="469.042969"/>
      <use xlink:href="#DejaVuSans-6d" x="508.056641"/>
      <use xlink:href="#DejaVuSans-5d" x="605.46875"/>
     </g>
    </g>
   </g>
   <g id="matplotlib.axis_4">
    <g id="ytick_10">
     <g id="line2d_28">
      <g>
       <use xlink:href="#maf22a63531" x="57.6" y="575.212973" style="stroke: #000000; stroke-width: 0.8"/>
      </g>
     </g>
     <g id="text_29">
      <!-- 92 -->
      <g transform="translate(37.875 579.012191) scale(0.1 -0.1)">
       <use xlink:href="#DejaVuSans-39"/>
       <use xlink:href="#DejaVuSans-32" x="63.623047"/>
      </g>
     </g>
    </g>
    <g id="ytick_11">
     <g id="line2d_29">
      <g>
       <use xlink:href="#maf22a63531" x="57.6" y="528.071202" style="stroke: #000000; stroke-width: 0.8"/>
      </g>
     </g>
     <g id="text_30">
      <!-- 94 -->
      <g transform="translate(37.875 531.870421) scale(0.1 -0.1)">
       <use xlink:href="#DejaVuSans-39"/>
       <use xlink:href="#DejaVuSans-34" x="63.623047"/>
      </g>
     </g>
    </g>
    <g id="ytick_12">
     <g id="line2d_30">
      <g>
       <use xlink:href="#maf22a63531" x="57.6" y="480.929432" style="stroke: #000000; stroke-width: 0.8"/>
      </g>
     </g>
     <g id="text_31">
      <!-- 96 -->
      <g transform="translate(37.875 484.72865) scale(0.1 -0.1)">
       <use xlink:href="#DejaVuSans-39"/>
       <use xlink:href="#DejaVuSans-36" x="63.623047"/>
      </g>
     </g>
    </g>
    <g id="ytick_13">
     <g id="line2d_31">
      <g>
       <use xlink:href="#maf22a63531" x="57.6" y="433.787661" style="stroke: #000000; stroke-width: 0.8"/>
      </g>
     </g>
     <g id="text_32">
      <!-- 98 -->
      <g transform="translate(37.875 437.58688) scale(0.1 -0.1)">
       <use xlink:href="#DejaVuSans-39"/>
       <use xlink:href="#DejaVuSans-38" x="63.623047"/>
      </g>
     </g>
    </g>
    <g id="ytick_14">
     <g id="line2d_32">
      <g>
       <use xlink:href="#maf22a63531" x="57.6" y="386.645891" style="stroke: #000000; stroke-width: 0.8"/>
      </g>
     </g>
     <g id="text_33">
      <!-- 100 -->
      <g transform="translate(31.5125 390.44511) scale(0.1 -0.1)">
       <use xlink:href="#DejaVuSans-31"/>
       <use xlink:href="#DejaVuSans-30" x="63.623047"/>
       <use xlink:href="#DejaVuSans-30" x="127.246094"/>
      </g>
     </g>
    </g>
    <g id="text_34">
     <!-- Temperature [ºC] -->
     <g transform="translate(25.432812 540.304612) rotate(-90) scale(0.1 -0.1)">
      <use xlink:href="#DejaVuSans-54"/>
      <use xlink:href="#DejaVuSans-65" x="44.083984"/>
      <use xlink:href="#DejaVuSans-6d" x="105.607422"/>
      <use xlink:href="#DejaVuSans-70" x="203.019531"/>
      <use xlink:href="#DejaVuSans-65" x="266.496094"/>
      <use xlink:href="#DejaVuSans-72" x="328.019531"/>
      <use xlink:href="#DejaVuSans-61" x="369.132812"/>
      <use xlink:href="#DejaVuSans-74" x="430.412109"/>
      <use xlink:href="#DejaVuSans-75" x="469.621094"/>
      <use xlink:href="#DejaVuSans-72" x="533"/>
      <use xlink:href="#DejaVuSans-65" x="571.863281"/>
      <use xlink:href="#DejaVuSans-20" x="633.386719"/>
      <use xlink:href="#DejaVuSans-5b" x="665.173828"/>
      <use xlink:href="#DejaVuSans-ba" x="704.1875"/>
      <use xlink:href="#DejaVuSans-43" x="751.306641"/>
      <use xlink:href="#DejaVuSans-5d" x="821.130859"/>
     </g>
    </g>
   </g>
   <g id="line2d_33">
    <path d="M 73.832727 386.645891 
L 77.112066 386.939698 
L 80.391405 387.230508 
L 83.670744 387.51832 
L 86.950083 387.803136 
L 90.229421 388.084954 
L 93.50876 388.363777 
L 96.788099 388.639604 
L 100.067438 388.912436 
L 103.346777 389.182273 
L 106.626116 389.449115 
L 109.905455 389.712964 
L 113.184793 389.973819 
L 116.464132 390.231682 
L 119.743471 390.486551 
L 123.02281 390.738428 
L 126.302149 390.987314 
L 129.581488 391.233207 
L 132.860826 391.47611 
L 136.140165 391.716022 
L 139.419504 391.952944 
L 142.698843 392.186876 
L 145.978182 392.417818 
L 149.257521 392.645771 
L 152.53686 392.870736 
L 155.816198 393.092711 
L 159.095537 393.311699 
L 162.374876 393.527699 
L 165.654215 393.740711 
L 168.933554 393.950737 
L 172.212893 394.157775 
L 175.492231 394.361827 
L 178.77157 394.562893 
L 182.050909 394.760974 
L 185.330248 394.956068 
L 188.609587 395.148178 
L 191.888926 395.337303 
L 195.168264 395.523443 
L 198.447603 395.706599 
L 201.726942 395.886771 
L 205.006281 396.063959 
L 208.28562 396.238164 
L 211.564959 396.409386 
L 214.844298 396.577625 
L 218.123636 396.742881 
L 221.402975 396.905155 
L 224.682314 397.064447 
L 227.961653 397.220757 
L 231.240992 397.374086 
L 234.520331 397.524433 
L 237.799669 397.671799 
L 241.079008 397.816185 
L 244.358347 397.957589 
L 247.637686 398.096014 
L 250.917025 398.231458 
L 254.196364 398.363922 
L 257.475702 398.493407 
L 260.755041 398.619912 
L 264.03438 398.743437 
L 267.313719 398.863984 
L 270.593058 398.981551 
L 273.872397 399.09614 
L 277.151736 399.20775 
L 280.431074 399.316382 
L 283.710413 399.422035 
L 286.989752 399.524711 
L 290.269091 399.624408 
L 293.54843 399.721128 
L 296.827769 399.814871 
L 300.107107 399.905635 
L 303.386446 399.993423 
L 306.665785 400.078233 
L 309.945124 400.160067 
L 313.224463 400.238923 
L 316.503802 400.314803 
L 319.78314 400.387706 
L 323.062479 400.457632 
L 326.341818 400.524583 
L 329.621157 400.588556 
L 332.900496 400.649554 
L 336.179835 400.707576 
L 339.459174 400.762621 
L 342.738512 400.814691 
L 346.017851 400.863784 
L 349.29719 400.909902 
L 352.576529 400.953045 
L 355.855868 400.993211 
L 359.135207 401.030402 
L 362.414545 401.064618 
L 365.693884 401.095858 
L 368.973223 401.124123 
L 372.252562 401.149412 
L 375.531901 401.171726 
L 378.81124 401.191065 
L 382.090579 401.207428 
L 385.369917 401.220817 
L 388.649256 401.23123 
L 391.928595 401.238668 
L 395.207934 401.24313 
L 398.487273 401.244618 
" clip-path="url(#p37b8810c2e)" style="fill: none; stroke: #1f77b4; stroke-width: 1.5; stroke-linecap: square"/>
   </g>
   <g id="line2d_34">
    <path d="M 73.832727 386.645891 
L 77.112066 386.951868 
L 80.391405 387.254848 
L 83.670744 387.55483 
L 86.950083 387.851815 
L 90.229421 388.145803 
L 93.50876 388.436796 
L 96.788099 388.724793 
L 100.067438 389.009795 
L 103.346777 389.291802 
L 106.626116 389.570815 
L 109.905455 389.846835 
L 113.184793 390.119861 
L 116.464132 390.389894 
L 119.743471 390.656935 
L 123.02281 390.920984 
L 126.302149 391.182042 
L 129.581488 391.440108 
L 132.860826 391.695183 
L 136.140165 391.947268 
L 139.419504 392.196363 
L 142.698843 392.442469 
L 145.978182 392.685585 
L 149.257521 392.925713 
L 152.53686 393.162852 
L 155.816198 393.397003 
L 159.095537 393.628167 
L 162.374876 393.856343 
L 165.654215 394.081533 
L 168.933554 394.303736 
L 172.212893 394.522952 
L 175.492231 394.739183 
L 178.77157 394.952428 
L 182.050909 395.162689 
L 185.330248 395.369964 
L 188.609587 395.574255 
L 191.888926 395.775561 
L 195.168264 395.973884 
L 198.447603 396.169223 
L 201.726942 396.361579 
L 205.006281 396.550952 
L 208.28562 396.737343 
L 211.564959 396.920751 
L 214.844298 397.101177 
L 218.123636 397.278621 
L 221.402975 397.453084 
L 224.682314 397.624566 
L 227.961653 397.793067 
L 231.240992 397.958587 
L 234.520331 398.121126 
L 237.799669 398.280686 
L 241.079008 398.437266 
L 244.358347 398.590866 
L 247.637686 398.741486 
L 250.917025 398.889128 
L 254.196364 399.033791 
L 257.475702 399.175475 
L 260.755041 399.31418 
L 264.03438 399.449907 
L 267.313719 399.582657 
L 270.593058 399.712428 
L 273.872397 399.839222 
L 277.151736 399.963038 
L 280.431074 400.083878 
L 283.710413 400.20174 
L 286.989752 400.316625 
L 290.269091 400.428534 
L 293.54843 400.537466 
L 296.827769 400.643423 
L 300.107107 400.746402 
L 303.386446 400.846406 
L 306.665785 400.943435 
L 309.945124 401.037487 
L 313.224463 401.128564 
L 316.503802 401.216666 
L 319.78314 401.301792 
L 323.062479 401.383944 
L 326.341818 401.46312 
L 329.621157 401.539322 
L 332.900496 401.612549 
L 336.179835 401.682801 
L 339.459174 401.750079 
L 342.738512 401.814383 
L 346.017851 401.875712 
L 349.29719 401.934067 
L 352.576529 401.989448 
L 355.855868 402.041855 
L 359.135207 402.091289 
L 362.414545 402.137748 
L 365.693884 402.181234 
L 368.973223 402.221746 
L 372.252562 402.259284 
L 375.531901 402.293849 
L 378.81124 402.32544 
L 382.090579 402.354058 
L 385.369917 402.379702 
L 388.649256 402.402374 
L 391.928595 402.422071 
L 395.207934 402.438796 
L 398.487273 402.452547 
" clip-path="url(#p37b8810c2e)" style="fill: none; stroke: #ff7f0e; stroke-width: 1.5; stroke-linecap: square"/>
   </g>
   <g id="line2d_35">
    <path d="M 73.832727 386.645891 
L 77.112066 389.022196 
L 80.391405 391.395506 
L 83.670744 393.765825 
L 86.950083 396.133158 
L 90.229421 398.497507 
L 93.50876 400.858876 
L 96.788099 403.21727 
L 100.067438 405.572692 
L 103.346777 407.925145 
L 106.626116 410.274634 
L 109.905455 412.621163 
L 113.184793 414.964734 
L 116.464132 417.305351 
L 119.743471 419.643019 
L 123.02281 421.977742 
L 126.302149 424.309522 
L 129.581488 426.638363 
L 132.860826 428.96427 
L 136.140165 431.287245 
L 139.419504 433.607294 
L 142.698843 435.924418 
L 145.978182 438.238623 
L 149.257521 440.549911 
L 152.53686 442.858286 
L 155.816198 445.163753 
L 159.095537 447.466314 
L 162.374876 449.765974 
L 165.654215 452.062735 
L 168.933554 454.356602 
L 172.212893 456.647579 
L 175.492231 458.935668 
L 178.77157 461.220874 
L 182.050909 463.5032 
L 185.330248 465.78265 
L 188.609587 468.059228 
L 191.888926 470.332936 
L 195.168264 472.603779 
L 198.447603 474.871761 
L 201.726942 477.136884 
L 205.006281 479.399153 
L 208.28562 481.658571 
L 211.564959 483.915142 
L 214.844298 486.168869 
L 218.123636 488.419756 
L 221.402975 490.667806 
L 224.682314 492.913024 
L 227.961653 495.155412 
L 231.240992 497.394974 
L 234.520331 499.631714 
L 237.799669 501.865635 
L 241.079008 504.096741 
L 244.358347 506.325035 
L 247.637686 508.550522 
L 250.917025 510.773203 
L 254.196364 512.993084 
L 257.475702 515.210167 
L 260.755041 517.424457 
L 264.03438 519.635956 
L 267.313719 521.844668 
L 270.593058 524.050596 
L 273.872397 526.253745 
L 277.151736 528.454117 
L 280.431074 530.651717 
L 283.710413 532.846547 
L 286.989752 535.038611 
L 290.269091 537.227913 
L 293.54843 539.414456 
L 296.827769 541.598243 
L 300.107107 543.779278 
L 303.386446 545.957565 
L 306.665785 548.133107 
L 309.945124 550.305907 
L 313.224463 552.475969 
L 316.503802 554.643296 
L 319.78314 556.807892 
L 323.062479 558.969761 
L 326.341818 561.128905 
L 329.621157 563.285328 
L 332.900496 565.439033 
L 336.179835 567.590024 
L 339.459174 569.738305 
L 342.738512 571.883879 
L 346.017851 574.026748 
L 349.29719 576.166918 
L 352.576529 578.30439 
L 355.855868 580.439168 
L 359.135207 582.571257 
L 362.414545 584.700658 
L 365.693884 586.827376 
L 368.973223 588.951414 
L 372.252562 591.072776 
L 375.531901 593.191464 
L 378.81124 595.307482 
L 382.090579 597.420833 
L 385.369917 599.531521 
L 388.649256 601.63955 
L 391.928595 603.744922 
L 395.207934 605.84764 
L 398.487273 607.947709 
" clip-path="url(#p37b8810c2e)" style="fill: none; stroke: #2ca02c; stroke-width: 1.5; stroke-linecap: square"/>
   </g>
   <g id="patch_9">
    <path d="M 57.6 619.0128 
L 57.6 375.5808 
" style="fill: none; stroke: #000000; stroke-width: 0.8; stroke-linejoin: miter; stroke-linecap: square"/>
   </g>
   <g id="patch_10">
    <path d="M 414.72 619.0128 
L 414.72 375.5808 
" style="fill: none; stroke: #000000; stroke-width: 0.8; stroke-linejoin: miter; stroke-linecap: square"/>
   </g>
   <g id="patch_11">
    <path d="M 57.6 619.0128 
L 414.72 619.0128 
" style="fill: none; stroke: #000000; stroke-width: 0.8; stroke-linejoin: miter; stroke-linecap: square"/>
   </g>
   <g id="patch_12">
    <path d="M 57.6 375.5808 
L 414.72 375.5808 
" style="fill: none; stroke: #000000; stroke-width: 0.8; stroke-linejoin: miter; stroke-linecap: square"/>
   </g>
   <g id="text_35">
    <!-- L = 0.01 [m] -->
    <g transform="translate(198.182813 369.5808) scale(0.12 -0.12)">
     <use xlink:href="#DejaVuSans-4c"/>
     <use xlink:href="#DejaVuSans-20" x="55.712891"/>
     <use xlink:href="#DejaVuSans-3d" x="87.5"/>
     <use xlink:href="#DejaVuSans-20" x="171.289062"/>
     <use xlink:href="#DejaVuSans-30" x="203.076172"/>
     <use xlink:href="#DejaVuSans-2e" x="266.699219"/>
     <use xlink:href="#DejaVuSans-30" x="298.486328"/>
     <use xlink:href="#DejaVuSans-31" x="362.109375"/>
     <use xlink:href="#DejaVuSans-20" x="425.732422"/>
     <use xlink:href="#DejaVuSans-5b" x="457.519531"/>
     <use xlink:href="#DejaVuSans-6d" x="496.533203"/>
     <use xlink:href="#DejaVuSans-5d" x="593.945312"/>
    </g>
   </g>
   <g id="legend_2">
    <g id="patch_13">
     <path d="M 64.6 614.0128 
L 211.071875 614.0128 
Q 213.071875 614.0128 213.071875 612.0128 
L 213.071875 568.978425 
Q 213.071875 566.978425 211.071875 566.978425 
L 64.6 566.978425 
Q 62.6 566.978425 62.6 568.978425 
L 62.6 612.0128 
Q 62.6 614.0128 64.6 614.0128 
z
" style="fill: #ffffff; opacity: 0.8; stroke: #cccccc; stroke-linejoin: miter"/>
    </g>
    <g id="line2d_36">
     <path d="M 66.6 575.076863 
L 76.6 575.076863 
L 86.6 575.076863 
" style="fill: none; stroke: #1f77b4; stroke-width: 1.5; stroke-linecap: square"/>
    </g>
    <g id="text_36">
     <!-- Adiabatic Hypothesis -->
     <g transform="translate(94.6 578.576863) scale(0.1 -0.1)">
      <use xlink:href="#DejaVuSans-41"/>
      <use xlink:href="#DejaVuSans-64" x="66.658203"/>
      <use xlink:href="#DejaVuSans-69" x="130.134766"/>
      <use xlink:href="#DejaVuSans-61" x="157.917969"/>
      <use xlink:href="#DejaVuSans-62" x="219.197266"/>
      <use xlink:href="#DejaVuSans-61" x="282.673828"/>
      <use xlink:href="#DejaVuSans-74" x="343.953125"/>
      <use xlink:href="#DejaVuSans-69" x="383.162109"/>
      <use xlink:href="#DejaVuSans-63" x="410.945312"/>
      <use xlink:href="#DejaVuSans-20" x="465.925781"/>
      <use xlink:href="#DejaVuSans-48" x="497.712891"/>
      <use xlink:href="#DejaVuSans-79" x="572.908203"/>
      <use xlink:href="#DejaVuSans-70" x="632.087891"/>
      <use xlink:href="#DejaVuSans-6f" x="695.564453"/>
      <use xlink:href="#DejaVuSans-74" x="756.746094"/>
      <use xlink:href="#DejaVuSans-68" x="795.955078"/>
      <use xlink:href="#DejaVuSans-65" x="859.333984"/>
      <use xlink:href="#DejaVuSans-73" x="920.857422"/>
      <use xlink:href="#DejaVuSans-69" x="972.957031"/>
      <use xlink:href="#DejaVuSans-73" x="1000.740234"/>
     </g>
    </g>
    <g id="line2d_37">
     <path d="M 66.6 589.754987 
L 76.6 589.754987 
L 86.6 589.754987 
" style="fill: none; stroke: #ff7f0e; stroke-width: 1.5; stroke-linecap: square"/>
    </g>
    <g id="text_37">
     <!-- Convective Hypothesis -->
     <g transform="translate(94.6 593.254987) scale(0.1 -0.1)">
      <use xlink:href="#DejaVuSans-43"/>
      <use xlink:href="#DejaVuSans-6f" x="69.824219"/>
      <use xlink:href="#DejaVuSans-6e" x="131.005859"/>
      <use xlink:href="#DejaVuSans-76" x="194.384766"/>
      <use xlink:href="#DejaVuSans-65" x="253.564453"/>
      <use xlink:href="#DejaVuSans-63" x="315.087891"/>
      <use xlink:href="#DejaVuSans-74" x="370.068359"/>
      <use xlink:href="#DejaVuSans-69" x="409.277344"/>
      <use xlink:href="#DejaVuSans-76" x="437.060547"/>
      <use xlink:href="#DejaVuSans-65" x="496.240234"/>
      <use xlink:href="#DejaVuSans-20" x="557.763672"/>
      <use xlink:href="#DejaVuSans-48" x="589.550781"/>
      <use xlink:href="#DejaVuSans-79" x="664.746094"/>
      <use xlink:href="#DejaVuSans-70" x="723.925781"/>
      <use xlink:href="#DejaVuSans-6f" x="787.402344"/>
      <use xlink:href="#DejaVuSans-74" x="848.583984"/>
      <use xlink:href="#DejaVuSans-68" x="887.792969"/>
      <use xlink:href="#DejaVuSans-65" x="951.171875"/>
      <use xlink:href="#DejaVuSans-73" x="1012.695312"/>
      <use xlink:href="#DejaVuSans-69" x="1064.794922"/>
      <use xlink:href="#DejaVuSans-73" x="1092.578125"/>
     </g>
    </g>
    <g id="line2d_38">
     <path d="M 66.6 604.433112 
L 76.6 604.433112 
L 86.6 604.433112 
" style="fill: none; stroke: #2ca02c; stroke-width: 1.5; stroke-linecap: square"/>
    </g>
    <g id="text_38">
     <!-- Infinite Hypothesis -->
     <g transform="translate(94.6 607.933112) scale(0.1 -0.1)">
      <use xlink:href="#DejaVuSans-49"/>
      <use xlink:href="#DejaVuSans-6e" x="29.492188"/>
      <use xlink:href="#DejaVuSans-66" x="92.871094"/>
      <use xlink:href="#DejaVuSans-69" x="128.076172"/>
      <use xlink:href="#DejaVuSans-6e" x="155.859375"/>
      <use xlink:href="#DejaVuSans-69" x="219.238281"/>
      <use xlink:href="#DejaVuSans-74" x="247.021484"/>
      <use xlink:href="#DejaVuSans-65" x="286.230469"/>
      <use xlink:href="#DejaVuSans-20" x="347.753906"/>
      <use xlink:href="#DejaVuSans-48" x="379.541016"/>
      <use xlink:href="#DejaVuSans-79" x="454.736328"/>
      <use xlink:href="#DejaVuSans-70" x="513.916016"/>
      <use xlink:href="#DejaVuSans-6f" x="577.392578"/>
      <use xlink:href="#DejaVuSans-74" x="638.574219"/>
      <use xlink:href="#DejaVuSans-68" x="677.783203"/>
      <use xlink:href="#DejaVuSans-65" x="741.162109"/>
      <use xlink:href="#DejaVuSans-73" x="802.685547"/>
      <use xlink:href="#DejaVuSans-69" x="854.785156"/>
      <use xlink:href="#DejaVuSans-73" x="882.568359"/>
     </g>
    </g>
   </g>
  </g>
  <g id="text_39">
   <!-- Adiabatic, Convective and Infinite borders. -->
   <g transform="translate(102.44625 23.028525) scale(0.12 -0.12)">
    <defs>
     <path id="DejaVuSans-2c" d="M 750 794 
L 1409 794 
L 1409 256 
L 897 -744 
L 494 -744 
L 750 256 
L 750 794 
z
" transform="scale(0.015625)"/>
    </defs>
    <use xlink:href="#DejaVuSans-41"/>
    <use xlink:href="#DejaVuSans-64" x="66.658203"/>
    <use xlink:href="#DejaVuSans-69" x="130.134766"/>
    <use xlink:href="#DejaVuSans-61" x="157.917969"/>
    <use xlink:href="#DejaVuSans-62" x="219.197266"/>
    <use xlink:href="#DejaVuSans-61" x="282.673828"/>
    <use xlink:href="#DejaVuSans-74" x="343.953125"/>
    <use xlink:href="#DejaVuSans-69" x="383.162109"/>
    <use xlink:href="#DejaVuSans-63" x="410.945312"/>
    <use xlink:href="#DejaVuSans-2c" x="465.925781"/>
    <use xlink:href="#DejaVuSans-20" x="497.712891"/>
    <use xlink:href="#DejaVuSans-43" x="529.5"/>
    <use xlink:href="#DejaVuSans-6f" x="599.324219"/>
    <use xlink:href="#DejaVuSans-6e" x="660.505859"/>
    <use xlink:href="#DejaVuSans-76" x="723.884766"/>
    <use xlink:href="#DejaVuSans-65" x="783.064453"/>
    <use xlink:href="#DejaVuSans-63" x="844.587891"/>
    <use xlink:href="#DejaVuSans-74" x="899.568359"/>
    <use xlink:href="#DejaVuSans-69" x="938.777344"/>
    <use xlink:href="#DejaVuSans-76" x="966.560547"/>
    <use xlink:href="#DejaVuSans-65" x="1025.740234"/>
    <use xlink:href="#DejaVuSans-20" x="1087.263672"/>
    <use xlink:href="#DejaVuSans-61" x="1119.050781"/>
    <use xlink:href="#DejaVuSans-6e" x="1180.330078"/>
    <use xlink:href="#DejaVuSans-64" x="1243.708984"/>
    <use xlink:href="#DejaVuSans-20" x="1307.185547"/>
    <use xlink:href="#DejaVuSans-49" x="1338.972656"/>
    <use xlink:href="#DejaVuSans-6e" x="1368.464844"/>
    <use xlink:href="#DejaVuSans-66" x="1431.84375"/>
    <use xlink:href="#DejaVuSans-69" x="1467.048828"/>
    <use xlink:href="#DejaVuSans-6e" x="1494.832031"/>
    <use xlink:href="#DejaVuSans-69" x="1558.210938"/>
    <use xlink:href="#DejaVuSans-74" x="1585.994141"/>
    <use xlink:href="#DejaVuSans-65" x="1625.203125"/>
    <use xlink:href="#DejaVuSans-20" x="1686.726562"/>
    <use xlink:href="#DejaVuSans-62" x="1718.513672"/>
    <use xlink:href="#DejaVuSans-6f" x="1781.990234"/>
    <use xlink:href="#DejaVuSans-72" x="1843.171875"/>
    <use xlink:href="#DejaVuSans-64" x="1882.535156"/>
    <use xlink:href="#DejaVuSans-65" x="1946.011719"/>
    <use xlink:href="#DejaVuSans-72" x="2007.535156"/>
    <use xlink:href="#DejaVuSans-73" x="2048.648438"/>
    <use xlink:href="#DejaVuSans-2e" x="2100.748047"/>
   </g>
  </g>
 </g>
 <defs>
  <clipPath id="pc6afad7c3e">
   <rect x="57.6" y="83.4624" width="357.12" height="243.432"/>
  </clipPath>
  <clipPath id="p37b8810c2e">
   <rect x="57.6" y="375.5808" width="357.12" height="243.432"/>
  </clipPath>
 </defs>
</svg>
