<?xml version="1.0" encoding="utf-8" standalone="no"?>
<!DOCTYPE svg PUBLIC "-//W3C//DTD SVG 1.1//EN"
  "http://www.w3.org/Graphics/SVG/1.1/DTD/svg11.dtd">
<svg xmlns:xlink="http://www.w3.org/1999/xlink" width="730.08pt" height="345.6pt" viewBox="0 0 730.08 345.6" xmlns="http://www.w3.org/2000/svg" version="1.1">
 <metadata>
  <rdf:RDF xmlns:dc="http://purl.org/dc/elements/1.1/" xmlns:cc="http://creativecommons.org/ns#" xmlns:rdf="http://www.w3.org/1999/02/22-rdf-syntax-ns#">
   <cc:Work>
    <dc:type rdf:resource="http://purl.org/dc/dcmitype/StillImage"/>
    <dc:date>2024-03-26T16:11:28.233827</dc:date>
    <dc:format>image/svg+xml</dc:format>
    <dc:creator>
     <cc:Agent>
      <dc:title>Matplotlib v3.8.3, https://matplotlib.org/</dc:title>
     </cc:Agent>
    </dc:creator>
   </cc:Work>
  </rdf:RDF>
 </metadata>
 <defs>
  <style type="text/css">*{stroke-linejoin: round; stroke-linecap: butt}</style>
 </defs>
 <g id="figure_1">
  <g id="patch_1">
   <path d="M 0 345.6 
L 730.08 345.6 
L 730.08 0 
L 0 0 
z
" style="fill: #ffffff"/>
  </g>
  <g id="axes_1">
   <g id="patch_2">
    <path d="M 91.26 307.584 
L 348.447273 307.584 
L 348.447273 41.472 
L 91.26 41.472 
z
" style="fill: #ffffff"/>
   </g>
   <g id="matplotlib.axis_1">
    <g id="xtick_1">
     <g id="line2d_1">
      <defs>
       <path id="m25dc268049" d="M 0 0 
L 0 3.5 
" style="stroke: #000000; stroke-width: 0.8"/>
      </defs>
      <g>
       <use xlink:href="#m25dc268049" x="102.950331" y="307.584" style="stroke: #000000; stroke-width: 0.8"/>
      </g>
     </g>
     <g id="text_1">
      <!-- 0.00 -->
      <g transform="translate(91.817518 322.182437) scale(0.1 -0.1)">
       <defs>
        <path id="DejaVuSans-30" d="M 2034 4250 
Q 1547 4250 1301 3770 
Q 1056 3291 1056 2328 
Q 1056 1369 1301 889 
Q 1547 409 2034 409 
Q 2525 409 2770 889 
Q 3016 1369 3016 2328 
Q 3016 3291 2770 3770 
Q 2525 4250 2034 4250 
z
M 2034 4750 
Q 2819 4750 3233 4129 
Q 3647 3509 3647 2328 
Q 3647 1150 3233 529 
Q 2819 -91 2034 -91 
Q 1250 -91 836 529 
Q 422 1150 422 2328 
Q 422 3509 836 4129 
Q 1250 4750 2034 4750 
z
" transform="scale(0.015625)"/>
        <path id="DejaVuSans-2e" d="M 684 794 
L 1344 794 
L 1344 0 
L 684 0 
L 684 794 
z
" transform="scale(0.015625)"/>
       </defs>
       <use xlink:href="#DejaVuSans-30"/>
       <use xlink:href="#DejaVuSans-2e" x="63.623047"/>
       <use xlink:href="#DejaVuSans-30" x="95.410156"/>
       <use xlink:href="#DejaVuSans-30" x="159.033203"/>
      </g>
     </g>
    </g>
    <g id="xtick_2">
     <g id="line2d_2">
      <g>
       <use xlink:href="#m25dc268049" x="149.711653" y="307.584" style="stroke: #000000; stroke-width: 0.8"/>
      </g>
     </g>
     <g id="text_2">
      <!-- 0.02 -->
      <g transform="translate(138.57884 322.182437) scale(0.1 -0.1)">
       <defs>
        <path id="DejaVuSans-32" d="M 1228 531 
L 3431 531 
L 3431 0 
L 469 0 
L 469 531 
Q 828 903 1448 1529 
Q 2069 2156 2228 2338 
Q 2531 2678 2651 2914 
Q 2772 3150 2772 3378 
Q 2772 3750 2511 3984 
Q 2250 4219 1831 4219 
Q 1534 4219 1204 4116 
Q 875 4013 500 3803 
L 500 4441 
Q 881 4594 1212 4672 
Q 1544 4750 1819 4750 
Q 2544 4750 2975 4387 
Q 3406 4025 3406 3419 
Q 3406 3131 3298 2873 
Q 3191 2616 2906 2266 
Q 2828 2175 2409 1742 
Q 1991 1309 1228 531 
z
" transform="scale(0.015625)"/>
       </defs>
       <use xlink:href="#DejaVuSans-30"/>
       <use xlink:href="#DejaVuSans-2e" x="63.623047"/>
       <use xlink:href="#DejaVuSans-30" x="95.410156"/>
       <use xlink:href="#DejaVuSans-32" x="159.033203"/>
      </g>
     </g>
    </g>
    <g id="xtick_3">
     <g id="line2d_3">
      <g>
       <use xlink:href="#m25dc268049" x="196.472975" y="307.584" style="stroke: #000000; stroke-width: 0.8"/>
      </g>
     </g>
     <g id="text_3">
      <!-- 0.04 -->
      <g transform="translate(185.340163 322.182437) scale(0.1 -0.1)">
       <defs>
        <path id="DejaVuSans-34" d="M 2419 4116 
L 825 1625 
L 2419 1625 
L 2419 4116 
z
M 2253 4666 
L 3047 4666 
L 3047 1625 
L 3713 1625 
L 3713 1100 
L 3047 1100 
L 3047 0 
L 2419 0 
L 2419 1100 
L 313 1100 
L 313 1709 
L 2253 4666 
z
" transform="scale(0.015625)"/>
       </defs>
       <use xlink:href="#DejaVuSans-30"/>
       <use xlink:href="#DejaVuSans-2e" x="63.623047"/>
       <use xlink:href="#DejaVuSans-30" x="95.410156"/>
       <use xlink:href="#DejaVuSans-34" x="159.033203"/>
      </g>
     </g>
    </g>
    <g id="xtick_4">
     <g id="line2d_4">
      <g>
       <use xlink:href="#m25dc268049" x="243.234298" y="307.584" style="stroke: #000000; stroke-width: 0.8"/>
      </g>
     </g>
     <g id="text_4">
      <!-- 0.06 -->
      <g transform="translate(232.101485 322.182437) scale(0.1 -0.1)">
       <defs>
        <path id="DejaVuSans-36" d="M 2113 2584 
Q 1688 2584 1439 2293 
Q 1191 2003 1191 1497 
Q 1191 994 1439 701 
Q 1688 409 2113 409 
Q 2538 409 2786 701 
Q 3034 994 3034 1497 
Q 3034 2003 2786 2293 
Q 2538 2584 2113 2584 
z
M 3366 4563 
L 3366 3988 
Q 3128 4100 2886 4159 
Q 2644 4219 2406 4219 
Q 1781 4219 1451 3797 
Q 1122 3375 1075 2522 
Q 1259 2794 1537 2939 
Q 1816 3084 2150 3084 
Q 2853 3084 3261 2657 
Q 3669 2231 3669 1497 
Q 3669 778 3244 343 
Q 2819 -91 2113 -91 
Q 1303 -91 875 529 
Q 447 1150 447 2328 
Q 447 3434 972 4092 
Q 1497 4750 2381 4750 
Q 2619 4750 2861 4703 
Q 3103 4656 3366 4563 
z
" transform="scale(0.015625)"/>
       </defs>
       <use xlink:href="#DejaVuSans-30"/>
       <use xlink:href="#DejaVuSans-2e" x="63.623047"/>
       <use xlink:href="#DejaVuSans-30" x="95.410156"/>
       <use xlink:href="#DejaVuSans-36" x="159.033203"/>
      </g>
     </g>
    </g>
    <g id="xtick_5">
     <g id="line2d_5">
      <g>
       <use xlink:href="#m25dc268049" x="289.99562" y="307.584" style="stroke: #000000; stroke-width: 0.8"/>
      </g>
     </g>
     <g id="text_5">
      <!-- 0.08 -->
      <g transform="translate(278.862807 322.182437) scale(0.1 -0.1)">
       <defs>
        <path id="DejaVuSans-38" d="M 2034 2216 
Q 1584 2216 1326 1975 
Q 1069 1734 1069 1313 
Q 1069 891 1326 650 
Q 1584 409 2034 409 
Q 2484 409 2743 651 
Q 3003 894 3003 1313 
Q 3003 1734 2745 1975 
Q 2488 2216 2034 2216 
z
M 1403 2484 
Q 997 2584 770 2862 
Q 544 3141 544 3541 
Q 544 4100 942 4425 
Q 1341 4750 2034 4750 
Q 2731 4750 3128 4425 
Q 3525 4100 3525 3541 
Q 3525 3141 3298 2862 
Q 3072 2584 2669 2484 
Q 3125 2378 3379 2068 
Q 3634 1759 3634 1313 
Q 3634 634 3220 271 
Q 2806 -91 2034 -91 
Q 1263 -91 848 271 
Q 434 634 434 1313 
Q 434 1759 690 2068 
Q 947 2378 1403 2484 
z
M 1172 3481 
Q 1172 3119 1398 2916 
Q 1625 2713 2034 2713 
Q 2441 2713 2670 2916 
Q 2900 3119 2900 3481 
Q 2900 3844 2670 4047 
Q 2441 4250 2034 4250 
Q 1625 4250 1398 4047 
Q 1172 3844 1172 3481 
z
" transform="scale(0.015625)"/>
       </defs>
       <use xlink:href="#DejaVuSans-30"/>
       <use xlink:href="#DejaVuSans-2e" x="63.623047"/>
       <use xlink:href="#DejaVuSans-30" x="95.410156"/>
       <use xlink:href="#DejaVuSans-38" x="159.033203"/>
      </g>
     </g>
    </g>
    <g id="xtick_6">
     <g id="line2d_6">
      <g>
       <use xlink:href="#m25dc268049" x="336.756942" y="307.584" style="stroke: #000000; stroke-width: 0.8"/>
      </g>
     </g>
     <g id="text_6">
      <!-- 0.10 -->
      <g transform="translate(325.62413 322.182437) scale(0.1 -0.1)">
       <defs>
        <path id="DejaVuSans-31" d="M 794 531 
L 1825 531 
L 1825 4091 
L 703 3866 
L 703 4441 
L 1819 4666 
L 2450 4666 
L 2450 531 
L 3481 531 
L 3481 0 
L 794 0 
L 794 531 
z
" transform="scale(0.015625)"/>
       </defs>
       <use xlink:href="#DejaVuSans-30"/>
       <use xlink:href="#DejaVuSans-2e" x="63.623047"/>
       <use xlink:href="#DejaVuSans-31" x="95.410156"/>
       <use xlink:href="#DejaVuSans-30" x="159.033203"/>
      </g>
     </g>
    </g>
    <g id="text_7">
     <!-- Distance [m] -->
     <g transform="translate(187.630199 335.860562) scale(0.1 -0.1)">
      <defs>
       <path id="DejaVuSans-44" d="M 1259 4147 
L 1259 519 
L 2022 519 
Q 2988 519 3436 956 
Q 3884 1394 3884 2338 
Q 3884 3275 3436 3711 
Q 2988 4147 2022 4147 
L 1259 4147 
z
M 628 4666 
L 1925 4666 
Q 3281 4666 3915 4102 
Q 4550 3538 4550 2338 
Q 4550 1131 3912 565 
Q 3275 0 1925 0 
L 628 0 
L 628 4666 
z
" transform="scale(0.015625)"/>
       <path id="DejaVuSans-69" d="M 603 3500 
L 1178 3500 
L 1178 0 
L 603 0 
L 603 3500 
z
M 603 4863 
L 1178 4863 
L 1178 4134 
L 603 4134 
L 603 4863 
z
" transform="scale(0.015625)"/>
       <path id="DejaVuSans-73" d="M 2834 3397 
L 2834 2853 
Q 2591 2978 2328 3040 
Q 2066 3103 1784 3103 
Q 1356 3103 1142 2972 
Q 928 2841 928 2578 
Q 928 2378 1081 2264 
Q 1234 2150 1697 2047 
L 1894 2003 
Q 2506 1872 2764 1633 
Q 3022 1394 3022 966 
Q 3022 478 2636 193 
Q 2250 -91 1575 -91 
Q 1294 -91 989 -36 
Q 684 19 347 128 
L 347 722 
Q 666 556 975 473 
Q 1284 391 1588 391 
Q 1994 391 2212 530 
Q 2431 669 2431 922 
Q 2431 1156 2273 1281 
Q 2116 1406 1581 1522 
L 1381 1569 
Q 847 1681 609 1914 
Q 372 2147 372 2553 
Q 372 3047 722 3315 
Q 1072 3584 1716 3584 
Q 2034 3584 2315 3537 
Q 2597 3491 2834 3397 
z
" transform="scale(0.015625)"/>
       <path id="DejaVuSans-74" d="M 1172 4494 
L 1172 3500 
L 2356 3500 
L 2356 3053 
L 1172 3053 
L 1172 1153 
Q 1172 725 1289 603 
Q 1406 481 1766 481 
L 2356 481 
L 2356 0 
L 1766 0 
Q 1100 0 847 248 
Q 594 497 594 1153 
L 594 3053 
L 172 3053 
L 172 3500 
L 594 3500 
L 594 4494 
L 1172 4494 
z
" transform="scale(0.015625)"/>
       <path id="DejaVuSans-61" d="M 2194 1759 
Q 1497 1759 1228 1600 
Q 959 1441 959 1056 
Q 959 750 1161 570 
Q 1363 391 1709 391 
Q 2188 391 2477 730 
Q 2766 1069 2766 1631 
L 2766 1759 
L 2194 1759 
z
M 3341 1997 
L 3341 0 
L 2766 0 
L 2766 531 
Q 2569 213 2275 61 
Q 1981 -91 1556 -91 
Q 1019 -91 701 211 
Q 384 513 384 1019 
Q 384 1609 779 1909 
Q 1175 2209 1959 2209 
L 2766 2209 
L 2766 2266 
Q 2766 2663 2505 2880 
Q 2244 3097 1772 3097 
Q 1472 3097 1187 3025 
Q 903 2953 641 2809 
L 641 3341 
Q 956 3463 1253 3523 
Q 1550 3584 1831 3584 
Q 2591 3584 2966 3190 
Q 3341 2797 3341 1997 
z
" transform="scale(0.015625)"/>
       <path id="DejaVuSans-6e" d="M 3513 2113 
L 3513 0 
L 2938 0 
L 2938 2094 
Q 2938 2591 2744 2837 
Q 2550 3084 2163 3084 
Q 1697 3084 1428 2787 
Q 1159 2491 1159 1978 
L 1159 0 
L 581 0 
L 581 3500 
L 1159 3500 
L 1159 2956 
Q 1366 3272 1645 3428 
Q 1925 3584 2291 3584 
Q 2894 3584 3203 3211 
Q 3513 2838 3513 2113 
z
" transform="scale(0.015625)"/>
       <path id="DejaVuSans-63" d="M 3122 3366 
L 3122 2828 
Q 2878 2963 2633 3030 
Q 2388 3097 2138 3097 
Q 1578 3097 1268 2742 
Q 959 2388 959 1747 
Q 959 1106 1268 751 
Q 1578 397 2138 397 
Q 2388 397 2633 464 
Q 2878 531 3122 666 
L 3122 134 
Q 2881 22 2623 -34 
Q 2366 -91 2075 -91 
Q 1284 -91 818 406 
Q 353 903 353 1747 
Q 353 2603 823 3093 
Q 1294 3584 2113 3584 
Q 2378 3584 2631 3529 
Q 2884 3475 3122 3366 
z
" transform="scale(0.015625)"/>
       <path id="DejaVuSans-65" d="M 3597 1894 
L 3597 1613 
L 953 1613 
Q 991 1019 1311 708 
Q 1631 397 2203 397 
Q 2534 397 2845 478 
Q 3156 559 3463 722 
L 3463 178 
Q 3153 47 2828 -22 
Q 2503 -91 2169 -91 
Q 1331 -91 842 396 
Q 353 884 353 1716 
Q 353 2575 817 3079 
Q 1281 3584 2069 3584 
Q 2775 3584 3186 3129 
Q 3597 2675 3597 1894 
z
M 3022 2063 
Q 3016 2534 2758 2815 
Q 2500 3097 2075 3097 
Q 1594 3097 1305 2825 
Q 1016 2553 972 2059 
L 3022 2063 
z
" transform="scale(0.015625)"/>
       <path id="DejaVuSans-20" transform="scale(0.015625)"/>
       <path id="DejaVuSans-5b" d="M 550 4863 
L 1875 4863 
L 1875 4416 
L 1125 4416 
L 1125 -397 
L 1875 -397 
L 1875 -844 
L 550 -844 
L 550 4863 
z
" transform="scale(0.015625)"/>
       <path id="DejaVuSans-6d" d="M 3328 2828 
Q 3544 3216 3844 3400 
Q 4144 3584 4550 3584 
Q 5097 3584 5394 3201 
Q 5691 2819 5691 2113 
L 5691 0 
L 5113 0 
L 5113 2094 
Q 5113 2597 4934 2840 
Q 4756 3084 4391 3084 
Q 3944 3084 3684 2787 
Q 3425 2491 3425 1978 
L 3425 0 
L 2847 0 
L 2847 2094 
Q 2847 2600 2669 2842 
Q 2491 3084 2119 3084 
Q 1678 3084 1418 2786 
Q 1159 2488 1159 1978 
L 1159 0 
L 581 0 
L 581 3500 
L 1159 3500 
L 1159 2956 
Q 1356 3278 1631 3431 
Q 1906 3584 2284 3584 
Q 2666 3584 2933 3390 
Q 3200 3197 3328 2828 
z
" transform="scale(0.015625)"/>
       <path id="DejaVuSans-5d" d="M 1947 4863 
L 1947 -844 
L 622 -844 
L 622 -397 
L 1369 -397 
L 1369 4416 
L 622 4416 
L 622 4863 
L 1947 4863 
z
" transform="scale(0.015625)"/>
      </defs>
      <use xlink:href="#DejaVuSans-44"/>
      <use xlink:href="#DejaVuSans-69" x="77.001953"/>
      <use xlink:href="#DejaVuSans-73" x="104.785156"/>
      <use xlink:href="#DejaVuSans-74" x="156.884766"/>
      <use xlink:href="#DejaVuSans-61" x="196.09375"/>
      <use xlink:href="#DejaVuSans-6e" x="257.373047"/>
      <use xlink:href="#DejaVuSans-63" x="320.751953"/>
      <use xlink:href="#DejaVuSans-65" x="375.732422"/>
      <use xlink:href="#DejaVuSans-20" x="437.255859"/>
      <use xlink:href="#DejaVuSans-5b" x="469.042969"/>
      <use xlink:href="#DejaVuSans-6d" x="508.056641"/>
      <use xlink:href="#DejaVuSans-5d" x="605.46875"/>
     </g>
    </g>
   </g>
   <g id="matplotlib.axis_2">
    <g id="ytick_1">
     <g id="line2d_7">
      <defs>
       <path id="m6ac081cc0e" d="M 0 0 
L -3.5 0 
" style="stroke: #000000; stroke-width: 0.8"/>
      </defs>
      <g>
       <use xlink:href="#m6ac081cc0e" x="91.26" y="281.522272" style="stroke: #000000; stroke-width: 0.8"/>
      </g>
     </g>
     <g id="text_8">
      <!-- 65 -->
      <g transform="translate(71.535 285.321491) scale(0.1 -0.1)">
       <defs>
        <path id="DejaVuSans-35" d="M 691 4666 
L 3169 4666 
L 3169 4134 
L 1269 4134 
L 1269 2991 
Q 1406 3038 1543 3061 
Q 1681 3084 1819 3084 
Q 2600 3084 3056 2656 
Q 3513 2228 3513 1497 
Q 3513 744 3044 326 
Q 2575 -91 1722 -91 
Q 1428 -91 1123 -41 
Q 819 9 494 109 
L 494 744 
Q 775 591 1075 516 
Q 1375 441 1709 441 
Q 2250 441 2565 725 
Q 2881 1009 2881 1497 
Q 2881 1984 2565 2268 
Q 2250 2553 1709 2553 
Q 1456 2553 1204 2497 
Q 953 2441 691 2322 
L 691 4666 
z
" transform="scale(0.015625)"/>
       </defs>
       <use xlink:href="#DejaVuSans-36"/>
       <use xlink:href="#DejaVuSans-35" x="63.623047"/>
      </g>
     </g>
    </g>
    <g id="ytick_2">
     <g id="line2d_8">
      <g>
       <use xlink:href="#m6ac081cc0e" x="91.26" y="248.957376" style="stroke: #000000; stroke-width: 0.8"/>
      </g>
     </g>
     <g id="text_9">
      <!-- 70 -->
      <g transform="translate(71.535 252.756595) scale(0.1 -0.1)">
       <defs>
        <path id="DejaVuSans-37" d="M 525 4666 
L 3525 4666 
L 3525 4397 
L 1831 0 
L 1172 0 
L 2766 4134 
L 525 4134 
L 525 4666 
z
" transform="scale(0.015625)"/>
       </defs>
       <use xlink:href="#DejaVuSans-37"/>
       <use xlink:href="#DejaVuSans-30" x="63.623047"/>
      </g>
     </g>
    </g>
    <g id="ytick_3">
     <g id="line2d_9">
      <g>
       <use xlink:href="#m6ac081cc0e" x="91.26" y="216.39248" style="stroke: #000000; stroke-width: 0.8"/>
      </g>
     </g>
     <g id="text_10">
      <!-- 75 -->
      <g transform="translate(71.535 220.191699) scale(0.1 -0.1)">
       <use xlink:href="#DejaVuSans-37"/>
       <use xlink:href="#DejaVuSans-35" x="63.623047"/>
      </g>
     </g>
    </g>
    <g id="ytick_4">
     <g id="line2d_10">
      <g>
       <use xlink:href="#m6ac081cc0e" x="91.26" y="183.827584" style="stroke: #000000; stroke-width: 0.8"/>
      </g>
     </g>
     <g id="text_11">
      <!-- 80 -->
      <g transform="translate(71.535 187.626803) scale(0.1 -0.1)">
       <use xlink:href="#DejaVuSans-38"/>
       <use xlink:href="#DejaVuSans-30" x="63.623047"/>
      </g>
     </g>
    </g>
    <g id="ytick_5">
     <g id="line2d_11">
      <g>
       <use xlink:href="#m6ac081cc0e" x="91.26" y="151.262688" style="stroke: #000000; stroke-width: 0.8"/>
      </g>
     </g>
     <g id="text_12">
      <!-- 85 -->
      <g transform="translate(71.535 155.061907) scale(0.1 -0.1)">
       <use xlink:href="#DejaVuSans-38"/>
       <use xlink:href="#DejaVuSans-35" x="63.623047"/>
      </g>
     </g>
    </g>
    <g id="ytick_6">
     <g id="line2d_12">
      <g>
       <use xlink:href="#m6ac081cc0e" x="91.26" y="118.697792" style="stroke: #000000; stroke-width: 0.8"/>
      </g>
     </g>
     <g id="text_13">
      <!-- 90 -->
      <g transform="translate(71.535 122.497011) scale(0.1 -0.1)">
       <defs>
        <path id="DejaVuSans-39" d="M 703 97 
L 703 672 
Q 941 559 1184 500 
Q 1428 441 1663 441 
Q 2288 441 2617 861 
Q 2947 1281 2994 2138 
Q 2813 1869 2534 1725 
Q 2256 1581 1919 1581 
Q 1219 1581 811 2004 
Q 403 2428 403 3163 
Q 403 3881 828 4315 
Q 1253 4750 1959 4750 
Q 2769 4750 3195 4129 
Q 3622 3509 3622 2328 
Q 3622 1225 3098 567 
Q 2575 -91 1691 -91 
Q 1453 -91 1209 -44 
Q 966 3 703 97 
z
M 1959 2075 
Q 2384 2075 2632 2365 
Q 2881 2656 2881 3163 
Q 2881 3666 2632 3958 
Q 2384 4250 1959 4250 
Q 1534 4250 1286 3958 
Q 1038 3666 1038 3163 
Q 1038 2656 1286 2365 
Q 1534 2075 1959 2075 
z
" transform="scale(0.015625)"/>
       </defs>
       <use xlink:href="#DejaVuSans-39"/>
       <use xlink:href="#DejaVuSans-30" x="63.623047"/>
      </g>
     </g>
    </g>
    <g id="ytick_7">
     <g id="line2d_13">
      <g>
       <use xlink:href="#m6ac081cc0e" x="91.26" y="86.132896" style="stroke: #000000; stroke-width: 0.8"/>
      </g>
     </g>
     <g id="text_14">
      <!-- 95 -->
      <g transform="translate(71.535 89.932115) scale(0.1 -0.1)">
       <use xlink:href="#DejaVuSans-39"/>
       <use xlink:href="#DejaVuSans-35" x="63.623047"/>
      </g>
     </g>
    </g>
    <g id="ytick_8">
     <g id="line2d_14">
      <g>
       <use xlink:href="#m6ac081cc0e" x="91.26" y="53.568" style="stroke: #000000; stroke-width: 0.8"/>
      </g>
     </g>
     <g id="text_15">
      <!-- 100 -->
      <g transform="translate(65.1725 57.367219) scale(0.1 -0.1)">
       <use xlink:href="#DejaVuSans-31"/>
       <use xlink:href="#DejaVuSans-30" x="63.623047"/>
       <use xlink:href="#DejaVuSans-30" x="127.246094"/>
      </g>
     </g>
    </g>
    <g id="text_16">
     <!-- Temperature [ºC] -->
     <g transform="translate(59.092812 217.535812) rotate(-90) scale(0.1 -0.1)">
      <defs>
       <path id="DejaVuSans-54" d="M -19 4666 
L 3928 4666 
L 3928 4134 
L 2272 4134 
L 2272 0 
L 1638 0 
L 1638 4134 
L -19 4134 
L -19 4666 
z
" transform="scale(0.015625)"/>
       <path id="DejaVuSans-70" d="M 1159 525 
L 1159 -1331 
L 581 -1331 
L 581 3500 
L 1159 3500 
L 1159 2969 
Q 1341 3281 1617 3432 
Q 1894 3584 2278 3584 
Q 2916 3584 3314 3078 
Q 3713 2572 3713 1747 
Q 3713 922 3314 415 
Q 2916 -91 2278 -91 
Q 1894 -91 1617 61 
Q 1341 213 1159 525 
z
M 3116 1747 
Q 3116 2381 2855 2742 
Q 2594 3103 2138 3103 
Q 1681 3103 1420 2742 
Q 1159 2381 1159 1747 
Q 1159 1113 1420 752 
Q 1681 391 2138 391 
Q 2594 391 2855 752 
Q 3116 1113 3116 1747 
z
" transform="scale(0.015625)"/>
       <path id="DejaVuSans-72" d="M 2631 2963 
Q 2534 3019 2420 3045 
Q 2306 3072 2169 3072 
Q 1681 3072 1420 2755 
Q 1159 2438 1159 1844 
L 1159 0 
L 581 0 
L 581 3500 
L 1159 3500 
L 1159 2956 
Q 1341 3275 1631 3429 
Q 1922 3584 2338 3584 
Q 2397 3584 2469 3576 
Q 2541 3569 2628 3553 
L 2631 2963 
z
" transform="scale(0.015625)"/>
       <path id="DejaVuSans-75" d="M 544 1381 
L 544 3500 
L 1119 3500 
L 1119 1403 
Q 1119 906 1312 657 
Q 1506 409 1894 409 
Q 2359 409 2629 706 
Q 2900 1003 2900 1516 
L 2900 3500 
L 3475 3500 
L 3475 0 
L 2900 0 
L 2900 538 
Q 2691 219 2414 64 
Q 2138 -91 1772 -91 
Q 1169 -91 856 284 
Q 544 659 544 1381 
z
M 1991 3584 
L 1991 3584 
z
" transform="scale(0.015625)"/>
       <path id="DejaVuSans-ba" d="M 434 1850 
L 2584 1850 
L 2584 1466 
L 434 1466 
L 434 1850 
z
M 1509 4750 
Q 2069 4750 2391 4404 
Q 2713 4059 2713 3463 
Q 2713 2866 2391 2523 
Q 2069 2181 1509 2181 
Q 950 2181 625 2525 
Q 300 2869 300 3463 
Q 300 4059 625 4404 
Q 950 4750 1509 4750 
z
M 1509 4391 
Q 1181 4391 984 4139 
Q 788 3888 788 3463 
Q 788 3047 986 2797 
Q 1184 2547 1509 2547 
Q 1838 2547 2033 2797 
Q 2228 3047 2228 3463 
Q 2228 3891 2034 4141 
Q 1841 4391 1509 4391 
z
" transform="scale(0.015625)"/>
       <path id="DejaVuSans-43" d="M 4122 4306 
L 4122 3641 
Q 3803 3938 3442 4084 
Q 3081 4231 2675 4231 
Q 1875 4231 1450 3742 
Q 1025 3253 1025 2328 
Q 1025 1406 1450 917 
Q 1875 428 2675 428 
Q 3081 428 3442 575 
Q 3803 722 4122 1019 
L 4122 359 
Q 3791 134 3420 21 
Q 3050 -91 2638 -91 
Q 1578 -91 968 557 
Q 359 1206 359 2328 
Q 359 3453 968 4101 
Q 1578 4750 2638 4750 
Q 3056 4750 3426 4639 
Q 3797 4528 4122 4306 
z
" transform="scale(0.015625)"/>
      </defs>
      <use xlink:href="#DejaVuSans-54"/>
      <use xlink:href="#DejaVuSans-65" x="44.083984"/>
      <use xlink:href="#DejaVuSans-6d" x="105.607422"/>
      <use xlink:href="#DejaVuSans-70" x="203.019531"/>
      <use xlink:href="#DejaVuSans-65" x="266.496094"/>
      <use xlink:href="#DejaVuSans-72" x="328.019531"/>
      <use xlink:href="#DejaVuSans-61" x="369.132812"/>
      <use xlink:href="#DejaVuSans-74" x="430.412109"/>
      <use xlink:href="#DejaVuSans-75" x="469.621094"/>
      <use xlink:href="#DejaVuSans-72" x="533"/>
      <use xlink:href="#DejaVuSans-65" x="571.863281"/>
      <use xlink:href="#DejaVuSans-20" x="633.386719"/>
      <use xlink:href="#DejaVuSans-5b" x="665.173828"/>
      <use xlink:href="#DejaVuSans-ba" x="704.1875"/>
      <use xlink:href="#DejaVuSans-43" x="751.306641"/>
      <use xlink:href="#DejaVuSans-5d" x="821.130859"/>
     </g>
    </g>
   </g>
   <g id="line2d_15">
    <path d="M 102.950331 53.568 
L 105.312014 55.377728 
L 107.673696 57.166815 
L 110.035379 58.935333 
L 112.397062 60.683352 
L 114.758745 62.410941 
L 117.120428 64.11817 
L 119.482111 65.805105 
L 121.843794 67.471815 
L 124.205477 69.118364 
L 126.56716 70.74482 
L 128.928843 72.351245 
L 131.290526 73.937705 
L 133.652209 75.504263 
L 136.013892 77.05098 
L 138.375575 78.577918 
L 140.737258 80.085137 
L 143.098941 81.572699 
L 145.460624 83.040661 
L 147.822307 84.489082 
L 150.183989 85.91802 
L 152.545672 87.327532 
L 154.907355 88.717673 
L 157.269038 90.088499 
L 159.630721 91.440064 
L 161.992404 92.772423 
L 164.354087 94.085627 
L 166.71577 95.37973 
L 169.077453 96.654782 
L 171.439136 97.910835 
L 173.800819 99.147938 
L 176.162502 100.36614 
L 178.524185 101.565491 
L 180.885868 102.746037 
L 183.247551 103.907825 
L 185.609234 105.050902 
L 187.970917 106.175313 
L 190.3326 107.281104 
L 192.694282 108.368316 
L 195.055965 109.436995 
L 197.417648 110.487182 
L 199.779331 111.51892 
L 202.141014 112.532249 
L 204.502697 113.527209 
L 206.86438 114.50384 
L 209.226063 115.462182 
L 211.587746 116.402271 
L 213.949429 117.324145 
L 216.311112 118.227842 
L 218.672795 119.113397 
L 221.034478 119.980844 
L 223.396161 120.83022 
L 225.757844 121.661556 
L 228.119527 122.474887 
L 230.48121 123.270245 
L 232.842893 124.047661 
L 235.204576 124.807167 
L 237.566258 125.548792 
L 239.927941 126.272566 
L 242.289624 126.978518 
L 244.651307 127.666675 
L 247.01299 128.337066 
L 249.374673 128.989716 
L 251.736356 129.624652 
L 254.098039 130.2419 
L 256.459722 130.841482 
L 258.821405 131.423424 
L 261.183088 131.987749 
L 263.544771 132.534478 
L 265.906454 133.063634 
L 268.268137 133.575238 
L 270.62982 134.06931 
L 272.991503 134.54587 
L 275.353186 135.004936 
L 277.714869 135.446527 
L 280.076551 135.87066 
L 282.438234 136.277353 
L 284.799917 136.666621 
L 287.1616 137.03848 
L 289.523283 137.392944 
L 291.884966 137.730029 
L 294.246649 138.049747 
L 296.608332 138.35211 
L 298.970015 138.637132 
L 301.331698 138.904822 
L 303.693381 139.155193 
L 306.055064 139.388254 
L 308.416747 139.604013 
L 310.77843 139.80248 
L 313.140113 139.983663 
L 315.501796 140.147569 
L 317.863479 140.294204 
L 320.225162 140.423574 
L 322.586844 140.535684 
L 324.948527 140.630539 
L 327.31021 140.708143 
L 329.671893 140.768498 
L 332.033576 140.811607 
L 334.395259 140.837472 
L 336.756942 140.846093 
" clip-path="url(#p86b86b66a5)" style="fill: none; stroke: #1f77b4; stroke-width: 1.5; stroke-linecap: square"/>
   </g>
   <g id="line2d_16">
    <path d="M 102.950331 53.568 
L 105.312014 55.401277 
L 107.673696 57.213915 
L 110.035379 59.005985 
L 112.397062 60.777559 
L 114.758745 62.528707 
L 117.120428 64.259499 
L 119.482111 65.970004 
L 121.843794 67.660289 
L 124.205477 69.330422 
L 126.56716 70.980469 
L 128.928843 72.610495 
L 131.290526 74.220567 
L 133.652209 75.810746 
L 136.013892 77.381098 
L 138.375575 78.931684 
L 140.737258 80.462565 
L 143.098941 81.973804 
L 145.460624 83.465459 
L 147.822307 84.93759 
L 150.183989 86.390255 
L 152.545672 87.823513 
L 154.907355 89.23742 
L 157.269038 90.632033 
L 159.630721 92.007407 
L 161.992404 93.363596 
L 164.354087 94.700655 
L 166.71577 96.018636 
L 169.077453 97.317593 
L 171.439136 98.597576 
L 173.800819 99.858637 
L 176.162502 101.100826 
L 178.524185 102.324191 
L 180.885868 103.528783 
L 183.247551 104.714648 
L 185.609234 105.881833 
L 187.970917 107.030386 
L 190.3326 108.160352 
L 192.694282 109.271775 
L 195.055965 110.364701 
L 197.417648 111.439172 
L 199.779331 112.49523 
L 202.141014 113.532919 
L 204.502697 114.552279 
L 206.86438 115.553351 
L 209.226063 116.536175 
L 211.587746 117.500789 
L 213.949429 118.447232 
L 216.311112 119.375542 
L 218.672795 120.285756 
L 221.034478 121.177909 
L 223.396161 122.052037 
L 225.757844 122.908176 
L 228.119527 123.746358 
L 230.48121 124.566618 
L 232.842893 125.368987 
L 235.204576 126.153499 
L 237.566258 126.920183 
L 239.927941 127.669071 
L 242.289624 128.400192 
L 244.651307 129.113576 
L 247.01299 129.80925 
L 249.374673 130.487242 
L 251.736356 131.14758 
L 254.098039 131.790289 
L 256.459722 132.415395 
L 258.821405 133.022924 
L 261.183088 133.612898 
L 263.544771 134.185342 
L 265.906454 134.740278 
L 268.268137 135.277728 
L 270.62982 135.797714 
L 272.991503 136.300257 
L 275.353186 136.785376 
L 277.714869 137.25309 
L 280.076551 137.703419 
L 282.438234 138.13638 
L 284.799917 138.55199 
L 287.1616 138.950266 
L 289.523283 139.331224 
L 291.884966 139.694878 
L 294.246649 140.041244 
L 296.608332 140.370335 
L 298.970015 140.682164 
L 301.331698 140.976744 
L 303.693381 141.254086 
L 306.055064 141.514201 
L 308.416747 141.7571 
L 310.77843 141.982792 
L 313.140113 142.191286 
L 315.501796 142.382591 
L 317.863479 142.556714 
L 320.225162 142.713662 
L 322.586844 142.853441 
L 324.948527 142.976058 
L 327.31021 143.081516 
L 329.671893 143.16982 
L 332.033576 143.240973 
L 334.395259 143.294978 
L 336.756942 143.331838 
" clip-path="url(#p86b86b66a5)" style="fill: none; stroke: #ff7f0e; stroke-width: 1.5; stroke-linecap: square"/>
   </g>
   <g id="line2d_17">
    <path d="M 102.950331 53.568 
L 105.312014 56.842774 
L 107.673696 60.096966 
L 110.035379 63.330705 
L 112.397062 66.54412 
L 114.758745 69.737338 
L 117.120428 72.910487 
L 119.482111 76.063692 
L 121.843794 79.197079 
L 124.205477 82.310772 
L 126.56716 85.404895 
L 128.928843 88.479571 
L 131.290526 91.534923 
L 133.652209 94.571072 
L 136.013892 97.588138 
L 138.375575 100.586242 
L 140.737258 103.565502 
L 143.098941 106.526037 
L 145.460624 109.467965 
L 147.822307 112.391403 
L 150.183989 115.296467 
L 152.545672 118.183272 
L 154.907355 121.051933 
L 157.269038 123.902565 
L 159.630721 126.73528 
L 161.992404 129.550191 
L 164.354087 132.34741 
L 166.71577 135.127049 
L 169.077453 137.889217 
L 171.439136 140.634024 
L 173.800819 143.361581 
L 176.162502 146.071994 
L 178.524185 148.765372 
L 180.885868 151.441822 
L 183.247551 154.10145 
L 185.609234 156.744362 
L 187.970917 159.370664 
L 190.3326 161.980458 
L 192.694282 164.57385 
L 195.055965 167.150943 
L 197.417648 169.711837 
L 199.779331 172.256637 
L 202.141014 174.785442 
L 204.502697 177.298354 
L 206.86438 179.795471 
L 209.226063 182.276894 
L 211.587746 184.742721 
L 213.949429 187.19305 
L 216.311112 189.627978 
L 218.672795 192.047603 
L 221.034478 194.45202 
L 223.396161 196.841325 
L 225.757844 199.215613 
L 228.119527 201.574979 
L 230.48121 203.919516 
L 232.842893 206.249317 
L 235.204576 208.564475 
L 237.566258 210.865082 
L 239.927941 213.151229 
L 242.289624 215.423008 
L 244.651307 217.680509 
L 247.01299 219.923821 
L 249.374673 222.153033 
L 251.736356 224.368235 
L 254.098039 226.569514 
L 256.459722 228.756958 
L 258.821405 230.930653 
L 261.183088 233.090687 
L 263.544771 235.237144 
L 265.906454 237.370111 
L 268.268137 239.489672 
L 270.62982 241.595911 
L 272.991503 243.688913 
L 275.353186 245.768759 
L 277.714869 247.835534 
L 280.076551 249.889319 
L 282.438234 251.930196 
L 284.799917 253.958245 
L 287.1616 255.973548 
L 289.523283 257.976185 
L 291.884966 259.966235 
L 294.246649 261.943777 
L 296.608332 263.90889 
L 298.970015 265.861652 
L 301.331698 267.802141 
L 303.693381 269.730434 
L 306.055064 271.646607 
L 308.416747 273.550737 
L 310.77843 275.4429 
L 313.140113 277.32317 
L 315.501796 279.191622 
L 317.863479 281.048331 
L 320.225162 282.89337 
L 322.586844 284.726813 
L 324.948527 286.548733 
L 327.31021 288.359202 
L 329.671893 290.158291 
L 332.033576 291.946074 
L 334.395259 293.72262 
L 336.756942 295.488 
" clip-path="url(#p86b86b66a5)" style="fill: none; stroke: #2ca02c; stroke-width: 1.5; stroke-linecap: square"/>
   </g>
   <g id="patch_3">
    <path d="M 91.26 307.584 
L 91.26 41.472 
" style="fill: none; stroke: #000000; stroke-width: 0.8; stroke-linejoin: miter; stroke-linecap: square"/>
   </g>
   <g id="patch_4">
    <path d="M 348.447273 307.584 
L 348.447273 41.472 
" style="fill: none; stroke: #000000; stroke-width: 0.8; stroke-linejoin: miter; stroke-linecap: square"/>
   </g>
   <g id="patch_5">
    <path d="M 91.26 307.584 
L 348.447273 307.584 
" style="fill: none; stroke: #000000; stroke-width: 0.8; stroke-linejoin: miter; stroke-linecap: square"/>
   </g>
   <g id="patch_6">
    <path d="M 91.26 41.472 
L 348.447273 41.472 
" style="fill: none; stroke: #000000; stroke-width: 0.8; stroke-linejoin: miter; stroke-linecap: square"/>
   </g>
   <g id="text_17">
    <!-- t = 1e-2 [m] -->
    <g transform="translate(182.735199 35.472) scale(0.12 -0.12)">
     <defs>
      <path id="DejaVuSans-3d" d="M 678 2906 
L 4684 2906 
L 4684 2381 
L 678 2381 
L 678 2906 
z
M 678 1631 
L 4684 1631 
L 4684 1100 
L 678 1100 
L 678 1631 
z
" transform="scale(0.015625)"/>
      <path id="DejaVuSans-2d" d="M 313 2009 
L 1997 2009 
L 1997 1497 
L 313 1497 
L 313 2009 
z
" transform="scale(0.015625)"/>
     </defs>
     <use xlink:href="#DejaVuSans-74"/>
     <use xlink:href="#DejaVuSans-20" x="39.208984"/>
     <use xlink:href="#DejaVuSans-3d" x="70.996094"/>
     <use xlink:href="#DejaVuSans-20" x="154.785156"/>
     <use xlink:href="#DejaVuSans-31" x="186.572266"/>
     <use xlink:href="#DejaVuSans-65" x="250.195312"/>
     <use xlink:href="#DejaVuSans-2d" x="311.71875"/>
     <use xlink:href="#DejaVuSans-32" x="347.802734"/>
     <use xlink:href="#DejaVuSans-20" x="411.425781"/>
     <use xlink:href="#DejaVuSans-5b" x="443.212891"/>
     <use xlink:href="#DejaVuSans-6d" x="482.226562"/>
     <use xlink:href="#DejaVuSans-5d" x="579.638672"/>
    </g>
   </g>
   <g id="legend_1">
    <g id="patch_7">
     <path d="M 194.975398 93.506375 
L 341.447273 93.506375 
Q 343.447273 93.506375 343.447273 91.506375 
L 343.447273 48.472 
Q 343.447273 46.472 341.447273 46.472 
L 194.975398 46.472 
Q 192.975398 46.472 192.975398 48.472 
L 192.975398 91.506375 
Q 192.975398 93.506375 194.975398 93.506375 
z
" style="fill: #ffffff; opacity: 0.8; stroke: #cccccc; stroke-linejoin: miter"/>
    </g>
    <g id="line2d_18">
     <path d="M 196.975398 54.570438 
L 206.975398 54.570438 
L 216.975398 54.570438 
" style="fill: none; stroke: #1f77b4; stroke-width: 1.5; stroke-linecap: square"/>
    </g>
    <g id="text_18">
     <!-- Adiabatic Hypothesis -->
     <g transform="translate(224.975398 58.070438) scale(0.1 -0.1)">
      <defs>
       <path id="DejaVuSans-41" d="M 2188 4044 
L 1331 1722 
L 3047 1722 
L 2188 4044 
z
M 1831 4666 
L 2547 4666 
L 4325 0 
L 3669 0 
L 3244 1197 
L 1141 1197 
L 716 0 
L 50 0 
L 1831 4666 
z
" transform="scale(0.015625)"/>
       <path id="DejaVuSans-64" d="M 2906 2969 
L 2906 4863 
L 3481 4863 
L 3481 0 
L 2906 0 
L 2906 525 
Q 2725 213 2448 61 
Q 2172 -91 1784 -91 
Q 1150 -91 751 415 
Q 353 922 353 1747 
Q 353 2572 751 3078 
Q 1150 3584 1784 3584 
Q 2172 3584 2448 3432 
Q 2725 3281 2906 2969 
z
M 947 1747 
Q 947 1113 1208 752 
Q 1469 391 1925 391 
Q 2381 391 2643 752 
Q 2906 1113 2906 1747 
Q 2906 2381 2643 2742 
Q 2381 3103 1925 3103 
Q 1469 3103 1208 2742 
Q 947 2381 947 1747 
z
" transform="scale(0.015625)"/>
       <path id="DejaVuSans-62" d="M 3116 1747 
Q 3116 2381 2855 2742 
Q 2594 3103 2138 3103 
Q 1681 3103 1420 2742 
Q 1159 2381 1159 1747 
Q 1159 1113 1420 752 
Q 1681 391 2138 391 
Q 2594 391 2855 752 
Q 3116 1113 3116 1747 
z
M 1159 2969 
Q 1341 3281 1617 3432 
Q 1894 3584 2278 3584 
Q 2916 3584 3314 3078 
Q 3713 2572 3713 1747 
Q 3713 922 3314 415 
Q 2916 -91 2278 -91 
Q 1894 -91 1617 61 
Q 1341 213 1159 525 
L 1159 0 
L 581 0 
L 581 4863 
L 1159 4863 
L 1159 2969 
z
" transform="scale(0.015625)"/>
       <path id="DejaVuSans-48" d="M 628 4666 
L 1259 4666 
L 1259 2753 
L 3553 2753 
L 3553 4666 
L 4184 4666 
L 4184 0 
L 3553 0 
L 3553 2222 
L 1259 2222 
L 1259 0 
L 628 0 
L 628 4666 
z
" transform="scale(0.015625)"/>
       <path id="DejaVuSans-79" d="M 2059 -325 
Q 1816 -950 1584 -1140 
Q 1353 -1331 966 -1331 
L 506 -1331 
L 506 -850 
L 844 -850 
Q 1081 -850 1212 -737 
Q 1344 -625 1503 -206 
L 1606 56 
L 191 3500 
L 800 3500 
L 1894 763 
L 2988 3500 
L 3597 3500 
L 2059 -325 
z
" transform="scale(0.015625)"/>
       <path id="DejaVuSans-6f" d="M 1959 3097 
Q 1497 3097 1228 2736 
Q 959 2375 959 1747 
Q 959 1119 1226 758 
Q 1494 397 1959 397 
Q 2419 397 2687 759 
Q 2956 1122 2956 1747 
Q 2956 2369 2687 2733 
Q 2419 3097 1959 3097 
z
M 1959 3584 
Q 2709 3584 3137 3096 
Q 3566 2609 3566 1747 
Q 3566 888 3137 398 
Q 2709 -91 1959 -91 
Q 1206 -91 779 398 
Q 353 888 353 1747 
Q 353 2609 779 3096 
Q 1206 3584 1959 3584 
z
" transform="scale(0.015625)"/>
       <path id="DejaVuSans-68" d="M 3513 2113 
L 3513 0 
L 2938 0 
L 2938 2094 
Q 2938 2591 2744 2837 
Q 2550 3084 2163 3084 
Q 1697 3084 1428 2787 
Q 1159 2491 1159 1978 
L 1159 0 
L 581 0 
L 581 4863 
L 1159 4863 
L 1159 2956 
Q 1366 3272 1645 3428 
Q 1925 3584 2291 3584 
Q 2894 3584 3203 3211 
Q 3513 2838 3513 2113 
z
" transform="scale(0.015625)"/>
      </defs>
      <use xlink:href="#DejaVuSans-41"/>
      <use xlink:href="#DejaVuSans-64" x="66.658203"/>
      <use xlink:href="#DejaVuSans-69" x="130.134766"/>
      <use xlink:href="#DejaVuSans-61" x="157.917969"/>
      <use xlink:href="#DejaVuSans-62" x="219.197266"/>
      <use xlink:href="#DejaVuSans-61" x="282.673828"/>
      <use xlink:href="#DejaVuSans-74" x="343.953125"/>
      <use xlink:href="#DejaVuSans-69" x="383.162109"/>
      <use xlink:href="#DejaVuSans-63" x="410.945312"/>
      <use xlink:href="#DejaVuSans-20" x="465.925781"/>
      <use xlink:href="#DejaVuSans-48" x="497.712891"/>
      <use xlink:href="#DejaVuSans-79" x="572.908203"/>
      <use xlink:href="#DejaVuSans-70" x="632.087891"/>
      <use xlink:href="#DejaVuSans-6f" x="695.564453"/>
      <use xlink:href="#DejaVuSans-74" x="756.746094"/>
      <use xlink:href="#DejaVuSans-68" x="795.955078"/>
      <use xlink:href="#DejaVuSans-65" x="859.333984"/>
      <use xlink:href="#DejaVuSans-73" x="920.857422"/>
      <use xlink:href="#DejaVuSans-69" x="972.957031"/>
      <use xlink:href="#DejaVuSans-73" x="1000.740234"/>
     </g>
    </g>
    <g id="line2d_19">
     <path d="M 196.975398 69.248563 
L 206.975398 69.248563 
L 216.975398 69.248563 
" style="fill: none; stroke: #ff7f0e; stroke-width: 1.5; stroke-linecap: square"/>
    </g>
    <g id="text_19">
     <!-- Convective Hypothesis -->
     <g transform="translate(224.975398 72.748563) scale(0.1 -0.1)">
      <defs>
       <path id="DejaVuSans-76" d="M 191 3500 
L 800 3500 
L 1894 563 
L 2988 3500 
L 3597 3500 
L 2284 0 
L 1503 0 
L 191 3500 
z
" transform="scale(0.015625)"/>
      </defs>
      <use xlink:href="#DejaVuSans-43"/>
      <use xlink:href="#DejaVuSans-6f" x="69.824219"/>
      <use xlink:href="#DejaVuSans-6e" x="131.005859"/>
      <use xlink:href="#DejaVuSans-76" x="194.384766"/>
      <use xlink:href="#DejaVuSans-65" x="253.564453"/>
      <use xlink:href="#DejaVuSans-63" x="315.087891"/>
      <use xlink:href="#DejaVuSans-74" x="370.068359"/>
      <use xlink:href="#DejaVuSans-69" x="409.277344"/>
      <use xlink:href="#DejaVuSans-76" x="437.060547"/>
      <use xlink:href="#DejaVuSans-65" x="496.240234"/>
      <use xlink:href="#DejaVuSans-20" x="557.763672"/>
      <use xlink:href="#DejaVuSans-48" x="589.550781"/>
      <use xlink:href="#DejaVuSans-79" x="664.746094"/>
      <use xlink:href="#DejaVuSans-70" x="723.925781"/>
      <use xlink:href="#DejaVuSans-6f" x="787.402344"/>
      <use xlink:href="#DejaVuSans-74" x="848.583984"/>
      <use xlink:href="#DejaVuSans-68" x="887.792969"/>
      <use xlink:href="#DejaVuSans-65" x="951.171875"/>
      <use xlink:href="#DejaVuSans-73" x="1012.695312"/>
      <use xlink:href="#DejaVuSans-69" x="1064.794922"/>
      <use xlink:href="#DejaVuSans-73" x="1092.578125"/>
     </g>
    </g>
    <g id="line2d_20">
     <path d="M 196.975398 83.926688 
L 206.975398 83.926688 
L 216.975398 83.926688 
" style="fill: none; stroke: #2ca02c; stroke-width: 1.5; stroke-linecap: square"/>
    </g>
    <g id="text_20">
     <!-- Infinite Hypothesis -->
     <g transform="translate(224.975398 87.426688) scale(0.1 -0.1)">
      <defs>
       <path id="DejaVuSans-49" d="M 628 4666 
L 1259 4666 
L 1259 0 
L 628 0 
L 628 4666 
z
" transform="scale(0.015625)"/>
       <path id="DejaVuSans-66" d="M 2375 4863 
L 2375 4384 
L 1825 4384 
Q 1516 4384 1395 4259 
Q 1275 4134 1275 3809 
L 1275 3500 
L 2222 3500 
L 2222 3053 
L 1275 3053 
L 1275 0 
L 697 0 
L 697 3053 
L 147 3053 
L 147 3500 
L 697 3500 
L 697 3744 
Q 697 4328 969 4595 
Q 1241 4863 1831 4863 
L 2375 4863 
z
" transform="scale(0.015625)"/>
      </defs>
      <use xlink:href="#DejaVuSans-49"/>
      <use xlink:href="#DejaVuSans-6e" x="29.492188"/>
      <use xlink:href="#DejaVuSans-66" x="92.871094"/>
      <use xlink:href="#DejaVuSans-69" x="128.076172"/>
      <use xlink:href="#DejaVuSans-6e" x="155.859375"/>
      <use xlink:href="#DejaVuSans-69" x="219.238281"/>
      <use xlink:href="#DejaVuSans-74" x="247.021484"/>
      <use xlink:href="#DejaVuSans-65" x="286.230469"/>
      <use xlink:href="#DejaVuSans-20" x="347.753906"/>
      <use xlink:href="#DejaVuSans-48" x="379.541016"/>
      <use xlink:href="#DejaVuSans-79" x="454.736328"/>
      <use xlink:href="#DejaVuSans-70" x="513.916016"/>
      <use xlink:href="#DejaVuSans-6f" x="577.392578"/>
      <use xlink:href="#DejaVuSans-74" x="638.574219"/>
      <use xlink:href="#DejaVuSans-68" x="677.783203"/>
      <use xlink:href="#DejaVuSans-65" x="741.162109"/>
      <use xlink:href="#DejaVuSans-73" x="802.685547"/>
      <use xlink:href="#DejaVuSans-69" x="854.785156"/>
      <use xlink:href="#DejaVuSans-73" x="882.568359"/>
     </g>
    </g>
   </g>
  </g>
  <g id="axes_2">
   <g id="patch_8">
    <path d="M 399.884727 307.584 
L 657.072 307.584 
L 657.072 41.472 
L 399.884727 41.472 
z
" style="fill: #ffffff"/>
   </g>
   <g id="matplotlib.axis_3">
    <g id="xtick_7">
     <g id="line2d_21">
      <g>
       <use xlink:href="#m25dc268049" x="411.575058" y="307.584" style="stroke: #000000; stroke-width: 0.8"/>
      </g>
     </g>
     <g id="text_21">
      <!-- 0.00 -->
      <g transform="translate(400.442245 322.182437) scale(0.1 -0.1)">
       <use xlink:href="#DejaVuSans-30"/>
       <use xlink:href="#DejaVuSans-2e" x="63.623047"/>
       <use xlink:href="#DejaVuSans-30" x="95.410156"/>
       <use xlink:href="#DejaVuSans-30" x="159.033203"/>
      </g>
     </g>
    </g>
    <g id="xtick_8">
     <g id="line2d_22">
      <g>
       <use xlink:href="#m25dc268049" x="458.33638" y="307.584" style="stroke: #000000; stroke-width: 0.8"/>
      </g>
     </g>
     <g id="text_22">
      <!-- 0.02 -->
      <g transform="translate(447.203568 322.182437) scale(0.1 -0.1)">
       <use xlink:href="#DejaVuSans-30"/>
       <use xlink:href="#DejaVuSans-2e" x="63.623047"/>
       <use xlink:href="#DejaVuSans-30" x="95.410156"/>
       <use xlink:href="#DejaVuSans-32" x="159.033203"/>
      </g>
     </g>
    </g>
    <g id="xtick_9">
     <g id="line2d_23">
      <g>
       <use xlink:href="#m25dc268049" x="505.097702" y="307.584" style="stroke: #000000; stroke-width: 0.8"/>
      </g>
     </g>
     <g id="text_23">
      <!-- 0.04 -->
      <g transform="translate(493.96489 322.182437) scale(0.1 -0.1)">
       <use xlink:href="#DejaVuSans-30"/>
       <use xlink:href="#DejaVuSans-2e" x="63.623047"/>
       <use xlink:href="#DejaVuSans-30" x="95.410156"/>
       <use xlink:href="#DejaVuSans-34" x="159.033203"/>
      </g>
     </g>
    </g>
    <g id="xtick_10">
     <g id="line2d_24">
      <g>
       <use xlink:href="#m25dc268049" x="551.859025" y="307.584" style="stroke: #000000; stroke-width: 0.8"/>
      </g>
     </g>
     <g id="text_24">
      <!-- 0.06 -->
      <g transform="translate(540.726212 322.182437) scale(0.1 -0.1)">
       <use xlink:href="#DejaVuSans-30"/>
       <use xlink:href="#DejaVuSans-2e" x="63.623047"/>
       <use xlink:href="#DejaVuSans-30" x="95.410156"/>
       <use xlink:href="#DejaVuSans-36" x="159.033203"/>
      </g>
     </g>
    </g>
    <g id="xtick_11">
     <g id="line2d_25">
      <g>
       <use xlink:href="#m25dc268049" x="598.620347" y="307.584" style="stroke: #000000; stroke-width: 0.8"/>
      </g>
     </g>
     <g id="text_25">
      <!-- 0.08 -->
      <g transform="translate(587.487535 322.182437) scale(0.1 -0.1)">
       <use xlink:href="#DejaVuSans-30"/>
       <use xlink:href="#DejaVuSans-2e" x="63.623047"/>
       <use xlink:href="#DejaVuSans-30" x="95.410156"/>
       <use xlink:href="#DejaVuSans-38" x="159.033203"/>
      </g>
     </g>
    </g>
    <g id="xtick_12">
     <g id="line2d_26">
      <g>
       <use xlink:href="#m25dc268049" x="645.381669" y="307.584" style="stroke: #000000; stroke-width: 0.8"/>
      </g>
     </g>
     <g id="text_26">
      <!-- 0.10 -->
      <g transform="translate(634.248857 322.182437) scale(0.1 -0.1)">
       <use xlink:href="#DejaVuSans-30"/>
       <use xlink:href="#DejaVuSans-2e" x="63.623047"/>
       <use xlink:href="#DejaVuSans-31" x="95.410156"/>
       <use xlink:href="#DejaVuSans-30" x="159.033203"/>
      </g>
     </g>
    </g>
    <g id="text_27">
     <!-- Distance [m] -->
     <g transform="translate(496.254926 335.860562) scale(0.1 -0.1)">
      <use xlink:href="#DejaVuSans-44"/>
      <use xlink:href="#DejaVuSans-69" x="77.001953"/>
      <use xlink:href="#DejaVuSans-73" x="104.785156"/>
      <use xlink:href="#DejaVuSans-74" x="156.884766"/>
      <use xlink:href="#DejaVuSans-61" x="196.09375"/>
      <use xlink:href="#DejaVuSans-6e" x="257.373047"/>
      <use xlink:href="#DejaVuSans-63" x="320.751953"/>
      <use xlink:href="#DejaVuSans-65" x="375.732422"/>
      <use xlink:href="#DejaVuSans-20" x="437.255859"/>
      <use xlink:href="#DejaVuSans-5b" x="469.042969"/>
      <use xlink:href="#DejaVuSans-6d" x="508.056641"/>
      <use xlink:href="#DejaVuSans-5d" x="605.46875"/>
     </g>
    </g>
   </g>
   <g id="matplotlib.axis_4">
    <g id="ytick_9">
     <g id="line2d_27">
      <g>
       <use xlink:href="#m6ac081cc0e" x="399.884727" y="276.573826" style="stroke: #000000; stroke-width: 0.8"/>
      </g>
     </g>
     <g id="text_28">
      <!-- 70 -->
      <g transform="translate(380.159727 280.373044) scale(0.1 -0.1)">
       <use xlink:href="#DejaVuSans-37"/>
       <use xlink:href="#DejaVuSans-30" x="63.623047"/>
      </g>
     </g>
    </g>
    <g id="ytick_10">
     <g id="line2d_28">
      <g>
       <use xlink:href="#m6ac081cc0e" x="399.884727" y="239.406188" style="stroke: #000000; stroke-width: 0.8"/>
      </g>
     </g>
     <g id="text_29">
      <!-- 75 -->
      <g transform="translate(380.159727 243.205407) scale(0.1 -0.1)">
       <use xlink:href="#DejaVuSans-37"/>
       <use xlink:href="#DejaVuSans-35" x="63.623047"/>
      </g>
     </g>
    </g>
    <g id="ytick_11">
     <g id="line2d_29">
      <g>
       <use xlink:href="#m6ac081cc0e" x="399.884727" y="202.23855" style="stroke: #000000; stroke-width: 0.8"/>
      </g>
     </g>
     <g id="text_30">
      <!-- 80 -->
      <g transform="translate(380.159727 206.037769) scale(0.1 -0.1)">
       <use xlink:href="#DejaVuSans-38"/>
       <use xlink:href="#DejaVuSans-30" x="63.623047"/>
      </g>
     </g>
    </g>
    <g id="ytick_12">
     <g id="line2d_30">
      <g>
       <use xlink:href="#m6ac081cc0e" x="399.884727" y="165.070913" style="stroke: #000000; stroke-width: 0.8"/>
      </g>
     </g>
     <g id="text_31">
      <!-- 85 -->
      <g transform="translate(380.159727 168.870132) scale(0.1 -0.1)">
       <use xlink:href="#DejaVuSans-38"/>
       <use xlink:href="#DejaVuSans-35" x="63.623047"/>
      </g>
     </g>
    </g>
    <g id="ytick_13">
     <g id="line2d_31">
      <g>
       <use xlink:href="#m6ac081cc0e" x="399.884727" y="127.903275" style="stroke: #000000; stroke-width: 0.8"/>
      </g>
     </g>
     <g id="text_32">
      <!-- 90 -->
      <g transform="translate(380.159727 131.702494) scale(0.1 -0.1)">
       <use xlink:href="#DejaVuSans-39"/>
       <use xlink:href="#DejaVuSans-30" x="63.623047"/>
      </g>
     </g>
    </g>
    <g id="ytick_14">
     <g id="line2d_32">
      <g>
       <use xlink:href="#m6ac081cc0e" x="399.884727" y="90.735638" style="stroke: #000000; stroke-width: 0.8"/>
      </g>
     </g>
     <g id="text_33">
      <!-- 95 -->
      <g transform="translate(380.159727 94.534856) scale(0.1 -0.1)">
       <use xlink:href="#DejaVuSans-39"/>
       <use xlink:href="#DejaVuSans-35" x="63.623047"/>
      </g>
     </g>
    </g>
    <g id="ytick_15">
     <g id="line2d_33">
      <g>
       <use xlink:href="#m6ac081cc0e" x="399.884727" y="53.568" style="stroke: #000000; stroke-width: 0.8"/>
      </g>
     </g>
     <g id="text_34">
      <!-- 100 -->
      <g transform="translate(373.797227 57.367219) scale(0.1 -0.1)">
       <use xlink:href="#DejaVuSans-31"/>
       <use xlink:href="#DejaVuSans-30" x="63.623047"/>
       <use xlink:href="#DejaVuSans-30" x="127.246094"/>
      </g>
     </g>
    </g>
    <g id="text_35">
     <!-- Temperature [ºC] -->
     <g transform="translate(367.71754 217.535812) rotate(-90) scale(0.1 -0.1)">
      <use xlink:href="#DejaVuSans-54"/>
      <use xlink:href="#DejaVuSans-65" x="44.083984"/>
      <use xlink:href="#DejaVuSans-6d" x="105.607422"/>
      <use xlink:href="#DejaVuSans-70" x="203.019531"/>
      <use xlink:href="#DejaVuSans-65" x="266.496094"/>
      <use xlink:href="#DejaVuSans-72" x="328.019531"/>
      <use xlink:href="#DejaVuSans-61" x="369.132812"/>
      <use xlink:href="#DejaVuSans-74" x="430.412109"/>
      <use xlink:href="#DejaVuSans-75" x="469.621094"/>
      <use xlink:href="#DejaVuSans-72" x="533"/>
      <use xlink:href="#DejaVuSans-65" x="571.863281"/>
      <use xlink:href="#DejaVuSans-20" x="633.386719"/>
      <use xlink:href="#DejaVuSans-5b" x="665.173828"/>
      <use xlink:href="#DejaVuSans-ba" x="704.1875"/>
      <use xlink:href="#DejaVuSans-43" x="751.306641"/>
      <use xlink:href="#DejaVuSans-5d" x="821.130859"/>
     </g>
    </g>
   </g>
   <g id="line2d_34">
    <path d="M 411.575058 53.568 
L 413.936741 55.063677 
L 416.298424 56.542847 
L 418.660107 58.005553 
L 421.02179 59.451833 
L 423.383473 60.88173 
L 425.745156 62.295282 
L 428.106838 63.692529 
L 430.468521 65.07351 
L 432.830204 66.438263 
L 435.191887 67.786827 
L 437.55357 69.119238 
L 439.915253 70.435534 
L 442.276936 71.735751 
L 444.638619 73.019926 
L 447.000302 74.288094 
L 449.361985 75.54029 
L 451.723668 76.776551 
L 454.085351 77.996909 
L 456.447034 79.201399 
L 458.808717 80.390054 
L 461.1704 81.562908 
L 463.532083 82.719992 
L 465.893766 83.86134 
L 468.255449 84.986983 
L 470.617131 86.096953 
L 472.978814 87.191279 
L 475.340497 88.269993 
L 477.70218 89.333125 
L 480.063863 90.380705 
L 482.425546 91.41276 
L 484.787229 92.429321 
L 487.148912 93.430415 
L 489.510595 94.416071 
L 491.872278 95.386315 
L 494.233961 96.341175 
L 496.595644 97.280677 
L 498.957327 98.204847 
L 501.31901 99.113712 
L 503.680693 100.007296 
L 506.042376 100.885625 
L 508.404059 101.748722 
L 510.765742 102.596612 
L 513.127424 103.429318 
L 515.489107 104.246864 
L 517.85079 105.049272 
L 520.212473 105.836565 
L 522.574156 106.608764 
L 524.935839 107.365891 
L 527.297522 108.107968 
L 529.659205 108.835014 
L 532.020888 109.547049 
L 534.382571 110.244095 
L 536.744254 110.92617 
L 539.105937 111.593293 
L 541.46762 112.245483 
L 543.829303 112.882757 
L 546.190986 113.505134 
L 548.552669 114.112631 
L 550.914352 114.705265 
L 553.276035 115.283052 
L 555.637718 115.846008 
L 557.9994 116.39415 
L 560.361083 116.927492 
L 562.722766 117.446049 
L 565.084449 117.949835 
L 567.446132 118.438865 
L 569.807815 118.913152 
L 572.169498 119.37271 
L 574.531181 119.81755 
L 576.892864 120.247687 
L 579.254547 120.663131 
L 581.61623 121.063893 
L 583.977913 121.449987 
L 586.339596 121.821421 
L 588.701279 122.178206 
L 591.062962 122.520353 
L 593.424645 122.84787 
L 595.786328 123.160767 
L 598.148011 123.459053 
L 600.509693 123.742736 
L 602.871376 124.011824 
L 605.233059 124.266323 
L 607.594742 124.506242 
L 609.956425 124.731588 
L 612.318108 124.942365 
L 614.679791 125.138581 
L 617.041474 125.32024 
L 619.403157 125.487348 
L 621.76484 125.639909 
L 624.126523 125.777927 
L 626.488206 125.901408 
L 628.849889 126.010353 
L 631.211572 126.104765 
L 633.573255 126.184649 
L 635.934938 126.250005 
L 638.296621 126.300835 
L 640.658304 126.337142 
L 643.019986 126.358926 
L 645.381669 126.366187 
" clip-path="url(#peb28d1c2bc)" style="fill: none; stroke: #1f77b4; stroke-width: 1.5; stroke-linecap: square"/>
   </g>
   <g id="line2d_35">
    <path d="M 411.575058 53.568 
L 413.936741 55.093539 
L 416.298424 56.602573 
L 418.660107 58.095144 
L 421.02179 59.571292 
L 423.383473 61.03106 
L 425.745156 62.474487 
L 428.106838 63.901614 
L 430.468521 65.312481 
L 432.830204 66.707127 
L 435.191887 68.08559 
L 437.55357 69.447909 
L 439.915253 70.794123 
L 442.276936 72.124267 
L 444.638619 73.43838 
L 447.000302 74.736499 
L 449.361985 76.018658 
L 451.723668 77.284894 
L 454.085351 78.535242 
L 456.447034 79.769736 
L 458.808717 80.988412 
L 461.1704 82.191303 
L 463.532083 83.378443 
L 465.893766 84.549864 
L 468.255449 85.705599 
L 470.617131 86.845681 
L 472.978814 87.97014 
L 475.340497 89.079009 
L 477.70218 90.172318 
L 480.063863 91.250098 
L 482.425546 92.312379 
L 484.787229 93.359189 
L 487.148912 94.390559 
L 489.510595 95.406517 
L 491.872278 96.407091 
L 494.233961 97.39231 
L 496.595644 98.362199 
L 498.957327 99.316788 
L 501.31901 100.256101 
L 503.680693 101.180166 
L 506.042376 102.089008 
L 508.404059 102.982651 
L 510.765742 103.861122 
L 513.127424 104.724445 
L 515.489107 105.572643 
L 517.85079 106.40574 
L 520.212473 107.223759 
L 522.574156 108.026724 
L 524.935839 108.814656 
L 527.297522 109.587578 
L 529.659205 110.34551 
L 532.020888 111.088474 
L 534.382571 111.816491 
L 536.744254 112.529581 
L 539.105937 113.227764 
L 541.46762 113.911058 
L 543.829303 114.579484 
L 546.190986 115.23306 
L 548.552669 115.871804 
L 550.914352 116.495733 
L 553.276035 117.104866 
L 555.637718 117.699219 
L 557.9994 118.278808 
L 560.361083 118.84365 
L 562.722766 119.39376 
L 565.084449 119.929155 
L 567.446132 120.449847 
L 569.807815 120.955853 
L 572.169498 121.447187 
L 574.531181 121.923861 
L 576.892864 122.385889 
L 579.254547 122.833284 
L 581.61623 123.266059 
L 583.977913 123.684225 
L 586.339596 124.087795 
L 588.701279 124.476779 
L 591.062962 124.851188 
L 593.424645 125.211032 
L 595.786328 125.556323 
L 598.148011 125.887068 
L 600.509693 126.203278 
L 602.871376 126.504961 
L 605.233059 126.792126 
L 607.594742 127.06478 
L 609.956425 127.322932 
L 612.318108 127.566588 
L 614.679791 127.795755 
L 617.041474 128.01044 
L 619.403157 128.210648 
L 621.76484 128.396386 
L 624.126523 128.567657 
L 626.488206 128.724468 
L 628.849889 128.866822 
L 631.211572 128.994724 
L 633.573255 129.108176 
L 635.934938 129.207182 
L 638.296621 129.291746 
L 640.658304 129.361868 
L 643.019986 129.417552 
L 645.381669 129.458798 
" clip-path="url(#peb28d1c2bc)" style="fill: none; stroke: #ff7f0e; stroke-width: 1.5; stroke-linecap: square"/>
   </g>
   <g id="line2d_36">
    <path d="M 411.575058 53.568 
L 413.936741 56.696737 
L 416.298424 59.809013 
L 418.660107 62.904915 
L 421.02179 65.984529 
L 423.383473 69.04794 
L 425.745156 72.095234 
L 428.106838 75.126496 
L 430.468521 78.14181 
L 432.830204 81.141259 
L 435.191887 84.124928 
L 437.55357 87.092899 
L 439.915253 90.045255 
L 442.276936 92.982079 
L 444.638619 95.903451 
L 447.000302 98.809453 
L 449.361985 101.700166 
L 451.723668 104.57567 
L 454.085351 107.436046 
L 456.447034 110.281373 
L 458.808717 113.11173 
L 461.1704 115.927196 
L 463.532083 118.72785 
L 465.893766 121.513768 
L 468.255449 124.28503 
L 470.617131 127.041711 
L 472.978814 129.783889 
L 475.340497 132.511639 
L 477.70218 135.225039 
L 480.063863 137.924162 
L 482.425546 140.609086 
L 484.787229 143.279883 
L 487.148912 145.936628 
L 489.510595 148.579396 
L 491.872278 151.20826 
L 494.233961 153.823293 
L 496.595644 156.424568 
L 498.957327 159.012157 
L 501.31901 161.586132 
L 503.680693 164.146565 
L 506.042376 166.693527 
L 508.404059 169.227089 
L 510.765742 171.747321 
L 513.127424 174.254294 
L 515.489107 176.748078 
L 517.85079 179.228741 
L 520.212473 181.696353 
L 522.574156 184.150982 
L 524.935839 186.592697 
L 527.297522 189.021565 
L 529.659205 191.437655 
L 532.020888 193.841034 
L 534.382571 196.231767 
L 536.744254 198.609923 
L 539.105937 200.975567 
L 541.46762 203.328764 
L 543.829303 205.669581 
L 546.190986 207.998083 
L 548.552669 210.314333 
L 550.914352 212.618398 
L 553.276035 214.91034 
L 555.637718 217.190225 
L 557.9994 219.458114 
L 560.361083 221.714071 
L 562.722766 223.958159 
L 565.084449 226.190441 
L 567.446132 228.410978 
L 569.807815 230.619833 
L 572.169498 232.817066 
L 574.531181 235.00274 
L 576.892864 237.176914 
L 579.254547 239.339649 
L 581.61623 241.491006 
L 583.977913 243.631044 
L 586.339596 245.759823 
L 588.701279 247.877402 
L 591.062962 249.98384 
L 593.424645 252.079196 
L 595.786328 254.163527 
L 598.148011 256.236893 
L 600.509693 258.29935 
L 602.871376 260.350956 
L 605.233059 262.391769 
L 607.594742 264.421844 
L 609.956425 266.441238 
L 612.318108 268.450008 
L 614.679791 270.44821 
L 617.041474 272.435899 
L 619.403157 274.41313 
L 621.76484 276.379958 
L 624.126523 278.336439 
L 626.488206 280.282626 
L 628.849889 282.218574 
L 631.211572 284.144337 
L 633.573255 286.059967 
L 635.934938 287.96552 
L 638.296621 289.861046 
L 640.658304 291.746601 
L 643.019986 293.622234 
L 645.381669 295.488 
" clip-path="url(#peb28d1c2bc)" style="fill: none; stroke: #2ca02c; stroke-width: 1.5; stroke-linecap: square"/>
   </g>
   <g id="patch_9">
    <path d="M 399.884727 307.584 
L 399.884727 41.472 
" style="fill: none; stroke: #000000; stroke-width: 0.8; stroke-linejoin: miter; stroke-linecap: square"/>
   </g>
   <g id="patch_10">
    <path d="M 657.072 307.584 
L 657.072 41.472 
" style="fill: none; stroke: #000000; stroke-width: 0.8; stroke-linejoin: miter; stroke-linecap: square"/>
   </g>
   <g id="patch_11">
    <path d="M 399.884727 307.584 
L 657.072 307.584 
" style="fill: none; stroke: #000000; stroke-width: 0.8; stroke-linejoin: miter; stroke-linecap: square"/>
   </g>
   <g id="patch_12">
    <path d="M 399.884727 41.472 
L 657.072 41.472 
" style="fill: none; stroke: #000000; stroke-width: 0.8; stroke-linejoin: miter; stroke-linecap: square"/>
   </g>
   <g id="text_36">
    <!-- t = 0.1 [m] -->
    <g transform="translate(495.309614 35.472) scale(0.12 -0.12)">
     <use xlink:href="#DejaVuSans-74"/>
     <use xlink:href="#DejaVuSans-20" x="39.208984"/>
     <use xlink:href="#DejaVuSans-3d" x="70.996094"/>
     <use xlink:href="#DejaVuSans-20" x="154.785156"/>
     <use xlink:href="#DejaVuSans-30" x="186.572266"/>
     <use xlink:href="#DejaVuSans-2e" x="250.195312"/>
     <use xlink:href="#DejaVuSans-31" x="281.982422"/>
     <use xlink:href="#DejaVuSans-20" x="345.605469"/>
     <use xlink:href="#DejaVuSans-5b" x="377.392578"/>
     <use xlink:href="#DejaVuSans-6d" x="416.40625"/>
     <use xlink:href="#DejaVuSans-5d" x="513.818359"/>
    </g>
   </g>
   <g id="legend_2">
    <g id="patch_13">
     <path d="M 503.600125 93.506375 
L 650.072 93.506375 
Q 652.072 93.506375 652.072 91.506375 
L 652.072 48.472 
Q 652.072 46.472 650.072 46.472 
L 503.600125 46.472 
Q 501.600125 46.472 501.600125 48.472 
L 501.600125 91.506375 
Q 501.600125 93.506375 503.600125 93.506375 
z
" style="fill: #ffffff; opacity: 0.8; stroke: #cccccc; stroke-linejoin: miter"/>
    </g>
    <g id="line2d_37">
     <path d="M 505.600125 54.570438 
L 515.600125 54.570438 
L 525.600125 54.570438 
" style="fill: none; stroke: #1f77b4; stroke-width: 1.5; stroke-linecap: square"/>
    </g>
    <g id="text_37">
     <!-- Adiabatic Hypothesis -->
     <g transform="translate(533.600125 58.070438) scale(0.1 -0.1)">
      <use xlink:href="#DejaVuSans-41"/>
      <use xlink:href="#DejaVuSans-64" x="66.658203"/>
      <use xlink:href="#DejaVuSans-69" x="130.134766"/>
      <use xlink:href="#DejaVuSans-61" x="157.917969"/>
      <use xlink:href="#DejaVuSans-62" x="219.197266"/>
      <use xlink:href="#DejaVuSans-61" x="282.673828"/>
      <use xlink:href="#DejaVuSans-74" x="343.953125"/>
      <use xlink:href="#DejaVuSans-69" x="383.162109"/>
      <use xlink:href="#DejaVuSans-63" x="410.945312"/>
      <use xlink:href="#DejaVuSans-20" x="465.925781"/>
      <use xlink:href="#DejaVuSans-48" x="497.712891"/>
      <use xlink:href="#DejaVuSans-79" x="572.908203"/>
      <use xlink:href="#DejaVuSans-70" x="632.087891"/>
      <use xlink:href="#DejaVuSans-6f" x="695.564453"/>
      <use xlink:href="#DejaVuSans-74" x="756.746094"/>
      <use xlink:href="#DejaVuSans-68" x="795.955078"/>
      <use xlink:href="#DejaVuSans-65" x="859.333984"/>
      <use xlink:href="#DejaVuSans-73" x="920.857422"/>
      <use xlink:href="#DejaVuSans-69" x="972.957031"/>
      <use xlink:href="#DejaVuSans-73" x="1000.740234"/>
     </g>
    </g>
    <g id="line2d_38">
     <path d="M 505.600125 69.248563 
L 515.600125 69.248563 
L 525.600125 69.248563 
" style="fill: none; stroke: #ff7f0e; stroke-width: 1.5; stroke-linecap: square"/>
    </g>
    <g id="text_38">
     <!-- Convective Hypothesis -->
     <g transform="translate(533.600125 72.748563) scale(0.1 -0.1)">
      <use xlink:href="#DejaVuSans-43"/>
      <use xlink:href="#DejaVuSans-6f" x="69.824219"/>
      <use xlink:href="#DejaVuSans-6e" x="131.005859"/>
      <use xlink:href="#DejaVuSans-76" x="194.384766"/>
      <use xlink:href="#DejaVuSans-65" x="253.564453"/>
      <use xlink:href="#DejaVuSans-63" x="315.087891"/>
      <use xlink:href="#DejaVuSans-74" x="370.068359"/>
      <use xlink:href="#DejaVuSans-69" x="409.277344"/>
      <use xlink:href="#DejaVuSans-76" x="437.060547"/>
      <use xlink:href="#DejaVuSans-65" x="496.240234"/>
      <use xlink:href="#DejaVuSans-20" x="557.763672"/>
      <use xlink:href="#DejaVuSans-48" x="589.550781"/>
      <use xlink:href="#DejaVuSans-79" x="664.746094"/>
      <use xlink:href="#DejaVuSans-70" x="723.925781"/>
      <use xlink:href="#DejaVuSans-6f" x="787.402344"/>
      <use xlink:href="#DejaVuSans-74" x="848.583984"/>
      <use xlink:href="#DejaVuSans-68" x="887.792969"/>
      <use xlink:href="#DejaVuSans-65" x="951.171875"/>
      <use xlink:href="#DejaVuSans-73" x="1012.695312"/>
      <use xlink:href="#DejaVuSans-69" x="1064.794922"/>
      <use xlink:href="#DejaVuSans-73" x="1092.578125"/>
     </g>
    </g>
    <g id="line2d_39">
     <path d="M 505.600125 83.926688 
L 515.600125 83.926688 
L 525.600125 83.926688 
" style="fill: none; stroke: #2ca02c; stroke-width: 1.5; stroke-linecap: square"/>
    </g>
    <g id="text_39">
     <!-- Infinite Hypothesis -->
     <g transform="translate(533.600125 87.426688) scale(0.1 -0.1)">
      <use xlink:href="#DejaVuSans-49"/>
      <use xlink:href="#DejaVuSans-6e" x="29.492188"/>
      <use xlink:href="#DejaVuSans-66" x="92.871094"/>
      <use xlink:href="#DejaVuSans-69" x="128.076172"/>
      <use xlink:href="#DejaVuSans-6e" x="155.859375"/>
      <use xlink:href="#DejaVuSans-69" x="219.238281"/>
      <use xlink:href="#DejaVuSans-74" x="247.021484"/>
      <use xlink:href="#DejaVuSans-65" x="286.230469"/>
      <use xlink:href="#DejaVuSans-20" x="347.753906"/>
      <use xlink:href="#DejaVuSans-48" x="379.541016"/>
      <use xlink:href="#DejaVuSans-79" x="454.736328"/>
      <use xlink:href="#DejaVuSans-70" x="513.916016"/>
      <use xlink:href="#DejaVuSans-6f" x="577.392578"/>
      <use xlink:href="#DejaVuSans-74" x="638.574219"/>
      <use xlink:href="#DejaVuSans-68" x="677.783203"/>
      <use xlink:href="#DejaVuSans-65" x="741.162109"/>
      <use xlink:href="#DejaVuSans-73" x="802.685547"/>
      <use xlink:href="#DejaVuSans-69" x="854.785156"/>
      <use xlink:href="#DejaVuSans-73" x="882.568359"/>
     </g>
    </g>
   </g>
  </g>
  <g id="text_40">
   <!-- Adiabatic, Convective and Infinite borders. -->
   <g transform="translate(237.08625 16.030125) scale(0.12 -0.12)">
    <defs>
     <path id="DejaVuSans-2c" d="M 750 794 
L 1409 794 
L 1409 256 
L 897 -744 
L 494 -744 
L 750 256 
L 750 794 
z
" transform="scale(0.015625)"/>
    </defs>
    <use xlink:href="#DejaVuSans-41"/>
    <use xlink:href="#DejaVuSans-64" x="66.658203"/>
    <use xlink:href="#DejaVuSans-69" x="130.134766"/>
    <use xlink:href="#DejaVuSans-61" x="157.917969"/>
    <use xlink:href="#DejaVuSans-62" x="219.197266"/>
    <use xlink:href="#DejaVuSans-61" x="282.673828"/>
    <use xlink:href="#DejaVuSans-74" x="343.953125"/>
    <use xlink:href="#DejaVuSans-69" x="383.162109"/>
    <use xlink:href="#DejaVuSans-63" x="410.945312"/>
    <use xlink:href="#DejaVuSans-2c" x="465.925781"/>
    <use xlink:href="#DejaVuSans-20" x="497.712891"/>
    <use xlink:href="#DejaVuSans-43" x="529.5"/>
    <use xlink:href="#DejaVuSans-6f" x="599.324219"/>
    <use xlink:href="#DejaVuSans-6e" x="660.505859"/>
    <use xlink:href="#DejaVuSans-76" x="723.884766"/>
    <use xlink:href="#DejaVuSans-65" x="783.064453"/>
    <use xlink:href="#DejaVuSans-63" x="844.587891"/>
    <use xlink:href="#DejaVuSans-74" x="899.568359"/>
    <use xlink:href="#DejaVuSans-69" x="938.777344"/>
    <use xlink:href="#DejaVuSans-76" x="966.560547"/>
    <use xlink:href="#DejaVuSans-65" x="1025.740234"/>
    <use xlink:href="#DejaVuSans-20" x="1087.263672"/>
    <use xlink:href="#DejaVuSans-61" x="1119.050781"/>
    <use xlink:href="#DejaVuSans-6e" x="1180.330078"/>
    <use xlink:href="#DejaVuSans-64" x="1243.708984"/>
    <use xlink:href="#DejaVuSans-20" x="1307.185547"/>
    <use xlink:href="#DejaVuSans-49" x="1338.972656"/>
    <use xlink:href="#DejaVuSans-6e" x="1368.464844"/>
    <use xlink:href="#DejaVuSans-66" x="1431.84375"/>
    <use xlink:href="#DejaVuSans-69" x="1467.048828"/>
    <use xlink:href="#DejaVuSans-6e" x="1494.832031"/>
    <use xlink:href="#DejaVuSans-69" x="1558.210938"/>
    <use xlink:href="#DejaVuSans-74" x="1585.994141"/>
    <use xlink:href="#DejaVuSans-65" x="1625.203125"/>
    <use xlink:href="#DejaVuSans-20" x="1686.726562"/>
    <use xlink:href="#DejaVuSans-62" x="1718.513672"/>
    <use xlink:href="#DejaVuSans-6f" x="1781.990234"/>
    <use xlink:href="#DejaVuSans-72" x="1843.171875"/>
    <use xlink:href="#DejaVuSans-64" x="1882.535156"/>
    <use xlink:href="#DejaVuSans-65" x="1946.011719"/>
    <use xlink:href="#DejaVuSans-72" x="2007.535156"/>
    <use xlink:href="#DejaVuSans-73" x="2048.648438"/>
    <use xlink:href="#DejaVuSans-2e" x="2100.748047"/>
   </g>
  </g>
 </g>
 <defs>
  <clipPath id="p86b86b66a5">
   <rect x="91.26" y="41.472" width="257.187273" height="266.112"/>
  </clipPath>
  <clipPath id="peb28d1c2bc">
   <rect x="399.884727" y="41.472" width="257.187273" height="266.112"/>
  </clipPath>
 </defs>
</svg>
