<?xml version="1.0" encoding="utf-8" standalone="no"?>
<!DOCTYPE svg PUBLIC "-//W3C//DTD SVG 1.1//EN"
  "http://www.w3.org/Graphics/SVG/1.1/DTD/svg11.dtd">
<svg xmlns:xlink="http://www.w3.org/1999/xlink" width="460.8pt" height="345.6pt" viewBox="0 0 460.8 345.6" xmlns="http://www.w3.org/2000/svg" version="1.1">
 <metadata>
  <rdf:RDF xmlns:dc="http://purl.org/dc/elements/1.1/" xmlns:cc="http://creativecommons.org/ns#" xmlns:rdf="http://www.w3.org/1999/02/22-rdf-syntax-ns#">
   <cc:Work>
    <dc:type rdf:resource="http://purl.org/dc/dcmitype/StillImage"/>
    <dc:date>2024-03-27T12:05:22.351441</dc:date>
    <dc:format>image/svg+xml</dc:format>
    <dc:creator>
     <cc:Agent>
      <dc:title>Matplotlib v3.8.3, https://matplotlib.org/</dc:title>
     </cc:Agent>
    </dc:creator>
   </cc:Work>
  </rdf:RDF>
 </metadata>
 <defs>
  <style type="text/css">*{stroke-linejoin: round; stroke-linecap: butt}</style>
 </defs>
 <g id="figure_1">
  <g id="patch_1">
   <path d="M 0 345.6 
L 460.8 345.6 
L 460.8 0 
L 0 0 
z
" style="fill: #ffffff"/>
  </g>
  <g id="axes_1">
   <g id="patch_2">
    <path d="M 57.6 307.584 
L 219.927273 307.584 
L 219.927273 41.472 
L 57.6 41.472 
z
" style="fill: #ffffff"/>
   </g>
   <g id="matplotlib.axis_1">
    <g id="xtick_1">
     <g id="line2d_1">
      <defs>
       <path id="m4c45e3c217" d="M 0 0 
L 0 3.5 
" style="stroke: #000000; stroke-width: 0.8"/>
      </defs>
      <g>
       <use xlink:href="#m4c45e3c217" x="64.978512" y="307.584" style="stroke: #000000; stroke-width: 0.8"/>
      </g>
     </g>
     <g id="text_1">
      <!-- 0.000 -->
      <g transform="translate(50.66445 322.182437) scale(0.1 -0.1)">
       <defs>
        <path id="DejaVuSans-30" d="M 2034 4250 
Q 1547 4250 1301 3770 
Q 1056 3291 1056 2328 
Q 1056 1369 1301 889 
Q 1547 409 2034 409 
Q 2525 409 2770 889 
Q 3016 1369 3016 2328 
Q 3016 3291 2770 3770 
Q 2525 4250 2034 4250 
z
M 2034 4750 
Q 2819 4750 3233 4129 
Q 3647 3509 3647 2328 
Q 3647 1150 3233 529 
Q 2819 -91 2034 -91 
Q 1250 -91 836 529 
Q 422 1150 422 2328 
Q 422 3509 836 4129 
Q 1250 4750 2034 4750 
z
" transform="scale(0.015625)"/>
        <path id="DejaVuSans-2e" d="M 684 794 
L 1344 794 
L 1344 0 
L 684 0 
L 684 794 
z
" transform="scale(0.015625)"/>
       </defs>
       <use xlink:href="#DejaVuSans-30"/>
       <use xlink:href="#DejaVuSans-2e" x="63.623047"/>
       <use xlink:href="#DejaVuSans-30" x="95.410156"/>
       <use xlink:href="#DejaVuSans-30" x="159.033203"/>
       <use xlink:href="#DejaVuSans-30" x="222.65625"/>
      </g>
     </g>
    </g>
    <g id="xtick_2">
     <g id="line2d_2">
      <g>
       <use xlink:href="#m4c45e3c217" x="101.871074" y="307.584" style="stroke: #000000; stroke-width: 0.8"/>
      </g>
     </g>
     <g id="text_2">
      <!-- 0.025 -->
      <g transform="translate(87.557012 322.182437) scale(0.1 -0.1)">
       <defs>
        <path id="DejaVuSans-32" d="M 1228 531 
L 3431 531 
L 3431 0 
L 469 0 
L 469 531 
Q 828 903 1448 1529 
Q 2069 2156 2228 2338 
Q 2531 2678 2651 2914 
Q 2772 3150 2772 3378 
Q 2772 3750 2511 3984 
Q 2250 4219 1831 4219 
Q 1534 4219 1204 4116 
Q 875 4013 500 3803 
L 500 4441 
Q 881 4594 1212 4672 
Q 1544 4750 1819 4750 
Q 2544 4750 2975 4387 
Q 3406 4025 3406 3419 
Q 3406 3131 3298 2873 
Q 3191 2616 2906 2266 
Q 2828 2175 2409 1742 
Q 1991 1309 1228 531 
z
" transform="scale(0.015625)"/>
        <path id="DejaVuSans-35" d="M 691 4666 
L 3169 4666 
L 3169 4134 
L 1269 4134 
L 1269 2991 
Q 1406 3038 1543 3061 
Q 1681 3084 1819 3084 
Q 2600 3084 3056 2656 
Q 3513 2228 3513 1497 
Q 3513 744 3044 326 
Q 2575 -91 1722 -91 
Q 1428 -91 1123 -41 
Q 819 9 494 109 
L 494 744 
Q 775 591 1075 516 
Q 1375 441 1709 441 
Q 2250 441 2565 725 
Q 2881 1009 2881 1497 
Q 2881 1984 2565 2268 
Q 2250 2553 1709 2553 
Q 1456 2553 1204 2497 
Q 953 2441 691 2322 
L 691 4666 
z
" transform="scale(0.015625)"/>
       </defs>
       <use xlink:href="#DejaVuSans-30"/>
       <use xlink:href="#DejaVuSans-2e" x="63.623047"/>
       <use xlink:href="#DejaVuSans-30" x="95.410156"/>
       <use xlink:href="#DejaVuSans-32" x="159.033203"/>
       <use xlink:href="#DejaVuSans-35" x="222.65625"/>
      </g>
     </g>
    </g>
    <g id="xtick_3">
     <g id="line2d_3">
      <g>
       <use xlink:href="#m4c45e3c217" x="138.763636" y="307.584" style="stroke: #000000; stroke-width: 0.8"/>
      </g>
     </g>
     <g id="text_3">
      <!-- 0.050 -->
      <g transform="translate(124.449574 322.182437) scale(0.1 -0.1)">
       <use xlink:href="#DejaVuSans-30"/>
       <use xlink:href="#DejaVuSans-2e" x="63.623047"/>
       <use xlink:href="#DejaVuSans-30" x="95.410156"/>
       <use xlink:href="#DejaVuSans-35" x="159.033203"/>
       <use xlink:href="#DejaVuSans-30" x="222.65625"/>
      </g>
     </g>
    </g>
    <g id="xtick_4">
     <g id="line2d_4">
      <g>
       <use xlink:href="#m4c45e3c217" x="175.656198" y="307.584" style="stroke: #000000; stroke-width: 0.8"/>
      </g>
     </g>
     <g id="text_4">
      <!-- 0.075 -->
      <g transform="translate(161.342136 322.182437) scale(0.1 -0.1)">
       <defs>
        <path id="DejaVuSans-37" d="M 525 4666 
L 3525 4666 
L 3525 4397 
L 1831 0 
L 1172 0 
L 2766 4134 
L 525 4134 
L 525 4666 
z
" transform="scale(0.015625)"/>
       </defs>
       <use xlink:href="#DejaVuSans-30"/>
       <use xlink:href="#DejaVuSans-2e" x="63.623047"/>
       <use xlink:href="#DejaVuSans-30" x="95.410156"/>
       <use xlink:href="#DejaVuSans-37" x="159.033203"/>
       <use xlink:href="#DejaVuSans-35" x="222.65625"/>
      </g>
     </g>
    </g>
    <g id="xtick_5">
     <g id="line2d_5">
      <g>
       <use xlink:href="#m4c45e3c217" x="212.54876" y="307.584" style="stroke: #000000; stroke-width: 0.8"/>
      </g>
     </g>
     <g id="text_5">
      <!-- 0.100 -->
      <g transform="translate(198.234698 322.182437) scale(0.1 -0.1)">
       <defs>
        <path id="DejaVuSans-31" d="M 794 531 
L 1825 531 
L 1825 4091 
L 703 3866 
L 703 4441 
L 1819 4666 
L 2450 4666 
L 2450 531 
L 3481 531 
L 3481 0 
L 794 0 
L 794 531 
z
" transform="scale(0.015625)"/>
       </defs>
       <use xlink:href="#DejaVuSans-30"/>
       <use xlink:href="#DejaVuSans-2e" x="63.623047"/>
       <use xlink:href="#DejaVuSans-31" x="95.410156"/>
       <use xlink:href="#DejaVuSans-30" x="159.033203"/>
       <use xlink:href="#DejaVuSans-30" x="222.65625"/>
      </g>
     </g>
    </g>
    <g id="text_6">
     <!-- Distance [m] -->
     <g transform="translate(106.540199 335.860562) scale(0.1 -0.1)">
      <defs>
       <path id="DejaVuSans-44" d="M 1259 4147 
L 1259 519 
L 2022 519 
Q 2988 519 3436 956 
Q 3884 1394 3884 2338 
Q 3884 3275 3436 3711 
Q 2988 4147 2022 4147 
L 1259 4147 
z
M 628 4666 
L 1925 4666 
Q 3281 4666 3915 4102 
Q 4550 3538 4550 2338 
Q 4550 1131 3912 565 
Q 3275 0 1925 0 
L 628 0 
L 628 4666 
z
" transform="scale(0.015625)"/>
       <path id="DejaVuSans-69" d="M 603 3500 
L 1178 3500 
L 1178 0 
L 603 0 
L 603 3500 
z
M 603 4863 
L 1178 4863 
L 1178 4134 
L 603 4134 
L 603 4863 
z
" transform="scale(0.015625)"/>
       <path id="DejaVuSans-73" d="M 2834 3397 
L 2834 2853 
Q 2591 2978 2328 3040 
Q 2066 3103 1784 3103 
Q 1356 3103 1142 2972 
Q 928 2841 928 2578 
Q 928 2378 1081 2264 
Q 1234 2150 1697 2047 
L 1894 2003 
Q 2506 1872 2764 1633 
Q 3022 1394 3022 966 
Q 3022 478 2636 193 
Q 2250 -91 1575 -91 
Q 1294 -91 989 -36 
Q 684 19 347 128 
L 347 722 
Q 666 556 975 473 
Q 1284 391 1588 391 
Q 1994 391 2212 530 
Q 2431 669 2431 922 
Q 2431 1156 2273 1281 
Q 2116 1406 1581 1522 
L 1381 1569 
Q 847 1681 609 1914 
Q 372 2147 372 2553 
Q 372 3047 722 3315 
Q 1072 3584 1716 3584 
Q 2034 3584 2315 3537 
Q 2597 3491 2834 3397 
z
" transform="scale(0.015625)"/>
       <path id="DejaVuSans-74" d="M 1172 4494 
L 1172 3500 
L 2356 3500 
L 2356 3053 
L 1172 3053 
L 1172 1153 
Q 1172 725 1289 603 
Q 1406 481 1766 481 
L 2356 481 
L 2356 0 
L 1766 0 
Q 1100 0 847 248 
Q 594 497 594 1153 
L 594 3053 
L 172 3053 
L 172 3500 
L 594 3500 
L 594 4494 
L 1172 4494 
z
" transform="scale(0.015625)"/>
       <path id="DejaVuSans-61" d="M 2194 1759 
Q 1497 1759 1228 1600 
Q 959 1441 959 1056 
Q 959 750 1161 570 
Q 1363 391 1709 391 
Q 2188 391 2477 730 
Q 2766 1069 2766 1631 
L 2766 1759 
L 2194 1759 
z
M 3341 1997 
L 3341 0 
L 2766 0 
L 2766 531 
Q 2569 213 2275 61 
Q 1981 -91 1556 -91 
Q 1019 -91 701 211 
Q 384 513 384 1019 
Q 384 1609 779 1909 
Q 1175 2209 1959 2209 
L 2766 2209 
L 2766 2266 
Q 2766 2663 2505 2880 
Q 2244 3097 1772 3097 
Q 1472 3097 1187 3025 
Q 903 2953 641 2809 
L 641 3341 
Q 956 3463 1253 3523 
Q 1550 3584 1831 3584 
Q 2591 3584 2966 3190 
Q 3341 2797 3341 1997 
z
" transform="scale(0.015625)"/>
       <path id="DejaVuSans-6e" d="M 3513 2113 
L 3513 0 
L 2938 0 
L 2938 2094 
Q 2938 2591 2744 2837 
Q 2550 3084 2163 3084 
Q 1697 3084 1428 2787 
Q 1159 2491 1159 1978 
L 1159 0 
L 581 0 
L 581 3500 
L 1159 3500 
L 1159 2956 
Q 1366 3272 1645 3428 
Q 1925 3584 2291 3584 
Q 2894 3584 3203 3211 
Q 3513 2838 3513 2113 
z
" transform="scale(0.015625)"/>
       <path id="DejaVuSans-63" d="M 3122 3366 
L 3122 2828 
Q 2878 2963 2633 3030 
Q 2388 3097 2138 3097 
Q 1578 3097 1268 2742 
Q 959 2388 959 1747 
Q 959 1106 1268 751 
Q 1578 397 2138 397 
Q 2388 397 2633 464 
Q 2878 531 3122 666 
L 3122 134 
Q 2881 22 2623 -34 
Q 2366 -91 2075 -91 
Q 1284 -91 818 406 
Q 353 903 353 1747 
Q 353 2603 823 3093 
Q 1294 3584 2113 3584 
Q 2378 3584 2631 3529 
Q 2884 3475 3122 3366 
z
" transform="scale(0.015625)"/>
       <path id="DejaVuSans-65" d="M 3597 1894 
L 3597 1613 
L 953 1613 
Q 991 1019 1311 708 
Q 1631 397 2203 397 
Q 2534 397 2845 478 
Q 3156 559 3463 722 
L 3463 178 
Q 3153 47 2828 -22 
Q 2503 -91 2169 -91 
Q 1331 -91 842 396 
Q 353 884 353 1716 
Q 353 2575 817 3079 
Q 1281 3584 2069 3584 
Q 2775 3584 3186 3129 
Q 3597 2675 3597 1894 
z
M 3022 2063 
Q 3016 2534 2758 2815 
Q 2500 3097 2075 3097 
Q 1594 3097 1305 2825 
Q 1016 2553 972 2059 
L 3022 2063 
z
" transform="scale(0.015625)"/>
       <path id="DejaVuSans-20" transform="scale(0.015625)"/>
       <path id="DejaVuSans-5b" d="M 550 4863 
L 1875 4863 
L 1875 4416 
L 1125 4416 
L 1125 -397 
L 1875 -397 
L 1875 -844 
L 550 -844 
L 550 4863 
z
" transform="scale(0.015625)"/>
       <path id="DejaVuSans-6d" d="M 3328 2828 
Q 3544 3216 3844 3400 
Q 4144 3584 4550 3584 
Q 5097 3584 5394 3201 
Q 5691 2819 5691 2113 
L 5691 0 
L 5113 0 
L 5113 2094 
Q 5113 2597 4934 2840 
Q 4756 3084 4391 3084 
Q 3944 3084 3684 2787 
Q 3425 2491 3425 1978 
L 3425 0 
L 2847 0 
L 2847 2094 
Q 2847 2600 2669 2842 
Q 2491 3084 2119 3084 
Q 1678 3084 1418 2786 
Q 1159 2488 1159 1978 
L 1159 0 
L 581 0 
L 581 3500 
L 1159 3500 
L 1159 2956 
Q 1356 3278 1631 3431 
Q 1906 3584 2284 3584 
Q 2666 3584 2933 3390 
Q 3200 3197 3328 2828 
z
" transform="scale(0.015625)"/>
       <path id="DejaVuSans-5d" d="M 1947 4863 
L 1947 -844 
L 622 -844 
L 622 -397 
L 1369 -397 
L 1369 4416 
L 622 4416 
L 622 4863 
L 1947 4863 
z
" transform="scale(0.015625)"/>
      </defs>
      <use xlink:href="#DejaVuSans-44"/>
      <use xlink:href="#DejaVuSans-69" x="77.001953"/>
      <use xlink:href="#DejaVuSans-73" x="104.785156"/>
      <use xlink:href="#DejaVuSans-74" x="156.884766"/>
      <use xlink:href="#DejaVuSans-61" x="196.09375"/>
      <use xlink:href="#DejaVuSans-6e" x="257.373047"/>
      <use xlink:href="#DejaVuSans-63" x="320.751953"/>
      <use xlink:href="#DejaVuSans-65" x="375.732422"/>
      <use xlink:href="#DejaVuSans-20" x="437.255859"/>
      <use xlink:href="#DejaVuSans-5b" x="469.042969"/>
      <use xlink:href="#DejaVuSans-6d" x="508.056641"/>
      <use xlink:href="#DejaVuSans-5d" x="605.46875"/>
     </g>
    </g>
   </g>
   <g id="matplotlib.axis_2">
    <g id="ytick_1">
     <g id="line2d_6">
      <defs>
       <path id="mcb8949d183" d="M 0 0 
L -3.5 0 
" style="stroke: #000000; stroke-width: 0.8"/>
      </defs>
      <g>
       <use xlink:href="#mcb8949d183" x="57.6" y="265.620962" style="stroke: #000000; stroke-width: 0.8"/>
      </g>
     </g>
     <g id="text_7">
      <!-- 50 -->
      <g transform="translate(37.875 269.420181) scale(0.1 -0.1)">
       <use xlink:href="#DejaVuSans-35"/>
       <use xlink:href="#DejaVuSans-30" x="63.623047"/>
      </g>
     </g>
    </g>
    <g id="ytick_2">
     <g id="line2d_7">
      <g>
       <use xlink:href="#mcb8949d183" x="57.6" y="223.21037" style="stroke: #000000; stroke-width: 0.8"/>
      </g>
     </g>
     <g id="text_8">
      <!-- 60 -->
      <g transform="translate(37.875 227.009588) scale(0.1 -0.1)">
       <defs>
        <path id="DejaVuSans-36" d="M 2113 2584 
Q 1688 2584 1439 2293 
Q 1191 2003 1191 1497 
Q 1191 994 1439 701 
Q 1688 409 2113 409 
Q 2538 409 2786 701 
Q 3034 994 3034 1497 
Q 3034 2003 2786 2293 
Q 2538 2584 2113 2584 
z
M 3366 4563 
L 3366 3988 
Q 3128 4100 2886 4159 
Q 2644 4219 2406 4219 
Q 1781 4219 1451 3797 
Q 1122 3375 1075 2522 
Q 1259 2794 1537 2939 
Q 1816 3084 2150 3084 
Q 2853 3084 3261 2657 
Q 3669 2231 3669 1497 
Q 3669 778 3244 343 
Q 2819 -91 2113 -91 
Q 1303 -91 875 529 
Q 447 1150 447 2328 
Q 447 3434 972 4092 
Q 1497 4750 2381 4750 
Q 2619 4750 2861 4703 
Q 3103 4656 3366 4563 
z
" transform="scale(0.015625)"/>
       </defs>
       <use xlink:href="#DejaVuSans-36"/>
       <use xlink:href="#DejaVuSans-30" x="63.623047"/>
      </g>
     </g>
    </g>
    <g id="ytick_3">
     <g id="line2d_8">
      <g>
       <use xlink:href="#mcb8949d183" x="57.6" y="180.799777" style="stroke: #000000; stroke-width: 0.8"/>
      </g>
     </g>
     <g id="text_9">
      <!-- 70 -->
      <g transform="translate(37.875 184.598996) scale(0.1 -0.1)">
       <use xlink:href="#DejaVuSans-37"/>
       <use xlink:href="#DejaVuSans-30" x="63.623047"/>
      </g>
     </g>
    </g>
    <g id="ytick_4">
     <g id="line2d_9">
      <g>
       <use xlink:href="#mcb8949d183" x="57.6" y="138.389185" style="stroke: #000000; stroke-width: 0.8"/>
      </g>
     </g>
     <g id="text_10">
      <!-- 80 -->
      <g transform="translate(37.875 142.188404) scale(0.1 -0.1)">
       <defs>
        <path id="DejaVuSans-38" d="M 2034 2216 
Q 1584 2216 1326 1975 
Q 1069 1734 1069 1313 
Q 1069 891 1326 650 
Q 1584 409 2034 409 
Q 2484 409 2743 651 
Q 3003 894 3003 1313 
Q 3003 1734 2745 1975 
Q 2488 2216 2034 2216 
z
M 1403 2484 
Q 997 2584 770 2862 
Q 544 3141 544 3541 
Q 544 4100 942 4425 
Q 1341 4750 2034 4750 
Q 2731 4750 3128 4425 
Q 3525 4100 3525 3541 
Q 3525 3141 3298 2862 
Q 3072 2584 2669 2484 
Q 3125 2378 3379 2068 
Q 3634 1759 3634 1313 
Q 3634 634 3220 271 
Q 2806 -91 2034 -91 
Q 1263 -91 848 271 
Q 434 634 434 1313 
Q 434 1759 690 2068 
Q 947 2378 1403 2484 
z
M 1172 3481 
Q 1172 3119 1398 2916 
Q 1625 2713 2034 2713 
Q 2441 2713 2670 2916 
Q 2900 3119 2900 3481 
Q 2900 3844 2670 4047 
Q 2441 4250 2034 4250 
Q 1625 4250 1398 4047 
Q 1172 3844 1172 3481 
z
" transform="scale(0.015625)"/>
       </defs>
       <use xlink:href="#DejaVuSans-38"/>
       <use xlink:href="#DejaVuSans-30" x="63.623047"/>
      </g>
     </g>
    </g>
    <g id="ytick_5">
     <g id="line2d_10">
      <g>
       <use xlink:href="#mcb8949d183" x="57.6" y="95.978592" style="stroke: #000000; stroke-width: 0.8"/>
      </g>
     </g>
     <g id="text_11">
      <!-- 90 -->
      <g transform="translate(37.875 99.777811) scale(0.1 -0.1)">
       <defs>
        <path id="DejaVuSans-39" d="M 703 97 
L 703 672 
Q 941 559 1184 500 
Q 1428 441 1663 441 
Q 2288 441 2617 861 
Q 2947 1281 2994 2138 
Q 2813 1869 2534 1725 
Q 2256 1581 1919 1581 
Q 1219 1581 811 2004 
Q 403 2428 403 3163 
Q 403 3881 828 4315 
Q 1253 4750 1959 4750 
Q 2769 4750 3195 4129 
Q 3622 3509 3622 2328 
Q 3622 1225 3098 567 
Q 2575 -91 1691 -91 
Q 1453 -91 1209 -44 
Q 966 3 703 97 
z
M 1959 2075 
Q 2384 2075 2632 2365 
Q 2881 2656 2881 3163 
Q 2881 3666 2632 3958 
Q 2384 4250 1959 4250 
Q 1534 4250 1286 3958 
Q 1038 3666 1038 3163 
Q 1038 2656 1286 2365 
Q 1534 2075 1959 2075 
z
" transform="scale(0.015625)"/>
       </defs>
       <use xlink:href="#DejaVuSans-39"/>
       <use xlink:href="#DejaVuSans-30" x="63.623047"/>
      </g>
     </g>
    </g>
    <g id="ytick_6">
     <g id="line2d_11">
      <g>
       <use xlink:href="#mcb8949d183" x="57.6" y="53.568" style="stroke: #000000; stroke-width: 0.8"/>
      </g>
     </g>
     <g id="text_12">
      <!-- 100 -->
      <g transform="translate(31.5125 57.367219) scale(0.1 -0.1)">
       <use xlink:href="#DejaVuSans-31"/>
       <use xlink:href="#DejaVuSans-30" x="63.623047"/>
       <use xlink:href="#DejaVuSans-30" x="127.246094"/>
      </g>
     </g>
    </g>
    <g id="text_13">
     <!-- Temperature [ºC] -->
     <g transform="translate(25.432812 217.535812) rotate(-90) scale(0.1 -0.1)">
      <defs>
       <path id="DejaVuSans-54" d="M -19 4666 
L 3928 4666 
L 3928 4134 
L 2272 4134 
L 2272 0 
L 1638 0 
L 1638 4134 
L -19 4134 
L -19 4666 
z
" transform="scale(0.015625)"/>
       <path id="DejaVuSans-70" d="M 1159 525 
L 1159 -1331 
L 581 -1331 
L 581 3500 
L 1159 3500 
L 1159 2969 
Q 1341 3281 1617 3432 
Q 1894 3584 2278 3584 
Q 2916 3584 3314 3078 
Q 3713 2572 3713 1747 
Q 3713 922 3314 415 
Q 2916 -91 2278 -91 
Q 1894 -91 1617 61 
Q 1341 213 1159 525 
z
M 3116 1747 
Q 3116 2381 2855 2742 
Q 2594 3103 2138 3103 
Q 1681 3103 1420 2742 
Q 1159 2381 1159 1747 
Q 1159 1113 1420 752 
Q 1681 391 2138 391 
Q 2594 391 2855 752 
Q 3116 1113 3116 1747 
z
" transform="scale(0.015625)"/>
       <path id="DejaVuSans-72" d="M 2631 2963 
Q 2534 3019 2420 3045 
Q 2306 3072 2169 3072 
Q 1681 3072 1420 2755 
Q 1159 2438 1159 1844 
L 1159 0 
L 581 0 
L 581 3500 
L 1159 3500 
L 1159 2956 
Q 1341 3275 1631 3429 
Q 1922 3584 2338 3584 
Q 2397 3584 2469 3576 
Q 2541 3569 2628 3553 
L 2631 2963 
z
" transform="scale(0.015625)"/>
       <path id="DejaVuSans-75" d="M 544 1381 
L 544 3500 
L 1119 3500 
L 1119 1403 
Q 1119 906 1312 657 
Q 1506 409 1894 409 
Q 2359 409 2629 706 
Q 2900 1003 2900 1516 
L 2900 3500 
L 3475 3500 
L 3475 0 
L 2900 0 
L 2900 538 
Q 2691 219 2414 64 
Q 2138 -91 1772 -91 
Q 1169 -91 856 284 
Q 544 659 544 1381 
z
M 1991 3584 
L 1991 3584 
z
" transform="scale(0.015625)"/>
       <path id="DejaVuSans-ba" d="M 434 1850 
L 2584 1850 
L 2584 1466 
L 434 1466 
L 434 1850 
z
M 1509 4750 
Q 2069 4750 2391 4404 
Q 2713 4059 2713 3463 
Q 2713 2866 2391 2523 
Q 2069 2181 1509 2181 
Q 950 2181 625 2525 
Q 300 2869 300 3463 
Q 300 4059 625 4404 
Q 950 4750 1509 4750 
z
M 1509 4391 
Q 1181 4391 984 4139 
Q 788 3888 788 3463 
Q 788 3047 986 2797 
Q 1184 2547 1509 2547 
Q 1838 2547 2033 2797 
Q 2228 3047 2228 3463 
Q 2228 3891 2034 4141 
Q 1841 4391 1509 4391 
z
" transform="scale(0.015625)"/>
       <path id="DejaVuSans-43" d="M 4122 4306 
L 4122 3641 
Q 3803 3938 3442 4084 
Q 3081 4231 2675 4231 
Q 1875 4231 1450 3742 
Q 1025 3253 1025 2328 
Q 1025 1406 1450 917 
Q 1875 428 2675 428 
Q 3081 428 3442 575 
Q 3803 722 4122 1019 
L 4122 359 
Q 3791 134 3420 21 
Q 3050 -91 2638 -91 
Q 1578 -91 968 557 
Q 359 1206 359 2328 
Q 359 3453 968 4101 
Q 1578 4750 2638 4750 
Q 3056 4750 3426 4639 
Q 3797 4528 4122 4306 
z
" transform="scale(0.015625)"/>
      </defs>
      <use xlink:href="#DejaVuSans-54"/>
      <use xlink:href="#DejaVuSans-65" x="44.083984"/>
      <use xlink:href="#DejaVuSans-6d" x="105.607422"/>
      <use xlink:href="#DejaVuSans-70" x="203.019531"/>
      <use xlink:href="#DejaVuSans-65" x="266.496094"/>
      <use xlink:href="#DejaVuSans-72" x="328.019531"/>
      <use xlink:href="#DejaVuSans-61" x="369.132812"/>
      <use xlink:href="#DejaVuSans-74" x="430.412109"/>
      <use xlink:href="#DejaVuSans-75" x="469.621094"/>
      <use xlink:href="#DejaVuSans-72" x="533"/>
      <use xlink:href="#DejaVuSans-65" x="571.863281"/>
      <use xlink:href="#DejaVuSans-20" x="633.386719"/>
      <use xlink:href="#DejaVuSans-5b" x="665.173828"/>
      <use xlink:href="#DejaVuSans-ba" x="704.1875"/>
      <use xlink:href="#DejaVuSans-43" x="751.306641"/>
      <use xlink:href="#DejaVuSans-5d" x="821.130859"/>
     </g>
    </g>
   </g>
   <g id="line2d_12">
    <path d="M 64.978512 53.568 
L 66.469121 57.168408 
L 67.95973 60.715439 
L 69.450338 64.209656 
L 70.940947 67.651615 
L 72.431555 71.041865 
L 73.922164 74.380942 
L 75.412772 77.66938 
L 76.903381 80.9077 
L 78.393989 84.096417 
L 79.884598 87.236039 
L 81.375207 90.327065 
L 82.865815 93.369986 
L 84.356424 96.365286 
L 85.847032 99.313441 
L 87.337641 102.214921 
L 88.828249 105.070186 
L 90.318858 107.879691 
L 91.809467 110.643881 
L 93.300075 113.363198 
L 94.790684 116.038073 
L 96.281292 118.668932 
L 97.771901 121.256192 
L 99.262509 123.800266 
L 100.753118 126.301557 
L 102.243727 128.760464 
L 103.734335 131.177378 
L 105.224944 133.552682 
L 106.715552 135.886755 
L 108.206161 138.179968 
L 109.696769 140.432685 
L 111.187378 142.645265 
L 112.677986 144.818058 
L 114.168595 146.951412 
L 115.659204 149.045665 
L 117.149812 151.10115 
L 118.640421 153.118194 
L 120.131029 155.097118 
L 121.621638 157.038236 
L 123.112246 158.941857 
L 124.602855 160.808284 
L 126.093464 162.637813 
L 127.584072 164.430736 
L 129.074681 166.187337 
L 130.565289 167.907896 
L 132.055898 169.592686 
L 133.546506 171.241976 
L 135.037115 172.856027 
L 136.527724 174.435097 
L 138.018332 175.979436 
L 139.508941 177.489289 
L 140.999549 178.964898 
L 142.490158 180.406496 
L 143.980766 181.814313 
L 145.471375 183.188572 
L 146.961983 184.529493 
L 148.452592 185.837288 
L 149.943201 187.112166 
L 151.433809 188.354328 
L 152.924418 189.563974 
L 154.415026 190.741294 
L 155.905635 191.886476 
L 157.396243 192.999703 
L 158.886852 194.081151 
L 160.377461 195.130992 
L 161.868069 196.149393 
L 163.358678 197.136516 
L 164.849286 198.092519 
L 166.339895 199.017552 
L 167.830503 199.911764 
L 169.321112 200.775296 
L 170.811721 201.608285 
L 172.302329 202.410865 
L 173.792938 203.183163 
L 175.283546 203.925301 
L 176.774155 204.637397 
L 178.264763 205.319566 
L 179.755372 205.971914 
L 181.24598 206.594547 
L 182.736589 207.187562 
L 184.227198 207.751055 
L 185.717806 208.285115 
L 187.208415 208.789827 
L 188.699023 209.26527 
L 190.189632 209.711521 
L 191.68024 210.128651 
L 193.170849 210.516726 
L 194.661458 210.875808 
L 196.152066 211.205953 
L 197.642675 211.507214 
L 199.133283 211.77964 
L 200.623892 212.023273 
L 202.1145 212.238152 
L 203.605109 212.424312 
L 205.095718 212.581782 
L 206.586326 212.710586 
L 208.076935 212.810747 
L 209.567543 212.882278 
L 211.058152 212.925193 
L 212.54876 212.939497 
" clip-path="url(#p43fdfa0193)" style="fill: none; stroke: #1f77b4; stroke-width: 1.5; stroke-linecap: square"/>
   </g>
   <g id="line2d_13">
    <path d="M 64.978512 53.568 
L 66.469121 57.174638 
L 67.95973 60.7279 
L 69.450338 64.228351 
L 70.940947 67.676546 
L 72.431555 71.073036 
L 73.922164 74.418359 
L 75.412772 77.713047 
L 76.903381 80.957625 
L 78.393989 84.152609 
L 79.884598 87.298506 
L 81.375207 90.395816 
L 82.865815 93.445033 
L 84.356424 96.44664 
L 85.847032 99.401116 
L 87.337641 102.308931 
L 88.828249 105.170545 
L 90.318858 107.986415 
L 91.809467 110.756989 
L 93.300075 113.482706 
L 94.790684 116.164 
L 96.281292 118.801298 
L 97.771901 121.395019 
L 99.262509 123.945575 
L 100.753118 126.453372 
L 102.243727 128.918809 
L 103.734335 131.342278 
L 105.224944 133.724163 
L 106.715552 136.064845 
L 108.206161 138.364695 
L 109.696769 140.624078 
L 111.187378 142.843354 
L 112.677986 145.022876 
L 114.168595 147.162991 
L 115.659204 149.264038 
L 117.149812 151.326352 
L 118.640421 153.350261 
L 120.131029 155.336086 
L 121.621638 157.284144 
L 123.112246 159.194744 
L 124.602855 161.06819 
L 126.093464 162.90478 
L 127.584072 164.704805 
L 129.074681 166.468553 
L 130.565289 168.196303 
L 132.055898 169.88833 
L 133.546506 171.544904 
L 135.037115 173.166287 
L 136.527724 174.752738 
L 138.018332 176.304509 
L 139.508941 177.821846 
L 140.999549 179.304992 
L 142.490158 180.75418 
L 143.980766 182.169643 
L 145.471375 183.551605 
L 146.961983 184.900286 
L 148.452592 186.215901 
L 149.943201 187.498658 
L 151.433809 188.748761 
L 152.924418 189.96641 
L 154.415026 191.151798 
L 155.905635 192.305113 
L 157.396243 193.426539 
L 158.886852 194.516254 
L 160.377461 195.574431 
L 161.868069 196.601239 
L 163.358678 197.596842 
L 164.849286 198.561396 
L 166.339895 199.495056 
L 167.830503 200.39797 
L 169.321112 201.270282 
L 170.811721 202.11213 
L 172.302329 202.923648 
L 173.792938 203.704966 
L 175.283546 204.456207 
L 176.774155 205.177491 
L 178.264763 205.868933 
L 179.755372 206.530642 
L 181.24598 207.162725 
L 182.736589 207.76528 
L 184.227198 208.338405 
L 185.717806 208.88219 
L 187.208415 209.396721 
L 188.699023 209.882082 
L 190.189632 210.338348 
L 191.68024 210.765592 
L 193.170849 211.163882 
L 194.661458 211.533283 
L 196.152066 211.873851 
L 197.642675 212.185642 
L 199.133283 212.468705 
L 200.623892 212.723085 
L 202.1145 212.948822 
L 203.605109 213.145953 
L 205.095718 213.314508 
L 206.586326 213.454515 
L 208.076935 213.565996 
L 209.567543 213.648968 
L 211.058152 213.703445 
L 212.54876 213.729436 
" clip-path="url(#p43fdfa0193)" style="fill: none; stroke: #ff7f0e; stroke-width: 1.5; stroke-linecap: square"/>
   </g>
   <g id="line2d_14">
    <path d="M 64.978512 53.568 
L 66.469121 57.81947 
L 67.95973 62.017665 
L 69.450338 66.163255 
L 70.940947 70.256897 
L 72.431555 74.299243 
L 73.922164 78.290936 
L 75.412772 82.232611 
L 76.903381 86.124893 
L 78.393989 89.968403 
L 79.884598 93.76375 
L 81.375207 97.51154 
L 82.865815 101.212367 
L 84.356424 104.86682 
L 85.847032 108.47548 
L 87.337641 112.038921 
L 88.828249 115.55771 
L 90.318858 119.032406 
L 91.809467 122.463562 
L 93.300075 125.851723 
L 94.790684 129.197428 
L 96.281292 132.50121 
L 97.771901 135.763592 
L 99.262509 138.985095 
L 100.753118 142.16623 
L 102.243727 145.307503 
L 103.734335 148.409414 
L 105.224944 151.472456 
L 106.715552 154.497116 
L 108.206161 157.483874 
L 109.696769 160.433207 
L 111.187378 163.345583 
L 112.677986 166.221464 
L 114.168595 169.061309 
L 115.659204 171.865568 
L 117.149812 174.634688 
L 118.640421 177.36911 
L 120.131029 180.069267 
L 121.621638 182.735589 
L 123.112246 185.368501 
L 124.602855 187.96842 
L 126.093464 190.53576 
L 127.584072 193.07093 
L 129.074681 195.574333 
L 130.565289 198.046366 
L 132.055898 200.487423 
L 133.546506 202.897892 
L 135.037115 205.278156 
L 136.527724 207.628593 
L 138.018332 209.949578 
L 139.508941 212.24148 
L 140.999549 214.504663 
L 142.490158 216.739486 
L 143.980766 218.946305 
L 145.471375 221.125472 
L 146.961983 223.277332 
L 148.452592 225.402227 
L 149.943201 227.500497 
L 151.433809 229.572473 
L 152.924418 231.618486 
L 154.415026 233.638862 
L 155.905635 235.63392 
L 157.396243 237.60398 
L 158.886852 239.549353 
L 160.377461 241.470349 
L 161.868069 243.367274 
L 163.358678 245.240429 
L 164.849286 247.090112 
L 166.339895 248.916617 
L 167.830503 250.720235 
L 169.321112 252.501252 
L 170.811721 254.259952 
L 172.302329 255.996615 
L 173.792938 257.711515 
L 175.283546 259.404927 
L 176.774155 261.077119 
L 178.264763 262.728358 
L 179.755372 264.358905 
L 181.24598 265.969021 
L 182.736589 267.558961 
L 184.227198 269.128977 
L 185.717806 270.67932 
L 187.208415 272.210237 
L 188.699023 273.72197 
L 190.189632 275.21476 
L 191.68024 276.688844 
L 193.170849 278.144457 
L 194.661458 279.58183 
L 196.152066 281.001192 
L 197.642675 282.402768 
L 199.133283 283.786782 
L 200.623892 285.153453 
L 202.1145 286.502998 
L 203.605109 287.835633 
L 205.095718 289.151569 
L 206.586326 290.451016 
L 208.076935 291.734179 
L 209.567543 293.001264 
L 211.058152 294.252471 
L 212.54876 295.488 
" clip-path="url(#p43fdfa0193)" style="fill: none; stroke: #2ca02c; stroke-width: 1.5; stroke-linecap: square"/>
   </g>
   <g id="patch_3">
    <path d="M 57.6 307.584 
L 57.6 41.472 
" style="fill: none; stroke: #000000; stroke-width: 0.8; stroke-linejoin: miter; stroke-linecap: square"/>
   </g>
   <g id="patch_4">
    <path d="M 219.927273 307.584 
L 219.927273 41.472 
" style="fill: none; stroke: #000000; stroke-width: 0.8; stroke-linejoin: miter; stroke-linecap: square"/>
   </g>
   <g id="patch_5">
    <path d="M 57.6 307.584 
L 219.927273 307.584 
" style="fill: none; stroke: #000000; stroke-width: 0.8; stroke-linejoin: miter; stroke-linecap: square"/>
   </g>
   <g id="patch_6">
    <path d="M 57.6 41.472 
L 219.927273 41.472 
" style="fill: none; stroke: #000000; stroke-width: 0.8; stroke-linejoin: miter; stroke-linecap: square"/>
   </g>
   <g id="text_14">
    <!-- Copper [Cu] -->
    <g transform="translate(102.545199 35.472) scale(0.12 -0.12)">
     <defs>
      <path id="DejaVuSans-6f" d="M 1959 3097 
Q 1497 3097 1228 2736 
Q 959 2375 959 1747 
Q 959 1119 1226 758 
Q 1494 397 1959 397 
Q 2419 397 2687 759 
Q 2956 1122 2956 1747 
Q 2956 2369 2687 2733 
Q 2419 3097 1959 3097 
z
M 1959 3584 
Q 2709 3584 3137 3096 
Q 3566 2609 3566 1747 
Q 3566 888 3137 398 
Q 2709 -91 1959 -91 
Q 1206 -91 779 398 
Q 353 888 353 1747 
Q 353 2609 779 3096 
Q 1206 3584 1959 3584 
z
" transform="scale(0.015625)"/>
     </defs>
     <use xlink:href="#DejaVuSans-43"/>
     <use xlink:href="#DejaVuSans-6f" x="69.824219"/>
     <use xlink:href="#DejaVuSans-70" x="131.005859"/>
     <use xlink:href="#DejaVuSans-70" x="194.482422"/>
     <use xlink:href="#DejaVuSans-65" x="257.958984"/>
     <use xlink:href="#DejaVuSans-72" x="319.482422"/>
     <use xlink:href="#DejaVuSans-20" x="360.595703"/>
     <use xlink:href="#DejaVuSans-5b" x="392.382812"/>
     <use xlink:href="#DejaVuSans-43" x="431.396484"/>
     <use xlink:href="#DejaVuSans-75" x="501.220703"/>
     <use xlink:href="#DejaVuSans-5d" x="564.599609"/>
    </g>
   </g>
   <g id="legend_1">
    <g id="patch_7">
     <path d="M 64.6 302.584 
L 211.071875 302.584 
Q 213.071875 302.584 213.071875 300.584 
L 213.071875 257.549625 
Q 213.071875 255.549625 211.071875 255.549625 
L 64.6 255.549625 
Q 62.6 255.549625 62.6 257.549625 
L 62.6 300.584 
Q 62.6 302.584 64.6 302.584 
z
" style="fill: #ffffff; opacity: 0.8; stroke: #cccccc; stroke-linejoin: miter"/>
    </g>
    <g id="line2d_15">
     <path d="M 66.6 263.648062 
L 76.6 263.648062 
L 86.6 263.648062 
" style="fill: none; stroke: #1f77b4; stroke-width: 1.5; stroke-linecap: square"/>
    </g>
    <g id="text_15">
     <!-- Adiabatic Hypothesis -->
     <g transform="translate(94.6 267.148062) scale(0.1 -0.1)">
      <defs>
       <path id="DejaVuSans-41" d="M 2188 4044 
L 1331 1722 
L 3047 1722 
L 2188 4044 
z
M 1831 4666 
L 2547 4666 
L 4325 0 
L 3669 0 
L 3244 1197 
L 1141 1197 
L 716 0 
L 50 0 
L 1831 4666 
z
" transform="scale(0.015625)"/>
       <path id="DejaVuSans-64" d="M 2906 2969 
L 2906 4863 
L 3481 4863 
L 3481 0 
L 2906 0 
L 2906 525 
Q 2725 213 2448 61 
Q 2172 -91 1784 -91 
Q 1150 -91 751 415 
Q 353 922 353 1747 
Q 353 2572 751 3078 
Q 1150 3584 1784 3584 
Q 2172 3584 2448 3432 
Q 2725 3281 2906 2969 
z
M 947 1747 
Q 947 1113 1208 752 
Q 1469 391 1925 391 
Q 2381 391 2643 752 
Q 2906 1113 2906 1747 
Q 2906 2381 2643 2742 
Q 2381 3103 1925 3103 
Q 1469 3103 1208 2742 
Q 947 2381 947 1747 
z
" transform="scale(0.015625)"/>
       <path id="DejaVuSans-62" d="M 3116 1747 
Q 3116 2381 2855 2742 
Q 2594 3103 2138 3103 
Q 1681 3103 1420 2742 
Q 1159 2381 1159 1747 
Q 1159 1113 1420 752 
Q 1681 391 2138 391 
Q 2594 391 2855 752 
Q 3116 1113 3116 1747 
z
M 1159 2969 
Q 1341 3281 1617 3432 
Q 1894 3584 2278 3584 
Q 2916 3584 3314 3078 
Q 3713 2572 3713 1747 
Q 3713 922 3314 415 
Q 2916 -91 2278 -91 
Q 1894 -91 1617 61 
Q 1341 213 1159 525 
L 1159 0 
L 581 0 
L 581 4863 
L 1159 4863 
L 1159 2969 
z
" transform="scale(0.015625)"/>
       <path id="DejaVuSans-48" d="M 628 4666 
L 1259 4666 
L 1259 2753 
L 3553 2753 
L 3553 4666 
L 4184 4666 
L 4184 0 
L 3553 0 
L 3553 2222 
L 1259 2222 
L 1259 0 
L 628 0 
L 628 4666 
z
" transform="scale(0.015625)"/>
       <path id="DejaVuSans-79" d="M 2059 -325 
Q 1816 -950 1584 -1140 
Q 1353 -1331 966 -1331 
L 506 -1331 
L 506 -850 
L 844 -850 
Q 1081 -850 1212 -737 
Q 1344 -625 1503 -206 
L 1606 56 
L 191 3500 
L 800 3500 
L 1894 763 
L 2988 3500 
L 3597 3500 
L 2059 -325 
z
" transform="scale(0.015625)"/>
       <path id="DejaVuSans-68" d="M 3513 2113 
L 3513 0 
L 2938 0 
L 2938 2094 
Q 2938 2591 2744 2837 
Q 2550 3084 2163 3084 
Q 1697 3084 1428 2787 
Q 1159 2491 1159 1978 
L 1159 0 
L 581 0 
L 581 4863 
L 1159 4863 
L 1159 2956 
Q 1366 3272 1645 3428 
Q 1925 3584 2291 3584 
Q 2894 3584 3203 3211 
Q 3513 2838 3513 2113 
z
" transform="scale(0.015625)"/>
      </defs>
      <use xlink:href="#DejaVuSans-41"/>
      <use xlink:href="#DejaVuSans-64" x="66.658203"/>
      <use xlink:href="#DejaVuSans-69" x="130.134766"/>
      <use xlink:href="#DejaVuSans-61" x="157.917969"/>
      <use xlink:href="#DejaVuSans-62" x="219.197266"/>
      <use xlink:href="#DejaVuSans-61" x="282.673828"/>
      <use xlink:href="#DejaVuSans-74" x="343.953125"/>
      <use xlink:href="#DejaVuSans-69" x="383.162109"/>
      <use xlink:href="#DejaVuSans-63" x="410.945312"/>
      <use xlink:href="#DejaVuSans-20" x="465.925781"/>
      <use xlink:href="#DejaVuSans-48" x="497.712891"/>
      <use xlink:href="#DejaVuSans-79" x="572.908203"/>
      <use xlink:href="#DejaVuSans-70" x="632.087891"/>
      <use xlink:href="#DejaVuSans-6f" x="695.564453"/>
      <use xlink:href="#DejaVuSans-74" x="756.746094"/>
      <use xlink:href="#DejaVuSans-68" x="795.955078"/>
      <use xlink:href="#DejaVuSans-65" x="859.333984"/>
      <use xlink:href="#DejaVuSans-73" x="920.857422"/>
      <use xlink:href="#DejaVuSans-69" x="972.957031"/>
      <use xlink:href="#DejaVuSans-73" x="1000.740234"/>
     </g>
    </g>
    <g id="line2d_16">
     <path d="M 66.6 278.326188 
L 76.6 278.326188 
L 86.6 278.326188 
" style="fill: none; stroke: #ff7f0e; stroke-width: 1.5; stroke-linecap: square"/>
    </g>
    <g id="text_16">
     <!-- Convective Hypothesis -->
     <g transform="translate(94.6 281.826188) scale(0.1 -0.1)">
      <defs>
       <path id="DejaVuSans-76" d="M 191 3500 
L 800 3500 
L 1894 563 
L 2988 3500 
L 3597 3500 
L 2284 0 
L 1503 0 
L 191 3500 
z
" transform="scale(0.015625)"/>
      </defs>
      <use xlink:href="#DejaVuSans-43"/>
      <use xlink:href="#DejaVuSans-6f" x="69.824219"/>
      <use xlink:href="#DejaVuSans-6e" x="131.005859"/>
      <use xlink:href="#DejaVuSans-76" x="194.384766"/>
      <use xlink:href="#DejaVuSans-65" x="253.564453"/>
      <use xlink:href="#DejaVuSans-63" x="315.087891"/>
      <use xlink:href="#DejaVuSans-74" x="370.068359"/>
      <use xlink:href="#DejaVuSans-69" x="409.277344"/>
      <use xlink:href="#DejaVuSans-76" x="437.060547"/>
      <use xlink:href="#DejaVuSans-65" x="496.240234"/>
      <use xlink:href="#DejaVuSans-20" x="557.763672"/>
      <use xlink:href="#DejaVuSans-48" x="589.550781"/>
      <use xlink:href="#DejaVuSans-79" x="664.746094"/>
      <use xlink:href="#DejaVuSans-70" x="723.925781"/>
      <use xlink:href="#DejaVuSans-6f" x="787.402344"/>
      <use xlink:href="#DejaVuSans-74" x="848.583984"/>
      <use xlink:href="#DejaVuSans-68" x="887.792969"/>
      <use xlink:href="#DejaVuSans-65" x="951.171875"/>
      <use xlink:href="#DejaVuSans-73" x="1012.695312"/>
      <use xlink:href="#DejaVuSans-69" x="1064.794922"/>
      <use xlink:href="#DejaVuSans-73" x="1092.578125"/>
     </g>
    </g>
    <g id="line2d_17">
     <path d="M 66.6 293.004312 
L 76.6 293.004312 
L 86.6 293.004312 
" style="fill: none; stroke: #2ca02c; stroke-width: 1.5; stroke-linecap: square"/>
    </g>
    <g id="text_17">
     <!-- Infinite Hypothesis -->
     <g transform="translate(94.6 296.504312) scale(0.1 -0.1)">
      <defs>
       <path id="DejaVuSans-49" d="M 628 4666 
L 1259 4666 
L 1259 0 
L 628 0 
L 628 4666 
z
" transform="scale(0.015625)"/>
       <path id="DejaVuSans-66" d="M 2375 4863 
L 2375 4384 
L 1825 4384 
Q 1516 4384 1395 4259 
Q 1275 4134 1275 3809 
L 1275 3500 
L 2222 3500 
L 2222 3053 
L 1275 3053 
L 1275 0 
L 697 0 
L 697 3053 
L 147 3053 
L 147 3500 
L 697 3500 
L 697 3744 
Q 697 4328 969 4595 
Q 1241 4863 1831 4863 
L 2375 4863 
z
" transform="scale(0.015625)"/>
      </defs>
      <use xlink:href="#DejaVuSans-49"/>
      <use xlink:href="#DejaVuSans-6e" x="29.492188"/>
      <use xlink:href="#DejaVuSans-66" x="92.871094"/>
      <use xlink:href="#DejaVuSans-69" x="128.076172"/>
      <use xlink:href="#DejaVuSans-6e" x="155.859375"/>
      <use xlink:href="#DejaVuSans-69" x="219.238281"/>
      <use xlink:href="#DejaVuSans-74" x="247.021484"/>
      <use xlink:href="#DejaVuSans-65" x="286.230469"/>
      <use xlink:href="#DejaVuSans-20" x="347.753906"/>
      <use xlink:href="#DejaVuSans-48" x="379.541016"/>
      <use xlink:href="#DejaVuSans-79" x="454.736328"/>
      <use xlink:href="#DejaVuSans-70" x="513.916016"/>
      <use xlink:href="#DejaVuSans-6f" x="577.392578"/>
      <use xlink:href="#DejaVuSans-74" x="638.574219"/>
      <use xlink:href="#DejaVuSans-68" x="677.783203"/>
      <use xlink:href="#DejaVuSans-65" x="741.162109"/>
      <use xlink:href="#DejaVuSans-73" x="802.685547"/>
      <use xlink:href="#DejaVuSans-69" x="854.785156"/>
      <use xlink:href="#DejaVuSans-73" x="882.568359"/>
     </g>
    </g>
   </g>
  </g>
  <g id="axes_2">
   <g id="patch_8">
    <path d="M 252.392727 307.584 
L 414.72 307.584 
L 414.72 41.472 
L 252.392727 41.472 
z
" style="fill: #ffffff"/>
   </g>
   <g id="matplotlib.axis_3">
    <g id="xtick_6">
     <g id="line2d_18">
      <g>
       <use xlink:href="#m4c45e3c217" x="259.77124" y="307.584" style="stroke: #000000; stroke-width: 0.8"/>
      </g>
     </g>
     <g id="text_18">
      <!-- 0.000 -->
      <g transform="translate(245.457177 322.182437) scale(0.1 -0.1)">
       <use xlink:href="#DejaVuSans-30"/>
       <use xlink:href="#DejaVuSans-2e" x="63.623047"/>
       <use xlink:href="#DejaVuSans-30" x="95.410156"/>
       <use xlink:href="#DejaVuSans-30" x="159.033203"/>
       <use xlink:href="#DejaVuSans-30" x="222.65625"/>
      </g>
     </g>
    </g>
    <g id="xtick_7">
     <g id="line2d_19">
      <g>
       <use xlink:href="#m4c45e3c217" x="296.663802" y="307.584" style="stroke: #000000; stroke-width: 0.8"/>
      </g>
     </g>
     <g id="text_19">
      <!-- 0.025 -->
      <g transform="translate(282.349739 322.182437) scale(0.1 -0.1)">
       <use xlink:href="#DejaVuSans-30"/>
       <use xlink:href="#DejaVuSans-2e" x="63.623047"/>
       <use xlink:href="#DejaVuSans-30" x="95.410156"/>
       <use xlink:href="#DejaVuSans-32" x="159.033203"/>
       <use xlink:href="#DejaVuSans-35" x="222.65625"/>
      </g>
     </g>
    </g>
    <g id="xtick_8">
     <g id="line2d_20">
      <g>
       <use xlink:href="#m4c45e3c217" x="333.556364" y="307.584" style="stroke: #000000; stroke-width: 0.8"/>
      </g>
     </g>
     <g id="text_20">
      <!-- 0.050 -->
      <g transform="translate(319.242301 322.182437) scale(0.1 -0.1)">
       <use xlink:href="#DejaVuSans-30"/>
       <use xlink:href="#DejaVuSans-2e" x="63.623047"/>
       <use xlink:href="#DejaVuSans-30" x="95.410156"/>
       <use xlink:href="#DejaVuSans-35" x="159.033203"/>
       <use xlink:href="#DejaVuSans-30" x="222.65625"/>
      </g>
     </g>
    </g>
    <g id="xtick_9">
     <g id="line2d_21">
      <g>
       <use xlink:href="#m4c45e3c217" x="370.448926" y="307.584" style="stroke: #000000; stroke-width: 0.8"/>
      </g>
     </g>
     <g id="text_21">
      <!-- 0.075 -->
      <g transform="translate(356.134863 322.182437) scale(0.1 -0.1)">
       <use xlink:href="#DejaVuSans-30"/>
       <use xlink:href="#DejaVuSans-2e" x="63.623047"/>
       <use xlink:href="#DejaVuSans-30" x="95.410156"/>
       <use xlink:href="#DejaVuSans-37" x="159.033203"/>
       <use xlink:href="#DejaVuSans-35" x="222.65625"/>
      </g>
     </g>
    </g>
    <g id="xtick_10">
     <g id="line2d_22">
      <g>
       <use xlink:href="#m4c45e3c217" x="407.341488" y="307.584" style="stroke: #000000; stroke-width: 0.8"/>
      </g>
     </g>
     <g id="text_22">
      <!-- 0.100 -->
      <g transform="translate(393.027425 322.182437) scale(0.1 -0.1)">
       <use xlink:href="#DejaVuSans-30"/>
       <use xlink:href="#DejaVuSans-2e" x="63.623047"/>
       <use xlink:href="#DejaVuSans-31" x="95.410156"/>
       <use xlink:href="#DejaVuSans-30" x="159.033203"/>
       <use xlink:href="#DejaVuSans-30" x="222.65625"/>
      </g>
     </g>
    </g>
    <g id="text_23">
     <!-- Distance [m] -->
     <g transform="translate(301.332926 335.860562) scale(0.1 -0.1)">
      <use xlink:href="#DejaVuSans-44"/>
      <use xlink:href="#DejaVuSans-69" x="77.001953"/>
      <use xlink:href="#DejaVuSans-73" x="104.785156"/>
      <use xlink:href="#DejaVuSans-74" x="156.884766"/>
      <use xlink:href="#DejaVuSans-61" x="196.09375"/>
      <use xlink:href="#DejaVuSans-6e" x="257.373047"/>
      <use xlink:href="#DejaVuSans-63" x="320.751953"/>
      <use xlink:href="#DejaVuSans-65" x="375.732422"/>
      <use xlink:href="#DejaVuSans-20" x="437.255859"/>
      <use xlink:href="#DejaVuSans-5b" x="469.042969"/>
      <use xlink:href="#DejaVuSans-6d" x="508.056641"/>
      <use xlink:href="#DejaVuSans-5d" x="605.46875"/>
     </g>
    </g>
   </g>
   <g id="matplotlib.axis_4">
    <g id="ytick_7">
     <g id="line2d_23">
      <g>
       <use xlink:href="#mcb8949d183" x="252.392727" y="296.125855" style="stroke: #000000; stroke-width: 0.8"/>
      </g>
     </g>
     <g id="text_24">
      <!-- 20 -->
      <g transform="translate(232.667727 299.925073) scale(0.1 -0.1)">
       <use xlink:href="#DejaVuSans-32"/>
       <use xlink:href="#DejaVuSans-30" x="63.623047"/>
      </g>
     </g>
    </g>
    <g id="ytick_8">
     <g id="line2d_24">
      <g>
       <use xlink:href="#mcb8949d183" x="252.392727" y="265.806123" style="stroke: #000000; stroke-width: 0.8"/>
      </g>
     </g>
     <g id="text_25">
      <!-- 30 -->
      <g transform="translate(232.667727 269.605341) scale(0.1 -0.1)">
       <defs>
        <path id="DejaVuSans-33" d="M 2597 2516 
Q 3050 2419 3304 2112 
Q 3559 1806 3559 1356 
Q 3559 666 3084 287 
Q 2609 -91 1734 -91 
Q 1441 -91 1130 -33 
Q 819 25 488 141 
L 488 750 
Q 750 597 1062 519 
Q 1375 441 1716 441 
Q 2309 441 2620 675 
Q 2931 909 2931 1356 
Q 2931 1769 2642 2001 
Q 2353 2234 1838 2234 
L 1294 2234 
L 1294 2753 
L 1863 2753 
Q 2328 2753 2575 2939 
Q 2822 3125 2822 3475 
Q 2822 3834 2567 4026 
Q 2313 4219 1838 4219 
Q 1578 4219 1281 4162 
Q 984 4106 628 3988 
L 628 4550 
Q 988 4650 1302 4700 
Q 1616 4750 1894 4750 
Q 2613 4750 3031 4423 
Q 3450 4097 3450 3541 
Q 3450 3153 3228 2886 
Q 3006 2619 2597 2516 
z
" transform="scale(0.015625)"/>
       </defs>
       <use xlink:href="#DejaVuSans-33"/>
       <use xlink:href="#DejaVuSans-30" x="63.623047"/>
      </g>
     </g>
    </g>
    <g id="ytick_9">
     <g id="line2d_25">
      <g>
       <use xlink:href="#mcb8949d183" x="252.392727" y="235.486391" style="stroke: #000000; stroke-width: 0.8"/>
      </g>
     </g>
     <g id="text_26">
      <!-- 40 -->
      <g transform="translate(232.667727 239.28561) scale(0.1 -0.1)">
       <defs>
        <path id="DejaVuSans-34" d="M 2419 4116 
L 825 1625 
L 2419 1625 
L 2419 4116 
z
M 2253 4666 
L 3047 4666 
L 3047 1625 
L 3713 1625 
L 3713 1100 
L 3047 1100 
L 3047 0 
L 2419 0 
L 2419 1100 
L 313 1100 
L 313 1709 
L 2253 4666 
z
" transform="scale(0.015625)"/>
       </defs>
       <use xlink:href="#DejaVuSans-34"/>
       <use xlink:href="#DejaVuSans-30" x="63.623047"/>
      </g>
     </g>
    </g>
    <g id="ytick_10">
     <g id="line2d_26">
      <g>
       <use xlink:href="#mcb8949d183" x="252.392727" y="205.166659" style="stroke: #000000; stroke-width: 0.8"/>
      </g>
     </g>
     <g id="text_27">
      <!-- 50 -->
      <g transform="translate(232.667727 208.965878) scale(0.1 -0.1)">
       <use xlink:href="#DejaVuSans-35"/>
       <use xlink:href="#DejaVuSans-30" x="63.623047"/>
      </g>
     </g>
    </g>
    <g id="ytick_11">
     <g id="line2d_27">
      <g>
       <use xlink:href="#mcb8949d183" x="252.392727" y="174.846927" style="stroke: #000000; stroke-width: 0.8"/>
      </g>
     </g>
     <g id="text_28">
      <!-- 60 -->
      <g transform="translate(232.667727 178.646146) scale(0.1 -0.1)">
       <use xlink:href="#DejaVuSans-36"/>
       <use xlink:href="#DejaVuSans-30" x="63.623047"/>
      </g>
     </g>
    </g>
    <g id="ytick_12">
     <g id="line2d_28">
      <g>
       <use xlink:href="#mcb8949d183" x="252.392727" y="144.527195" style="stroke: #000000; stroke-width: 0.8"/>
      </g>
     </g>
     <g id="text_29">
      <!-- 70 -->
      <g transform="translate(232.667727 148.326414) scale(0.1 -0.1)">
       <use xlink:href="#DejaVuSans-37"/>
       <use xlink:href="#DejaVuSans-30" x="63.623047"/>
      </g>
     </g>
    </g>
    <g id="ytick_13">
     <g id="line2d_29">
      <g>
       <use xlink:href="#mcb8949d183" x="252.392727" y="114.207464" style="stroke: #000000; stroke-width: 0.8"/>
      </g>
     </g>
     <g id="text_30">
      <!-- 80 -->
      <g transform="translate(232.667727 118.006682) scale(0.1 -0.1)">
       <use xlink:href="#DejaVuSans-38"/>
       <use xlink:href="#DejaVuSans-30" x="63.623047"/>
      </g>
     </g>
    </g>
    <g id="ytick_14">
     <g id="line2d_30">
      <g>
       <use xlink:href="#mcb8949d183" x="252.392727" y="83.887732" style="stroke: #000000; stroke-width: 0.8"/>
      </g>
     </g>
     <g id="text_31">
      <!-- 90 -->
      <g transform="translate(232.667727 87.686951) scale(0.1 -0.1)">
       <use xlink:href="#DejaVuSans-39"/>
       <use xlink:href="#DejaVuSans-30" x="63.623047"/>
      </g>
     </g>
    </g>
    <g id="ytick_15">
     <g id="line2d_31">
      <g>
       <use xlink:href="#mcb8949d183" x="252.392727" y="53.568" style="stroke: #000000; stroke-width: 0.8"/>
      </g>
     </g>
     <g id="text_32">
      <!-- 100 -->
      <g transform="translate(226.305227 57.367219) scale(0.1 -0.1)">
       <use xlink:href="#DejaVuSans-31"/>
       <use xlink:href="#DejaVuSans-30" x="63.623047"/>
       <use xlink:href="#DejaVuSans-30" x="127.246094"/>
      </g>
     </g>
    </g>
    <g id="text_33">
     <!-- Temperature [ºC] -->
     <g transform="translate(220.22554 217.535812) rotate(-90) scale(0.1 -0.1)">
      <use xlink:href="#DejaVuSans-54"/>
      <use xlink:href="#DejaVuSans-65" x="44.083984"/>
      <use xlink:href="#DejaVuSans-6d" x="105.607422"/>
      <use xlink:href="#DejaVuSans-70" x="203.019531"/>
      <use xlink:href="#DejaVuSans-65" x="266.496094"/>
      <use xlink:href="#DejaVuSans-72" x="328.019531"/>
      <use xlink:href="#DejaVuSans-61" x="369.132812"/>
      <use xlink:href="#DejaVuSans-74" x="430.412109"/>
      <use xlink:href="#DejaVuSans-75" x="469.621094"/>
      <use xlink:href="#DejaVuSans-72" x="533"/>
      <use xlink:href="#DejaVuSans-65" x="571.863281"/>
      <use xlink:href="#DejaVuSans-20" x="633.386719"/>
      <use xlink:href="#DejaVuSans-5b" x="665.173828"/>
      <use xlink:href="#DejaVuSans-ba" x="704.1875"/>
      <use xlink:href="#DejaVuSans-43" x="751.306641"/>
      <use xlink:href="#DejaVuSans-5d" x="821.130859"/>
     </g>
    </g>
   </g>
   <g id="line2d_32">
    <path d="M 259.77124 53.568 
L 261.261848 67.695311 
L 262.752457 80.99978 
L 264.243065 93.529332 
L 265.733674 105.3291 
L 267.224282 116.441588 
L 268.714891 126.906827 
L 270.2055 136.762512 
L 271.696108 146.044146 
L 273.186717 154.785163 
L 274.677325 163.017048 
L 276.167934 170.769456 
L 277.658542 178.07031 
L 279.149151 184.94591 
L 280.63976 191.421023 
L 282.130368 197.518972 
L 283.620977 203.261725 
L 285.111585 208.669967 
L 286.602194 213.763179 
L 288.092802 218.559708 
L 289.583411 223.076832 
L 291.07402 227.330822 
L 292.564628 231.337002 
L 294.055237 235.109803 
L 295.545845 238.662814 
L 297.036454 242.008834 
L 298.527062 245.159917 
L 300.017671 248.127413 
L 301.508279 250.92201 
L 302.998888 253.553777 
L 304.489497 256.032192 
L 305.980105 258.366184 
L 307.470714 260.56416 
L 308.961322 262.634037 
L 310.451931 264.583271 
L 311.942539 266.418884 
L 313.433148 268.147488 
L 314.923757 269.77531 
L 316.414365 271.308213 
L 317.904974 272.751719 
L 319.395582 274.111027 
L 320.886191 275.391035 
L 322.376799 276.596353 
L 323.867408 277.731323 
L 325.358017 278.800032 
L 326.848625 279.806332 
L 328.339234 280.753846 
L 329.829842 281.645987 
L 331.320451 282.48597 
L 332.811059 283.27682 
L 334.301668 284.021386 
L 335.792276 284.72235 
L 337.282885 285.382236 
L 338.773494 286.003422 
L 340.264102 286.588146 
L 341.754711 287.138513 
L 343.245319 287.656507 
L 344.735928 288.143993 
L 346.226536 288.602726 
L 347.717145 289.034361 
L 349.207754 289.440451 
L 350.698362 289.822458 
L 352.188971 290.18176 
L 353.679579 290.519651 
L 355.170188 290.837347 
L 356.660796 291.135993 
L 358.151405 291.416665 
L 359.642014 291.680374 
L 361.132622 291.928069 
L 362.623231 292.160643 
L 364.113839 292.378934 
L 365.604448 292.583728 
L 367.095056 292.775763 
L 368.585665 292.95573 
L 370.076273 293.124278 
L 371.566882 293.282013 
L 373.057491 293.429505 
L 374.548099 293.567284 
L 376.038708 293.695847 
L 377.529316 293.815656 
L 379.019925 293.927144 
L 380.510533 294.030712 
L 382.001142 294.126732 
L 383.491751 294.215552 
L 384.982359 294.29749 
L 386.472968 294.372842 
L 387.963576 294.44188 
L 389.454185 294.504852 
L 390.944793 294.561984 
L 392.435402 294.613484 
L 393.926011 294.659535 
L 395.416619 294.700305 
L 396.907228 294.735939 
L 398.397836 294.766567 
L 399.888445 294.792299 
L 401.379053 294.813226 
L 402.869662 294.829426 
L 404.36027 294.840955 
L 405.850879 294.847857 
L 407.341488 294.850154 
" clip-path="url(#p0ebfadd6ef)" style="fill: none; stroke: #1f77b4; stroke-width: 1.5; stroke-linecap: square"/>
   </g>
   <g id="line2d_33">
    <path d="M 259.77124 53.568 
L 261.261848 67.695321 
L 262.752457 80.9998 
L 264.243065 93.529361 
L 265.733674 105.329139 
L 267.224282 116.441638 
L 268.714891 126.906886 
L 270.2055 136.762582 
L 271.696108 146.044227 
L 273.186717 154.785254 
L 274.677325 163.017152 
L 276.167934 170.769571 
L 277.658542 178.070437 
L 279.149151 184.94605 
L 280.63976 191.421175 
L 282.130368 197.519139 
L 283.620977 203.261906 
L 285.111585 208.670162 
L 286.602194 213.76339 
L 288.092802 218.559936 
L 289.583411 223.077077 
L 291.07402 227.331085 
L 292.564628 231.337284 
L 294.055237 235.110104 
L 295.545845 238.663137 
L 297.036454 242.00918 
L 298.527062 245.160286 
L 300.017671 248.127806 
L 301.508279 250.92243 
L 302.998888 253.554224 
L 304.489497 256.032669 
L 305.980105 258.366692 
L 307.470714 260.564701 
L 308.961322 262.634613 
L 310.451931 264.583884 
L 311.942539 266.419536 
L 313.433148 268.148182 
L 314.923757 269.776047 
L 316.414365 271.308997 
L 317.904974 272.752552 
L 319.395582 274.111913 
L 320.886191 275.391977 
L 322.376799 276.597354 
L 323.867408 277.732386 
L 325.358017 278.801163 
L 326.848625 279.807533 
L 328.339234 280.755121 
L 329.829842 281.647343 
L 331.320451 282.48741 
L 332.811059 283.278349 
L 334.301668 284.02301 
L 335.792276 284.724075 
L 337.282885 285.384068 
L 338.773494 286.005368 
L 340.264102 286.590213 
L 341.754711 287.140709 
L 343.245319 287.658838 
L 344.735928 288.146468 
L 346.226536 288.605356 
L 347.717145 289.037153 
L 349.207754 289.443416 
L 350.698362 289.825607 
L 352.188971 290.185104 
L 353.679579 290.523202 
L 355.170188 290.841118 
L 356.660796 291.139997 
L 358.151405 291.420917 
L 359.642014 291.684889 
L 361.132622 291.932863 
L 362.623231 292.165734 
L 364.113839 292.38434 
L 365.604448 292.589469 
L 367.095056 292.781858 
L 368.585665 292.962203 
L 370.076273 293.131151 
L 371.566882 293.289312 
L 373.057491 293.437255 
L 374.548099 293.575514 
L 376.038708 293.704585 
L 377.529316 293.824935 
L 379.019925 293.936997 
L 380.510533 294.041174 
L 382.001142 294.137842 
L 383.491751 294.227349 
L 384.982359 294.310017 
L 386.472968 294.386144 
L 387.963576 294.456004 
L 389.454185 294.519849 
L 390.944793 294.577909 
L 392.435402 294.630393 
L 393.926011 294.677491 
L 395.416619 294.719371 
L 396.907228 294.756185 
L 398.397836 294.788065 
L 399.888445 294.815126 
L 401.379053 294.837465 
L 402.869662 294.855164 
L 404.36027 294.868285 
L 405.850879 294.876877 
L 407.341488 294.880969 
" clip-path="url(#p0ebfadd6ef)" style="fill: none; stroke: #ff7f0e; stroke-width: 1.5; stroke-linecap: square"/>
   </g>
   <g id="line2d_34">
    <path d="M 259.77124 53.568 
L 261.261848 67.695512 
L 262.752457 81.000184 
L 264.243065 93.529939 
L 265.733674 105.329913 
L 267.224282 116.44261 
L 268.714891 126.908061 
L 270.2055 136.763963 
L 271.696108 146.045819 
L 273.186717 154.787064 
L 274.677325 163.019184 
L 276.167934 170.771834 
L 277.658542 178.07294 
L 279.149151 184.948801 
L 280.63976 191.424184 
L 282.130368 197.522417 
L 283.620977 203.265464 
L 285.111585 208.674014 
L 286.602194 213.76755 
L 288.092802 218.564417 
L 289.583411 223.081897 
L 291.07402 227.336261 
L 292.564628 231.342834 
L 294.055237 235.116049 
L 295.545845 238.669498 
L 297.036454 242.015979 
L 298.527062 245.167549 
L 300.017671 248.135559 
L 301.508279 250.9307 
L 302.998888 253.563041 
L 304.489497 256.042065 
L 305.980105 258.376701 
L 307.470714 260.575358 
L 308.961322 262.645957 
L 310.451931 264.595957 
L 311.942539 266.432381 
L 313.433148 268.161844 
L 314.923757 269.790577 
L 316.414365 271.324446 
L 317.904974 272.768976 
L 319.395582 274.129372 
L 320.886191 275.410532 
L 322.376799 276.617073 
L 323.867408 277.75334 
L 325.358017 278.823427 
L 326.848625 279.831188 
L 328.339234 280.780252 
L 329.829842 281.67404 
L 331.320451 282.51577 
L 332.811059 283.308474 
L 334.301668 284.055008 
L 335.792276 284.758061 
L 337.282885 285.420166 
L 338.773494 286.043707 
L 340.264102 286.63093 
L 341.754711 287.183951 
L 343.245319 287.704763 
L 344.735928 288.19524 
L 346.226536 288.65715 
L 347.717145 289.092156 
L 349.207754 289.501826 
L 350.698362 289.887635 
L 352.188971 290.250973 
L 353.679579 290.593149 
L 355.170188 290.915395 
L 356.660796 291.218873 
L 358.151405 291.504675 
L 359.642014 291.77383 
L 361.132622 292.027309 
L 362.623231 292.266024 
L 364.113839 292.490836 
L 365.604448 292.702553 
L 367.095056 292.90194 
L 368.585665 293.089713 
L 370.076273 293.26655 
L 371.566882 293.433087 
L 373.057491 293.589924 
L 374.548099 293.737626 
L 376.038708 293.876726 
L 377.529316 294.007724 
L 379.019925 294.131092 
L 380.510533 294.247275 
L 382.001142 294.356691 
L 383.491751 294.459734 
L 384.982359 294.556775 
L 386.472968 294.648164 
L 387.963576 294.734231 
L 389.454185 294.815284 
L 390.944793 294.891617 
L 392.435402 294.963504 
L 393.926011 295.031204 
L 395.416619 295.09496 
L 396.907228 295.155004 
L 398.397836 295.21155 
L 399.888445 295.264802 
L 401.379053 295.314953 
L 402.869662 295.362184 
L 404.36027 295.406663 
L 405.850879 295.448551 
L 407.341488 295.488 
" clip-path="url(#p0ebfadd6ef)" style="fill: none; stroke: #2ca02c; stroke-width: 1.5; stroke-linecap: square"/>
   </g>
   <g id="patch_9">
    <path d="M 252.392727 307.584 
L 252.392727 41.472 
" style="fill: none; stroke: #000000; stroke-width: 0.8; stroke-linejoin: miter; stroke-linecap: square"/>
   </g>
   <g id="patch_10">
    <path d="M 414.72 307.584 
L 414.72 41.472 
" style="fill: none; stroke: #000000; stroke-width: 0.8; stroke-linejoin: miter; stroke-linecap: square"/>
   </g>
   <g id="patch_11">
    <path d="M 252.392727 307.584 
L 414.72 307.584 
" style="fill: none; stroke: #000000; stroke-width: 0.8; stroke-linejoin: miter; stroke-linecap: square"/>
   </g>
   <g id="patch_12">
    <path d="M 252.392727 41.472 
L 414.72 41.472 
" style="fill: none; stroke: #000000; stroke-width: 0.8; stroke-linejoin: miter; stroke-linecap: square"/>
   </g>
   <g id="text_34">
    <!-- Titanium [Ti] -->
    <g transform="translate(295.534176 35.472) scale(0.12 -0.12)">
     <use xlink:href="#DejaVuSans-54"/>
     <use xlink:href="#DejaVuSans-69" x="57.958984"/>
     <use xlink:href="#DejaVuSans-74" x="85.742188"/>
     <use xlink:href="#DejaVuSans-61" x="124.951172"/>
     <use xlink:href="#DejaVuSans-6e" x="186.230469"/>
     <use xlink:href="#DejaVuSans-69" x="249.609375"/>
     <use xlink:href="#DejaVuSans-75" x="277.392578"/>
     <use xlink:href="#DejaVuSans-6d" x="340.771484"/>
     <use xlink:href="#DejaVuSans-20" x="438.183594"/>
     <use xlink:href="#DejaVuSans-5b" x="469.970703"/>
     <use xlink:href="#DejaVuSans-54" x="508.984375"/>
     <use xlink:href="#DejaVuSans-69" x="566.943359"/>
     <use xlink:href="#DejaVuSans-5d" x="594.726562"/>
    </g>
   </g>
   <g id="legend_2">
    <g id="patch_13">
     <path d="M 261.248125 93.506375 
L 407.72 93.506375 
Q 409.72 93.506375 409.72 91.506375 
L 409.72 48.472 
Q 409.72 46.472 407.72 46.472 
L 261.248125 46.472 
Q 259.248125 46.472 259.248125 48.472 
L 259.248125 91.506375 
Q 259.248125 93.506375 261.248125 93.506375 
z
" style="fill: #ffffff; opacity: 0.8; stroke: #cccccc; stroke-linejoin: miter"/>
    </g>
    <g id="line2d_35">
     <path d="M 263.248125 54.570438 
L 273.248125 54.570438 
L 283.248125 54.570438 
" style="fill: none; stroke: #1f77b4; stroke-width: 1.5; stroke-linecap: square"/>
    </g>
    <g id="text_35">
     <!-- Adiabatic Hypothesis -->
     <g transform="translate(291.248125 58.070438) scale(0.1 -0.1)">
      <use xlink:href="#DejaVuSans-41"/>
      <use xlink:href="#DejaVuSans-64" x="66.658203"/>
      <use xlink:href="#DejaVuSans-69" x="130.134766"/>
      <use xlink:href="#DejaVuSans-61" x="157.917969"/>
      <use xlink:href="#DejaVuSans-62" x="219.197266"/>
      <use xlink:href="#DejaVuSans-61" x="282.673828"/>
      <use xlink:href="#DejaVuSans-74" x="343.953125"/>
      <use xlink:href="#DejaVuSans-69" x="383.162109"/>
      <use xlink:href="#DejaVuSans-63" x="410.945312"/>
      <use xlink:href="#DejaVuSans-20" x="465.925781"/>
      <use xlink:href="#DejaVuSans-48" x="497.712891"/>
      <use xlink:href="#DejaVuSans-79" x="572.908203"/>
      <use xlink:href="#DejaVuSans-70" x="632.087891"/>
      <use xlink:href="#DejaVuSans-6f" x="695.564453"/>
      <use xlink:href="#DejaVuSans-74" x="756.746094"/>
      <use xlink:href="#DejaVuSans-68" x="795.955078"/>
      <use xlink:href="#DejaVuSans-65" x="859.333984"/>
      <use xlink:href="#DejaVuSans-73" x="920.857422"/>
      <use xlink:href="#DejaVuSans-69" x="972.957031"/>
      <use xlink:href="#DejaVuSans-73" x="1000.740234"/>
     </g>
    </g>
    <g id="line2d_36">
     <path d="M 263.248125 69.248563 
L 273.248125 69.248563 
L 283.248125 69.248563 
" style="fill: none; stroke: #ff7f0e; stroke-width: 1.5; stroke-linecap: square"/>
    </g>
    <g id="text_36">
     <!-- Convective Hypothesis -->
     <g transform="translate(291.248125 72.748563) scale(0.1 -0.1)">
      <use xlink:href="#DejaVuSans-43"/>
      <use xlink:href="#DejaVuSans-6f" x="69.824219"/>
      <use xlink:href="#DejaVuSans-6e" x="131.005859"/>
      <use xlink:href="#DejaVuSans-76" x="194.384766"/>
      <use xlink:href="#DejaVuSans-65" x="253.564453"/>
      <use xlink:href="#DejaVuSans-63" x="315.087891"/>
      <use xlink:href="#DejaVuSans-74" x="370.068359"/>
      <use xlink:href="#DejaVuSans-69" x="409.277344"/>
      <use xlink:href="#DejaVuSans-76" x="437.060547"/>
      <use xlink:href="#DejaVuSans-65" x="496.240234"/>
      <use xlink:href="#DejaVuSans-20" x="557.763672"/>
      <use xlink:href="#DejaVuSans-48" x="589.550781"/>
      <use xlink:href="#DejaVuSans-79" x="664.746094"/>
      <use xlink:href="#DejaVuSans-70" x="723.925781"/>
      <use xlink:href="#DejaVuSans-6f" x="787.402344"/>
      <use xlink:href="#DejaVuSans-74" x="848.583984"/>
      <use xlink:href="#DejaVuSans-68" x="887.792969"/>
      <use xlink:href="#DejaVuSans-65" x="951.171875"/>
      <use xlink:href="#DejaVuSans-73" x="1012.695312"/>
      <use xlink:href="#DejaVuSans-69" x="1064.794922"/>
      <use xlink:href="#DejaVuSans-73" x="1092.578125"/>
     </g>
    </g>
    <g id="line2d_37">
     <path d="M 263.248125 83.926688 
L 273.248125 83.926688 
L 283.248125 83.926688 
" style="fill: none; stroke: #2ca02c; stroke-width: 1.5; stroke-linecap: square"/>
    </g>
    <g id="text_37">
     <!-- Infinite Hypothesis -->
     <g transform="translate(291.248125 87.426688) scale(0.1 -0.1)">
      <use xlink:href="#DejaVuSans-49"/>
      <use xlink:href="#DejaVuSans-6e" x="29.492188"/>
      <use xlink:href="#DejaVuSans-66" x="92.871094"/>
      <use xlink:href="#DejaVuSans-69" x="128.076172"/>
      <use xlink:href="#DejaVuSans-6e" x="155.859375"/>
      <use xlink:href="#DejaVuSans-69" x="219.238281"/>
      <use xlink:href="#DejaVuSans-74" x="247.021484"/>
      <use xlink:href="#DejaVuSans-65" x="286.230469"/>
      <use xlink:href="#DejaVuSans-20" x="347.753906"/>
      <use xlink:href="#DejaVuSans-48" x="379.541016"/>
      <use xlink:href="#DejaVuSans-79" x="454.736328"/>
      <use xlink:href="#DejaVuSans-70" x="513.916016"/>
      <use xlink:href="#DejaVuSans-6f" x="577.392578"/>
      <use xlink:href="#DejaVuSans-74" x="638.574219"/>
      <use xlink:href="#DejaVuSans-68" x="677.783203"/>
      <use xlink:href="#DejaVuSans-65" x="741.162109"/>
      <use xlink:href="#DejaVuSans-73" x="802.685547"/>
      <use xlink:href="#DejaVuSans-69" x="854.785156"/>
      <use xlink:href="#DejaVuSans-73" x="882.568359"/>
     </g>
    </g>
   </g>
  </g>
  <g id="text_38">
   <!-- Adiabatic, Convective and Infinite borders. -->
   <g transform="translate(102.44625 16.030125) scale(0.12 -0.12)">
    <defs>
     <path id="DejaVuSans-2c" d="M 750 794 
L 1409 794 
L 1409 256 
L 897 -744 
L 494 -744 
L 750 256 
L 750 794 
z
" transform="scale(0.015625)"/>
    </defs>
    <use xlink:href="#DejaVuSans-41"/>
    <use xlink:href="#DejaVuSans-64" x="66.658203"/>
    <use xlink:href="#DejaVuSans-69" x="130.134766"/>
    <use xlink:href="#DejaVuSans-61" x="157.917969"/>
    <use xlink:href="#DejaVuSans-62" x="219.197266"/>
    <use xlink:href="#DejaVuSans-61" x="282.673828"/>
    <use xlink:href="#DejaVuSans-74" x="343.953125"/>
    <use xlink:href="#DejaVuSans-69" x="383.162109"/>
    <use xlink:href="#DejaVuSans-63" x="410.945312"/>
    <use xlink:href="#DejaVuSans-2c" x="465.925781"/>
    <use xlink:href="#DejaVuSans-20" x="497.712891"/>
    <use xlink:href="#DejaVuSans-43" x="529.5"/>
    <use xlink:href="#DejaVuSans-6f" x="599.324219"/>
    <use xlink:href="#DejaVuSans-6e" x="660.505859"/>
    <use xlink:href="#DejaVuSans-76" x="723.884766"/>
    <use xlink:href="#DejaVuSans-65" x="783.064453"/>
    <use xlink:href="#DejaVuSans-63" x="844.587891"/>
    <use xlink:href="#DejaVuSans-74" x="899.568359"/>
    <use xlink:href="#DejaVuSans-69" x="938.777344"/>
    <use xlink:href="#DejaVuSans-76" x="966.560547"/>
    <use xlink:href="#DejaVuSans-65" x="1025.740234"/>
    <use xlink:href="#DejaVuSans-20" x="1087.263672"/>
    <use xlink:href="#DejaVuSans-61" x="1119.050781"/>
    <use xlink:href="#DejaVuSans-6e" x="1180.330078"/>
    <use xlink:href="#DejaVuSans-64" x="1243.708984"/>
    <use xlink:href="#DejaVuSans-20" x="1307.185547"/>
    <use xlink:href="#DejaVuSans-49" x="1338.972656"/>
    <use xlink:href="#DejaVuSans-6e" x="1368.464844"/>
    <use xlink:href="#DejaVuSans-66" x="1431.84375"/>
    <use xlink:href="#DejaVuSans-69" x="1467.048828"/>
    <use xlink:href="#DejaVuSans-6e" x="1494.832031"/>
    <use xlink:href="#DejaVuSans-69" x="1558.210938"/>
    <use xlink:href="#DejaVuSans-74" x="1585.994141"/>
    <use xlink:href="#DejaVuSans-65" x="1625.203125"/>
    <use xlink:href="#DejaVuSans-20" x="1686.726562"/>
    <use xlink:href="#DejaVuSans-62" x="1718.513672"/>
    <use xlink:href="#DejaVuSans-6f" x="1781.990234"/>
    <use xlink:href="#DejaVuSans-72" x="1843.171875"/>
    <use xlink:href="#DejaVuSans-64" x="1882.535156"/>
    <use xlink:href="#DejaVuSans-65" x="1946.011719"/>
    <use xlink:href="#DejaVuSans-72" x="2007.535156"/>
    <use xlink:href="#DejaVuSans-73" x="2048.648438"/>
    <use xlink:href="#DejaVuSans-2e" x="2100.748047"/>
   </g>
  </g>
 </g>
 <defs>
  <clipPath id="p43fdfa0193">
   <rect x="57.6" y="41.472" width="162.327273" height="266.112"/>
  </clipPath>
  <clipPath id="p0ebfadd6ef">
   <rect x="252.392727" y="41.472" width="162.327273" height="266.112"/>
  </clipPath>
 </defs>
</svg>
