<?xml version="1.0" encoding="utf-8" standalone="no"?>
<!DOCTYPE svg PUBLIC "-//W3C//DTD SVG 1.1//EN"
  "http://www.w3.org/Graphics/SVG/1.1/DTD/svg11.dtd">
<svg xmlns:xlink="http://www.w3.org/1999/xlink" width="724.32pt" height="345.6pt" viewBox="0 0 724.32 345.6" xmlns="http://www.w3.org/2000/svg" version="1.1">
 <metadata>
  <rdf:RDF xmlns:dc="http://purl.org/dc/elements/1.1/" xmlns:cc="http://creativecommons.org/ns#" xmlns:rdf="http://www.w3.org/1999/02/22-rdf-syntax-ns#">
   <cc:Work>
    <dc:type rdf:resource="http://purl.org/dc/dcmitype/StillImage"/>
    <dc:date>2024-03-27T11:44:35.139893</dc:date>
    <dc:format>image/svg+xml</dc:format>
    <dc:creator>
     <cc:Agent>
      <dc:title>Matplotlib v3.8.3, https://matplotlib.org/</dc:title>
     </cc:Agent>
    </dc:creator>
   </cc:Work>
  </rdf:RDF>
 </metadata>
 <defs>
  <style type="text/css">*{stroke-linejoin: round; stroke-linecap: butt}</style>
 </defs>
 <g id="figure_1">
  <g id="patch_1">
   <path d="M 0 345.6 
L 724.32 345.6 
L 724.32 0 
L 0 0 
z
" style="fill: #ffffff"/>
  </g>
  <g id="axes_1">
   <g id="patch_2">
    <path d="M 90.54 307.584 
L 345.698182 307.584 
L 345.698182 41.472 
L 90.54 41.472 
z
" style="fill: #ffffff"/>
   </g>
   <g id="matplotlib.axis_1">
    <g id="xtick_1">
     <g id="line2d_1">
      <defs>
       <path id="m8f35b626b8" d="M 0 0 
L 0 3.5 
" style="stroke: #000000; stroke-width: 0.8"/>
      </defs>
      <g>
       <use xlink:href="#m8f35b626b8" x="102.138099" y="307.584" style="stroke: #000000; stroke-width: 0.8"/>
      </g>
     </g>
     <g id="text_1">
      <!-- 0.00 -->
      <g transform="translate(91.005287 322.182437) scale(0.1 -0.1)">
       <defs>
        <path id="DejaVuSans-30" d="M 2034 4250 
Q 1547 4250 1301 3770 
Q 1056 3291 1056 2328 
Q 1056 1369 1301 889 
Q 1547 409 2034 409 
Q 2525 409 2770 889 
Q 3016 1369 3016 2328 
Q 3016 3291 2770 3770 
Q 2525 4250 2034 4250 
z
M 2034 4750 
Q 2819 4750 3233 4129 
Q 3647 3509 3647 2328 
Q 3647 1150 3233 529 
Q 2819 -91 2034 -91 
Q 1250 -91 836 529 
Q 422 1150 422 2328 
Q 422 3509 836 4129 
Q 1250 4750 2034 4750 
z
" transform="scale(0.015625)"/>
        <path id="DejaVuSans-2e" d="M 684 794 
L 1344 794 
L 1344 0 
L 684 0 
L 684 794 
z
" transform="scale(0.015625)"/>
       </defs>
       <use xlink:href="#DejaVuSans-30"/>
       <use xlink:href="#DejaVuSans-2e" x="63.623047"/>
       <use xlink:href="#DejaVuSans-30" x="95.410156"/>
       <use xlink:href="#DejaVuSans-30" x="159.033203"/>
      </g>
     </g>
    </g>
    <g id="xtick_2">
     <g id="line2d_2">
      <g>
       <use xlink:href="#m8f35b626b8" x="148.530496" y="307.584" style="stroke: #000000; stroke-width: 0.8"/>
      </g>
     </g>
     <g id="text_2">
      <!-- 0.02 -->
      <g transform="translate(137.397683 322.182437) scale(0.1 -0.1)">
       <defs>
        <path id="DejaVuSans-32" d="M 1228 531 
L 3431 531 
L 3431 0 
L 469 0 
L 469 531 
Q 828 903 1448 1529 
Q 2069 2156 2228 2338 
Q 2531 2678 2651 2914 
Q 2772 3150 2772 3378 
Q 2772 3750 2511 3984 
Q 2250 4219 1831 4219 
Q 1534 4219 1204 4116 
Q 875 4013 500 3803 
L 500 4441 
Q 881 4594 1212 4672 
Q 1544 4750 1819 4750 
Q 2544 4750 2975 4387 
Q 3406 4025 3406 3419 
Q 3406 3131 3298 2873 
Q 3191 2616 2906 2266 
Q 2828 2175 2409 1742 
Q 1991 1309 1228 531 
z
" transform="scale(0.015625)"/>
       </defs>
       <use xlink:href="#DejaVuSans-30"/>
       <use xlink:href="#DejaVuSans-2e" x="63.623047"/>
       <use xlink:href="#DejaVuSans-30" x="95.410156"/>
       <use xlink:href="#DejaVuSans-32" x="159.033203"/>
      </g>
     </g>
    </g>
    <g id="xtick_3">
     <g id="line2d_3">
      <g>
       <use xlink:href="#m8f35b626b8" x="194.922893" y="307.584" style="stroke: #000000; stroke-width: 0.8"/>
      </g>
     </g>
     <g id="text_3">
      <!-- 0.04 -->
      <g transform="translate(183.79008 322.182437) scale(0.1 -0.1)">
       <defs>
        <path id="DejaVuSans-34" d="M 2419 4116 
L 825 1625 
L 2419 1625 
L 2419 4116 
z
M 2253 4666 
L 3047 4666 
L 3047 1625 
L 3713 1625 
L 3713 1100 
L 3047 1100 
L 3047 0 
L 2419 0 
L 2419 1100 
L 313 1100 
L 313 1709 
L 2253 4666 
z
" transform="scale(0.015625)"/>
       </defs>
       <use xlink:href="#DejaVuSans-30"/>
       <use xlink:href="#DejaVuSans-2e" x="63.623047"/>
       <use xlink:href="#DejaVuSans-30" x="95.410156"/>
       <use xlink:href="#DejaVuSans-34" x="159.033203"/>
      </g>
     </g>
    </g>
    <g id="xtick_4">
     <g id="line2d_4">
      <g>
       <use xlink:href="#m8f35b626b8" x="241.315289" y="307.584" style="stroke: #000000; stroke-width: 0.8"/>
      </g>
     </g>
     <g id="text_4">
      <!-- 0.06 -->
      <g transform="translate(230.182477 322.182437) scale(0.1 -0.1)">
       <defs>
        <path id="DejaVuSans-36" d="M 2113 2584 
Q 1688 2584 1439 2293 
Q 1191 2003 1191 1497 
Q 1191 994 1439 701 
Q 1688 409 2113 409 
Q 2538 409 2786 701 
Q 3034 994 3034 1497 
Q 3034 2003 2786 2293 
Q 2538 2584 2113 2584 
z
M 3366 4563 
L 3366 3988 
Q 3128 4100 2886 4159 
Q 2644 4219 2406 4219 
Q 1781 4219 1451 3797 
Q 1122 3375 1075 2522 
Q 1259 2794 1537 2939 
Q 1816 3084 2150 3084 
Q 2853 3084 3261 2657 
Q 3669 2231 3669 1497 
Q 3669 778 3244 343 
Q 2819 -91 2113 -91 
Q 1303 -91 875 529 
Q 447 1150 447 2328 
Q 447 3434 972 4092 
Q 1497 4750 2381 4750 
Q 2619 4750 2861 4703 
Q 3103 4656 3366 4563 
z
" transform="scale(0.015625)"/>
       </defs>
       <use xlink:href="#DejaVuSans-30"/>
       <use xlink:href="#DejaVuSans-2e" x="63.623047"/>
       <use xlink:href="#DejaVuSans-30" x="95.410156"/>
       <use xlink:href="#DejaVuSans-36" x="159.033203"/>
      </g>
     </g>
    </g>
    <g id="xtick_5">
     <g id="line2d_5">
      <g>
       <use xlink:href="#m8f35b626b8" x="287.707686" y="307.584" style="stroke: #000000; stroke-width: 0.8"/>
      </g>
     </g>
     <g id="text_5">
      <!-- 0.08 -->
      <g transform="translate(276.574873 322.182437) scale(0.1 -0.1)">
       <defs>
        <path id="DejaVuSans-38" d="M 2034 2216 
Q 1584 2216 1326 1975 
Q 1069 1734 1069 1313 
Q 1069 891 1326 650 
Q 1584 409 2034 409 
Q 2484 409 2743 651 
Q 3003 894 3003 1313 
Q 3003 1734 2745 1975 
Q 2488 2216 2034 2216 
z
M 1403 2484 
Q 997 2584 770 2862 
Q 544 3141 544 3541 
Q 544 4100 942 4425 
Q 1341 4750 2034 4750 
Q 2731 4750 3128 4425 
Q 3525 4100 3525 3541 
Q 3525 3141 3298 2862 
Q 3072 2584 2669 2484 
Q 3125 2378 3379 2068 
Q 3634 1759 3634 1313 
Q 3634 634 3220 271 
Q 2806 -91 2034 -91 
Q 1263 -91 848 271 
Q 434 634 434 1313 
Q 434 1759 690 2068 
Q 947 2378 1403 2484 
z
M 1172 3481 
Q 1172 3119 1398 2916 
Q 1625 2713 2034 2713 
Q 2441 2713 2670 2916 
Q 2900 3119 2900 3481 
Q 2900 3844 2670 4047 
Q 2441 4250 2034 4250 
Q 1625 4250 1398 4047 
Q 1172 3844 1172 3481 
z
" transform="scale(0.015625)"/>
       </defs>
       <use xlink:href="#DejaVuSans-30"/>
       <use xlink:href="#DejaVuSans-2e" x="63.623047"/>
       <use xlink:href="#DejaVuSans-30" x="95.410156"/>
       <use xlink:href="#DejaVuSans-38" x="159.033203"/>
      </g>
     </g>
    </g>
    <g id="xtick_6">
     <g id="line2d_6">
      <g>
       <use xlink:href="#m8f35b626b8" x="334.100083" y="307.584" style="stroke: #000000; stroke-width: 0.8"/>
      </g>
     </g>
     <g id="text_6">
      <!-- 0.10 -->
      <g transform="translate(322.96727 322.182437) scale(0.1 -0.1)">
       <defs>
        <path id="DejaVuSans-31" d="M 794 531 
L 1825 531 
L 1825 4091 
L 703 3866 
L 703 4441 
L 1819 4666 
L 2450 4666 
L 2450 531 
L 3481 531 
L 3481 0 
L 794 0 
L 794 531 
z
" transform="scale(0.015625)"/>
       </defs>
       <use xlink:href="#DejaVuSans-30"/>
       <use xlink:href="#DejaVuSans-2e" x="63.623047"/>
       <use xlink:href="#DejaVuSans-31" x="95.410156"/>
       <use xlink:href="#DejaVuSans-30" x="159.033203"/>
      </g>
     </g>
    </g>
    <g id="text_7">
     <!-- Distance [m] -->
     <g transform="translate(185.895653 335.860562) scale(0.1 -0.1)">
      <defs>
       <path id="DejaVuSans-44" d="M 1259 4147 
L 1259 519 
L 2022 519 
Q 2988 519 3436 956 
Q 3884 1394 3884 2338 
Q 3884 3275 3436 3711 
Q 2988 4147 2022 4147 
L 1259 4147 
z
M 628 4666 
L 1925 4666 
Q 3281 4666 3915 4102 
Q 4550 3538 4550 2338 
Q 4550 1131 3912 565 
Q 3275 0 1925 0 
L 628 0 
L 628 4666 
z
" transform="scale(0.015625)"/>
       <path id="DejaVuSans-69" d="M 603 3500 
L 1178 3500 
L 1178 0 
L 603 0 
L 603 3500 
z
M 603 4863 
L 1178 4863 
L 1178 4134 
L 603 4134 
L 603 4863 
z
" transform="scale(0.015625)"/>
       <path id="DejaVuSans-73" d="M 2834 3397 
L 2834 2853 
Q 2591 2978 2328 3040 
Q 2066 3103 1784 3103 
Q 1356 3103 1142 2972 
Q 928 2841 928 2578 
Q 928 2378 1081 2264 
Q 1234 2150 1697 2047 
L 1894 2003 
Q 2506 1872 2764 1633 
Q 3022 1394 3022 966 
Q 3022 478 2636 193 
Q 2250 -91 1575 -91 
Q 1294 -91 989 -36 
Q 684 19 347 128 
L 347 722 
Q 666 556 975 473 
Q 1284 391 1588 391 
Q 1994 391 2212 530 
Q 2431 669 2431 922 
Q 2431 1156 2273 1281 
Q 2116 1406 1581 1522 
L 1381 1569 
Q 847 1681 609 1914 
Q 372 2147 372 2553 
Q 372 3047 722 3315 
Q 1072 3584 1716 3584 
Q 2034 3584 2315 3537 
Q 2597 3491 2834 3397 
z
" transform="scale(0.015625)"/>
       <path id="DejaVuSans-74" d="M 1172 4494 
L 1172 3500 
L 2356 3500 
L 2356 3053 
L 1172 3053 
L 1172 1153 
Q 1172 725 1289 603 
Q 1406 481 1766 481 
L 2356 481 
L 2356 0 
L 1766 0 
Q 1100 0 847 248 
Q 594 497 594 1153 
L 594 3053 
L 172 3053 
L 172 3500 
L 594 3500 
L 594 4494 
L 1172 4494 
z
" transform="scale(0.015625)"/>
       <path id="DejaVuSans-61" d="M 2194 1759 
Q 1497 1759 1228 1600 
Q 959 1441 959 1056 
Q 959 750 1161 570 
Q 1363 391 1709 391 
Q 2188 391 2477 730 
Q 2766 1069 2766 1631 
L 2766 1759 
L 2194 1759 
z
M 3341 1997 
L 3341 0 
L 2766 0 
L 2766 531 
Q 2569 213 2275 61 
Q 1981 -91 1556 -91 
Q 1019 -91 701 211 
Q 384 513 384 1019 
Q 384 1609 779 1909 
Q 1175 2209 1959 2209 
L 2766 2209 
L 2766 2266 
Q 2766 2663 2505 2880 
Q 2244 3097 1772 3097 
Q 1472 3097 1187 3025 
Q 903 2953 641 2809 
L 641 3341 
Q 956 3463 1253 3523 
Q 1550 3584 1831 3584 
Q 2591 3584 2966 3190 
Q 3341 2797 3341 1997 
z
" transform="scale(0.015625)"/>
       <path id="DejaVuSans-6e" d="M 3513 2113 
L 3513 0 
L 2938 0 
L 2938 2094 
Q 2938 2591 2744 2837 
Q 2550 3084 2163 3084 
Q 1697 3084 1428 2787 
Q 1159 2491 1159 1978 
L 1159 0 
L 581 0 
L 581 3500 
L 1159 3500 
L 1159 2956 
Q 1366 3272 1645 3428 
Q 1925 3584 2291 3584 
Q 2894 3584 3203 3211 
Q 3513 2838 3513 2113 
z
" transform="scale(0.015625)"/>
       <path id="DejaVuSans-63" d="M 3122 3366 
L 3122 2828 
Q 2878 2963 2633 3030 
Q 2388 3097 2138 3097 
Q 1578 3097 1268 2742 
Q 959 2388 959 1747 
Q 959 1106 1268 751 
Q 1578 397 2138 397 
Q 2388 397 2633 464 
Q 2878 531 3122 666 
L 3122 134 
Q 2881 22 2623 -34 
Q 2366 -91 2075 -91 
Q 1284 -91 818 406 
Q 353 903 353 1747 
Q 353 2603 823 3093 
Q 1294 3584 2113 3584 
Q 2378 3584 2631 3529 
Q 2884 3475 3122 3366 
z
" transform="scale(0.015625)"/>
       <path id="DejaVuSans-65" d="M 3597 1894 
L 3597 1613 
L 953 1613 
Q 991 1019 1311 708 
Q 1631 397 2203 397 
Q 2534 397 2845 478 
Q 3156 559 3463 722 
L 3463 178 
Q 3153 47 2828 -22 
Q 2503 -91 2169 -91 
Q 1331 -91 842 396 
Q 353 884 353 1716 
Q 353 2575 817 3079 
Q 1281 3584 2069 3584 
Q 2775 3584 3186 3129 
Q 3597 2675 3597 1894 
z
M 3022 2063 
Q 3016 2534 2758 2815 
Q 2500 3097 2075 3097 
Q 1594 3097 1305 2825 
Q 1016 2553 972 2059 
L 3022 2063 
z
" transform="scale(0.015625)"/>
       <path id="DejaVuSans-20" transform="scale(0.015625)"/>
       <path id="DejaVuSans-5b" d="M 550 4863 
L 1875 4863 
L 1875 4416 
L 1125 4416 
L 1125 -397 
L 1875 -397 
L 1875 -844 
L 550 -844 
L 550 4863 
z
" transform="scale(0.015625)"/>
       <path id="DejaVuSans-6d" d="M 3328 2828 
Q 3544 3216 3844 3400 
Q 4144 3584 4550 3584 
Q 5097 3584 5394 3201 
Q 5691 2819 5691 2113 
L 5691 0 
L 5113 0 
L 5113 2094 
Q 5113 2597 4934 2840 
Q 4756 3084 4391 3084 
Q 3944 3084 3684 2787 
Q 3425 2491 3425 1978 
L 3425 0 
L 2847 0 
L 2847 2094 
Q 2847 2600 2669 2842 
Q 2491 3084 2119 3084 
Q 1678 3084 1418 2786 
Q 1159 2488 1159 1978 
L 1159 0 
L 581 0 
L 581 3500 
L 1159 3500 
L 1159 2956 
Q 1356 3278 1631 3431 
Q 1906 3584 2284 3584 
Q 2666 3584 2933 3390 
Q 3200 3197 3328 2828 
z
" transform="scale(0.015625)"/>
       <path id="DejaVuSans-5d" d="M 1947 4863 
L 1947 -844 
L 622 -844 
L 622 -397 
L 1369 -397 
L 1369 4416 
L 622 4416 
L 622 4863 
L 1947 4863 
z
" transform="scale(0.015625)"/>
      </defs>
      <use xlink:href="#DejaVuSans-44"/>
      <use xlink:href="#DejaVuSans-69" x="77.001953"/>
      <use xlink:href="#DejaVuSans-73" x="104.785156"/>
      <use xlink:href="#DejaVuSans-74" x="156.884766"/>
      <use xlink:href="#DejaVuSans-61" x="196.09375"/>
      <use xlink:href="#DejaVuSans-6e" x="257.373047"/>
      <use xlink:href="#DejaVuSans-63" x="320.751953"/>
      <use xlink:href="#DejaVuSans-65" x="375.732422"/>
      <use xlink:href="#DejaVuSans-20" x="437.255859"/>
      <use xlink:href="#DejaVuSans-5b" x="469.042969"/>
      <use xlink:href="#DejaVuSans-6d" x="508.056641"/>
      <use xlink:href="#DejaVuSans-5d" x="605.46875"/>
     </g>
    </g>
   </g>
   <g id="matplotlib.axis_2">
    <g id="ytick_1">
     <g id="line2d_7">
      <defs>
       <path id="ma1a21ddaaf" d="M 0 0 
L -3.5 0 
" style="stroke: #000000; stroke-width: 0.8"/>
      </defs>
      <g>
       <use xlink:href="#ma1a21ddaaf" x="90.54" y="297.025406" style="stroke: #000000; stroke-width: 0.8"/>
      </g>
     </g>
     <g id="text_8">
      <!-- 40 -->
      <g transform="translate(70.815 300.824625) scale(0.1 -0.1)">
       <use xlink:href="#DejaVuSans-34"/>
       <use xlink:href="#DejaVuSans-30" x="63.623047"/>
      </g>
     </g>
    </g>
    <g id="ytick_2">
     <g id="line2d_8">
      <g>
       <use xlink:href="#ma1a21ddaaf" x="90.54" y="256.449172" style="stroke: #000000; stroke-width: 0.8"/>
      </g>
     </g>
     <g id="text_9">
      <!-- 50 -->
      <g transform="translate(70.815 260.24839) scale(0.1 -0.1)">
       <defs>
        <path id="DejaVuSans-35" d="M 691 4666 
L 3169 4666 
L 3169 4134 
L 1269 4134 
L 1269 2991 
Q 1406 3038 1543 3061 
Q 1681 3084 1819 3084 
Q 2600 3084 3056 2656 
Q 3513 2228 3513 1497 
Q 3513 744 3044 326 
Q 2575 -91 1722 -91 
Q 1428 -91 1123 -41 
Q 819 9 494 109 
L 494 744 
Q 775 591 1075 516 
Q 1375 441 1709 441 
Q 2250 441 2565 725 
Q 2881 1009 2881 1497 
Q 2881 1984 2565 2268 
Q 2250 2553 1709 2553 
Q 1456 2553 1204 2497 
Q 953 2441 691 2322 
L 691 4666 
z
" transform="scale(0.015625)"/>
       </defs>
       <use xlink:href="#DejaVuSans-35"/>
       <use xlink:href="#DejaVuSans-30" x="63.623047"/>
      </g>
     </g>
    </g>
    <g id="ytick_3">
     <g id="line2d_9">
      <g>
       <use xlink:href="#ma1a21ddaaf" x="90.54" y="215.872937" style="stroke: #000000; stroke-width: 0.8"/>
      </g>
     </g>
     <g id="text_10">
      <!-- 60 -->
      <g transform="translate(70.815 219.672156) scale(0.1 -0.1)">
       <use xlink:href="#DejaVuSans-36"/>
       <use xlink:href="#DejaVuSans-30" x="63.623047"/>
      </g>
     </g>
    </g>
    <g id="ytick_4">
     <g id="line2d_10">
      <g>
       <use xlink:href="#ma1a21ddaaf" x="90.54" y="175.296703" style="stroke: #000000; stroke-width: 0.8"/>
      </g>
     </g>
     <g id="text_11">
      <!-- 70 -->
      <g transform="translate(70.815 179.095922) scale(0.1 -0.1)">
       <defs>
        <path id="DejaVuSans-37" d="M 525 4666 
L 3525 4666 
L 3525 4397 
L 1831 0 
L 1172 0 
L 2766 4134 
L 525 4134 
L 525 4666 
z
" transform="scale(0.015625)"/>
       </defs>
       <use xlink:href="#DejaVuSans-37"/>
       <use xlink:href="#DejaVuSans-30" x="63.623047"/>
      </g>
     </g>
    </g>
    <g id="ytick_5">
     <g id="line2d_11">
      <g>
       <use xlink:href="#ma1a21ddaaf" x="90.54" y="134.720469" style="stroke: #000000; stroke-width: 0.8"/>
      </g>
     </g>
     <g id="text_12">
      <!-- 80 -->
      <g transform="translate(70.815 138.519687) scale(0.1 -0.1)">
       <use xlink:href="#DejaVuSans-38"/>
       <use xlink:href="#DejaVuSans-30" x="63.623047"/>
      </g>
     </g>
    </g>
    <g id="ytick_6">
     <g id="line2d_12">
      <g>
       <use xlink:href="#ma1a21ddaaf" x="90.54" y="94.144234" style="stroke: #000000; stroke-width: 0.8"/>
      </g>
     </g>
     <g id="text_13">
      <!-- 90 -->
      <g transform="translate(70.815 97.943453) scale(0.1 -0.1)">
       <defs>
        <path id="DejaVuSans-39" d="M 703 97 
L 703 672 
Q 941 559 1184 500 
Q 1428 441 1663 441 
Q 2288 441 2617 861 
Q 2947 1281 2994 2138 
Q 2813 1869 2534 1725 
Q 2256 1581 1919 1581 
Q 1219 1581 811 2004 
Q 403 2428 403 3163 
Q 403 3881 828 4315 
Q 1253 4750 1959 4750 
Q 2769 4750 3195 4129 
Q 3622 3509 3622 2328 
Q 3622 1225 3098 567 
Q 2575 -91 1691 -91 
Q 1453 -91 1209 -44 
Q 966 3 703 97 
z
M 1959 2075 
Q 2384 2075 2632 2365 
Q 2881 2656 2881 3163 
Q 2881 3666 2632 3958 
Q 2384 4250 1959 4250 
Q 1534 4250 1286 3958 
Q 1038 3666 1038 3163 
Q 1038 2656 1286 2365 
Q 1534 2075 1959 2075 
z
" transform="scale(0.015625)"/>
       </defs>
       <use xlink:href="#DejaVuSans-39"/>
       <use xlink:href="#DejaVuSans-30" x="63.623047"/>
      </g>
     </g>
    </g>
    <g id="ytick_7">
     <g id="line2d_13">
      <g>
       <use xlink:href="#ma1a21ddaaf" x="90.54" y="53.568" style="stroke: #000000; stroke-width: 0.8"/>
      </g>
     </g>
     <g id="text_14">
      <!-- 100 -->
      <g transform="translate(64.4525 57.367219) scale(0.1 -0.1)">
       <use xlink:href="#DejaVuSans-31"/>
       <use xlink:href="#DejaVuSans-30" x="63.623047"/>
       <use xlink:href="#DejaVuSans-30" x="127.246094"/>
      </g>
     </g>
    </g>
    <g id="text_15">
     <!-- Temperature [ºC] -->
     <g transform="translate(58.372812 217.535812) rotate(-90) scale(0.1 -0.1)">
      <defs>
       <path id="DejaVuSans-54" d="M -19 4666 
L 3928 4666 
L 3928 4134 
L 2272 4134 
L 2272 0 
L 1638 0 
L 1638 4134 
L -19 4134 
L -19 4666 
z
" transform="scale(0.015625)"/>
       <path id="DejaVuSans-70" d="M 1159 525 
L 1159 -1331 
L 581 -1331 
L 581 3500 
L 1159 3500 
L 1159 2969 
Q 1341 3281 1617 3432 
Q 1894 3584 2278 3584 
Q 2916 3584 3314 3078 
Q 3713 2572 3713 1747 
Q 3713 922 3314 415 
Q 2916 -91 2278 -91 
Q 1894 -91 1617 61 
Q 1341 213 1159 525 
z
M 3116 1747 
Q 3116 2381 2855 2742 
Q 2594 3103 2138 3103 
Q 1681 3103 1420 2742 
Q 1159 2381 1159 1747 
Q 1159 1113 1420 752 
Q 1681 391 2138 391 
Q 2594 391 2855 752 
Q 3116 1113 3116 1747 
z
" transform="scale(0.015625)"/>
       <path id="DejaVuSans-72" d="M 2631 2963 
Q 2534 3019 2420 3045 
Q 2306 3072 2169 3072 
Q 1681 3072 1420 2755 
Q 1159 2438 1159 1844 
L 1159 0 
L 581 0 
L 581 3500 
L 1159 3500 
L 1159 2956 
Q 1341 3275 1631 3429 
Q 1922 3584 2338 3584 
Q 2397 3584 2469 3576 
Q 2541 3569 2628 3553 
L 2631 2963 
z
" transform="scale(0.015625)"/>
       <path id="DejaVuSans-75" d="M 544 1381 
L 544 3500 
L 1119 3500 
L 1119 1403 
Q 1119 906 1312 657 
Q 1506 409 1894 409 
Q 2359 409 2629 706 
Q 2900 1003 2900 1516 
L 2900 3500 
L 3475 3500 
L 3475 0 
L 2900 0 
L 2900 538 
Q 2691 219 2414 64 
Q 2138 -91 1772 -91 
Q 1169 -91 856 284 
Q 544 659 544 1381 
z
M 1991 3584 
L 1991 3584 
z
" transform="scale(0.015625)"/>
       <path id="DejaVuSans-ba" d="M 434 1850 
L 2584 1850 
L 2584 1466 
L 434 1466 
L 434 1850 
z
M 1509 4750 
Q 2069 4750 2391 4404 
Q 2713 4059 2713 3463 
Q 2713 2866 2391 2523 
Q 2069 2181 1509 2181 
Q 950 2181 625 2525 
Q 300 2869 300 3463 
Q 300 4059 625 4404 
Q 950 4750 1509 4750 
z
M 1509 4391 
Q 1181 4391 984 4139 
Q 788 3888 788 3463 
Q 788 3047 986 2797 
Q 1184 2547 1509 2547 
Q 1838 2547 2033 2797 
Q 2228 3047 2228 3463 
Q 2228 3891 2034 4141 
Q 1841 4391 1509 4391 
z
" transform="scale(0.015625)"/>
       <path id="DejaVuSans-43" d="M 4122 4306 
L 4122 3641 
Q 3803 3938 3442 4084 
Q 3081 4231 2675 4231 
Q 1875 4231 1450 3742 
Q 1025 3253 1025 2328 
Q 1025 1406 1450 917 
Q 1875 428 2675 428 
Q 3081 428 3442 575 
Q 3803 722 4122 1019 
L 4122 359 
Q 3791 134 3420 21 
Q 3050 -91 2638 -91 
Q 1578 -91 968 557 
Q 359 1206 359 2328 
Q 359 3453 968 4101 
Q 1578 4750 2638 4750 
Q 3056 4750 3426 4639 
Q 3797 4528 4122 4306 
z
" transform="scale(0.015625)"/>
      </defs>
      <use xlink:href="#DejaVuSans-54"/>
      <use xlink:href="#DejaVuSans-65" x="44.083984"/>
      <use xlink:href="#DejaVuSans-6d" x="105.607422"/>
      <use xlink:href="#DejaVuSans-70" x="203.019531"/>
      <use xlink:href="#DejaVuSans-65" x="266.496094"/>
      <use xlink:href="#DejaVuSans-72" x="328.019531"/>
      <use xlink:href="#DejaVuSans-61" x="369.132812"/>
      <use xlink:href="#DejaVuSans-74" x="430.412109"/>
      <use xlink:href="#DejaVuSans-75" x="469.621094"/>
      <use xlink:href="#DejaVuSans-72" x="533"/>
      <use xlink:href="#DejaVuSans-65" x="571.863281"/>
      <use xlink:href="#DejaVuSans-20" x="633.386719"/>
      <use xlink:href="#DejaVuSans-5b" x="665.173828"/>
      <use xlink:href="#DejaVuSans-ba" x="704.1875"/>
      <use xlink:href="#DejaVuSans-43" x="751.306641"/>
      <use xlink:href="#DejaVuSans-5d" x="821.130859"/>
     </g>
    </g>
   </g>
   <g id="line2d_14">
    <path d="M 102.138099 53.568 
L 104.48115 57.474649 
L 106.8242 61.320104 
L 109.16725 65.105099 
L 111.510301 68.830355 
L 113.853351 72.496583 
L 116.196401 76.104484 
L 118.539452 79.654745 
L 120.882502 83.148043 
L 123.225552 86.585047 
L 125.568603 89.96641 
L 127.911653 93.292779 
L 130.254703 96.564788 
L 132.597754 99.783062 
L 134.940804 102.948214 
L 137.283854 106.060849 
L 139.626905 109.12156 
L 141.969955 112.130932 
L 144.313005 115.089538 
L 146.656056 117.997944 
L 148.999106 120.856704 
L 151.342156 123.666364 
L 153.685207 126.427459 
L 156.028257 129.140518 
L 158.371307 131.806057 
L 160.714358 134.424584 
L 163.057408 136.996601 
L 165.400458 139.522597 
L 167.743509 142.003054 
L 170.086559 144.438446 
L 172.429609 146.829238 
L 174.77266 149.175885 
L 177.11571 151.478835 
L 179.45876 153.738529 
L 181.801811 155.955396 
L 184.144861 158.129861 
L 186.487911 160.262337 
L 188.830962 162.353232 
L 191.174012 164.402946 
L 193.517062 166.411868 
L 195.860113 168.380382 
L 198.203163 170.308864 
L 200.546213 172.197682 
L 202.889264 174.047196 
L 205.232314 175.85776 
L 207.575364 177.629718 
L 209.918415 179.363409 
L 212.261465 181.059164 
L 214.604515 182.717305 
L 216.947566 184.33815 
L 219.290616 185.922008 
L 221.633666 187.469182 
L 223.976717 188.979965 
L 226.319767 190.454647 
L 228.662817 191.893509 
L 231.005868 193.296825 
L 233.348918 194.664864 
L 235.691968 195.997886 
L 238.035019 197.296145 
L 240.378069 198.55989 
L 242.721119 199.789362 
L 245.06417 200.984795 
L 247.40722 202.146417 
L 249.75027 203.274449 
L 252.093321 204.369108 
L 254.436371 205.430602 
L 256.779421 206.459134 
L 259.122472 207.454899 
L 261.465522 208.418088 
L 263.808573 209.348885 
L 266.151623 210.247467 
L 268.494673 211.114005 
L 270.837724 211.948666 
L 273.180774 212.751608 
L 275.523824 213.522984 
L 277.866875 214.262942 
L 280.209925 214.971623 
L 282.552975 215.649162 
L 284.896026 216.295688 
L 287.239076 216.911325 
L 289.582126 217.496191 
L 291.925177 218.050396 
L 294.268227 218.574047 
L 296.611277 219.067243 
L 298.954328 219.530079 
L 301.297378 219.962643 
L 303.640428 220.365017 
L 305.983479 220.737278 
L 308.326529 221.079498 
L 310.669579 221.391741 
L 313.01263 221.674068 
L 315.35568 221.926531 
L 317.69873 222.14918 
L 320.041781 222.342056 
L 322.384831 222.505197 
L 324.727881 222.638634 
L 327.070932 222.742391 
L 329.413982 222.816489 
L 331.757032 222.860943 
L 334.100083 222.87576 
" clip-path="url(#p53615cd789)" style="fill: none; stroke: #1f77b4; stroke-width: 1.5; stroke-linecap: square"/>
   </g>
   <g id="line2d_15">
    <path d="M 102.138099 53.568 
L 104.48115 57.480469 
L 106.8242 61.331744 
L 109.16725 65.122561 
L 111.510301 68.853643 
L 113.853351 72.525702 
L 116.196401 76.139438 
L 118.539452 79.695541 
L 120.882502 83.194691 
L 123.225552 86.637553 
L 125.568603 90.024786 
L 127.911653 93.357035 
L 130.254703 96.634937 
L 132.597754 99.859116 
L 134.940804 103.030189 
L 137.283854 106.14876 
L 139.626905 109.215424 
L 141.969955 112.230767 
L 144.313005 115.195363 
L 146.656056 118.109779 
L 148.999106 120.974571 
L 151.342156 123.790284 
L 153.685207 126.557458 
L 156.028257 129.276619 
L 158.371307 131.948286 
L 160.714358 134.572969 
L 163.057408 137.151169 
L 165.400458 139.683378 
L 167.743509 142.17008 
L 170.086559 144.611748 
L 172.429609 147.008848 
L 174.77266 149.361839 
L 177.11571 151.671168 
L 179.45876 153.937277 
L 181.801811 156.160597 
L 184.144861 158.341554 
L 186.487911 160.480564 
L 188.830962 162.578033 
L 191.174012 164.634364 
L 193.517062 166.649948 
L 195.860113 168.625169 
L 198.203163 170.560405 
L 200.546213 172.456024 
L 202.889264 174.31239 
L 205.232314 176.129855 
L 207.575364 177.908766 
L 209.918415 179.649464 
L 212.261465 181.35228 
L 214.604515 183.017539 
L 216.947566 184.645559 
L 219.290616 186.23665 
L 221.633666 187.791116 
L 223.976717 189.309254 
L 226.319767 190.791354 
L 228.662817 192.237698 
L 231.005868 193.648561 
L 233.348918 195.024215 
L 235.691968 196.36492 
L 238.035019 197.670932 
L 240.378069 198.942502 
L 242.721119 200.179871 
L 245.06417 201.383276 
L 247.40722 202.552946 
L 249.75027 203.689105 
L 252.093321 204.791969 
L 254.436371 205.861748 
L 256.779421 206.898648 
L 259.122472 207.902865 
L 261.465522 208.874591 
L 263.808573 209.814012 
L 266.151623 210.721307 
L 268.494673 211.596649 
L 270.837724 212.440205 
L 273.180774 213.252136 
L 275.523824 214.032598 
L 277.866875 214.781738 
L 280.209925 215.4997 
L 282.552975 216.186621 
L 284.896026 216.842631 
L 287.239076 217.467857 
L 289.582126 218.062418 
L 291.925177 218.626426 
L 294.268227 219.15999 
L 296.611277 219.663211 
L 298.954328 220.136185 
L 301.297378 220.579003 
L 303.640428 220.991749 
L 305.983479 221.374502 
L 308.326529 221.727335 
L 310.669579 222.050314 
L 313.01263 222.343503 
L 315.35568 222.606956 
L 317.69873 222.840725 
L 320.041781 223.044853 
L 322.384831 223.21938 
L 324.727881 223.364338 
L 327.070932 223.479756 
L 329.413982 223.565656 
L 331.757032 223.622053 
L 334.100083 223.64896 
" clip-path="url(#p53615cd789)" style="fill: none; stroke: #ff7f0e; stroke-width: 1.5; stroke-linecap: square"/>
   </g>
   <g id="line2d_16">
    <path d="M 102.138099 53.568 
L 104.48115 58.02114 
L 106.8242 62.413189 
L 109.16725 66.744987 
L 111.510301 71.017359 
L 113.853351 75.231121 
L 116.196401 79.387077 
L 118.539452 83.486019 
L 120.882502 87.52873 
L 123.225552 91.515982 
L 125.568603 95.448535 
L 127.911653 99.327139 
L 130.254703 103.152535 
L 132.597754 106.925453 
L 134.940804 110.646612 
L 137.283854 114.316722 
L 139.626905 117.936484 
L 141.969955 121.506589 
L 144.313005 125.027718 
L 146.656056 128.500542 
L 148.999106 131.925724 
L 151.342156 135.303919 
L 153.685207 138.63577 
L 156.028257 141.921913 
L 158.371307 145.162975 
L 160.714358 148.359575 
L 163.057408 151.512323 
L 165.400458 154.621819 
L 167.743509 157.688659 
L 170.086559 160.713426 
L 172.429609 163.696698 
L 174.77266 166.639044 
L 177.11571 169.541026 
L 179.45876 172.403197 
L 181.801811 175.226104 
L 184.144861 178.010285 
L 186.487911 180.756271 
L 188.830962 183.464587 
L 191.174012 186.135749 
L 193.517062 188.770266 
L 195.860113 191.368642 
L 198.203163 193.931373 
L 200.546213 196.458947 
L 202.889264 198.951846 
L 205.232314 201.410547 
L 207.575364 203.835518 
L 209.918415 206.227223 
L 212.261465 208.586117 
L 214.604515 210.91265 
L 216.947566 213.207268 
L 219.290616 215.470406 
L 221.633666 217.702498 
L 223.976717 219.903969 
L 226.319767 222.07524 
L 228.662817 224.216724 
L 231.005868 226.32883 
L 233.348918 228.411961 
L 235.691968 230.466515 
L 238.035019 232.492884 
L 240.378069 234.491455 
L 242.721119 236.462607 
L 245.06417 238.406719 
L 247.40722 240.324161 
L 249.75027 242.215298 
L 252.093321 244.080492 
L 254.436371 245.920098 
L 256.779421 247.734468 
L 259.122472 249.523948 
L 261.465522 251.288878 
L 263.808573 253.029597 
L 266.151623 254.746436 
L 268.494673 256.439722 
L 270.837724 258.109779 
L 273.180774 259.756925 
L 275.523824 261.381476 
L 277.866875 262.98374 
L 280.209925 264.564023 
L 282.552975 266.122627 
L 284.896026 267.65985 
L 287.239076 269.175984 
L 289.582126 270.67132 
L 291.925177 272.146142 
L 294.268227 273.600731 
L 296.611277 275.035366 
L 298.954328 276.45032 
L 301.297378 277.845863 
L 303.640428 279.222261 
L 305.983479 280.579777 
L 308.326529 281.918671 
L 310.669579 283.239196 
L 313.01263 284.541607 
L 315.35568 285.82615 
L 317.69873 287.093071 
L 320.041781 288.342612 
L 322.384831 289.575011 
L 324.727881 290.790504 
L 327.070932 291.989322 
L 329.413982 293.171694 
L 331.757032 294.337846 
L 334.100083 295.488 
" clip-path="url(#p53615cd789)" style="fill: none; stroke: #2ca02c; stroke-width: 1.5; stroke-linecap: square"/>
   </g>
   <g id="patch_3">
    <path d="M 90.54 307.584 
L 90.54 41.472 
" style="fill: none; stroke: #000000; stroke-width: 0.8; stroke-linejoin: miter; stroke-linecap: square"/>
   </g>
   <g id="patch_4">
    <path d="M 345.698182 307.584 
L 345.698182 41.472 
" style="fill: none; stroke: #000000; stroke-width: 0.8; stroke-linejoin: miter; stroke-linecap: square"/>
   </g>
   <g id="patch_5">
    <path d="M 90.54 307.584 
L 345.698182 307.584 
" style="fill: none; stroke: #000000; stroke-width: 0.8; stroke-linejoin: miter; stroke-linecap: square"/>
   </g>
   <g id="patch_6">
    <path d="M 90.54 41.472 
L 345.698182 41.472 
" style="fill: none; stroke: #000000; stroke-width: 0.8; stroke-linejoin: miter; stroke-linecap: square"/>
   </g>
   <g id="text_16">
    <!-- V = 7.5 [m/s] -->
    <g transform="translate(178.051278 35.472) scale(0.12 -0.12)">
     <defs>
      <path id="DejaVuSans-56" d="M 1831 0 
L 50 4666 
L 709 4666 
L 2188 738 
L 3669 4666 
L 4325 4666 
L 2547 0 
L 1831 0 
z
" transform="scale(0.015625)"/>
      <path id="DejaVuSans-3d" d="M 678 2906 
L 4684 2906 
L 4684 2381 
L 678 2381 
L 678 2906 
z
M 678 1631 
L 4684 1631 
L 4684 1100 
L 678 1100 
L 678 1631 
z
" transform="scale(0.015625)"/>
      <path id="DejaVuSans-2f" d="M 1625 4666 
L 2156 4666 
L 531 -594 
L 0 -594 
L 1625 4666 
z
" transform="scale(0.015625)"/>
     </defs>
     <use xlink:href="#DejaVuSans-56"/>
     <use xlink:href="#DejaVuSans-20" x="68.408203"/>
     <use xlink:href="#DejaVuSans-3d" x="100.195312"/>
     <use xlink:href="#DejaVuSans-20" x="183.984375"/>
     <use xlink:href="#DejaVuSans-37" x="215.771484"/>
     <use xlink:href="#DejaVuSans-2e" x="279.394531"/>
     <use xlink:href="#DejaVuSans-35" x="311.181641"/>
     <use xlink:href="#DejaVuSans-20" x="374.804688"/>
     <use xlink:href="#DejaVuSans-5b" x="406.591797"/>
     <use xlink:href="#DejaVuSans-6d" x="445.605469"/>
     <use xlink:href="#DejaVuSans-2f" x="543.017578"/>
     <use xlink:href="#DejaVuSans-73" x="576.708984"/>
     <use xlink:href="#DejaVuSans-5d" x="628.808594"/>
    </g>
   </g>
   <g id="legend_1">
    <g id="patch_7">
     <path d="M 192.226307 93.506375 
L 338.698182 93.506375 
Q 340.698182 93.506375 340.698182 91.506375 
L 340.698182 48.472 
Q 340.698182 46.472 338.698182 46.472 
L 192.226307 46.472 
Q 190.226307 46.472 190.226307 48.472 
L 190.226307 91.506375 
Q 190.226307 93.506375 192.226307 93.506375 
z
" style="fill: #ffffff; opacity: 0.8; stroke: #cccccc; stroke-linejoin: miter"/>
    </g>
    <g id="line2d_17">
     <path d="M 194.226307 54.570438 
L 204.226307 54.570438 
L 214.226307 54.570438 
" style="fill: none; stroke: #1f77b4; stroke-width: 1.5; stroke-linecap: square"/>
    </g>
    <g id="text_17">
     <!-- Adiabatic Hypothesis -->
     <g transform="translate(222.226307 58.070438) scale(0.1 -0.1)">
      <defs>
       <path id="DejaVuSans-41" d="M 2188 4044 
L 1331 1722 
L 3047 1722 
L 2188 4044 
z
M 1831 4666 
L 2547 4666 
L 4325 0 
L 3669 0 
L 3244 1197 
L 1141 1197 
L 716 0 
L 50 0 
L 1831 4666 
z
" transform="scale(0.015625)"/>
       <path id="DejaVuSans-64" d="M 2906 2969 
L 2906 4863 
L 3481 4863 
L 3481 0 
L 2906 0 
L 2906 525 
Q 2725 213 2448 61 
Q 2172 -91 1784 -91 
Q 1150 -91 751 415 
Q 353 922 353 1747 
Q 353 2572 751 3078 
Q 1150 3584 1784 3584 
Q 2172 3584 2448 3432 
Q 2725 3281 2906 2969 
z
M 947 1747 
Q 947 1113 1208 752 
Q 1469 391 1925 391 
Q 2381 391 2643 752 
Q 2906 1113 2906 1747 
Q 2906 2381 2643 2742 
Q 2381 3103 1925 3103 
Q 1469 3103 1208 2742 
Q 947 2381 947 1747 
z
" transform="scale(0.015625)"/>
       <path id="DejaVuSans-62" d="M 3116 1747 
Q 3116 2381 2855 2742 
Q 2594 3103 2138 3103 
Q 1681 3103 1420 2742 
Q 1159 2381 1159 1747 
Q 1159 1113 1420 752 
Q 1681 391 2138 391 
Q 2594 391 2855 752 
Q 3116 1113 3116 1747 
z
M 1159 2969 
Q 1341 3281 1617 3432 
Q 1894 3584 2278 3584 
Q 2916 3584 3314 3078 
Q 3713 2572 3713 1747 
Q 3713 922 3314 415 
Q 2916 -91 2278 -91 
Q 1894 -91 1617 61 
Q 1341 213 1159 525 
L 1159 0 
L 581 0 
L 581 4863 
L 1159 4863 
L 1159 2969 
z
" transform="scale(0.015625)"/>
       <path id="DejaVuSans-48" d="M 628 4666 
L 1259 4666 
L 1259 2753 
L 3553 2753 
L 3553 4666 
L 4184 4666 
L 4184 0 
L 3553 0 
L 3553 2222 
L 1259 2222 
L 1259 0 
L 628 0 
L 628 4666 
z
" transform="scale(0.015625)"/>
       <path id="DejaVuSans-79" d="M 2059 -325 
Q 1816 -950 1584 -1140 
Q 1353 -1331 966 -1331 
L 506 -1331 
L 506 -850 
L 844 -850 
Q 1081 -850 1212 -737 
Q 1344 -625 1503 -206 
L 1606 56 
L 191 3500 
L 800 3500 
L 1894 763 
L 2988 3500 
L 3597 3500 
L 2059 -325 
z
" transform="scale(0.015625)"/>
       <path id="DejaVuSans-6f" d="M 1959 3097 
Q 1497 3097 1228 2736 
Q 959 2375 959 1747 
Q 959 1119 1226 758 
Q 1494 397 1959 397 
Q 2419 397 2687 759 
Q 2956 1122 2956 1747 
Q 2956 2369 2687 2733 
Q 2419 3097 1959 3097 
z
M 1959 3584 
Q 2709 3584 3137 3096 
Q 3566 2609 3566 1747 
Q 3566 888 3137 398 
Q 2709 -91 1959 -91 
Q 1206 -91 779 398 
Q 353 888 353 1747 
Q 353 2609 779 3096 
Q 1206 3584 1959 3584 
z
" transform="scale(0.015625)"/>
       <path id="DejaVuSans-68" d="M 3513 2113 
L 3513 0 
L 2938 0 
L 2938 2094 
Q 2938 2591 2744 2837 
Q 2550 3084 2163 3084 
Q 1697 3084 1428 2787 
Q 1159 2491 1159 1978 
L 1159 0 
L 581 0 
L 581 4863 
L 1159 4863 
L 1159 2956 
Q 1366 3272 1645 3428 
Q 1925 3584 2291 3584 
Q 2894 3584 3203 3211 
Q 3513 2838 3513 2113 
z
" transform="scale(0.015625)"/>
      </defs>
      <use xlink:href="#DejaVuSans-41"/>
      <use xlink:href="#DejaVuSans-64" x="66.658203"/>
      <use xlink:href="#DejaVuSans-69" x="130.134766"/>
      <use xlink:href="#DejaVuSans-61" x="157.917969"/>
      <use xlink:href="#DejaVuSans-62" x="219.197266"/>
      <use xlink:href="#DejaVuSans-61" x="282.673828"/>
      <use xlink:href="#DejaVuSans-74" x="343.953125"/>
      <use xlink:href="#DejaVuSans-69" x="383.162109"/>
      <use xlink:href="#DejaVuSans-63" x="410.945312"/>
      <use xlink:href="#DejaVuSans-20" x="465.925781"/>
      <use xlink:href="#DejaVuSans-48" x="497.712891"/>
      <use xlink:href="#DejaVuSans-79" x="572.908203"/>
      <use xlink:href="#DejaVuSans-70" x="632.087891"/>
      <use xlink:href="#DejaVuSans-6f" x="695.564453"/>
      <use xlink:href="#DejaVuSans-74" x="756.746094"/>
      <use xlink:href="#DejaVuSans-68" x="795.955078"/>
      <use xlink:href="#DejaVuSans-65" x="859.333984"/>
      <use xlink:href="#DejaVuSans-73" x="920.857422"/>
      <use xlink:href="#DejaVuSans-69" x="972.957031"/>
      <use xlink:href="#DejaVuSans-73" x="1000.740234"/>
     </g>
    </g>
    <g id="line2d_18">
     <path d="M 194.226307 69.248563 
L 204.226307 69.248563 
L 214.226307 69.248563 
" style="fill: none; stroke: #ff7f0e; stroke-width: 1.5; stroke-linecap: square"/>
    </g>
    <g id="text_18">
     <!-- Convective Hypothesis -->
     <g transform="translate(222.226307 72.748563) scale(0.1 -0.1)">
      <defs>
       <path id="DejaVuSans-76" d="M 191 3500 
L 800 3500 
L 1894 563 
L 2988 3500 
L 3597 3500 
L 2284 0 
L 1503 0 
L 191 3500 
z
" transform="scale(0.015625)"/>
      </defs>
      <use xlink:href="#DejaVuSans-43"/>
      <use xlink:href="#DejaVuSans-6f" x="69.824219"/>
      <use xlink:href="#DejaVuSans-6e" x="131.005859"/>
      <use xlink:href="#DejaVuSans-76" x="194.384766"/>
      <use xlink:href="#DejaVuSans-65" x="253.564453"/>
      <use xlink:href="#DejaVuSans-63" x="315.087891"/>
      <use xlink:href="#DejaVuSans-74" x="370.068359"/>
      <use xlink:href="#DejaVuSans-69" x="409.277344"/>
      <use xlink:href="#DejaVuSans-76" x="437.060547"/>
      <use xlink:href="#DejaVuSans-65" x="496.240234"/>
      <use xlink:href="#DejaVuSans-20" x="557.763672"/>
      <use xlink:href="#DejaVuSans-48" x="589.550781"/>
      <use xlink:href="#DejaVuSans-79" x="664.746094"/>
      <use xlink:href="#DejaVuSans-70" x="723.925781"/>
      <use xlink:href="#DejaVuSans-6f" x="787.402344"/>
      <use xlink:href="#DejaVuSans-74" x="848.583984"/>
      <use xlink:href="#DejaVuSans-68" x="887.792969"/>
      <use xlink:href="#DejaVuSans-65" x="951.171875"/>
      <use xlink:href="#DejaVuSans-73" x="1012.695312"/>
      <use xlink:href="#DejaVuSans-69" x="1064.794922"/>
      <use xlink:href="#DejaVuSans-73" x="1092.578125"/>
     </g>
    </g>
    <g id="line2d_19">
     <path d="M 194.226307 83.926688 
L 204.226307 83.926688 
L 214.226307 83.926688 
" style="fill: none; stroke: #2ca02c; stroke-width: 1.5; stroke-linecap: square"/>
    </g>
    <g id="text_19">
     <!-- Infinite Hypothesis -->
     <g transform="translate(222.226307 87.426688) scale(0.1 -0.1)">
      <defs>
       <path id="DejaVuSans-49" d="M 628 4666 
L 1259 4666 
L 1259 0 
L 628 0 
L 628 4666 
z
" transform="scale(0.015625)"/>
       <path id="DejaVuSans-66" d="M 2375 4863 
L 2375 4384 
L 1825 4384 
Q 1516 4384 1395 4259 
Q 1275 4134 1275 3809 
L 1275 3500 
L 2222 3500 
L 2222 3053 
L 1275 3053 
L 1275 0 
L 697 0 
L 697 3053 
L 147 3053 
L 147 3500 
L 697 3500 
L 697 3744 
Q 697 4328 969 4595 
Q 1241 4863 1831 4863 
L 2375 4863 
z
" transform="scale(0.015625)"/>
      </defs>
      <use xlink:href="#DejaVuSans-49"/>
      <use xlink:href="#DejaVuSans-6e" x="29.492188"/>
      <use xlink:href="#DejaVuSans-66" x="92.871094"/>
      <use xlink:href="#DejaVuSans-69" x="128.076172"/>
      <use xlink:href="#DejaVuSans-6e" x="155.859375"/>
      <use xlink:href="#DejaVuSans-69" x="219.238281"/>
      <use xlink:href="#DejaVuSans-74" x="247.021484"/>
      <use xlink:href="#DejaVuSans-65" x="286.230469"/>
      <use xlink:href="#DejaVuSans-20" x="347.753906"/>
      <use xlink:href="#DejaVuSans-48" x="379.541016"/>
      <use xlink:href="#DejaVuSans-79" x="454.736328"/>
      <use xlink:href="#DejaVuSans-70" x="513.916016"/>
      <use xlink:href="#DejaVuSans-6f" x="577.392578"/>
      <use xlink:href="#DejaVuSans-74" x="638.574219"/>
      <use xlink:href="#DejaVuSans-68" x="677.783203"/>
      <use xlink:href="#DejaVuSans-65" x="741.162109"/>
      <use xlink:href="#DejaVuSans-73" x="802.685547"/>
      <use xlink:href="#DejaVuSans-69" x="854.785156"/>
      <use xlink:href="#DejaVuSans-73" x="882.568359"/>
     </g>
    </g>
   </g>
  </g>
  <g id="axes_2">
   <g id="patch_8">
    <path d="M 396.729818 307.584 
L 651.888 307.584 
L 651.888 41.472 
L 396.729818 41.472 
z
" style="fill: #ffffff"/>
   </g>
   <g id="matplotlib.axis_3">
    <g id="xtick_7">
     <g id="line2d_20">
      <g>
       <use xlink:href="#m8f35b626b8" x="408.327917" y="307.584" style="stroke: #000000; stroke-width: 0.8"/>
      </g>
     </g>
     <g id="text_20">
      <!-- 0.00 -->
      <g transform="translate(397.195105 322.182437) scale(0.1 -0.1)">
       <use xlink:href="#DejaVuSans-30"/>
       <use xlink:href="#DejaVuSans-2e" x="63.623047"/>
       <use xlink:href="#DejaVuSans-30" x="95.410156"/>
       <use xlink:href="#DejaVuSans-30" x="159.033203"/>
      </g>
     </g>
    </g>
    <g id="xtick_8">
     <g id="line2d_21">
      <g>
       <use xlink:href="#m8f35b626b8" x="454.720314" y="307.584" style="stroke: #000000; stroke-width: 0.8"/>
      </g>
     </g>
     <g id="text_21">
      <!-- 0.02 -->
      <g transform="translate(443.587502 322.182437) scale(0.1 -0.1)">
       <use xlink:href="#DejaVuSans-30"/>
       <use xlink:href="#DejaVuSans-2e" x="63.623047"/>
       <use xlink:href="#DejaVuSans-30" x="95.410156"/>
       <use xlink:href="#DejaVuSans-32" x="159.033203"/>
      </g>
     </g>
    </g>
    <g id="xtick_9">
     <g id="line2d_22">
      <g>
       <use xlink:href="#m8f35b626b8" x="501.112711" y="307.584" style="stroke: #000000; stroke-width: 0.8"/>
      </g>
     </g>
     <g id="text_22">
      <!-- 0.04 -->
      <g transform="translate(489.979898 322.182437) scale(0.1 -0.1)">
       <use xlink:href="#DejaVuSans-30"/>
       <use xlink:href="#DejaVuSans-2e" x="63.623047"/>
       <use xlink:href="#DejaVuSans-30" x="95.410156"/>
       <use xlink:href="#DejaVuSans-34" x="159.033203"/>
      </g>
     </g>
    </g>
    <g id="xtick_10">
     <g id="line2d_23">
      <g>
       <use xlink:href="#m8f35b626b8" x="547.505107" y="307.584" style="stroke: #000000; stroke-width: 0.8"/>
      </g>
     </g>
     <g id="text_23">
      <!-- 0.06 -->
      <g transform="translate(536.372295 322.182437) scale(0.1 -0.1)">
       <use xlink:href="#DejaVuSans-30"/>
       <use xlink:href="#DejaVuSans-2e" x="63.623047"/>
       <use xlink:href="#DejaVuSans-30" x="95.410156"/>
       <use xlink:href="#DejaVuSans-36" x="159.033203"/>
      </g>
     </g>
    </g>
    <g id="xtick_11">
     <g id="line2d_24">
      <g>
       <use xlink:href="#m8f35b626b8" x="593.897504" y="307.584" style="stroke: #000000; stroke-width: 0.8"/>
      </g>
     </g>
     <g id="text_24">
      <!-- 0.08 -->
      <g transform="translate(582.764692 322.182437) scale(0.1 -0.1)">
       <use xlink:href="#DejaVuSans-30"/>
       <use xlink:href="#DejaVuSans-2e" x="63.623047"/>
       <use xlink:href="#DejaVuSans-30" x="95.410156"/>
       <use xlink:href="#DejaVuSans-38" x="159.033203"/>
      </g>
     </g>
    </g>
    <g id="xtick_12">
     <g id="line2d_25">
      <g>
       <use xlink:href="#m8f35b626b8" x="640.289901" y="307.584" style="stroke: #000000; stroke-width: 0.8"/>
      </g>
     </g>
     <g id="text_25">
      <!-- 0.10 -->
      <g transform="translate(629.157088 322.182437) scale(0.1 -0.1)">
       <use xlink:href="#DejaVuSans-30"/>
       <use xlink:href="#DejaVuSans-2e" x="63.623047"/>
       <use xlink:href="#DejaVuSans-31" x="95.410156"/>
       <use xlink:href="#DejaVuSans-30" x="159.033203"/>
      </g>
     </g>
    </g>
    <g id="text_26">
     <!-- Distance [m] -->
     <g transform="translate(492.085472 335.860562) scale(0.1 -0.1)">
      <use xlink:href="#DejaVuSans-44"/>
      <use xlink:href="#DejaVuSans-69" x="77.001953"/>
      <use xlink:href="#DejaVuSans-73" x="104.785156"/>
      <use xlink:href="#DejaVuSans-74" x="156.884766"/>
      <use xlink:href="#DejaVuSans-61" x="196.09375"/>
      <use xlink:href="#DejaVuSans-6e" x="257.373047"/>
      <use xlink:href="#DejaVuSans-63" x="320.751953"/>
      <use xlink:href="#DejaVuSans-65" x="375.732422"/>
      <use xlink:href="#DejaVuSans-20" x="437.255859"/>
      <use xlink:href="#DejaVuSans-5b" x="469.042969"/>
      <use xlink:href="#DejaVuSans-6d" x="508.056641"/>
      <use xlink:href="#DejaVuSans-5d" x="605.46875"/>
     </g>
    </g>
   </g>
   <g id="matplotlib.axis_4">
    <g id="ytick_8">
     <g id="line2d_26">
      <g>
       <use xlink:href="#ma1a21ddaaf" x="396.729818" y="288.685053" style="stroke: #000000; stroke-width: 0.8"/>
      </g>
     </g>
     <g id="text_27">
      <!-- 40 -->
      <g transform="translate(377.004818 292.484272) scale(0.1 -0.1)">
       <use xlink:href="#DejaVuSans-34"/>
       <use xlink:href="#DejaVuSans-30" x="63.623047"/>
      </g>
     </g>
    </g>
    <g id="ytick_9">
     <g id="line2d_27">
      <g>
       <use xlink:href="#ma1a21ddaaf" x="396.729818" y="249.498878" style="stroke: #000000; stroke-width: 0.8"/>
      </g>
     </g>
     <g id="text_28">
      <!-- 50 -->
      <g transform="translate(377.004818 253.298097) scale(0.1 -0.1)">
       <use xlink:href="#DejaVuSans-35"/>
       <use xlink:href="#DejaVuSans-30" x="63.623047"/>
      </g>
     </g>
    </g>
    <g id="ytick_10">
     <g id="line2d_28">
      <g>
       <use xlink:href="#ma1a21ddaaf" x="396.729818" y="210.312702" style="stroke: #000000; stroke-width: 0.8"/>
      </g>
     </g>
     <g id="text_29">
      <!-- 60 -->
      <g transform="translate(377.004818 214.111921) scale(0.1 -0.1)">
       <use xlink:href="#DejaVuSans-36"/>
       <use xlink:href="#DejaVuSans-30" x="63.623047"/>
      </g>
     </g>
    </g>
    <g id="ytick_11">
     <g id="line2d_29">
      <g>
       <use xlink:href="#ma1a21ddaaf" x="396.729818" y="171.126527" style="stroke: #000000; stroke-width: 0.8"/>
      </g>
     </g>
     <g id="text_30">
      <!-- 70 -->
      <g transform="translate(377.004818 174.925745) scale(0.1 -0.1)">
       <use xlink:href="#DejaVuSans-37"/>
       <use xlink:href="#DejaVuSans-30" x="63.623047"/>
      </g>
     </g>
    </g>
    <g id="ytick_12">
     <g id="line2d_30">
      <g>
       <use xlink:href="#ma1a21ddaaf" x="396.729818" y="131.940351" style="stroke: #000000; stroke-width: 0.8"/>
      </g>
     </g>
     <g id="text_31">
      <!-- 80 -->
      <g transform="translate(377.004818 135.73957) scale(0.1 -0.1)">
       <use xlink:href="#DejaVuSans-38"/>
       <use xlink:href="#DejaVuSans-30" x="63.623047"/>
      </g>
     </g>
    </g>
    <g id="ytick_13">
     <g id="line2d_31">
      <g>
       <use xlink:href="#ma1a21ddaaf" x="396.729818" y="92.754176" style="stroke: #000000; stroke-width: 0.8"/>
      </g>
     </g>
     <g id="text_32">
      <!-- 90 -->
      <g transform="translate(377.004818 96.553394) scale(0.1 -0.1)">
       <use xlink:href="#DejaVuSans-39"/>
       <use xlink:href="#DejaVuSans-30" x="63.623047"/>
      </g>
     </g>
    </g>
    <g id="ytick_14">
     <g id="line2d_32">
      <g>
       <use xlink:href="#ma1a21ddaaf" x="396.729818" y="53.568" style="stroke: #000000; stroke-width: 0.8"/>
      </g>
     </g>
     <g id="text_33">
      <!-- 100 -->
      <g transform="translate(370.642318 57.367219) scale(0.1 -0.1)">
       <use xlink:href="#DejaVuSans-31"/>
       <use xlink:href="#DejaVuSans-30" x="63.623047"/>
       <use xlink:href="#DejaVuSans-30" x="127.246094"/>
      </g>
     </g>
    </g>
    <g id="text_34">
     <!-- Temperature [ºC] -->
     <g transform="translate(364.562631 217.535812) rotate(-90) scale(0.1 -0.1)">
      <use xlink:href="#DejaVuSans-54"/>
      <use xlink:href="#DejaVuSans-65" x="44.083984"/>
      <use xlink:href="#DejaVuSans-6d" x="105.607422"/>
      <use xlink:href="#DejaVuSans-70" x="203.019531"/>
      <use xlink:href="#DejaVuSans-65" x="266.496094"/>
      <use xlink:href="#DejaVuSans-72" x="328.019531"/>
      <use xlink:href="#DejaVuSans-61" x="369.132812"/>
      <use xlink:href="#DejaVuSans-74" x="430.412109"/>
      <use xlink:href="#DejaVuSans-75" x="469.621094"/>
      <use xlink:href="#DejaVuSans-72" x="533"/>
      <use xlink:href="#DejaVuSans-65" x="571.863281"/>
      <use xlink:href="#DejaVuSans-20" x="633.386719"/>
      <use xlink:href="#DejaVuSans-5b" x="665.173828"/>
      <use xlink:href="#DejaVuSans-ba" x="704.1875"/>
      <use xlink:href="#DejaVuSans-43" x="751.306641"/>
      <use xlink:href="#DejaVuSans-5d" x="821.130859"/>
     </g>
    </g>
   </g>
   <g id="line2d_33">
    <path d="M 408.327917 53.568 
L 410.670968 57.747166 
L 413.014018 61.857474 
L 415.357068 65.89984 
L 417.700119 69.875163 
L 420.043169 73.784329 
L 422.386219 77.628208 
L 424.72927 81.407655 
L 427.07232 85.123512 
L 429.41537 88.776605 
L 431.758421 92.36775 
L 434.101471 95.897743 
L 436.444521 99.367373 
L 438.787572 102.77741 
L 441.130622 106.128615 
L 443.473672 109.421732 
L 445.816723 112.657496 
L 448.159773 115.836626 
L 450.502823 118.959831 
L 452.845874 122.027805 
L 455.188924 125.041231 
L 457.531974 128.000781 
L 459.875025 130.907113 
L 462.218075 133.760875 
L 464.561125 136.5627 
L 466.904176 139.313214 
L 469.247226 142.013029 
L 471.590276 144.662745 
L 473.933327 147.262952 
L 476.276377 149.81423 
L 478.619427 152.317146 
L 480.962478 154.772257 
L 483.305528 157.18011 
L 485.648579 159.541242 
L 487.991629 161.856176 
L 490.334679 164.12543 
L 492.67773 166.349508 
L 495.02078 168.528905 
L 497.36383 170.664107 
L 499.706881 172.755588 
L 502.049931 174.803814 
L 504.392981 176.809242 
L 506.736032 178.772318 
L 509.079082 180.693478 
L 511.422132 182.573151 
L 513.765183 184.411754 
L 516.108233 186.209698 
L 518.451283 187.967382 
L 520.794334 189.685198 
L 523.137384 191.363528 
L 525.480434 193.002746 
L 527.823485 194.603216 
L 530.166535 196.165295 
L 532.509585 197.689332 
L 534.852636 199.175664 
L 537.195686 200.624622 
L 539.538736 202.036531 
L 541.881787 203.411703 
L 544.224837 204.750445 
L 546.567887 206.053054 
L 548.910938 207.319822 
L 551.253988 208.551029 
L 553.597038 209.746951 
L 555.940089 210.907853 
L 558.283139 212.033993 
L 560.626189 213.125622 
L 562.96924 214.182984 
L 565.31229 215.206314 
L 567.65534 216.195839 
L 569.998391 217.15178 
L 572.341441 218.07435 
L 574.684491 218.963753 
L 577.027542 219.820189 
L 579.370592 220.643847 
L 581.713642 221.434912 
L 584.056693 222.193558 
L 586.399743 222.919955 
L 588.742793 223.614265 
L 591.085844 224.276643 
L 593.428894 224.907235 
L 595.771944 225.506182 
L 598.114995 226.073618 
L 600.458045 226.609668 
L 602.801095 227.114453 
L 605.144146 227.588084 
L 607.487196 228.030666 
L 609.830246 228.4423 
L 612.173297 228.823075 
L 614.516347 229.173077 
L 616.859397 229.492384 
L 619.202448 229.781067 
L 621.545498 230.03919 
L 623.888548 230.266811 
L 626.231599 230.463979 
L 628.574649 230.63074 
L 630.917699 230.76713 
L 633.26075 230.87318 
L 635.6038 230.948913 
L 637.94685 230.994346 
L 640.289901 231.009489 
" clip-path="url(#p63652d352c)" style="fill: none; stroke: #1f77b4; stroke-width: 1.5; stroke-linecap: square"/>
   </g>
   <g id="line2d_34">
    <path d="M 408.327917 53.568 
L 410.670968 57.752558 
L 413.014018 61.868259 
L 415.357068 65.91602 
L 417.700119 69.896743 
L 420.043169 73.811313 
L 422.386219 77.660601 
L 424.72927 81.445466 
L 427.07232 85.166748 
L 429.41537 88.825277 
L 431.758421 92.421868 
L 434.101471 95.95732 
L 436.444521 99.43242 
L 438.787572 102.847944 
L 441.130622 106.20465 
L 443.473672 109.503286 
L 445.816723 112.744586 
L 448.159773 115.929272 
L 450.502823 119.058054 
L 452.845874 122.131626 
L 455.188924 125.150674 
L 457.531974 128.11587 
L 459.875025 131.027874 
L 462.218075 133.887334 
L 464.561125 136.694886 
L 466.904176 139.451156 
L 469.247226 142.156757 
L 471.590276 144.812292 
L 473.933327 147.418352 
L 476.276377 149.975516 
L 478.619427 152.484355 
L 480.962478 154.945426 
L 483.305528 157.359277 
L 485.648579 159.726447 
L 487.991629 162.047461 
L 490.334679 164.322837 
L 492.67773 166.553081 
L 495.02078 168.738689 
L 497.36383 170.880149 
L 499.706881 172.977936 
L 502.049931 175.032518 
L 504.392981 177.044352 
L 506.736032 179.013887 
L 509.079082 180.94156 
L 511.422132 182.8278 
L 513.765183 184.673028 
L 516.108233 186.477655 
L 518.451283 188.242081 
L 520.794334 189.966701 
L 523.137384 191.651897 
L 525.480434 193.298045 
L 527.823485 194.905512 
L 530.166535 196.474654 
L 532.509585 198.005823 
L 534.852636 199.499358 
L 537.195686 200.955591 
L 539.538736 202.374848 
L 541.881787 203.757444 
L 544.224837 205.103686 
L 546.567887 206.413876 
L 548.910938 207.688303 
L 551.253988 208.927252 
L 553.597038 210.130999 
L 555.940089 211.299812 
L 558.283139 212.43395 
L 560.626189 213.533667 
L 562.96924 214.599207 
L 565.31229 215.630808 
L 567.65534 216.628698 
L 569.998391 217.593101 
L 572.341441 218.52423 
L 574.684491 219.422294 
L 577.027542 220.287492 
L 579.370592 221.120016 
L 581.713642 221.920053 
L 584.056693 222.687779 
L 586.399743 223.423367 
L 588.742793 224.126979 
L 591.085844 224.798773 
L 593.428894 225.438898 
L 595.771944 226.047496 
L 598.114995 226.624703 
L 600.458045 227.170647 
L 602.801095 227.685451 
L 605.144146 228.169228 
L 607.487196 228.622087 
L 609.830246 229.044127 
L 612.173297 229.435444 
L 614.516347 229.796123 
L 616.859397 230.126247 
L 619.202448 230.425887 
L 621.545498 230.69511 
L 623.888548 230.933978 
L 626.231599 231.142542 
L 628.574649 231.320849 
L 630.917699 231.468939 
L 633.26075 231.586845 
L 635.6038 231.674593 
L 637.94685 231.732203 
L 640.289901 231.759687 
" clip-path="url(#p63652d352c)" style="fill: none; stroke: #ff7f0e; stroke-width: 1.5; stroke-linecap: square"/>
   </g>
   <g id="line2d_35">
    <path d="M 408.327917 53.568 
L 410.670968 58.210598 
L 413.014018 62.784442 
L 415.357068 67.29055 
L 417.700119 71.729925 
L 420.043169 76.103556 
L 422.386219 80.412416 
L 424.72927 84.657463 
L 427.07232 88.839645 
L 429.41537 92.95989 
L 431.758421 97.019117 
L 434.101471 101.018229 
L 436.444521 104.958117 
L 438.787572 108.839657 
L 441.130622 112.663713 
L 443.473672 116.431138 
L 445.816723 120.142769 
L 448.159773 123.799433 
L 450.502823 127.401944 
L 452.845874 130.951104 
L 455.188924 134.447703 
L 457.531974 137.892519 
L 459.875025 141.28632 
L 462.218075 144.62986 
L 464.561125 147.923884 
L 466.904176 151.169126 
L 469.247226 154.366308 
L 471.590276 157.516141 
L 473.933327 160.619327 
L 476.276377 163.676556 
L 478.619427 166.68851 
L 480.962478 169.655858 
L 483.305528 172.579262 
L 485.648579 175.459372 
L 487.991629 178.296829 
L 490.334679 181.092264 
L 492.67773 183.846302 
L 495.02078 186.559553 
L 497.36383 189.232622 
L 499.706881 191.866106 
L 502.049931 194.460588 
L 504.392981 197.016648 
L 506.736032 199.534854 
L 509.079082 202.015767 
L 511.422132 204.459939 
L 513.765183 206.867914 
L 516.108233 209.240229 
L 518.451283 211.57741 
L 520.794334 213.87998 
L 523.137384 216.14845 
L 525.480434 218.383325 
L 527.823485 220.585103 
L 530.166535 222.754273 
L 532.509585 224.89132 
L 534.852636 226.996718 
L 537.195686 229.070936 
L 539.538736 231.114437 
L 541.881787 233.127674 
L 544.224837 235.111097 
L 546.567887 237.065146 
L 548.910938 238.990257 
L 551.253988 240.886858 
L 553.597038 242.755371 
L 555.940089 244.596213 
L 558.283139 246.409793 
L 560.626189 248.196515 
L 562.96924 249.956776 
L 565.31229 251.690969 
L 567.65534 253.39948 
L 569.998391 255.082689 
L 572.341441 256.74097 
L 574.684491 258.374693 
L 577.027542 259.984222 
L 579.370592 261.569914 
L 581.713642 263.132124 
L 584.056693 264.671197 
L 586.399743 266.187478 
L 588.742793 267.681304 
L 591.085844 269.153007 
L 593.428894 270.602915 
L 595.771944 272.031351 
L 598.114995 273.438632 
L 600.458045 274.825072 
L 602.801095 276.19098 
L 605.144146 277.53666 
L 607.487196 278.862411 
L 609.830246 280.168528 
L 612.173297 281.455302 
L 614.516347 282.72302 
L 616.859397 283.971964 
L 619.202448 285.202412 
L 621.545498 286.414637 
L 623.888548 287.608911 
L 626.231599 288.785497 
L 628.574649 289.944659 
L 630.917699 291.086655 
L 633.26075 292.211738 
L 635.6038 293.320159 
L 637.94685 294.412166 
L 640.289901 295.488 
" clip-path="url(#p63652d352c)" style="fill: none; stroke: #2ca02c; stroke-width: 1.5; stroke-linecap: square"/>
   </g>
   <g id="patch_9">
    <path d="M 396.729818 307.584 
L 396.729818 41.472 
" style="fill: none; stroke: #000000; stroke-width: 0.8; stroke-linejoin: miter; stroke-linecap: square"/>
   </g>
   <g id="patch_10">
    <path d="M 651.888 307.584 
L 651.888 41.472 
" style="fill: none; stroke: #000000; stroke-width: 0.8; stroke-linejoin: miter; stroke-linecap: square"/>
   </g>
   <g id="patch_11">
    <path d="M 396.729818 307.584 
L 651.888 307.584 
" style="fill: none; stroke: #000000; stroke-width: 0.8; stroke-linejoin: miter; stroke-linecap: square"/>
   </g>
   <g id="patch_12">
    <path d="M 396.729818 41.472 
L 651.888 41.472 
" style="fill: none; stroke: #000000; stroke-width: 0.8; stroke-linejoin: miter; stroke-linecap: square"/>
   </g>
   <g id="text_35">
    <!-- V = 20 [m/s] -->
    <g transform="translate(486.147972 35.472) scale(0.12 -0.12)">
     <use xlink:href="#DejaVuSans-56"/>
     <use xlink:href="#DejaVuSans-20" x="68.408203"/>
     <use xlink:href="#DejaVuSans-3d" x="100.195312"/>
     <use xlink:href="#DejaVuSans-20" x="183.984375"/>
     <use xlink:href="#DejaVuSans-32" x="215.771484"/>
     <use xlink:href="#DejaVuSans-30" x="279.394531"/>
     <use xlink:href="#DejaVuSans-20" x="343.017578"/>
     <use xlink:href="#DejaVuSans-5b" x="374.804688"/>
     <use xlink:href="#DejaVuSans-6d" x="413.818359"/>
     <use xlink:href="#DejaVuSans-2f" x="511.230469"/>
     <use xlink:href="#DejaVuSans-73" x="544.921875"/>
     <use xlink:href="#DejaVuSans-5d" x="597.021484"/>
    </g>
   </g>
   <g id="legend_2">
    <g id="patch_13">
     <path d="M 498.416125 93.506375 
L 644.888 93.506375 
Q 646.888 93.506375 646.888 91.506375 
L 646.888 48.472 
Q 646.888 46.472 644.888 46.472 
L 498.416125 46.472 
Q 496.416125 46.472 496.416125 48.472 
L 496.416125 91.506375 
Q 496.416125 93.506375 498.416125 93.506375 
z
" style="fill: #ffffff; opacity: 0.8; stroke: #cccccc; stroke-linejoin: miter"/>
    </g>
    <g id="line2d_36">
     <path d="M 500.416125 54.570438 
L 510.416125 54.570438 
L 520.416125 54.570438 
" style="fill: none; stroke: #1f77b4; stroke-width: 1.5; stroke-linecap: square"/>
    </g>
    <g id="text_36">
     <!-- Adiabatic Hypothesis -->
     <g transform="translate(528.416125 58.070438) scale(0.1 -0.1)">
      <use xlink:href="#DejaVuSans-41"/>
      <use xlink:href="#DejaVuSans-64" x="66.658203"/>
      <use xlink:href="#DejaVuSans-69" x="130.134766"/>
      <use xlink:href="#DejaVuSans-61" x="157.917969"/>
      <use xlink:href="#DejaVuSans-62" x="219.197266"/>
      <use xlink:href="#DejaVuSans-61" x="282.673828"/>
      <use xlink:href="#DejaVuSans-74" x="343.953125"/>
      <use xlink:href="#DejaVuSans-69" x="383.162109"/>
      <use xlink:href="#DejaVuSans-63" x="410.945312"/>
      <use xlink:href="#DejaVuSans-20" x="465.925781"/>
      <use xlink:href="#DejaVuSans-48" x="497.712891"/>
      <use xlink:href="#DejaVuSans-79" x="572.908203"/>
      <use xlink:href="#DejaVuSans-70" x="632.087891"/>
      <use xlink:href="#DejaVuSans-6f" x="695.564453"/>
      <use xlink:href="#DejaVuSans-74" x="756.746094"/>
      <use xlink:href="#DejaVuSans-68" x="795.955078"/>
      <use xlink:href="#DejaVuSans-65" x="859.333984"/>
      <use xlink:href="#DejaVuSans-73" x="920.857422"/>
      <use xlink:href="#DejaVuSans-69" x="972.957031"/>
      <use xlink:href="#DejaVuSans-73" x="1000.740234"/>
     </g>
    </g>
    <g id="line2d_37">
     <path d="M 500.416125 69.248563 
L 510.416125 69.248563 
L 520.416125 69.248563 
" style="fill: none; stroke: #ff7f0e; stroke-width: 1.5; stroke-linecap: square"/>
    </g>
    <g id="text_37">
     <!-- Convective Hypothesis -->
     <g transform="translate(528.416125 72.748563) scale(0.1 -0.1)">
      <use xlink:href="#DejaVuSans-43"/>
      <use xlink:href="#DejaVuSans-6f" x="69.824219"/>
      <use xlink:href="#DejaVuSans-6e" x="131.005859"/>
      <use xlink:href="#DejaVuSans-76" x="194.384766"/>
      <use xlink:href="#DejaVuSans-65" x="253.564453"/>
      <use xlink:href="#DejaVuSans-63" x="315.087891"/>
      <use xlink:href="#DejaVuSans-74" x="370.068359"/>
      <use xlink:href="#DejaVuSans-69" x="409.277344"/>
      <use xlink:href="#DejaVuSans-76" x="437.060547"/>
      <use xlink:href="#DejaVuSans-65" x="496.240234"/>
      <use xlink:href="#DejaVuSans-20" x="557.763672"/>
      <use xlink:href="#DejaVuSans-48" x="589.550781"/>
      <use xlink:href="#DejaVuSans-79" x="664.746094"/>
      <use xlink:href="#DejaVuSans-70" x="723.925781"/>
      <use xlink:href="#DejaVuSans-6f" x="787.402344"/>
      <use xlink:href="#DejaVuSans-74" x="848.583984"/>
      <use xlink:href="#DejaVuSans-68" x="887.792969"/>
      <use xlink:href="#DejaVuSans-65" x="951.171875"/>
      <use xlink:href="#DejaVuSans-73" x="1012.695312"/>
      <use xlink:href="#DejaVuSans-69" x="1064.794922"/>
      <use xlink:href="#DejaVuSans-73" x="1092.578125"/>
     </g>
    </g>
    <g id="line2d_38">
     <path d="M 500.416125 83.926688 
L 510.416125 83.926688 
L 520.416125 83.926688 
" style="fill: none; stroke: #2ca02c; stroke-width: 1.5; stroke-linecap: square"/>
    </g>
    <g id="text_38">
     <!-- Infinite Hypothesis -->
     <g transform="translate(528.416125 87.426688) scale(0.1 -0.1)">
      <use xlink:href="#DejaVuSans-49"/>
      <use xlink:href="#DejaVuSans-6e" x="29.492188"/>
      <use xlink:href="#DejaVuSans-66" x="92.871094"/>
      <use xlink:href="#DejaVuSans-69" x="128.076172"/>
      <use xlink:href="#DejaVuSans-6e" x="155.859375"/>
      <use xlink:href="#DejaVuSans-69" x="219.238281"/>
      <use xlink:href="#DejaVuSans-74" x="247.021484"/>
      <use xlink:href="#DejaVuSans-65" x="286.230469"/>
      <use xlink:href="#DejaVuSans-20" x="347.753906"/>
      <use xlink:href="#DejaVuSans-48" x="379.541016"/>
      <use xlink:href="#DejaVuSans-79" x="454.736328"/>
      <use xlink:href="#DejaVuSans-70" x="513.916016"/>
      <use xlink:href="#DejaVuSans-6f" x="577.392578"/>
      <use xlink:href="#DejaVuSans-74" x="638.574219"/>
      <use xlink:href="#DejaVuSans-68" x="677.783203"/>
      <use xlink:href="#DejaVuSans-65" x="741.162109"/>
      <use xlink:href="#DejaVuSans-73" x="802.685547"/>
      <use xlink:href="#DejaVuSans-69" x="854.785156"/>
      <use xlink:href="#DejaVuSans-73" x="882.568359"/>
     </g>
    </g>
   </g>
  </g>
  <g id="text_39">
   <!-- Adiabatic, Convective and Infinite borders. -->
   <g transform="translate(234.20625 16.030125) scale(0.12 -0.12)">
    <defs>
     <path id="DejaVuSans-2c" d="M 750 794 
L 1409 794 
L 1409 256 
L 897 -744 
L 494 -744 
L 750 256 
L 750 794 
z
" transform="scale(0.015625)"/>
    </defs>
    <use xlink:href="#DejaVuSans-41"/>
    <use xlink:href="#DejaVuSans-64" x="66.658203"/>
    <use xlink:href="#DejaVuSans-69" x="130.134766"/>
    <use xlink:href="#DejaVuSans-61" x="157.917969"/>
    <use xlink:href="#DejaVuSans-62" x="219.197266"/>
    <use xlink:href="#DejaVuSans-61" x="282.673828"/>
    <use xlink:href="#DejaVuSans-74" x="343.953125"/>
    <use xlink:href="#DejaVuSans-69" x="383.162109"/>
    <use xlink:href="#DejaVuSans-63" x="410.945312"/>
    <use xlink:href="#DejaVuSans-2c" x="465.925781"/>
    <use xlink:href="#DejaVuSans-20" x="497.712891"/>
    <use xlink:href="#DejaVuSans-43" x="529.5"/>
    <use xlink:href="#DejaVuSans-6f" x="599.324219"/>
    <use xlink:href="#DejaVuSans-6e" x="660.505859"/>
    <use xlink:href="#DejaVuSans-76" x="723.884766"/>
    <use xlink:href="#DejaVuSans-65" x="783.064453"/>
    <use xlink:href="#DejaVuSans-63" x="844.587891"/>
    <use xlink:href="#DejaVuSans-74" x="899.568359"/>
    <use xlink:href="#DejaVuSans-69" x="938.777344"/>
    <use xlink:href="#DejaVuSans-76" x="966.560547"/>
    <use xlink:href="#DejaVuSans-65" x="1025.740234"/>
    <use xlink:href="#DejaVuSans-20" x="1087.263672"/>
    <use xlink:href="#DejaVuSans-61" x="1119.050781"/>
    <use xlink:href="#DejaVuSans-6e" x="1180.330078"/>
    <use xlink:href="#DejaVuSans-64" x="1243.708984"/>
    <use xlink:href="#DejaVuSans-20" x="1307.185547"/>
    <use xlink:href="#DejaVuSans-49" x="1338.972656"/>
    <use xlink:href="#DejaVuSans-6e" x="1368.464844"/>
    <use xlink:href="#DejaVuSans-66" x="1431.84375"/>
    <use xlink:href="#DejaVuSans-69" x="1467.048828"/>
    <use xlink:href="#DejaVuSans-6e" x="1494.832031"/>
    <use xlink:href="#DejaVuSans-69" x="1558.210938"/>
    <use xlink:href="#DejaVuSans-74" x="1585.994141"/>
    <use xlink:href="#DejaVuSans-65" x="1625.203125"/>
    <use xlink:href="#DejaVuSans-20" x="1686.726562"/>
    <use xlink:href="#DejaVuSans-62" x="1718.513672"/>
    <use xlink:href="#DejaVuSans-6f" x="1781.990234"/>
    <use xlink:href="#DejaVuSans-72" x="1843.171875"/>
    <use xlink:href="#DejaVuSans-64" x="1882.535156"/>
    <use xlink:href="#DejaVuSans-65" x="1946.011719"/>
    <use xlink:href="#DejaVuSans-72" x="2007.535156"/>
    <use xlink:href="#DejaVuSans-73" x="2048.648438"/>
    <use xlink:href="#DejaVuSans-2e" x="2100.748047"/>
   </g>
  </g>
 </g>
 <defs>
  <clipPath id="p53615cd789">
   <rect x="90.54" y="41.472" width="255.158182" height="266.112"/>
  </clipPath>
  <clipPath id="p63652d352c">
   <rect x="396.729818" y="41.472" width="255.158182" height="266.112"/>
  </clipPath>
 </defs>
</svg>
