<?xml version="1.0" encoding="utf-8" standalone="no"?>
<!DOCTYPE svg PUBLIC "-//W3C//DTD SVG 1.1//EN"
  "http://www.w3.org/Graphics/SVG/1.1/DTD/svg11.dtd">
<svg xmlns:xlink="http://www.w3.org/1999/xlink" width="460.8pt" height="345.6pt" viewBox="0 0 460.8 345.6" xmlns="http://www.w3.org/2000/svg" version="1.1">
 <metadata>
  <rdf:RDF xmlns:dc="http://purl.org/dc/elements/1.1/" xmlns:cc="http://creativecommons.org/ns#" xmlns:rdf="http://www.w3.org/1999/02/22-rdf-syntax-ns#">
   <cc:Work>
    <dc:type rdf:resource="http://purl.org/dc/dcmitype/StillImage"/>
    <dc:date>2024-03-27T12:05:22.774825</dc:date>
    <dc:format>image/svg+xml</dc:format>
    <dc:creator>
     <cc:Agent>
      <dc:title>Matplotlib v3.8.3, https://matplotlib.org/</dc:title>
     </cc:Agent>
    </dc:creator>
   </cc:Work>
  </rdf:RDF>
 </metadata>
 <defs>
  <style type="text/css">*{stroke-linejoin: round; stroke-linecap: butt}</style>
 </defs>
 <g id="figure_1">
  <g id="patch_1">
   <path d="M 0 345.6 
L 460.8 345.6 
L 460.8 0 
L 0 0 
z
" style="fill: #ffffff"/>
  </g>
  <g id="axes_1">
   <g id="patch_2">
    <path d="M 57.6 307.584 
L 414.72 307.584 
L 414.72 41.472 
L 57.6 41.472 
z
" style="fill: #ffffff"/>
   </g>
   <g id="matplotlib.axis_1">
    <g id="xtick_1">
     <g id="line2d_1">
      <defs>
       <path id="md355d5a1b2" d="M 0 0 
L 0 3.5 
" style="stroke: #000000; stroke-width: 0.8"/>
      </defs>
      <g>
       <use xlink:href="#md355d5a1b2" x="73.832727" y="307.584" style="stroke: #000000; stroke-width: 0.8"/>
      </g>
     </g>
     <g id="text_1">
      <!-- 0.00 -->
      <g transform="translate(62.699915 322.182437) scale(0.1 -0.1)">
       <defs>
        <path id="DejaVuSans-30" d="M 2034 4250 
Q 1547 4250 1301 3770 
Q 1056 3291 1056 2328 
Q 1056 1369 1301 889 
Q 1547 409 2034 409 
Q 2525 409 2770 889 
Q 3016 1369 3016 2328 
Q 3016 3291 2770 3770 
Q 2525 4250 2034 4250 
z
M 2034 4750 
Q 2819 4750 3233 4129 
Q 3647 3509 3647 2328 
Q 3647 1150 3233 529 
Q 2819 -91 2034 -91 
Q 1250 -91 836 529 
Q 422 1150 422 2328 
Q 422 3509 836 4129 
Q 1250 4750 2034 4750 
z
" transform="scale(0.015625)"/>
        <path id="DejaVuSans-2e" d="M 684 794 
L 1344 794 
L 1344 0 
L 684 0 
L 684 794 
z
" transform="scale(0.015625)"/>
       </defs>
       <use xlink:href="#DejaVuSans-30"/>
       <use xlink:href="#DejaVuSans-2e" x="63.623047"/>
       <use xlink:href="#DejaVuSans-30" x="95.410156"/>
       <use xlink:href="#DejaVuSans-30" x="159.033203"/>
      </g>
     </g>
    </g>
    <g id="xtick_2">
     <g id="line2d_2">
      <g>
       <use xlink:href="#md355d5a1b2" x="138.763636" y="307.584" style="stroke: #000000; stroke-width: 0.8"/>
      </g>
     </g>
     <g id="text_2">
      <!-- 0.02 -->
      <g transform="translate(127.630824 322.182437) scale(0.1 -0.1)">
       <defs>
        <path id="DejaVuSans-32" d="M 1228 531 
L 3431 531 
L 3431 0 
L 469 0 
L 469 531 
Q 828 903 1448 1529 
Q 2069 2156 2228 2338 
Q 2531 2678 2651 2914 
Q 2772 3150 2772 3378 
Q 2772 3750 2511 3984 
Q 2250 4219 1831 4219 
Q 1534 4219 1204 4116 
Q 875 4013 500 3803 
L 500 4441 
Q 881 4594 1212 4672 
Q 1544 4750 1819 4750 
Q 2544 4750 2975 4387 
Q 3406 4025 3406 3419 
Q 3406 3131 3298 2873 
Q 3191 2616 2906 2266 
Q 2828 2175 2409 1742 
Q 1991 1309 1228 531 
z
" transform="scale(0.015625)"/>
       </defs>
       <use xlink:href="#DejaVuSans-30"/>
       <use xlink:href="#DejaVuSans-2e" x="63.623047"/>
       <use xlink:href="#DejaVuSans-30" x="95.410156"/>
       <use xlink:href="#DejaVuSans-32" x="159.033203"/>
      </g>
     </g>
    </g>
    <g id="xtick_3">
     <g id="line2d_3">
      <g>
       <use xlink:href="#md355d5a1b2" x="203.694545" y="307.584" style="stroke: #000000; stroke-width: 0.8"/>
      </g>
     </g>
     <g id="text_3">
      <!-- 0.04 -->
      <g transform="translate(192.561733 322.182437) scale(0.1 -0.1)">
       <defs>
        <path id="DejaVuSans-34" d="M 2419 4116 
L 825 1625 
L 2419 1625 
L 2419 4116 
z
M 2253 4666 
L 3047 4666 
L 3047 1625 
L 3713 1625 
L 3713 1100 
L 3047 1100 
L 3047 0 
L 2419 0 
L 2419 1100 
L 313 1100 
L 313 1709 
L 2253 4666 
z
" transform="scale(0.015625)"/>
       </defs>
       <use xlink:href="#DejaVuSans-30"/>
       <use xlink:href="#DejaVuSans-2e" x="63.623047"/>
       <use xlink:href="#DejaVuSans-30" x="95.410156"/>
       <use xlink:href="#DejaVuSans-34" x="159.033203"/>
      </g>
     </g>
    </g>
    <g id="xtick_4">
     <g id="line2d_4">
      <g>
       <use xlink:href="#md355d5a1b2" x="268.625455" y="307.584" style="stroke: #000000; stroke-width: 0.8"/>
      </g>
     </g>
     <g id="text_4">
      <!-- 0.06 -->
      <g transform="translate(257.492642 322.182437) scale(0.1 -0.1)">
       <defs>
        <path id="DejaVuSans-36" d="M 2113 2584 
Q 1688 2584 1439 2293 
Q 1191 2003 1191 1497 
Q 1191 994 1439 701 
Q 1688 409 2113 409 
Q 2538 409 2786 701 
Q 3034 994 3034 1497 
Q 3034 2003 2786 2293 
Q 2538 2584 2113 2584 
z
M 3366 4563 
L 3366 3988 
Q 3128 4100 2886 4159 
Q 2644 4219 2406 4219 
Q 1781 4219 1451 3797 
Q 1122 3375 1075 2522 
Q 1259 2794 1537 2939 
Q 1816 3084 2150 3084 
Q 2853 3084 3261 2657 
Q 3669 2231 3669 1497 
Q 3669 778 3244 343 
Q 2819 -91 2113 -91 
Q 1303 -91 875 529 
Q 447 1150 447 2328 
Q 447 3434 972 4092 
Q 1497 4750 2381 4750 
Q 2619 4750 2861 4703 
Q 3103 4656 3366 4563 
z
" transform="scale(0.015625)"/>
       </defs>
       <use xlink:href="#DejaVuSans-30"/>
       <use xlink:href="#DejaVuSans-2e" x="63.623047"/>
       <use xlink:href="#DejaVuSans-30" x="95.410156"/>
       <use xlink:href="#DejaVuSans-36" x="159.033203"/>
      </g>
     </g>
    </g>
    <g id="xtick_5">
     <g id="line2d_5">
      <g>
       <use xlink:href="#md355d5a1b2" x="333.556364" y="307.584" style="stroke: #000000; stroke-width: 0.8"/>
      </g>
     </g>
     <g id="text_5">
      <!-- 0.08 -->
      <g transform="translate(322.423551 322.182437) scale(0.1 -0.1)">
       <defs>
        <path id="DejaVuSans-38" d="M 2034 2216 
Q 1584 2216 1326 1975 
Q 1069 1734 1069 1313 
Q 1069 891 1326 650 
Q 1584 409 2034 409 
Q 2484 409 2743 651 
Q 3003 894 3003 1313 
Q 3003 1734 2745 1975 
Q 2488 2216 2034 2216 
z
M 1403 2484 
Q 997 2584 770 2862 
Q 544 3141 544 3541 
Q 544 4100 942 4425 
Q 1341 4750 2034 4750 
Q 2731 4750 3128 4425 
Q 3525 4100 3525 3541 
Q 3525 3141 3298 2862 
Q 3072 2584 2669 2484 
Q 3125 2378 3379 2068 
Q 3634 1759 3634 1313 
Q 3634 634 3220 271 
Q 2806 -91 2034 -91 
Q 1263 -91 848 271 
Q 434 634 434 1313 
Q 434 1759 690 2068 
Q 947 2378 1403 2484 
z
M 1172 3481 
Q 1172 3119 1398 2916 
Q 1625 2713 2034 2713 
Q 2441 2713 2670 2916 
Q 2900 3119 2900 3481 
Q 2900 3844 2670 4047 
Q 2441 4250 2034 4250 
Q 1625 4250 1398 4047 
Q 1172 3844 1172 3481 
z
" transform="scale(0.015625)"/>
       </defs>
       <use xlink:href="#DejaVuSans-30"/>
       <use xlink:href="#DejaVuSans-2e" x="63.623047"/>
       <use xlink:href="#DejaVuSans-30" x="95.410156"/>
       <use xlink:href="#DejaVuSans-38" x="159.033203"/>
      </g>
     </g>
    </g>
    <g id="xtick_6">
     <g id="line2d_6">
      <g>
       <use xlink:href="#md355d5a1b2" x="398.487273" y="307.584" style="stroke: #000000; stroke-width: 0.8"/>
      </g>
     </g>
     <g id="text_6">
      <!-- 0.10 -->
      <g transform="translate(387.35446 322.182437) scale(0.1 -0.1)">
       <defs>
        <path id="DejaVuSans-31" d="M 794 531 
L 1825 531 
L 1825 4091 
L 703 3866 
L 703 4441 
L 1819 4666 
L 2450 4666 
L 2450 531 
L 3481 531 
L 3481 0 
L 794 0 
L 794 531 
z
" transform="scale(0.015625)"/>
       </defs>
       <use xlink:href="#DejaVuSans-30"/>
       <use xlink:href="#DejaVuSans-2e" x="63.623047"/>
       <use xlink:href="#DejaVuSans-31" x="95.410156"/>
       <use xlink:href="#DejaVuSans-30" x="159.033203"/>
      </g>
     </g>
    </g>
    <g id="text_7">
     <!-- Distance [m] -->
     <g transform="translate(203.936562 335.860562) scale(0.1 -0.1)">
      <defs>
       <path id="DejaVuSans-44" d="M 1259 4147 
L 1259 519 
L 2022 519 
Q 2988 519 3436 956 
Q 3884 1394 3884 2338 
Q 3884 3275 3436 3711 
Q 2988 4147 2022 4147 
L 1259 4147 
z
M 628 4666 
L 1925 4666 
Q 3281 4666 3915 4102 
Q 4550 3538 4550 2338 
Q 4550 1131 3912 565 
Q 3275 0 1925 0 
L 628 0 
L 628 4666 
z
" transform="scale(0.015625)"/>
       <path id="DejaVuSans-69" d="M 603 3500 
L 1178 3500 
L 1178 0 
L 603 0 
L 603 3500 
z
M 603 4863 
L 1178 4863 
L 1178 4134 
L 603 4134 
L 603 4863 
z
" transform="scale(0.015625)"/>
       <path id="DejaVuSans-73" d="M 2834 3397 
L 2834 2853 
Q 2591 2978 2328 3040 
Q 2066 3103 1784 3103 
Q 1356 3103 1142 2972 
Q 928 2841 928 2578 
Q 928 2378 1081 2264 
Q 1234 2150 1697 2047 
L 1894 2003 
Q 2506 1872 2764 1633 
Q 3022 1394 3022 966 
Q 3022 478 2636 193 
Q 2250 -91 1575 -91 
Q 1294 -91 989 -36 
Q 684 19 347 128 
L 347 722 
Q 666 556 975 473 
Q 1284 391 1588 391 
Q 1994 391 2212 530 
Q 2431 669 2431 922 
Q 2431 1156 2273 1281 
Q 2116 1406 1581 1522 
L 1381 1569 
Q 847 1681 609 1914 
Q 372 2147 372 2553 
Q 372 3047 722 3315 
Q 1072 3584 1716 3584 
Q 2034 3584 2315 3537 
Q 2597 3491 2834 3397 
z
" transform="scale(0.015625)"/>
       <path id="DejaVuSans-74" d="M 1172 4494 
L 1172 3500 
L 2356 3500 
L 2356 3053 
L 1172 3053 
L 1172 1153 
Q 1172 725 1289 603 
Q 1406 481 1766 481 
L 2356 481 
L 2356 0 
L 1766 0 
Q 1100 0 847 248 
Q 594 497 594 1153 
L 594 3053 
L 172 3053 
L 172 3500 
L 594 3500 
L 594 4494 
L 1172 4494 
z
" transform="scale(0.015625)"/>
       <path id="DejaVuSans-61" d="M 2194 1759 
Q 1497 1759 1228 1600 
Q 959 1441 959 1056 
Q 959 750 1161 570 
Q 1363 391 1709 391 
Q 2188 391 2477 730 
Q 2766 1069 2766 1631 
L 2766 1759 
L 2194 1759 
z
M 3341 1997 
L 3341 0 
L 2766 0 
L 2766 531 
Q 2569 213 2275 61 
Q 1981 -91 1556 -91 
Q 1019 -91 701 211 
Q 384 513 384 1019 
Q 384 1609 779 1909 
Q 1175 2209 1959 2209 
L 2766 2209 
L 2766 2266 
Q 2766 2663 2505 2880 
Q 2244 3097 1772 3097 
Q 1472 3097 1187 3025 
Q 903 2953 641 2809 
L 641 3341 
Q 956 3463 1253 3523 
Q 1550 3584 1831 3584 
Q 2591 3584 2966 3190 
Q 3341 2797 3341 1997 
z
" transform="scale(0.015625)"/>
       <path id="DejaVuSans-6e" d="M 3513 2113 
L 3513 0 
L 2938 0 
L 2938 2094 
Q 2938 2591 2744 2837 
Q 2550 3084 2163 3084 
Q 1697 3084 1428 2787 
Q 1159 2491 1159 1978 
L 1159 0 
L 581 0 
L 581 3500 
L 1159 3500 
L 1159 2956 
Q 1366 3272 1645 3428 
Q 1925 3584 2291 3584 
Q 2894 3584 3203 3211 
Q 3513 2838 3513 2113 
z
" transform="scale(0.015625)"/>
       <path id="DejaVuSans-63" d="M 3122 3366 
L 3122 2828 
Q 2878 2963 2633 3030 
Q 2388 3097 2138 3097 
Q 1578 3097 1268 2742 
Q 959 2388 959 1747 
Q 959 1106 1268 751 
Q 1578 397 2138 397 
Q 2388 397 2633 464 
Q 2878 531 3122 666 
L 3122 134 
Q 2881 22 2623 -34 
Q 2366 -91 2075 -91 
Q 1284 -91 818 406 
Q 353 903 353 1747 
Q 353 2603 823 3093 
Q 1294 3584 2113 3584 
Q 2378 3584 2631 3529 
Q 2884 3475 3122 3366 
z
" transform="scale(0.015625)"/>
       <path id="DejaVuSans-65" d="M 3597 1894 
L 3597 1613 
L 953 1613 
Q 991 1019 1311 708 
Q 1631 397 2203 397 
Q 2534 397 2845 478 
Q 3156 559 3463 722 
L 3463 178 
Q 3153 47 2828 -22 
Q 2503 -91 2169 -91 
Q 1331 -91 842 396 
Q 353 884 353 1716 
Q 353 2575 817 3079 
Q 1281 3584 2069 3584 
Q 2775 3584 3186 3129 
Q 3597 2675 3597 1894 
z
M 3022 2063 
Q 3016 2534 2758 2815 
Q 2500 3097 2075 3097 
Q 1594 3097 1305 2825 
Q 1016 2553 972 2059 
L 3022 2063 
z
" transform="scale(0.015625)"/>
       <path id="DejaVuSans-20" transform="scale(0.015625)"/>
       <path id="DejaVuSans-5b" d="M 550 4863 
L 1875 4863 
L 1875 4416 
L 1125 4416 
L 1125 -397 
L 1875 -397 
L 1875 -844 
L 550 -844 
L 550 4863 
z
" transform="scale(0.015625)"/>
       <path id="DejaVuSans-6d" d="M 3328 2828 
Q 3544 3216 3844 3400 
Q 4144 3584 4550 3584 
Q 5097 3584 5394 3201 
Q 5691 2819 5691 2113 
L 5691 0 
L 5113 0 
L 5113 2094 
Q 5113 2597 4934 2840 
Q 4756 3084 4391 3084 
Q 3944 3084 3684 2787 
Q 3425 2491 3425 1978 
L 3425 0 
L 2847 0 
L 2847 2094 
Q 2847 2600 2669 2842 
Q 2491 3084 2119 3084 
Q 1678 3084 1418 2786 
Q 1159 2488 1159 1978 
L 1159 0 
L 581 0 
L 581 3500 
L 1159 3500 
L 1159 2956 
Q 1356 3278 1631 3431 
Q 1906 3584 2284 3584 
Q 2666 3584 2933 3390 
Q 3200 3197 3328 2828 
z
" transform="scale(0.015625)"/>
       <path id="DejaVuSans-5d" d="M 1947 4863 
L 1947 -844 
L 622 -844 
L 622 -397 
L 1369 -397 
L 1369 4416 
L 622 4416 
L 622 4863 
L 1947 4863 
z
" transform="scale(0.015625)"/>
      </defs>
      <use xlink:href="#DejaVuSans-44"/>
      <use xlink:href="#DejaVuSans-69" x="77.001953"/>
      <use xlink:href="#DejaVuSans-73" x="104.785156"/>
      <use xlink:href="#DejaVuSans-74" x="156.884766"/>
      <use xlink:href="#DejaVuSans-61" x="196.09375"/>
      <use xlink:href="#DejaVuSans-6e" x="257.373047"/>
      <use xlink:href="#DejaVuSans-63" x="320.751953"/>
      <use xlink:href="#DejaVuSans-65" x="375.732422"/>
      <use xlink:href="#DejaVuSans-20" x="437.255859"/>
      <use xlink:href="#DejaVuSans-5b" x="469.042969"/>
      <use xlink:href="#DejaVuSans-6d" x="508.056641"/>
      <use xlink:href="#DejaVuSans-5d" x="605.46875"/>
     </g>
    </g>
   </g>
   <g id="matplotlib.axis_2">
    <g id="ytick_1">
     <g id="line2d_7">
      <defs>
       <path id="m67e197b8cf" d="M 0 0 
L -3.5 0 
" style="stroke: #000000; stroke-width: 0.8"/>
      </defs>
      <g>
       <use xlink:href="#m67e197b8cf" x="57.6" y="265.620962" style="stroke: #000000; stroke-width: 0.8"/>
      </g>
     </g>
     <g id="text_8">
      <!-- 50 -->
      <g transform="translate(37.875 269.420181) scale(0.1 -0.1)">
       <defs>
        <path id="DejaVuSans-35" d="M 691 4666 
L 3169 4666 
L 3169 4134 
L 1269 4134 
L 1269 2991 
Q 1406 3038 1543 3061 
Q 1681 3084 1819 3084 
Q 2600 3084 3056 2656 
Q 3513 2228 3513 1497 
Q 3513 744 3044 326 
Q 2575 -91 1722 -91 
Q 1428 -91 1123 -41 
Q 819 9 494 109 
L 494 744 
Q 775 591 1075 516 
Q 1375 441 1709 441 
Q 2250 441 2565 725 
Q 2881 1009 2881 1497 
Q 2881 1984 2565 2268 
Q 2250 2553 1709 2553 
Q 1456 2553 1204 2497 
Q 953 2441 691 2322 
L 691 4666 
z
" transform="scale(0.015625)"/>
       </defs>
       <use xlink:href="#DejaVuSans-35"/>
       <use xlink:href="#DejaVuSans-30" x="63.623047"/>
      </g>
     </g>
    </g>
    <g id="ytick_2">
     <g id="line2d_8">
      <g>
       <use xlink:href="#m67e197b8cf" x="57.6" y="223.21037" style="stroke: #000000; stroke-width: 0.8"/>
      </g>
     </g>
     <g id="text_9">
      <!-- 60 -->
      <g transform="translate(37.875 227.009588) scale(0.1 -0.1)">
       <use xlink:href="#DejaVuSans-36"/>
       <use xlink:href="#DejaVuSans-30" x="63.623047"/>
      </g>
     </g>
    </g>
    <g id="ytick_3">
     <g id="line2d_9">
      <g>
       <use xlink:href="#m67e197b8cf" x="57.6" y="180.799777" style="stroke: #000000; stroke-width: 0.8"/>
      </g>
     </g>
     <g id="text_10">
      <!-- 70 -->
      <g transform="translate(37.875 184.598996) scale(0.1 -0.1)">
       <defs>
        <path id="DejaVuSans-37" d="M 525 4666 
L 3525 4666 
L 3525 4397 
L 1831 0 
L 1172 0 
L 2766 4134 
L 525 4134 
L 525 4666 
z
" transform="scale(0.015625)"/>
       </defs>
       <use xlink:href="#DejaVuSans-37"/>
       <use xlink:href="#DejaVuSans-30" x="63.623047"/>
      </g>
     </g>
    </g>
    <g id="ytick_4">
     <g id="line2d_10">
      <g>
       <use xlink:href="#m67e197b8cf" x="57.6" y="138.389185" style="stroke: #000000; stroke-width: 0.8"/>
      </g>
     </g>
     <g id="text_11">
      <!-- 80 -->
      <g transform="translate(37.875 142.188404) scale(0.1 -0.1)">
       <use xlink:href="#DejaVuSans-38"/>
       <use xlink:href="#DejaVuSans-30" x="63.623047"/>
      </g>
     </g>
    </g>
    <g id="ytick_5">
     <g id="line2d_11">
      <g>
       <use xlink:href="#m67e197b8cf" x="57.6" y="95.978592" style="stroke: #000000; stroke-width: 0.8"/>
      </g>
     </g>
     <g id="text_12">
      <!-- 90 -->
      <g transform="translate(37.875 99.777811) scale(0.1 -0.1)">
       <defs>
        <path id="DejaVuSans-39" d="M 703 97 
L 703 672 
Q 941 559 1184 500 
Q 1428 441 1663 441 
Q 2288 441 2617 861 
Q 2947 1281 2994 2138 
Q 2813 1869 2534 1725 
Q 2256 1581 1919 1581 
Q 1219 1581 811 2004 
Q 403 2428 403 3163 
Q 403 3881 828 4315 
Q 1253 4750 1959 4750 
Q 2769 4750 3195 4129 
Q 3622 3509 3622 2328 
Q 3622 1225 3098 567 
Q 2575 -91 1691 -91 
Q 1453 -91 1209 -44 
Q 966 3 703 97 
z
M 1959 2075 
Q 2384 2075 2632 2365 
Q 2881 2656 2881 3163 
Q 2881 3666 2632 3958 
Q 2384 4250 1959 4250 
Q 1534 4250 1286 3958 
Q 1038 3666 1038 3163 
Q 1038 2656 1286 2365 
Q 1534 2075 1959 2075 
z
" transform="scale(0.015625)"/>
       </defs>
       <use xlink:href="#DejaVuSans-39"/>
       <use xlink:href="#DejaVuSans-30" x="63.623047"/>
      </g>
     </g>
    </g>
    <g id="ytick_6">
     <g id="line2d_12">
      <g>
       <use xlink:href="#m67e197b8cf" x="57.6" y="53.568" style="stroke: #000000; stroke-width: 0.8"/>
      </g>
     </g>
     <g id="text_13">
      <!-- 100 -->
      <g transform="translate(31.5125 57.367219) scale(0.1 -0.1)">
       <use xlink:href="#DejaVuSans-31"/>
       <use xlink:href="#DejaVuSans-30" x="63.623047"/>
       <use xlink:href="#DejaVuSans-30" x="127.246094"/>
      </g>
     </g>
    </g>
    <g id="text_14">
     <!-- Temperature [ºC] -->
     <g transform="translate(25.432812 217.535812) rotate(-90) scale(0.1 -0.1)">
      <defs>
       <path id="DejaVuSans-54" d="M -19 4666 
L 3928 4666 
L 3928 4134 
L 2272 4134 
L 2272 0 
L 1638 0 
L 1638 4134 
L -19 4134 
L -19 4666 
z
" transform="scale(0.015625)"/>
       <path id="DejaVuSans-70" d="M 1159 525 
L 1159 -1331 
L 581 -1331 
L 581 3500 
L 1159 3500 
L 1159 2969 
Q 1341 3281 1617 3432 
Q 1894 3584 2278 3584 
Q 2916 3584 3314 3078 
Q 3713 2572 3713 1747 
Q 3713 922 3314 415 
Q 2916 -91 2278 -91 
Q 1894 -91 1617 61 
Q 1341 213 1159 525 
z
M 3116 1747 
Q 3116 2381 2855 2742 
Q 2594 3103 2138 3103 
Q 1681 3103 1420 2742 
Q 1159 2381 1159 1747 
Q 1159 1113 1420 752 
Q 1681 391 2138 391 
Q 2594 391 2855 752 
Q 3116 1113 3116 1747 
z
" transform="scale(0.015625)"/>
       <path id="DejaVuSans-72" d="M 2631 2963 
Q 2534 3019 2420 3045 
Q 2306 3072 2169 3072 
Q 1681 3072 1420 2755 
Q 1159 2438 1159 1844 
L 1159 0 
L 581 0 
L 581 3500 
L 1159 3500 
L 1159 2956 
Q 1341 3275 1631 3429 
Q 1922 3584 2338 3584 
Q 2397 3584 2469 3576 
Q 2541 3569 2628 3553 
L 2631 2963 
z
" transform="scale(0.015625)"/>
       <path id="DejaVuSans-75" d="M 544 1381 
L 544 3500 
L 1119 3500 
L 1119 1403 
Q 1119 906 1312 657 
Q 1506 409 1894 409 
Q 2359 409 2629 706 
Q 2900 1003 2900 1516 
L 2900 3500 
L 3475 3500 
L 3475 0 
L 2900 0 
L 2900 538 
Q 2691 219 2414 64 
Q 2138 -91 1772 -91 
Q 1169 -91 856 284 
Q 544 659 544 1381 
z
M 1991 3584 
L 1991 3584 
z
" transform="scale(0.015625)"/>
       <path id="DejaVuSans-ba" d="M 434 1850 
L 2584 1850 
L 2584 1466 
L 434 1466 
L 434 1850 
z
M 1509 4750 
Q 2069 4750 2391 4404 
Q 2713 4059 2713 3463 
Q 2713 2866 2391 2523 
Q 2069 2181 1509 2181 
Q 950 2181 625 2525 
Q 300 2869 300 3463 
Q 300 4059 625 4404 
Q 950 4750 1509 4750 
z
M 1509 4391 
Q 1181 4391 984 4139 
Q 788 3888 788 3463 
Q 788 3047 986 2797 
Q 1184 2547 1509 2547 
Q 1838 2547 2033 2797 
Q 2228 3047 2228 3463 
Q 2228 3891 2034 4141 
Q 1841 4391 1509 4391 
z
" transform="scale(0.015625)"/>
       <path id="DejaVuSans-43" d="M 4122 4306 
L 4122 3641 
Q 3803 3938 3442 4084 
Q 3081 4231 2675 4231 
Q 1875 4231 1450 3742 
Q 1025 3253 1025 2328 
Q 1025 1406 1450 917 
Q 1875 428 2675 428 
Q 3081 428 3442 575 
Q 3803 722 4122 1019 
L 4122 359 
Q 3791 134 3420 21 
Q 3050 -91 2638 -91 
Q 1578 -91 968 557 
Q 359 1206 359 2328 
Q 359 3453 968 4101 
Q 1578 4750 2638 4750 
Q 3056 4750 3426 4639 
Q 3797 4528 4122 4306 
z
" transform="scale(0.015625)"/>
      </defs>
      <use xlink:href="#DejaVuSans-54"/>
      <use xlink:href="#DejaVuSans-65" x="44.083984"/>
      <use xlink:href="#DejaVuSans-6d" x="105.607422"/>
      <use xlink:href="#DejaVuSans-70" x="203.019531"/>
      <use xlink:href="#DejaVuSans-65" x="266.496094"/>
      <use xlink:href="#DejaVuSans-72" x="328.019531"/>
      <use xlink:href="#DejaVuSans-61" x="369.132812"/>
      <use xlink:href="#DejaVuSans-74" x="430.412109"/>
      <use xlink:href="#DejaVuSans-75" x="469.621094"/>
      <use xlink:href="#DejaVuSans-72" x="533"/>
      <use xlink:href="#DejaVuSans-65" x="571.863281"/>
      <use xlink:href="#DejaVuSans-20" x="633.386719"/>
      <use xlink:href="#DejaVuSans-5b" x="665.173828"/>
      <use xlink:href="#DejaVuSans-ba" x="704.1875"/>
      <use xlink:href="#DejaVuSans-43" x="751.306641"/>
      <use xlink:href="#DejaVuSans-5d" x="821.130859"/>
     </g>
    </g>
   </g>
   <g id="line2d_13">
    <path d="M 73.832727 53.568 
L 77.112066 56.799463 
L 80.391405 59.977491 
L 83.670744 63.102587 
L 86.950083 66.17525 
L 90.229421 69.195968 
L 93.50876 72.165221 
L 96.788099 75.083482 
L 100.067438 77.951213 
L 103.346777 80.768872 
L 106.626116 83.536906 
L 109.905455 86.255756 
L 113.184793 88.925854 
L 116.464132 91.547624 
L 119.743471 94.121484 
L 123.02281 96.647842 
L 126.302149 99.1271 
L 129.581488 101.559653 
L 132.860826 103.945887 
L 136.140165 106.286182 
L 139.419504 108.58091 
L 142.698843 110.830436 
L 145.978182 113.035117 
L 149.257521 115.195304 
L 152.53686 117.311341 
L 155.816198 119.383563 
L 159.095537 121.412302 
L 162.374876 123.397878 
L 165.654215 125.340608 
L 168.933554 127.240801 
L 172.212893 129.098759 
L 175.492231 130.914777 
L 178.77157 132.689145 
L 182.050909 134.422143 
L 185.330248 136.114049 
L 188.609587 137.76513 
L 191.888926 139.37565 
L 195.168264 140.945864 
L 198.447603 142.476022 
L 201.726942 143.966368 
L 205.006281 145.417138 
L 208.28562 146.828563 
L 211.564959 148.200868 
L 214.844298 149.534271 
L 218.123636 150.828983 
L 221.402975 152.085211 
L 224.682314 153.303155 
L 227.961653 154.483007 
L 231.240992 155.624957 
L 234.520331 156.729184 
L 237.799669 157.795866 
L 241.079008 158.825171 
L 244.358347 159.817263 
L 247.637686 160.7723 
L 250.917025 161.690434 
L 254.196364 162.57181 
L 257.475702 163.41657 
L 260.755041 164.224846 
L 264.03438 164.996769 
L 267.313719 165.73246 
L 270.593058 166.432036 
L 273.872397 167.095609 
L 277.151736 167.723285 
L 280.431074 168.315162 
L 283.710413 168.871336 
L 286.989752 169.391894 
L 290.269091 169.87692 
L 293.54843 170.32649 
L 296.827769 170.740676 
L 300.107107 171.119544 
L 303.386446 171.463154 
L 306.665785 171.77156 
L 309.945124 172.044813 
L 313.224463 172.282954 
L 316.503802 172.486023 
L 319.78314 172.654051 
L 323.062479 172.787066 
L 326.341818 172.885087 
L 329.621157 172.948131 
L 332.900496 172.976208 
L 336.179835 172.969323 
L 339.459174 172.927474 
L 342.738512 172.850654 
L 346.017851 172.738852 
L 349.29719 172.592049 
L 352.576529 172.410222 
L 355.855868 172.193343 
L 359.135207 171.941376 
L 362.414545 171.654283 
L 365.693884 171.332016 
L 368.973223 170.974525 
L 372.252562 170.581754 
L 375.531901 170.153639 
L 378.81124 169.690112 
L 382.090579 169.1911 
L 385.369917 168.656524 
L 388.649256 168.086298 
L 391.928595 167.480332 
L 395.207934 166.838529 
L 398.487273 166.160788 
" clip-path="url(#p2eba68c4af)" style="fill: none; stroke: #1f77b4; stroke-width: 1.5; stroke-linecap: square"/>
   </g>
   <g id="line2d_14">
    <path d="M 73.832727 53.568 
L 77.112066 57.798312 
L 80.391405 61.975346 
L 83.670744 66.099767 
L 86.950083 70.172232 
L 90.229421 74.193386 
L 93.50876 78.163871 
L 96.788099 82.084316 
L 100.067438 85.955347 
L 103.346777 89.777577 
L 106.626116 93.551615 
L 109.905455 97.278061 
L 113.184793 100.957508 
L 116.464132 104.59054 
L 119.743471 108.177735 
L 123.02281 111.719665 
L 126.302149 115.216891 
L 129.581488 118.66997 
L 132.860826 122.079451 
L 136.140165 125.445876 
L 139.419504 128.769781 
L 142.698843 132.051693 
L 145.978182 135.292136 
L 149.257521 138.491624 
L 152.53686 141.650665 
L 155.816198 144.769763 
L 159.095537 147.849414 
L 162.374876 150.890106 
L 165.654215 153.892323 
L 168.933554 156.856543 
L 172.212893 159.783237 
L 175.492231 162.672871 
L 178.77157 165.525904 
L 182.050909 168.342789 
L 185.330248 171.123975 
L 188.609587 173.869904 
L 191.888926 176.581012 
L 195.168264 179.257731 
L 198.447603 181.900486 
L 201.726942 184.509697 
L 205.006281 187.08578 
L 208.28562 189.629143 
L 211.564959 192.140192 
L 214.844298 194.619325 
L 218.123636 197.066937 
L 221.402975 199.483417 
L 224.682314 201.869149 
L 227.961653 204.224513 
L 231.240992 206.549883 
L 234.520331 208.845629 
L 237.799669 211.112116 
L 241.079008 213.349704 
L 244.358347 215.55875 
L 247.637686 217.739603 
L 250.917025 219.892612 
L 254.196364 222.018118 
L 257.475702 224.11646 
L 260.755041 226.187971 
L 264.03438 228.232981 
L 267.313719 230.251814 
L 270.593058 232.244792 
L 273.872397 234.212232 
L 277.151736 236.154446 
L 280.431074 238.071744 
L 283.710413 239.964429 
L 286.989752 241.832804 
L 290.269091 243.677165 
L 293.54843 245.497806 
L 296.827769 247.295015 
L 300.107107 249.06908 
L 303.386446 250.820281 
L 306.665785 252.548898 
L 309.945124 254.255204 
L 313.224463 255.939473 
L 316.503802 257.601971 
L 319.78314 259.242962 
L 323.062479 260.862708 
L 326.341818 262.461466 
L 329.621157 264.039491 
L 332.900496 265.597033 
L 336.179835 267.13434 
L 339.459174 268.651656 
L 342.738512 270.149224 
L 346.017851 271.62728 
L 349.29719 273.086059 
L 352.576529 274.525795 
L 355.855868 275.946716 
L 359.135207 277.349047 
L 362.414545 278.733012 
L 365.693884 280.09883 
L 368.973223 281.44672 
L 372.252562 282.776895 
L 375.531901 284.089567 
L 378.81124 285.384944 
L 382.090579 286.663232 
L 385.369917 287.924636 
L 388.649256 289.169355 
L 391.928595 290.397587 
L 395.207934 291.609527 
L 398.487273 292.805369 
" clip-path="url(#p2eba68c4af)" style="fill: none; stroke: #ff7f0e; stroke-width: 1.5; stroke-linecap: square"/>
   </g>
   <g id="line2d_15">
    <path d="M 73.832727 53.568 
L 77.112066 57.819469 
L 80.391405 62.017663 
L 83.670744 66.163252 
L 86.950083 70.256893 
L 90.229421 74.299239 
L 93.50876 78.290931 
L 96.788099 82.232604 
L 100.067438 86.124885 
L 103.346777 89.968394 
L 106.626116 93.763741 
L 109.905455 97.511529 
L 113.184793 101.212355 
L 116.464132 104.866807 
L 119.743471 108.475466 
L 123.02281 112.038907 
L 126.302149 115.557695 
L 129.581488 119.03239 
L 132.860826 122.463545 
L 136.140165 125.851705 
L 139.419504 129.197409 
L 142.698843 132.501189 
L 145.978182 135.763571 
L 149.257521 138.985072 
L 152.53686 142.166206 
L 155.816198 145.307479 
L 159.095537 148.409388 
L 162.374876 151.472429 
L 165.654215 154.497088 
L 168.933554 157.483846 
L 172.212893 160.433178 
L 175.492231 163.345552 
L 178.77157 166.221432 
L 182.050909 169.061276 
L 185.330248 171.865535 
L 188.609587 174.634654 
L 191.888926 177.369074 
L 195.168264 180.06923 
L 198.447603 182.735551 
L 201.726942 185.368461 
L 205.006281 187.96838 
L 208.28562 190.535719 
L 211.564959 193.070888 
L 214.844298 195.574289 
L 218.123636 198.046321 
L 221.402975 200.487377 
L 224.682314 202.897845 
L 227.961653 205.278108 
L 231.240992 207.628544 
L 234.520331 209.949528 
L 237.799669 212.241429 
L 241.079008 214.50461 
L 244.358347 216.739432 
L 247.637686 218.94625 
L 250.917025 221.125415 
L 254.196364 223.277274 
L 257.475702 225.402169 
L 260.755041 227.500437 
L 264.03438 229.572412 
L 267.313719 231.618424 
L 270.593058 233.638798 
L 273.872397 235.633856 
L 277.151736 237.603914 
L 280.431074 239.549285 
L 283.710413 241.47028 
L 286.989752 243.367204 
L 290.269091 245.240357 
L 293.54843 247.090039 
L 296.827769 248.916543 
L 300.107107 250.72016 
L 303.386446 252.501176 
L 306.665785 254.259874 
L 309.945124 255.996535 
L 313.224463 257.711435 
L 316.503802 259.404845 
L 319.78314 261.077036 
L 323.062479 262.728273 
L 326.341818 264.358819 
L 329.621157 265.968933 
L 332.900496 267.558871 
L 336.179835 269.128886 
L 339.459174 270.679228 
L 342.738512 272.210143 
L 346.017851 273.721874 
L 349.29719 275.214663 
L 352.576529 276.688746 
L 355.855868 278.144357 
L 359.135207 279.581728 
L 362.414545 281.001089 
L 365.693884 282.402663 
L 368.973223 283.786675 
L 372.252562 285.153345 
L 375.531901 286.502889 
L 378.81124 287.835522 
L 382.090579 289.151456 
L 385.369917 290.450901 
L 388.649256 291.734063 
L 391.928595 293.001146 
L 395.207934 294.252351 
L 398.487273 295.487878 
" clip-path="url(#p2eba68c4af)" style="fill: none; stroke: #2ca02c; stroke-width: 1.5; stroke-linecap: square"/>
   </g>
   <g id="line2d_16">
    <path d="M 73.832727 53.568 
L 77.112066 57.81947 
L 80.391405 62.017665 
L 83.670744 66.163255 
L 86.950083 70.256897 
L 90.229421 74.299243 
L 93.50876 78.290936 
L 96.788099 82.232611 
L 100.067438 86.124893 
L 103.346777 89.968403 
L 106.626116 93.76375 
L 109.905455 97.51154 
L 113.184793 101.212367 
L 116.464132 104.86682 
L 119.743471 108.47548 
L 123.02281 112.038921 
L 126.302149 115.55771 
L 129.581488 119.032406 
L 132.860826 122.463562 
L 136.140165 125.851723 
L 139.419504 129.197428 
L 142.698843 132.50121 
L 145.978182 135.763592 
L 149.257521 138.985095 
L 152.53686 142.16623 
L 155.816198 145.307503 
L 159.095537 148.409414 
L 162.374876 151.472456 
L 165.654215 154.497116 
L 168.933554 157.483874 
L 172.212893 160.433207 
L 175.492231 163.345583 
L 178.77157 166.221464 
L 182.050909 169.061309 
L 185.330248 171.865568 
L 188.609587 174.634688 
L 191.888926 177.36911 
L 195.168264 180.069267 
L 198.447603 182.735589 
L 201.726942 185.368501 
L 205.006281 187.96842 
L 208.28562 190.53576 
L 211.564959 193.07093 
L 214.844298 195.574333 
L 218.123636 198.046366 
L 221.402975 200.487423 
L 224.682314 202.897892 
L 227.961653 205.278156 
L 231.240992 207.628593 
L 234.520331 209.949578 
L 237.799669 212.24148 
L 241.079008 214.504663 
L 244.358347 216.739486 
L 247.637686 218.946305 
L 250.917025 221.125472 
L 254.196364 223.277332 
L 257.475702 225.402227 
L 260.755041 227.500497 
L 264.03438 229.572473 
L 267.313719 231.618486 
L 270.593058 233.638862 
L 273.872397 235.63392 
L 277.151736 237.60398 
L 280.431074 239.549353 
L 283.710413 241.470349 
L 286.989752 243.367274 
L 290.269091 245.240429 
L 293.54843 247.090112 
L 296.827769 248.916617 
L 300.107107 250.720235 
L 303.386446 252.501252 
L 306.665785 254.259952 
L 309.945124 255.996615 
L 313.224463 257.711515 
L 316.503802 259.404927 
L 319.78314 261.077119 
L 323.062479 262.728358 
L 326.341818 264.358905 
L 329.621157 265.969021 
L 332.900496 267.558961 
L 336.179835 269.128977 
L 339.459174 270.67932 
L 342.738512 272.210237 
L 346.017851 273.72197 
L 349.29719 275.21476 
L 352.576529 276.688844 
L 355.855868 278.144457 
L 359.135207 279.58183 
L 362.414545 281.001192 
L 365.693884 282.402768 
L 368.973223 283.786782 
L 372.252562 285.153453 
L 375.531901 286.502998 
L 378.81124 287.835633 
L 382.090579 289.151569 
L 385.369917 290.451016 
L 388.649256 291.734179 
L 391.928595 293.001264 
L 395.207934 294.252471 
L 398.487273 295.488 
" clip-path="url(#p2eba68c4af)" style="fill: none; stroke: #d62728; stroke-width: 1.5; stroke-linecap: square"/>
   </g>
   <g id="patch_3">
    <path d="M 57.6 307.584 
L 57.6 41.472 
" style="fill: none; stroke: #000000; stroke-width: 0.8; stroke-linejoin: miter; stroke-linecap: square"/>
   </g>
   <g id="patch_4">
    <path d="M 414.72 307.584 
L 414.72 41.472 
" style="fill: none; stroke: #000000; stroke-width: 0.8; stroke-linejoin: miter; stroke-linecap: square"/>
   </g>
   <g id="patch_5">
    <path d="M 57.6 307.584 
L 414.72 307.584 
" style="fill: none; stroke: #000000; stroke-width: 0.8; stroke-linejoin: miter; stroke-linecap: square"/>
   </g>
   <g id="patch_6">
    <path d="M 57.6 41.472 
L 414.72 41.472 
" style="fill: none; stroke: #000000; stroke-width: 0.8; stroke-linejoin: miter; stroke-linecap: square"/>
   </g>
   <g id="text_15">
    <!-- Adiabatic, Convective and Infinite borders. -->
    <g transform="translate(108.20625 35.472) scale(0.12 -0.12)">
     <defs>
      <path id="DejaVuSans-41" d="M 2188 4044 
L 1331 1722 
L 3047 1722 
L 2188 4044 
z
M 1831 4666 
L 2547 4666 
L 4325 0 
L 3669 0 
L 3244 1197 
L 1141 1197 
L 716 0 
L 50 0 
L 1831 4666 
z
" transform="scale(0.015625)"/>
      <path id="DejaVuSans-64" d="M 2906 2969 
L 2906 4863 
L 3481 4863 
L 3481 0 
L 2906 0 
L 2906 525 
Q 2725 213 2448 61 
Q 2172 -91 1784 -91 
Q 1150 -91 751 415 
Q 353 922 353 1747 
Q 353 2572 751 3078 
Q 1150 3584 1784 3584 
Q 2172 3584 2448 3432 
Q 2725 3281 2906 2969 
z
M 947 1747 
Q 947 1113 1208 752 
Q 1469 391 1925 391 
Q 2381 391 2643 752 
Q 2906 1113 2906 1747 
Q 2906 2381 2643 2742 
Q 2381 3103 1925 3103 
Q 1469 3103 1208 2742 
Q 947 2381 947 1747 
z
" transform="scale(0.015625)"/>
      <path id="DejaVuSans-62" d="M 3116 1747 
Q 3116 2381 2855 2742 
Q 2594 3103 2138 3103 
Q 1681 3103 1420 2742 
Q 1159 2381 1159 1747 
Q 1159 1113 1420 752 
Q 1681 391 2138 391 
Q 2594 391 2855 752 
Q 3116 1113 3116 1747 
z
M 1159 2969 
Q 1341 3281 1617 3432 
Q 1894 3584 2278 3584 
Q 2916 3584 3314 3078 
Q 3713 2572 3713 1747 
Q 3713 922 3314 415 
Q 2916 -91 2278 -91 
Q 1894 -91 1617 61 
Q 1341 213 1159 525 
L 1159 0 
L 581 0 
L 581 4863 
L 1159 4863 
L 1159 2969 
z
" transform="scale(0.015625)"/>
      <path id="DejaVuSans-2c" d="M 750 794 
L 1409 794 
L 1409 256 
L 897 -744 
L 494 -744 
L 750 256 
L 750 794 
z
" transform="scale(0.015625)"/>
      <path id="DejaVuSans-6f" d="M 1959 3097 
Q 1497 3097 1228 2736 
Q 959 2375 959 1747 
Q 959 1119 1226 758 
Q 1494 397 1959 397 
Q 2419 397 2687 759 
Q 2956 1122 2956 1747 
Q 2956 2369 2687 2733 
Q 2419 3097 1959 3097 
z
M 1959 3584 
Q 2709 3584 3137 3096 
Q 3566 2609 3566 1747 
Q 3566 888 3137 398 
Q 2709 -91 1959 -91 
Q 1206 -91 779 398 
Q 353 888 353 1747 
Q 353 2609 779 3096 
Q 1206 3584 1959 3584 
z
" transform="scale(0.015625)"/>
      <path id="DejaVuSans-76" d="M 191 3500 
L 800 3500 
L 1894 563 
L 2988 3500 
L 3597 3500 
L 2284 0 
L 1503 0 
L 191 3500 
z
" transform="scale(0.015625)"/>
      <path id="DejaVuSans-49" d="M 628 4666 
L 1259 4666 
L 1259 0 
L 628 0 
L 628 4666 
z
" transform="scale(0.015625)"/>
      <path id="DejaVuSans-66" d="M 2375 4863 
L 2375 4384 
L 1825 4384 
Q 1516 4384 1395 4259 
Q 1275 4134 1275 3809 
L 1275 3500 
L 2222 3500 
L 2222 3053 
L 1275 3053 
L 1275 0 
L 697 0 
L 697 3053 
L 147 3053 
L 147 3500 
L 697 3500 
L 697 3744 
Q 697 4328 969 4595 
Q 1241 4863 1831 4863 
L 2375 4863 
z
" transform="scale(0.015625)"/>
     </defs>
     <use xlink:href="#DejaVuSans-41"/>
     <use xlink:href="#DejaVuSans-64" x="66.658203"/>
     <use xlink:href="#DejaVuSans-69" x="130.134766"/>
     <use xlink:href="#DejaVuSans-61" x="157.917969"/>
     <use xlink:href="#DejaVuSans-62" x="219.197266"/>
     <use xlink:href="#DejaVuSans-61" x="282.673828"/>
     <use xlink:href="#DejaVuSans-74" x="343.953125"/>
     <use xlink:href="#DejaVuSans-69" x="383.162109"/>
     <use xlink:href="#DejaVuSans-63" x="410.945312"/>
     <use xlink:href="#DejaVuSans-2c" x="465.925781"/>
     <use xlink:href="#DejaVuSans-20" x="497.712891"/>
     <use xlink:href="#DejaVuSans-43" x="529.5"/>
     <use xlink:href="#DejaVuSans-6f" x="599.324219"/>
     <use xlink:href="#DejaVuSans-6e" x="660.505859"/>
     <use xlink:href="#DejaVuSans-76" x="723.884766"/>
     <use xlink:href="#DejaVuSans-65" x="783.064453"/>
     <use xlink:href="#DejaVuSans-63" x="844.587891"/>
     <use xlink:href="#DejaVuSans-74" x="899.568359"/>
     <use xlink:href="#DejaVuSans-69" x="938.777344"/>
     <use xlink:href="#DejaVuSans-76" x="966.560547"/>
     <use xlink:href="#DejaVuSans-65" x="1025.740234"/>
     <use xlink:href="#DejaVuSans-20" x="1087.263672"/>
     <use xlink:href="#DejaVuSans-61" x="1119.050781"/>
     <use xlink:href="#DejaVuSans-6e" x="1180.330078"/>
     <use xlink:href="#DejaVuSans-64" x="1243.708984"/>
     <use xlink:href="#DejaVuSans-20" x="1307.185547"/>
     <use xlink:href="#DejaVuSans-49" x="1338.972656"/>
     <use xlink:href="#DejaVuSans-6e" x="1368.464844"/>
     <use xlink:href="#DejaVuSans-66" x="1431.84375"/>
     <use xlink:href="#DejaVuSans-69" x="1467.048828"/>
     <use xlink:href="#DejaVuSans-6e" x="1494.832031"/>
     <use xlink:href="#DejaVuSans-69" x="1558.210938"/>
     <use xlink:href="#DejaVuSans-74" x="1585.994141"/>
     <use xlink:href="#DejaVuSans-65" x="1625.203125"/>
     <use xlink:href="#DejaVuSans-20" x="1686.726562"/>
     <use xlink:href="#DejaVuSans-62" x="1718.513672"/>
     <use xlink:href="#DejaVuSans-6f" x="1781.990234"/>
     <use xlink:href="#DejaVuSans-72" x="1843.171875"/>
     <use xlink:href="#DejaVuSans-64" x="1882.535156"/>
     <use xlink:href="#DejaVuSans-65" x="1946.011719"/>
     <use xlink:href="#DejaVuSans-72" x="2007.535156"/>
     <use xlink:href="#DejaVuSans-73" x="2048.648438"/>
     <use xlink:href="#DejaVuSans-2e" x="2100.748047"/>
    </g>
   </g>
   <g id="legend_1">
    <g id="patch_7">
     <path d="M 219.152812 109.472 
L 407.72 109.472 
Q 409.72 109.472 409.72 107.472 
L 409.72 48.472 
Q 409.72 46.472 407.72 46.472 
L 219.152812 46.472 
Q 217.152812 46.472 217.152812 48.472 
L 217.152812 107.472 
Q 217.152812 109.472 219.152812 109.472 
z
" style="fill: #ffffff; opacity: 0.8; stroke: #cccccc; stroke-linejoin: miter"/>
    </g>
    <g id="line2d_17">
     <path d="M 221.152812 54.614188 
L 231.152812 54.614188 
L 241.152812 54.614188 
" style="fill: none; stroke: #1f77b4; stroke-width: 1.5; stroke-linecap: square"/>
    </g>
    <g id="text_16">
     <!-- Adiabatic Hypothesis | mL = 1 -->
     <g transform="translate(249.152812 58.114188) scale(0.1 -0.1)">
      <defs>
       <path id="DejaVuSans-48" d="M 628 4666 
L 1259 4666 
L 1259 2753 
L 3553 2753 
L 3553 4666 
L 4184 4666 
L 4184 0 
L 3553 0 
L 3553 2222 
L 1259 2222 
L 1259 0 
L 628 0 
L 628 4666 
z
" transform="scale(0.015625)"/>
       <path id="DejaVuSans-79" d="M 2059 -325 
Q 1816 -950 1584 -1140 
Q 1353 -1331 966 -1331 
L 506 -1331 
L 506 -850 
L 844 -850 
Q 1081 -850 1212 -737 
Q 1344 -625 1503 -206 
L 1606 56 
L 191 3500 
L 800 3500 
L 1894 763 
L 2988 3500 
L 3597 3500 
L 2059 -325 
z
" transform="scale(0.015625)"/>
       <path id="DejaVuSans-68" d="M 3513 2113 
L 3513 0 
L 2938 0 
L 2938 2094 
Q 2938 2591 2744 2837 
Q 2550 3084 2163 3084 
Q 1697 3084 1428 2787 
Q 1159 2491 1159 1978 
L 1159 0 
L 581 0 
L 581 4863 
L 1159 4863 
L 1159 2956 
Q 1366 3272 1645 3428 
Q 1925 3584 2291 3584 
Q 2894 3584 3203 3211 
Q 3513 2838 3513 2113 
z
" transform="scale(0.015625)"/>
       <path id="DejaVuSans-7c" d="M 1344 4891 
L 1344 -1509 
L 813 -1509 
L 813 4891 
L 1344 4891 
z
" transform="scale(0.015625)"/>
       <path id="DejaVuSans-4c" d="M 628 4666 
L 1259 4666 
L 1259 531 
L 3531 531 
L 3531 0 
L 628 0 
L 628 4666 
z
" transform="scale(0.015625)"/>
       <path id="DejaVuSans-3d" d="M 678 2906 
L 4684 2906 
L 4684 2381 
L 678 2381 
L 678 2906 
z
M 678 1631 
L 4684 1631 
L 4684 1100 
L 678 1100 
L 678 1631 
z
" transform="scale(0.015625)"/>
      </defs>
      <use xlink:href="#DejaVuSans-41"/>
      <use xlink:href="#DejaVuSans-64" x="66.658203"/>
      <use xlink:href="#DejaVuSans-69" x="130.134766"/>
      <use xlink:href="#DejaVuSans-61" x="157.917969"/>
      <use xlink:href="#DejaVuSans-62" x="219.197266"/>
      <use xlink:href="#DejaVuSans-61" x="282.673828"/>
      <use xlink:href="#DejaVuSans-74" x="343.953125"/>
      <use xlink:href="#DejaVuSans-69" x="383.162109"/>
      <use xlink:href="#DejaVuSans-63" x="410.945312"/>
      <use xlink:href="#DejaVuSans-20" x="465.925781"/>
      <use xlink:href="#DejaVuSans-48" x="497.712891"/>
      <use xlink:href="#DejaVuSans-79" x="572.908203"/>
      <use xlink:href="#DejaVuSans-70" x="632.087891"/>
      <use xlink:href="#DejaVuSans-6f" x="695.564453"/>
      <use xlink:href="#DejaVuSans-74" x="756.746094"/>
      <use xlink:href="#DejaVuSans-68" x="795.955078"/>
      <use xlink:href="#DejaVuSans-65" x="859.333984"/>
      <use xlink:href="#DejaVuSans-73" x="920.857422"/>
      <use xlink:href="#DejaVuSans-69" x="972.957031"/>
      <use xlink:href="#DejaVuSans-73" x="1000.740234"/>
      <use xlink:href="#DejaVuSans-20" x="1052.839844"/>
      <use xlink:href="#DejaVuSans-7c" x="1084.626953"/>
      <use xlink:href="#DejaVuSans-20" x="1118.318359"/>
      <use xlink:href="#DejaVuSans-6d" x="1150.105469"/>
      <use xlink:href="#DejaVuSans-4c" x="1247.517578"/>
      <use xlink:href="#DejaVuSans-20" x="1303.230469"/>
      <use xlink:href="#DejaVuSans-3d" x="1335.017578"/>
      <use xlink:href="#DejaVuSans-20" x="1418.806641"/>
      <use xlink:href="#DejaVuSans-31" x="1450.59375"/>
     </g>
    </g>
    <g id="line2d_18">
     <path d="M 221.152812 69.614188 
L 231.152812 69.614188 
L 241.152812 69.614188 
" style="fill: none; stroke: #ff7f0e; stroke-width: 1.5; stroke-linecap: square"/>
    </g>
    <g id="text_17">
     <!-- Adiabatic Hypothesis | mL = 2 -->
     <g transform="translate(249.152812 73.114188) scale(0.1 -0.1)">
      <use xlink:href="#DejaVuSans-41"/>
      <use xlink:href="#DejaVuSans-64" x="66.658203"/>
      <use xlink:href="#DejaVuSans-69" x="130.134766"/>
      <use xlink:href="#DejaVuSans-61" x="157.917969"/>
      <use xlink:href="#DejaVuSans-62" x="219.197266"/>
      <use xlink:href="#DejaVuSans-61" x="282.673828"/>
      <use xlink:href="#DejaVuSans-74" x="343.953125"/>
      <use xlink:href="#DejaVuSans-69" x="383.162109"/>
      <use xlink:href="#DejaVuSans-63" x="410.945312"/>
      <use xlink:href="#DejaVuSans-20" x="465.925781"/>
      <use xlink:href="#DejaVuSans-48" x="497.712891"/>
      <use xlink:href="#DejaVuSans-79" x="572.908203"/>
      <use xlink:href="#DejaVuSans-70" x="632.087891"/>
      <use xlink:href="#DejaVuSans-6f" x="695.564453"/>
      <use xlink:href="#DejaVuSans-74" x="756.746094"/>
      <use xlink:href="#DejaVuSans-68" x="795.955078"/>
      <use xlink:href="#DejaVuSans-65" x="859.333984"/>
      <use xlink:href="#DejaVuSans-73" x="920.857422"/>
      <use xlink:href="#DejaVuSans-69" x="972.957031"/>
      <use xlink:href="#DejaVuSans-73" x="1000.740234"/>
      <use xlink:href="#DejaVuSans-20" x="1052.839844"/>
      <use xlink:href="#DejaVuSans-7c" x="1084.626953"/>
      <use xlink:href="#DejaVuSans-20" x="1118.318359"/>
      <use xlink:href="#DejaVuSans-6d" x="1150.105469"/>
      <use xlink:href="#DejaVuSans-4c" x="1247.517578"/>
      <use xlink:href="#DejaVuSans-20" x="1303.230469"/>
      <use xlink:href="#DejaVuSans-3d" x="1335.017578"/>
      <use xlink:href="#DejaVuSans-20" x="1418.806641"/>
      <use xlink:href="#DejaVuSans-32" x="1450.59375"/>
     </g>
    </g>
    <g id="line2d_19">
     <path d="M 221.152812 84.614188 
L 231.152812 84.614188 
L 241.152812 84.614188 
" style="fill: none; stroke: #2ca02c; stroke-width: 1.5; stroke-linecap: square"/>
    </g>
    <g id="text_18">
     <!-- Adiabatic Hypothesis | mL = 8 -->
     <g transform="translate(249.152812 88.114188) scale(0.1 -0.1)">
      <use xlink:href="#DejaVuSans-41"/>
      <use xlink:href="#DejaVuSans-64" x="66.658203"/>
      <use xlink:href="#DejaVuSans-69" x="130.134766"/>
      <use xlink:href="#DejaVuSans-61" x="157.917969"/>
      <use xlink:href="#DejaVuSans-62" x="219.197266"/>
      <use xlink:href="#DejaVuSans-61" x="282.673828"/>
      <use xlink:href="#DejaVuSans-74" x="343.953125"/>
      <use xlink:href="#DejaVuSans-69" x="383.162109"/>
      <use xlink:href="#DejaVuSans-63" x="410.945312"/>
      <use xlink:href="#DejaVuSans-20" x="465.925781"/>
      <use xlink:href="#DejaVuSans-48" x="497.712891"/>
      <use xlink:href="#DejaVuSans-79" x="572.908203"/>
      <use xlink:href="#DejaVuSans-70" x="632.087891"/>
      <use xlink:href="#DejaVuSans-6f" x="695.564453"/>
      <use xlink:href="#DejaVuSans-74" x="756.746094"/>
      <use xlink:href="#DejaVuSans-68" x="795.955078"/>
      <use xlink:href="#DejaVuSans-65" x="859.333984"/>
      <use xlink:href="#DejaVuSans-73" x="920.857422"/>
      <use xlink:href="#DejaVuSans-69" x="972.957031"/>
      <use xlink:href="#DejaVuSans-73" x="1000.740234"/>
      <use xlink:href="#DejaVuSans-20" x="1052.839844"/>
      <use xlink:href="#DejaVuSans-7c" x="1084.626953"/>
      <use xlink:href="#DejaVuSans-20" x="1118.318359"/>
      <use xlink:href="#DejaVuSans-6d" x="1150.105469"/>
      <use xlink:href="#DejaVuSans-4c" x="1247.517578"/>
      <use xlink:href="#DejaVuSans-20" x="1303.230469"/>
      <use xlink:href="#DejaVuSans-3d" x="1335.017578"/>
      <use xlink:href="#DejaVuSans-20" x="1418.806641"/>
      <use xlink:href="#DejaVuSans-38" x="1450.59375"/>
     </g>
    </g>
    <g id="line2d_20">
     <path d="M 221.152812 99.614188 
L 231.152812 99.614188 
L 241.152812 99.614188 
" style="fill: none; stroke: #d62728; stroke-width: 1.5; stroke-linecap: square"/>
    </g>
    <g id="text_19">
     <!-- Adiabatic Hypothesis | mL = ∞  -->
     <g transform="translate(249.152812 103.114188) scale(0.1 -0.1)">
      <defs>
       <path id="DejaVuSans-221e" d="M 2916 1091 
Q 2819 1203 2666 1466 
Q 2456 1091 2272 925 
Q 2041 725 1681 725 
Q 1259 725 981 1041 
Q 688 1372 688 1919 
Q 688 2444 981 2800 
Q 1244 3116 1688 3116 
Q 1916 3116 2084 3022 
Q 2281 2919 2416 2741 
Q 2541 2581 2666 2366 
Q 2875 2741 3059 2906 
Q 3291 3106 3650 3106 
Q 4072 3106 4350 2791 
Q 4644 2459 4644 1913 
Q 4644 1388 4350 1031 
Q 4088 716 3644 716 
Q 3416 716 3247 809 
Q 3078 894 2916 1091 
z
M 1647 1134 
Q 2163 1134 2472 1884 
Q 2075 2703 1647 2703 
Q 1334 2703 1175 2478 
Q 1003 2238 1003 1919 
Q 1003 1569 1175 1353 
Q 1350 1134 1647 1134 
z
M 3684 2697 
Q 3219 2697 2859 1947 
Q 3253 1128 3684 1128 
Q 3997 1128 4156 1353 
Q 4328 1594 4328 1913 
Q 4328 2263 4156 2478 
Q 3981 2697 3684 2697 
z
" transform="scale(0.015625)"/>
      </defs>
      <use xlink:href="#DejaVuSans-41"/>
      <use xlink:href="#DejaVuSans-64" x="66.658203"/>
      <use xlink:href="#DejaVuSans-69" x="130.134766"/>
      <use xlink:href="#DejaVuSans-61" x="157.917969"/>
      <use xlink:href="#DejaVuSans-62" x="219.197266"/>
      <use xlink:href="#DejaVuSans-61" x="282.673828"/>
      <use xlink:href="#DejaVuSans-74" x="343.953125"/>
      <use xlink:href="#DejaVuSans-69" x="383.162109"/>
      <use xlink:href="#DejaVuSans-63" x="410.945312"/>
      <use xlink:href="#DejaVuSans-20" x="465.925781"/>
      <use xlink:href="#DejaVuSans-48" x="497.712891"/>
      <use xlink:href="#DejaVuSans-79" x="572.908203"/>
      <use xlink:href="#DejaVuSans-70" x="632.087891"/>
      <use xlink:href="#DejaVuSans-6f" x="695.564453"/>
      <use xlink:href="#DejaVuSans-74" x="756.746094"/>
      <use xlink:href="#DejaVuSans-68" x="795.955078"/>
      <use xlink:href="#DejaVuSans-65" x="859.333984"/>
      <use xlink:href="#DejaVuSans-73" x="920.857422"/>
      <use xlink:href="#DejaVuSans-69" x="972.957031"/>
      <use xlink:href="#DejaVuSans-73" x="1000.740234"/>
      <use xlink:href="#DejaVuSans-20" x="1052.839844"/>
      <use xlink:href="#DejaVuSans-7c" x="1084.626953"/>
      <use xlink:href="#DejaVuSans-20" x="1118.318359"/>
      <use xlink:href="#DejaVuSans-6d" x="1150.105469"/>
      <use xlink:href="#DejaVuSans-4c" x="1247.517578"/>
      <use xlink:href="#DejaVuSans-20" x="1303.230469"/>
      <use xlink:href="#DejaVuSans-3d" x="1335.017578"/>
      <use xlink:href="#DejaVuSans-20" x="1418.806641"/>
      <use xlink:href="#DejaVuSans-221e" x="1450.59375"/>
      <use xlink:href="#DejaVuSans-20" x="1533.894531"/>
     </g>
    </g>
   </g>
  </g>
 </g>
 <defs>
  <clipPath id="p2eba68c4af">
   <rect x="57.6" y="41.472" width="357.12" height="266.112"/>
  </clipPath>
 </defs>
</svg>
